<svg width="113" height="265" viewBox="0 0 113 265" fill="none" xmlns="http://www.w3.org/2000/svg">
<path d="M2.41484 61.0231C1.76221 61.526 1.37988 62.3033 1.37988 63.1272V99.4587C1.37988 101.614 3.81105 102.872 5.57026 101.627L47.4844 71.9705C49.2436 70.7258 51.6748 71.9838 51.6748 74.1388V260.689C51.6748 262.156 52.864 263.346 54.331 263.346H89.108C89.6849 263.346 90.2461 263.158 90.7068 262.811L110.647 247.78C111.313 247.279 111.705 246.493 111.705 245.659V3.98209C111.705 2.51511 110.515 1.32593 109.048 1.32593H80.7948C80.2082 1.32593 79.6382 1.52005 79.1736 1.87808L2.41484 61.0231Z" fill="#38056C"/>
<path d="M0.250977 63.1267V99.4582H2.50874V63.1267H0.250977ZM6.22227 102.548L48.1364 72.8916L46.8324 71.0485L4.91821 100.705L6.22227 102.548ZM50.5459 74.1384V260.689H52.8036V74.1384H50.5459ZM54.331 264.474H89.108V262.216H54.331V264.474ZM91.3863 263.712L111.327 248.681L109.968 246.879L90.0273 261.909L91.3863 263.712ZM112.834 245.659V3.98163H110.576V245.659H112.834ZM109.048 0.196564H80.7948V2.45435H109.048V0.196564ZM78.4845 0.983398L1.72579 60.1284L3.10384 61.9169L79.8626 2.77182L78.4845 0.983398ZM80.7948 0.196564C79.9589 0.196564 79.1466 0.473236 78.4845 0.983398L79.8626 2.77182C80.1297 2.56595 80.4575 2.45435 80.7948 2.45435V0.196564ZM112.834 3.98163C112.834 1.8912 111.139 0.196564 109.048 0.196564V2.45435C109.892 2.45435 110.576 3.13812 110.576 3.98163H112.834ZM111.327 248.681C112.276 247.966 112.834 246.847 112.834 245.659H110.576C110.576 246.138 110.351 246.59 109.968 246.879L111.327 248.681ZM89.108 264.474C89.9301 264.474 90.7298 264.206 91.3863 263.712L90.0273 261.909C89.7624 262.108 89.4397 262.216 89.108 262.216V264.474ZM50.5459 260.689C50.5459 262.779 52.2405 264.474 54.331 264.474V262.216C53.4874 262.216 52.8036 261.532 52.8036 260.689H50.5459ZM48.1364 72.8916C49.148 72.1759 50.5459 72.8992 50.5459 74.1384H52.8036C52.8036 71.0674 49.3392 69.2748 46.8324 71.0485L48.1364 72.8916ZM0.250977 99.4582C0.250977 102.529 3.71539 104.322 6.22227 102.548L4.91821 100.705C3.90666 101.421 2.50874 100.697 2.50874 99.4582H0.250977ZM2.50874 63.1267C2.50874 62.653 2.72857 62.2061 3.10384 61.9169L1.72579 60.1284C0.79579 60.845 0.250977 61.9527 0.250977 63.1267H2.50874Z" fill="#38056C"/>
<path d="M24.0751 44.6637C23.4276 45.1669 23.0488 45.941 23.0488 46.761V83.0961C23.0488 85.2511 25.4799 86.5091 27.2391 85.2645L69.1535 55.6108C70.9127 54.3662 73.3437 55.6242 73.3437 57.7792V244.327C73.3437 245.794 74.533 246.983 75.9999 246.983H109.007C110.474 246.983 111.664 245.794 111.664 244.327V3.98108C111.664 2.51411 110.474 1.32489 109.007 1.32489H80.7552C80.1649 1.32489 79.5914 1.52153 79.1253 1.88374L24.0751 44.6637Z" fill="white"/>
<path d="M21.9209 46.7606V83.0957H24.1776V46.7606H21.9209ZM27.8912 86.1852L69.8055 56.5315L68.5022 54.6893L26.5878 84.3429L27.8912 86.1852ZM72.2158 57.7788V244.326H74.4725V57.7788H72.2158ZM76.0003 248.111H109.008V245.854H76.0003V248.111ZM112.792 244.326V3.98067H110.536V244.326H112.792ZM109.008 0.196152H80.7556V2.45285H109.008V0.196152ZM78.4334 0.992386L23.3832 43.7723L24.7679 45.5542L79.8181 2.77429L78.4334 0.992386ZM80.7556 0.196152C79.9145 0.196152 79.0975 0.476303 78.4334 0.992386L79.8181 2.77429C80.0862 2.56595 80.416 2.45285 80.7556 2.45285V0.196152ZM112.792 3.98067C112.792 1.89053 111.098 0.196152 109.008 0.196152V2.45285C109.852 2.45285 110.536 3.13687 110.536 3.98067H112.792ZM109.008 248.111C111.098 248.111 112.792 246.417 112.792 244.326H110.536C110.536 245.17 109.852 245.854 109.008 245.854V248.111ZM72.2158 244.326C72.2158 246.417 73.9102 248.111 76.0003 248.111V245.854C75.1565 245.854 74.4725 245.17 74.4725 244.326H72.2158ZM69.8055 56.5315C70.8175 55.8156 72.2158 56.5392 72.2158 57.7788H74.4725C74.4725 54.7083 71.0087 52.9159 68.5022 54.6893L69.8055 56.5315ZM21.9209 83.0957C21.9209 86.1661 25.3847 87.9585 27.8912 86.1852L26.5878 84.3429C25.5759 85.0588 24.1776 84.3352 24.1776 83.0957H21.9209ZM24.1776 46.7606C24.1776 46.2889 24.3955 45.8437 24.7679 45.5542L23.3832 43.7723C22.4606 44.4893 21.9209 45.5922 21.9209 46.7606H24.1776Z" fill="#38056C"/>
</svg>
