<svg width="187" height="271" viewBox="0 0 187 271" fill="none" xmlns="http://www.w3.org/2000/svg">
<path d="M186.236 256.274C185.583 256.777 180.092 260.182 185.178 258.395L186.236 256.274C185.178 256.274 180.142 259.983 186.236 256.274L185.178 258.395C186.236 256.274 186.236 256.274 186.236 256.274L157.611 259.996L131.754 267.456C131.754 268.922 132.943 270.112 134.41 270.112H169.187C169.764 270.112 170.325 269.924 170.786 269.577L185.178 258.395C185.844 257.893 180.142 259.983 186.236 256.274L185.178 258.395C186.236 256.274 186.236 256.274 186.236 256.274Z" fill="#38056C"/>
<path d="M157.462 267.112C157.462 268.769 156.119 270.112 154.462 270.112H3.08398C1.42713 270.112 0.0839844 268.769 0.0839844 267.112V244.36C0.0839844 243.609 0.366168 242.885 0.874689 242.331L60.4812 177.445C69.1093 168.127 76.8172 159.613 83.6047 151.906C90.3922 144.198 96.1443 136.663 100.861 129.3C105.693 121.937 109.374 114.574 111.905 107.212C114.436 99.734 115.701 91.6235 115.701 82.8803C115.701 76.0928 114.724 70.1106 112.768 64.9337C110.812 59.7568 107.994 55.3852 104.312 51.8189C100.746 48.1375 96.4894 45.3765 91.5426 43.5358C86.5958 41.6952 81.0737 40.7748 74.9765 40.7748C64.0475 40.7748 53.0027 47.3322 44.1444 51.8189C36.2004 55.7909 31.03 62.0188 24.3337 66.0329C23.1441 66.7461 21.6326 66.4242 20.7398 65.3627L4.53973 46.1011C3.49848 44.8631 3.624 43.0196 4.85028 41.9645C8.82526 38.5445 13.0461 35.3294 17.5129 32.3192C22.8048 28.6379 28.8623 24.4174 34.1149 21.0574C44.8348 14.2001 50.9908 12.3541 58.2082 10.019C67.3147 7.96998 72.1476 9.39362 74.1628 11.5118C75.3048 12.7122 76.6652 14.1956 78.3215 14.239C88.175 14.4968 97.1262 16.0369 105.175 18.8593C114.148 21.9654 121.741 26.4521 127.953 32.3192C134.166 38.0713 138.94 45.1464 142.276 53.5445C145.727 61.8276 147.453 71.2035 147.453 81.6723C147.453 91.4509 145.9 100.769 142.794 109.628C139.803 118.486 135.604 127.229 130.197 135.857C124.905 144.37 118.52 152.941 111.042 161.569C103.68 170.197 95.6841 179.171 87.0559 188.489L38.8339 239.8C38.6616 239.983 38.5656 240.226 38.5656 240.477C38.5656 241.023 39.0083 241.466 39.5544 241.466H154.462C156.119 241.466 157.462 242.809 157.462 244.466V267.112Z" fill="#38056C"/>
<path d="M86.5726 164.766L86.5699 164.769L26.9635 229.654C26.2854 230.393 25.9092 231.358 25.9092 232.361V255.112C25.9092 257.321 27.7 259.112 29.9092 259.112H181.287C183.496 259.112 185.287 257.321 185.287 255.112V232.466C185.287 230.257 183.496 228.466 181.287 228.466H66.4055L114.61 177.174L114.615 177.169C123.25 167.842 131.254 158.86 138.625 150.221C146.132 141.56 152.548 132.949 157.87 124.387C163.314 115.701 167.547 106.889 170.565 97.9526C173.708 88.9854 175.278 79.5567 175.278 69.6724C175.278 59.0963 173.535 49.589 170.028 41.1674C166.641 32.6453 161.787 25.4467 155.462 19.5889C149.137 13.6161 141.419 9.06162 132.329 5.91491C123.348 2.76603 113.283 1.20007 102.147 1.20007C94.5997 1.20007 87.3919 2.01258 80.5259 3.64112C73.6814 5.14973 67.1802 7.23924 61.0238 9.9109C54.87 12.5814 49.1193 15.7756 43.773 19.4941C39.2303 22.5559 34.9387 25.8291 30.8986 29.3139C29.3166 30.6785 29.1006 33.0205 30.3347 34.6729L41.6032 49.7605C43.0035 51.6353 45.6545 51.8801 47.4507 50.5049C53.8473 45.6075 61.7316 41.7339 68.8008 38.2607C70.0882 37.6282 71.3486 37.009 72.568 36.3993L72.5726 36.3969C81.2772 31.9881 91.0136 29.7748 101.802 29.7748C107.798 29.7748 113.2 30.6798 118.019 32.4731C122.831 34.2634 126.96 36.9436 130.419 40.5147L130.43 40.5261L130.442 40.5371C134.009 43.993 136.75 48.2368 138.658 53.2871C140.562 58.3287 141.527 64.1871 141.527 70.8803C141.527 79.5249 140.276 87.5249 137.784 94.8881C135.284 102.162 131.642 109.45 126.85 116.751L126.85 116.751L126.844 116.76C122.159 124.074 116.439 131.569 109.679 139.245C102.898 146.945 95.1964 155.452 86.5726 164.766Z" fill="white" stroke="#38056C" stroke-width="2"/>
</svg>
