<svg width="185" height="273" viewBox="0 0 185 273" fill="none" xmlns="http://www.w3.org/2000/svg">
<path d="M152.407 75.8406C152.407 84.2387 151.084 91.889 148.438 98.7915C145.792 105.694 142.053 111.676 137.221 116.738C132.505 121.8 126.81 125.999 120.138 129.335C113.601 132.491 106.347 134.763 98.3762 136.152C98.0882 136.202 97.8768 136.452 97.8768 136.744C97.8768 137.046 98.1045 137.301 98.4043 137.34C118.507 139.917 133.804 146.395 144.296 156.773C154.88 167.127 160.172 180.644 160.172 197.325C160.172 208.369 158.274 218.493 154.478 227.696C150.796 236.9 145.159 244.838 137.566 251.51C129.974 258.183 120.368 263.359 108.748 267.041C97.1291 270.722 83.3815 272.563 67.5057 272.563C54.9661 272.563 43.1167 271.585 31.9576 269.629C21.5151 267.78 11.6383 264.491 2.32714 259.762C1.33638 259.259 0.723633 258.235 0.723633 257.124V234.574C0.723633 232.314 3.13231 230.858 5.16812 231.84C13.9137 236.056 23.2462 239.391 33.1656 241.847C44.8999 244.723 56.1165 246.161 66.8154 246.161C77.3993 246.161 86.5452 245.01 94.253 242.709C101.961 240.409 108.288 237.13 113.235 232.873C118.297 228.617 121.978 223.382 124.279 217.17C126.695 210.958 127.903 203.998 127.903 196.29C127.903 188.467 126.35 181.795 123.244 176.272C120.253 170.635 115.938 166.034 110.301 162.467C104.664 158.786 97.7618 156.083 89.5938 154.357C81.5408 152.631 72.395 151.768 62.1562 151.768H42.2053C40.5484 151.768 39.2053 150.425 39.2053 148.768V128.711C39.2053 127.055 40.5484 125.711 42.2053 125.711H62.1562C71.4746 125.711 79.7577 124.561 87.0053 122.26C94.253 119.959 100.293 116.681 105.124 112.424C110.071 108.167 113.81 103.106 116.341 97.2384C118.872 91.3713 120.138 84.9289 120.138 77.9113C120.138 71.9291 119.102 66.5797 117.031 61.863C114.961 57.1462 112.027 53.1773 108.231 49.9561C104.434 46.6199 99.8901 44.0889 94.5981 42.3633C89.3062 40.6377 83.439 39.7748 76.9967 39.7748C64.6871 39.7748 53.8156 41.7306 44.3822 45.642C35.9474 49.0784 27.8425 53.5045 20.0675 58.9204C18.7119 59.8646 16.8431 59.5793 15.8638 58.2487L3.45084 41.3833C2.50314 40.0956 2.729 38.2875 3.99518 37.3113C7.76269 34.4067 11.8491 31.6616 16.2543 29.0759C21.6613 25.9698 27.5285 23.2663 33.8558 20.9654C40.1831 18.5495 46.9131 16.6513 54.0457 15.2708C61.2934 13.8903 68.9437 13.2001 76.9967 13.2001C89.4212 13.2001 100.293 14.7531 109.611 17.8593C119.045 20.9654 126.925 25.337 133.252 30.9741C139.58 36.4961 144.354 43.1111 147.575 50.8189C150.796 58.4117 152.407 66.7523 152.407 75.8406Z" fill="#38056C"/>
<path d="M142.844 119.236L142.844 119.236L142.856 119.23C149.625 115.845 155.417 111.578 160.22 106.424C165.147 101.262 168.953 95.1666 171.643 88.1495C174.338 81.1182 175.678 73.3445 175.678 64.8406C175.678 55.633 174.046 47.159 170.768 39.4314C167.489 31.584 162.625 24.8452 156.185 19.2242C149.741 13.4836 141.736 9.05115 132.197 5.91007C122.754 2.76266 111.772 1.20007 99.2681 1.20007C91.1581 1.20007 83.4447 1.89523 76.1301 3.28849L76.1272 3.28905C68.9446 4.67923 62.161 6.59175 55.7781 9.02835C49.4037 11.3467 43.4863 14.073 38.0277 17.2088L38.0277 17.2088L38.0196 17.2135C33.5624 19.8297 29.4252 22.6102 25.609 25.5557C23.9251 26.8554 23.6176 29.2348 24.8226 30.9457L34.4271 44.5809C35.7255 46.4243 38.2203 46.7772 40.0599 45.679C44.0665 43.2871 48.646 41.6281 53.3299 40.1299C54.515 39.7507 55.7101 39.3811 56.9037 39.0119C60.3881 37.934 63.8591 36.8603 67.031 35.5681L67.0367 35.5657C76.3265 31.7138 87.0637 29.7748 99.2681 29.7748C105.621 29.7748 111.382 30.6257 116.56 32.314C121.736 34.0019 126.157 36.4693 129.842 39.7072L129.849 39.713L129.855 39.7186C133.532 42.8381 136.375 46.6823 138.387 51.2649C140.394 55.8362 141.409 61.0454 141.409 66.9113C141.409 73.8062 140.166 80.1121 137.694 85.8424C135.225 91.5672 131.578 96.5062 126.744 100.666L126.744 100.666L126.735 100.674C122.024 104.823 116.113 108.041 108.974 110.307C101.844 112.571 93.6657 113.711 84.4277 113.711H64.4768C62.2676 113.711 60.4768 115.502 60.4768 117.711V137.768C60.4768 139.978 62.2676 141.768 64.4768 141.768H84.4277C94.6123 141.768 103.686 142.627 111.656 144.335L111.659 144.335C119.733 146.041 126.514 148.705 132.026 152.305L132.032 152.309L132.038 152.312C137.535 155.79 141.726 160.265 144.632 165.741L144.638 165.752L144.644 165.763C147.648 171.104 149.174 177.599 149.174 185.29C149.174 192.893 147.983 199.727 145.619 205.808L145.616 205.815L145.613 205.823C143.372 211.873 139.792 216.963 134.863 221.108L134.854 221.115C130.036 225.261 123.842 228.481 116.238 230.751C108.647 233.017 99.6026 234.161 89.0869 234.161C78.4777 234.161 67.3413 232.735 55.6751 229.875C45.8199 227.436 36.5536 224.123 27.8739 219.939C25.2012 218.65 21.9951 220.547 21.9951 223.574V246.124C21.9951 247.602 22.8109 248.976 24.1458 249.654C33.546 254.428 43.5168 257.748 54.0547 259.614L54.0565 259.614C65.2782 261.581 77.1857 262.563 89.7772 262.563C105.726 262.563 119.58 260.714 131.322 256.994C143.047 253.279 152.782 248.042 160.498 241.261C168.205 234.488 173.935 226.423 177.676 217.073C181.526 207.737 183.444 197.484 183.444 186.325C183.444 169.414 178.07 155.627 167.27 145.061C157.007 134.91 142.295 128.48 123.244 125.683C130.352 124.259 136.887 122.112 142.844 119.236Z" fill="white" stroke="#38056C" stroke-width="2"/>
</svg>
