<svg width="207" height="269" viewBox="0 0 207 269" fill="none" xmlns="http://www.w3.org/2000/svg">
  <path d="M142.697 198.408C174.923 240.225 147.769 185.918 147.769 186.587H142.697C142.697 188.336 138.537 187.597 139.965 186.587L142.697 192.902C144.125 191.892 170.092 246.996 142.697 181.573L120.375 265.955C120.375 267.146 121.34 268.111 122.531 268.111H150.762C151.23 268.111 151.686 267.959 152.06 267.677L168.246 255.476C154.829 243.893 159.069 244.57 159.069 243.893L169.105 57.5708C169.105 56.3799 160.26 198.408 159.069 198.408L144.013 55.4146C152.06 189.562 155.372 198.408 142.697 55.8628V198.408Z" fill="#38056C" />
  <path d="M185.583 175.063C217.809 216.88 187.84 174.394 187.84 175.063H185.583C198.082 225.528 184.155 176.074 185.583 175.063L185.949 178.884C191.563 216.25 203.656 209.458 182.718 172.544L157.453 209.458C157.453 210.649 158.418 211.615 159.609 211.615H187.84C188.308 211.615 188.764 211.462 189.138 211.18L205.325 198.98C191.907 187.396 196.147 188.073 196.147 187.396V180.555C196.147 179.364 197.338 175.063 196.147 175.063H187.84H185.583Z" fill="#38056C" />
  <path d="M184.334 208.511C184.334 210.167 182.991 211.511 181.334 211.511H150.578C148.921 211.511 147.578 212.854 147.578 214.511V265.111C147.578 266.768 146.235 268.111 144.578 268.111H120.207C118.55 268.111 117.207 266.768 117.207 265.111V214.511C117.207 212.854 115.864 211.511 114.207 211.511H3.72657C2.06971 211.511 0.726562 210.167 0.726562 208.511V184.98C0.726562 184.389 0.901483 183.81 1.22933 183.318L122.248 1.53253C122.805 0.696995 123.742 0.195007 124.746 0.195007H152.447C154.155 0.195007 155.518 1.61956 155.444 3.32631L147.715 179.734C147.64 181.441 149.004 182.865 150.712 182.865H181.334C182.991 182.865 184.334 184.208 184.334 185.865V208.511ZM114.207 182.865C115.864 182.865 117.207 181.522 117.207 179.865V121.433C117.207 114.99 117.264 108.26 117.379 101.243C117.61 94.11 117.84 87.2074 118.07 80.535C118.3 73.7475 118.53 67.4202 118.76 61.553C119.079 56.1364 119.299 51.5533 119.422 47.8035C119.438 47.3004 119.034 46.8851 118.531 46.8851C118.151 46.8851 117.814 47.1249 117.685 47.482C116.913 49.631 115.948 52.0205 114.791 54.6505C113.641 57.4115 112.318 60.23 110.822 63.1061C109.442 65.8671 108.003 68.5706 106.508 71.2166C105.012 73.8625 103.632 76.1059 102.366 77.9465L34.6065 178.185C33.2598 180.177 34.6871 182.865 37.0919 182.865H114.207Z" fill="#38056C" />
  <path d="M136.228 88.9752L136.229 88.9672C136.459 81.8341 136.689 74.931 136.919 68.258C136.919 68.2578 136.919 68.2576 136.919 68.2574L137.918 68.2919C138.148 61.5044 138.378 55.177 138.609 49.3099L136.228 88.9752ZM136.228 88.9752L136.228 88.9831C136.113 96.0056 136.055 102.741 136.055 109.189V167.622C136.055 168.727 135.16 169.622 134.055 169.622H56.9406C55.3374 169.622 54.3858 167.83 55.2836 166.502L123.039 66.2699C123.04 66.2689 123.041 66.2678 123.041 66.2668C124.327 64.3958 125.723 62.1271 127.227 59.4655C128.73 56.8068 130.175 54.0908 131.561 51.3173C133.066 48.4238 134.399 45.5849 135.559 42.8008L136.228 88.9752ZM201.183 200.267C203.392 200.267 205.183 198.477 205.183 196.267V173.622C205.183 171.413 203.392 169.622 201.183 169.622H170.427C169.322 169.622 168.427 168.727 168.427 167.622V5.20007C168.427 2.99094 166.636 1.20007 164.427 1.20007H136.58C135.25 1.20007 134.007 1.86093 133.264 2.9634L20.259 170.51C19.8133 171.171 19.5752 171.95 19.5752 172.747V196.267C19.5752 198.477 21.3661 200.267 23.5752 200.267H134.055C135.16 200.267 136.055 201.163 136.055 202.267V252.868C136.055 255.077 137.846 256.868 140.055 256.868H164.427C166.636 256.868 168.427 255.077 168.427 252.868V202.267C168.427 201.163 169.322 200.267 170.427 200.267H201.183Z" fill="white" stroke="#38056C" stroke-width="2" />
</svg>