<svg width="564" height="528" viewBox="0 0 564 528" fill="none" xmlns="http://www.w3.org/2000/svg">
<path d="M59.1354 146.16C53.3688 118.536 71.0872 91.4685 98.7105 85.7021L315.03 40.5448C342.653 34.7783 369.721 52.4968 375.487 80.1201L486.862 613.625C492.628 641.248 474.91 668.316 447.286 674.082L230.967 719.239C203.344 725.006 176.276 707.287 170.509 679.664L59.1354 146.16Z" fill="#38056C"/>
<mask id="mask0_2020_172" style="mask-type:luminance" maskUnits="userSpaceOnUse" x="58" y="39" width="430" height="682">
<path fill-rule="evenodd" clip-rule="evenodd" d="M59.1357 146.16C53.3691 118.536 71.0874 91.4685 98.7108 85.7022L315.03 40.5448C342.653 34.7783 369.721 52.4968 375.488 80.1201L486.862 613.624C492.628 641.248 474.91 668.315 447.287 674.082L230.968 719.239C203.344 725.006 176.276 707.287 170.51 679.664L59.1357 146.16Z" fill="white"/>
</mask>
<g mask="url(#mask0_2020_172)">
<path d="M99.0104 87.1331L315.33 41.9758L314.732 39.1124L98.4126 84.2697L99.0104 87.1331ZM374.057 80.4183L485.431 613.923L488.294 613.325L376.92 79.8206L374.057 80.4183ZM446.989 672.65L230.67 717.807L231.267 720.67L447.586 675.513L446.989 672.65ZM171.942 679.365L60.5681 145.86L57.7048 146.458L169.079 679.962L171.942 679.365ZM230.67 717.807C203.837 723.408 177.544 706.197 171.942 679.365L169.079 679.962C175.011 708.376 202.853 726.602 231.267 720.67L230.67 717.807ZM485.431 613.923C491.032 640.755 473.821 667.048 446.989 672.65L447.586 675.513C476 669.582 494.226 641.739 488.294 613.325L485.431 613.923ZM315.33 41.9758C342.162 36.3744 368.455 53.5857 374.057 80.4183L376.92 79.8206C370.989 51.4066 343.146 33.1809 314.732 39.1124L315.33 41.9758ZM98.4126 84.2697C69.9986 90.2012 51.7731 118.044 57.7048 146.458L60.5681 145.86C54.9666 119.027 72.1778 92.7345 99.0104 87.1331L98.4126 84.2697Z" fill="#38056C"/>
</g>
<path d="M64.2435 112.671L110.926 102.932L117.719 135.491L60.8289 147.36C57.8571 133.115 59.1449 122.936 64.2435 112.671Z" fill="white"/>
<path d="M75.6716 142.727C69.905 115.104 87.6233 88.036 115.247 82.2696L331.566 37.1123C359.189 31.3458 386.257 49.0643 392.024 76.6876L503.398 610.192C509.164 637.815 491.446 664.883 463.823 670.65L247.503 715.807C219.88 721.573 192.812 703.855 187.046 676.232L75.6716 142.727Z" fill="white"/>
<mask id="mask1_2020_172" style="mask-type:luminance" maskUnits="userSpaceOnUse" x="74" y="36" width="431" height="681">
<path fill-rule="evenodd" clip-rule="evenodd" d="M75.6727 142.727C69.9062 115.103 87.6245 88.0357 115.248 82.2693L331.567 37.112C359.19 31.3455 386.258 49.0639 392.025 76.6873L503.399 610.192C509.166 637.815 491.447 664.883 463.824 670.649L247.505 715.806C219.881 721.573 192.813 703.854 187.047 676.231L75.6727 142.727Z" fill="white"/>
</mask>
<g mask="url(#mask1_2020_172)">
<path d="M115.548 83.7012L331.867 38.5439L331.269 35.6806L114.95 80.8378L115.548 83.7012ZM390.594 76.9864L501.968 610.491L504.832 609.893L393.457 76.3887L390.594 76.9864ZM463.526 669.218L247.207 714.375L247.805 717.239L464.124 672.081L463.526 669.218ZM188.479 675.933L77.1054 142.428L74.2421 143.026L185.616 676.53L188.479 675.933ZM247.207 714.375C220.374 719.977 194.081 702.765 188.479 675.933L185.616 676.53C191.548 704.944 219.391 723.17 247.805 717.239L247.207 714.375ZM501.968 610.491C507.57 637.324 490.359 663.617 463.526 669.218L464.124 672.081C492.538 666.15 510.763 638.307 504.832 609.893L501.968 610.491ZM331.867 38.5439C358.699 32.9425 384.993 50.1538 390.594 76.9864L393.457 76.3887C387.526 47.9747 359.683 29.749 331.269 35.6806L331.867 38.5439ZM114.95 80.8378C86.5359 86.7693 68.3104 114.612 74.2421 143.026L77.1054 142.428C71.5039 115.596 88.715 89.3026 115.548 83.7012L114.95 80.8378Z" fill="#38056C"/>
</g>
<path d="M91.75 139.967C87.631 120.237 100.287 100.902 120.018 96.7835L158.306 88.7908C163.024 87.8059 167.647 90.8321 168.632 95.5501C170.306 103.571 178.166 108.715 186.186 107.041L274.157 88.6766C282.604 86.9133 288.047 78.6662 286.347 70.2062C285.337 65.1763 288.618 60.2863 293.655 59.3138L336.209 51.0988C355.788 47.3188 374.778 59.9547 378.853 79.4754L490.074 612.251C494.193 631.981 481.538 651.316 461.807 655.435L246.044 700.476C226.313 704.594 206.979 691.938 202.86 672.207L91.75 139.967Z" fill="#CCC8FF"/>
<mask id="mask2_2020_172" style="mask-type:luminance" maskUnits="userSpaceOnUse" x="90" y="50" width="401" height="652">
<path fill-rule="evenodd" clip-rule="evenodd" d="M91.75 139.968C87.6309 120.237 100.287 100.903 120.018 96.7838L158.306 88.7911C163.024 87.8062 167.647 90.8324 168.632 95.5504C170.306 103.571 178.166 108.716 186.186 107.041L274.157 88.677C282.604 86.9136 288.047 78.6666 286.347 70.2065C285.337 65.1767 288.618 60.2867 293.655 59.3141L336.208 51.099C355.788 47.3192 374.777 59.9549 378.853 79.4756L490.074 612.251C494.193 631.981 481.537 651.316 461.806 655.435L246.044 700.476C226.313 704.594 206.979 691.938 202.86 672.208L91.75 139.968Z" fill="white"/>
</mask>
<g mask="url(#mask2_2020_172)">
<path d="M377.42 79.7738L488.642 612.549L491.505 611.951L380.283 79.1761L377.42 79.7738ZM461.507 654.002L245.744 699.043L246.342 701.907L462.104 656.866L461.507 654.002ZM204.291 671.908L93.1805 139.668L90.3171 140.266L201.427 672.506L204.291 671.908ZM120.316 98.2147L158.604 90.2219L158.006 87.3587L119.718 95.3514L120.316 98.2147ZM293.931 60.7494L336.485 52.5344L335.93 49.6624L293.377 57.8773L293.931 60.7494ZM186.484 108.472L274.455 90.1079L273.857 87.2446L185.886 105.609L186.484 108.472ZM167.199 95.8485C169.039 104.66 177.673 110.312 186.484 108.472L185.886 105.609C178.656 107.118 171.572 102.481 170.062 95.2508L167.199 95.8485ZM293.377 57.8773C287.542 59.0038 283.742 64.6678 284.912 70.4939L287.78 69.9178C286.93 65.684 289.691 61.5679 293.931 60.7494L293.377 57.8773ZM158.604 90.2219C162.531 89.4021 166.379 91.9213 167.199 95.8485L170.062 95.2508C168.912 89.7421 163.515 86.2087 158.006 87.3587L158.604 90.2219ZM284.912 70.4939C286.454 78.1662 281.518 85.6454 273.857 87.2446L274.455 90.1079C283.688 88.1804 289.638 79.1655 287.78 69.9178L284.912 70.4939ZM245.744 699.043C226.804 702.997 208.245 690.848 204.291 671.908L201.427 672.506C205.711 693.027 225.82 706.191 246.342 701.907L245.744 699.043ZM488.642 612.549C492.596 631.489 480.447 650.049 461.507 654.002L462.104 656.866C482.626 652.582 495.789 632.473 491.505 611.951L488.642 612.549ZM380.283 79.1761C376.045 58.8731 356.295 45.731 335.93 49.6624L336.485 52.5344C355.28 48.906 373.508 61.0354 377.42 79.7738L380.283 79.1761ZM93.1805 139.668C89.2265 120.728 101.375 102.169 120.316 98.2147L119.718 95.3514C99.1962 99.6354 86.0331 119.744 90.3171 140.266L93.1805 139.668Z" fill="#38056C"/>
</g>
<path fill-rule="evenodd" clip-rule="evenodd" d="M411.292 199.267L182.914 95.5842L195.019 69.2437L408.393 167.322L411.292 199.267Z" fill="white"/>
<path fill-rule="evenodd" clip-rule="evenodd" d="M400.252 155.595L225.882 75.4968L228.92 68.8894L403.289 148.987L400.252 155.595Z" fill="white"/>
<mask id="mask3_2020_172" style="mask-type:luminance" maskUnits="userSpaceOnUse" x="179" y="86" width="12" height="12">
<path fill-rule="evenodd" clip-rule="evenodd" d="M190.759 90.5656C191.385 93.5625 189.407 96.5108 186.342 97.1507C183.277 97.7905 180.285 95.8797 179.659 92.8827C179.034 89.8858 181.011 86.9376 184.076 86.2977C187.142 85.6579 190.134 87.5687 190.759 90.5656Z" fill="white"/>
</mask>
<g mask="url(#mask3_2020_172)">
<path d="M189.327 90.8645C189.781 93.0405 188.348 95.2378 186.043 95.719L186.64 98.5823C190.466 97.7838 192.987 94.0846 192.19 90.2668L189.327 90.8645ZM186.043 95.719C183.738 96.2002 181.545 94.76 181.09 92.5839L178.227 93.1817C179.024 96.9995 182.815 99.3809 186.64 98.5823L186.043 95.719ZM181.09 92.5839C180.636 90.4079 182.07 88.2106 184.375 87.7295L183.777 84.8661C179.952 85.6647 177.43 89.3638 178.227 93.1817L181.09 92.5839ZM184.375 87.7295C186.68 87.2483 188.873 88.6885 189.327 90.8645L192.19 90.2668C191.393 86.4489 187.602 84.0676 183.777 84.8661L184.375 87.7295Z" fill="#38056C"/>
</g>
<path d="M193.534 89.983C192.908 86.986 194.83 84.0494 197.827 83.4237L259.125 70.6277C262.122 70.0021 265.059 71.9244 265.684 74.9213C266.31 77.9183 264.388 80.855 261.391 81.4806L200.093 94.2766C197.096 94.9023 194.159 92.9799 193.534 89.983Z" fill="white"/>
<mask id="mask4_2020_172" style="mask-type:luminance" maskUnits="userSpaceOnUse" x="193" y="70" width="73" height="25">
<path fill-rule="evenodd" clip-rule="evenodd" d="M193.534 89.9827C192.908 86.9858 194.831 84.0492 197.828 83.4235L259.125 70.6275C262.122 70.0018 265.059 71.9241 265.684 74.9211C266.31 77.918 264.388 80.8547 261.391 81.4803L200.093 94.2763C197.096 94.9019 194.16 92.9796 193.534 89.9827Z" fill="white"/>
</mask>
<g mask="url(#mask4_2020_172)">
<path d="M198.126 84.8554L259.424 72.0593L258.826 69.196L197.529 81.992L198.126 84.8554ZM261.092 80.0488L199.794 92.8449L200.392 95.7082L261.689 82.9122L261.092 80.0488ZM199.794 92.8449C197.588 93.3055 195.426 91.8903 194.965 89.684L192.102 90.2818C192.893 94.0694 196.604 96.4989 200.392 95.7082L199.794 92.8449ZM264.253 75.2201C264.713 77.4264 263.298 79.5883 261.092 80.0488L261.689 82.9122C265.477 82.1215 267.907 78.41 267.116 74.6224L264.253 75.2201ZM259.424 72.0593C261.63 71.5987 263.792 73.0139 264.253 75.2201L267.116 74.6224C266.325 70.8348 262.614 68.4053 258.826 69.196L259.424 72.0593ZM197.529 81.992C193.741 82.7827 191.311 86.4941 192.102 90.2818L194.965 89.684C194.505 87.4778 195.92 85.3159 198.126 84.8554L197.529 81.992Z" fill="#38056C"/>
</g>
<path d="M89.3717 244.309C92.4389 243.678 95.436 245.654 96.0659 248.721L106.827 301.122C107.457 304.189 105.482 307.187 102.414 307.817C99.3472 308.447 96.3501 306.472 95.7202 303.405L84.9587 251.004C84.3287 247.937 86.3045 244.939 89.3717 244.309Z" fill="white"/>
<mask id="mask5_2020_172" style="mask-type:luminance" maskUnits="userSpaceOnUse" x="84" y="244" width="23" height="64">
<path fill-rule="evenodd" clip-rule="evenodd" d="M89.373 244.309C92.4401 243.679 95.4372 245.654 96.0672 248.721L106.829 301.122C107.459 304.189 105.483 307.187 102.416 307.817C99.3484 308.448 96.3513 306.472 95.7214 303.405L84.9599 251.004C84.3299 247.937 86.3058 244.939 89.373 244.309Z" fill="white"/>
</mask>
<g mask="url(#mask5_2020_172)">
<path d="M94.6355 249.016L105.397 301.417L108.262 300.828L97.5007 248.427L94.6355 249.016ZM97.155 303.111L86.3935 250.71L83.5283 251.299L94.2898 303.7L97.155 303.111ZM86.3935 250.71C85.926 248.434 87.3921 246.21 89.6681 245.742L89.0797 242.877C85.2213 243.67 82.7359 247.44 83.5283 251.299L86.3935 250.71ZM102.122 306.385C99.8463 306.853 97.6224 305.387 97.155 303.111L94.2898 303.7C95.0822 307.558 98.8524 310.043 102.711 309.25L102.122 306.385ZM105.397 301.417C105.864 303.693 104.398 305.917 102.122 306.385L102.711 309.25C106.569 308.457 109.055 304.687 108.262 300.828L105.397 301.417ZM97.5007 248.427C96.7083 244.569 92.9381 242.084 89.0797 242.877L89.6681 245.742C91.9441 245.274 94.1681 246.74 94.6355 249.016L97.5007 248.427Z" fill="#38056C"/>
</g>
<path d="M102.842 309.19C105.909 308.559 108.906 310.535 109.536 313.602L120.297 366.003C120.927 369.07 118.951 372.068 115.884 372.698C112.817 373.328 109.82 371.353 109.19 368.286L98.4285 315.885C97.7986 312.818 99.7743 309.82 102.842 309.19Z" fill="white"/>
<mask id="mask6_2020_172" style="mask-type:luminance" maskUnits="userSpaceOnUse" x="98" y="309" width="23" height="64">
<path fill-rule="evenodd" clip-rule="evenodd" d="M102.843 309.19C105.91 308.559 108.907 310.535 109.537 313.602L120.298 366.003C120.928 369.07 118.953 372.068 115.885 372.698C112.818 373.328 109.821 371.353 109.191 368.286L98.4297 315.885C97.7997 312.818 99.7755 309.82 102.843 309.19Z" fill="white"/>
</mask>
<g mask="url(#mask6_2020_172)">
<path d="M108.104 313.897L118.866 366.298L121.731 365.709L110.969 313.309L108.104 313.897ZM110.624 367.992L99.8622 315.591L96.997 316.18L107.759 368.581L110.624 367.992ZM99.8622 315.591C99.3948 313.315 100.861 311.091 103.137 310.623L102.548 307.758C98.6901 308.551 96.2046 312.322 96.997 316.18L99.8622 315.591ZM115.591 371.266C113.315 371.734 111.091 370.268 110.624 367.992L107.759 368.581C108.551 372.439 112.321 374.924 116.18 374.131L115.591 371.266ZM118.866 366.298C119.333 368.574 117.867 370.798 115.591 371.266L116.18 374.131C120.038 373.338 122.523 369.568 121.731 365.709L118.866 366.298ZM110.969 313.309C110.177 309.45 106.407 306.965 102.548 307.758L103.137 310.623C105.413 310.155 107.637 311.621 108.104 313.897L110.969 313.309Z" fill="#38056C"/>
</g>
<mask id="mask7_2020_172" style="mask-type:luminance" maskUnits="userSpaceOnUse" x="90" y="50" width="401" height="652">
<path fill-rule="evenodd" clip-rule="evenodd" d="M91.75 139.968C87.6309 120.237 100.287 100.903 120.018 96.7838L158.306 88.7911C163.024 87.8062 167.647 90.8324 168.632 95.5504C170.306 103.571 178.166 108.716 186.186 107.041L274.157 88.677C282.604 86.9136 288.047 78.6666 286.347 70.2065C285.337 65.1767 288.618 60.2867 293.655 59.3141L336.208 51.099C355.788 47.3192 374.777 59.9549 378.853 79.4756L490.074 612.251C494.193 631.981 481.537 651.316 461.806 655.435L246.044 700.476C226.313 704.594 206.979 691.938 202.86 672.208L91.75 139.968Z" fill="white"/>
</mask>
<g mask="url(#mask7_2020_172)">
<path d="M377.42 79.7738L488.642 612.549L491.505 611.951L380.283 79.1761L377.42 79.7738ZM461.507 654.002L245.744 699.043L246.342 701.907L462.104 656.866L461.507 654.002ZM204.291 671.908L93.1805 139.668L90.3171 140.266L201.427 672.506L204.291 671.908ZM120.316 98.2147L158.604 90.2219L158.006 87.3587L119.718 95.3514L120.316 98.2147ZM293.931 60.7494L336.485 52.5344L335.93 49.6624L293.377 57.8773L293.931 60.7494ZM186.484 108.472L274.455 90.1079L273.857 87.2446L185.886 105.609L186.484 108.472ZM167.199 95.8485C169.039 104.66 177.673 110.312 186.484 108.472L185.886 105.609C178.656 107.118 171.572 102.481 170.062 95.2508L167.199 95.8485ZM293.377 57.8773C287.542 59.0038 283.742 64.6678 284.912 70.4939L287.78 69.9178C286.93 65.684 289.691 61.5679 293.931 60.7494L293.377 57.8773ZM158.604 90.2219C162.531 89.4021 166.379 91.9213 167.199 95.8485L170.062 95.2508C168.912 89.7421 163.515 86.2087 158.006 87.3587L158.604 90.2219ZM284.912 70.4939C286.454 78.1662 281.518 85.6454 273.857 87.2446L274.455 90.1079C283.688 88.1804 289.638 79.1655 287.78 69.9178L284.912 70.4939ZM245.744 699.043C226.804 702.997 208.245 690.848 204.291 671.908L201.427 672.506C205.711 693.027 225.82 706.191 246.342 701.907L245.744 699.043ZM488.642 612.549C492.596 631.489 480.447 650.049 461.507 654.002L462.104 656.866C482.626 652.582 495.789 632.473 491.505 611.951L488.642 612.549ZM380.283 79.1761C376.045 58.8731 356.295 45.731 335.93 49.6624L336.485 52.5344C355.28 48.906 373.508 61.0354 377.42 79.7738L380.283 79.1761ZM93.1805 139.668C89.2265 120.728 101.375 102.169 120.316 98.2147L119.718 95.3514C99.1962 99.6354 86.0331 119.744 90.3171 140.266L93.1805 139.668Z" fill="#38056C"/>
</g>
<g clip-path="url(#clip0_2020_172)">
<path fill-rule="evenodd" clip-rule="evenodd" d="M195.161 417.076L198.367 410.802L200.408 410.317L196.794 417.329L203.612 422.212L201.433 422.73L195.475 418.4L196.761 423.811L195.189 424.184L193.903 418.773L190.523 425.293L188.344 425.81L192.237 418.383L185.857 413.75L187.898 413.265L193.583 417.427L192.343 412.209L193.916 411.835L195.162 417.081L195.161 417.076ZM216.248 419.181L214.676 419.555L212.446 410.172L208.244 421.082L206.534 421.489L203.695 409.536L205.267 409.163L207.503 418.578L211.698 407.635L213.408 407.229L216.248 419.181ZM226.124 413.246C226.649 415.452 225.384 417.244 223.256 417.749C221.463 418.175 219.848 417.51 219.262 416.658L219.362 415.119C220.397 416.039 221.659 416.322 222.872 416.034C224.196 415.719 224.84 414.75 224.552 413.537C224.316 412.544 223.321 411.789 221.804 412.15L220.783 412.392L220.377 410.682L221.425 410.433C222.584 410.158 223.028 409.207 222.812 408.297C222.595 407.387 221.763 406.827 220.77 407.063C219.612 407.338 218.873 408.155 218.421 409.194L217.73 407.756C218.01 406.728 218.991 405.708 220.343 405.387C222.274 404.928 223.923 405.964 224.363 407.817C224.606 408.837 224.387 409.88 223.774 410.608C224.87 410.931 225.781 411.822 226.122 413.256L226.124 413.246ZM227.71 403.831L229.282 403.457L230.463 408.427L236.949 406.886L235.768 401.916L237.341 401.543L240.18 413.495L238.608 413.869L237.349 408.568L230.862 410.109L232.122 415.41L230.549 415.783L227.71 403.831ZM244.432 412.485L241.593 400.532L243.165 400.159L244.28 404.853L246.073 404.427C248.28 403.902 250.183 405.024 250.688 407.152C251.194 409.281 249.927 411.184 247.799 411.69L244.429 412.491L244.432 412.485ZM247.651 409.943C248.754 409.681 249.351 408.636 249.089 407.532C248.813 406.374 247.796 405.771 246.72 406.026L244.679 406.511L245.604 410.405L247.645 409.92L247.652 409.947L247.651 409.943ZM227.386 378.042L236.967 375.766L235.216 368.396L239.496 367.38L244.224 387.28L239.944 388.297L238.049 380.321L228.469 382.597L230.364 390.573L226.084 391.59L221.357 371.694L225.637 370.677L227.387 378.046L227.386 378.042ZM330.542 366.686L330.05 364.617C330.05 364.617 328.494 367.755 324.655 368.667C319.686 369.847 313.574 367.448 311.961 360.658C310.152 353.041 314.984 348.828 319.374 347.785C323.24 346.867 326.215 348.841 326.215 348.841L325.737 346.827L329.878 345.843L334.606 365.744L330.547 366.709L330.541 366.681L330.542 366.686ZM316.214 359.648C316.83 362.241 319.604 364.967 323.884 363.95C327.695 363.044 328.842 360.266 328.842 360.266L327.17 353.228C325.458 352.032 323.298 351.671 321.092 352.195C317.37 353.108 315.408 356.255 316.215 359.653L316.214 359.648ZM342.212 350.761L351.792 348.485L350.042 341.116L354.322 340.099L359.05 360L354.77 361.017L352.875 353.041L343.294 355.317L345.189 363.293L340.91 364.31L336.183 344.414L340.462 343.397L342.213 350.766L342.212 350.761ZM385.543 353.706L391.036 352.401L389.731 346.907L384.237 348.212L385.543 353.706ZM195.915 378.263C197.004 382.846 194.75 387.607 188.958 388.983L185.395 389.829L187.959 400.623L183.514 401.68L176.824 373.522L184.8 371.628C189.88 370.421 194.677 373.074 195.909 378.259L195.915 378.263ZM184.218 385.243L188.415 384.246C189.518 383.984 190.371 383.402 190.952 382.536C191.526 381.642 191.689 380.612 191.414 379.454C191.139 378.295 190.571 377.498 189.704 376.917C188.81 376.342 187.78 376.179 186.65 376.448L182.37 377.465L184.219 385.247L184.218 385.243ZM282.34 378.846C277.508 379.994 271.17 377.62 269.55 370.802C268.121 364.785 271.572 359.298 277.396 357.914C281.51 356.936 284.776 358.783 285.483 359.552L285.137 363.369C285.137 363.369 282.07 361.621 279.086 362.33C274.475 363.425 273.23 367.136 273.852 369.756C274.725 373.429 278.076 375.022 281.942 374.104C284.728 373.442 286.732 371.188 287.133 370.423L289.214 373.663C289.242 373.657 287.312 377.675 282.342 378.856L282.34 378.846ZM303.703 373.771C298.871 374.919 292.533 372.544 290.913 365.727C289.483 359.709 292.934 354.222 298.759 352.839C302.873 351.861 306.138 353.708 306.846 354.477L306.499 358.294C306.499 358.294 303.432 356.546 300.449 357.255C295.838 358.35 294.592 362.06 295.215 364.681C296.087 368.354 299.438 369.947 303.304 369.029C306.09 368.367 308.095 366.113 308.496 365.347L310.577 368.588C310.604 368.581 308.647 372.606 303.705 373.78L303.703 373.771ZM373.73 357.134C368.898 358.282 362.56 355.907 360.94 349.09C359.51 343.072 362.961 337.585 368.786 336.202C372.9 335.224 376.166 337.071 376.873 337.84L376.527 341.657C376.527 341.657 373.46 339.909 370.476 340.618C365.865 341.713 364.62 345.423 365.242 348.044C366.115 351.717 369.466 353.31 373.332 352.391C376.118 351.73 378.122 349.476 378.523 348.71L380.604 351.951C380.632 351.944 378.674 355.969 373.732 357.143L373.73 357.134ZM258.763 379.897C262.299 379.057 263.908 376.635 264.296 375.814L266.332 378.862C266.167 379.396 264.108 383.241 259.691 384.291C253.59 385.74 248.249 382.779 246.721 376.348C245.56 371.461 247.488 365.083 254.195 363.489C260.047 362.099 264.827 366.009 266.146 371.558C266.283 372.137 266.38 372.668 266.409 373.156L251.422 376.717C252.003 378.181 254.462 380.924 258.769 379.901L258.763 379.897ZM255.091 367.997C251.28 368.902 250.529 371.995 250.605 373.176L261.399 370.612C260.493 368.758 258.212 367.255 255.091 367.997ZM211.703 391.078C215.238 390.238 216.848 387.816 217.236 386.995L219.271 390.042C219.107 390.577 217.048 394.422 212.63 395.471C206.53 396.92 201.188 393.959 199.661 387.528C198.5 382.641 200.428 376.263 207.135 374.67C212.987 373.279 217.767 377.19 219.085 382.738C219.223 383.318 219.32 383.848 219.348 384.337L204.357 387.898C204.938 389.363 207.397 392.106 211.704 391.082L211.703 391.078ZM208.031 379.177C204.22 380.083 203.468 383.175 203.545 384.357L214.339 381.792C213.432 379.939 211.152 378.436 208.031 379.177Z" fill="#50287D"/>
<path fill-rule="evenodd" clip-rule="evenodd" d="M398.776 342.135L376.952 317.55L407.205 310.362L398.776 342.135Z" fill="#79FF3A"/>
</g>
<defs>
<clipPath id="clip0_2020_172">
<rect width="239.621" height="61.9641" fill="white" transform="translate(174.074 365.749) rotate(-13.3645)"/>
</clipPath>
</defs>
</svg>
