<svg width="15" height="18" viewBox="0 0 15 18" fill="none" xmlns="http://www.w3.org/2000/svg">
<g clip-path="url(#clip0_0_42)">
<path d="M6.84083 1.06268L2.7575 5.14601C2.65124 5.25603 2.59244 5.40338 2.59377 5.55633C2.5951 5.70928 2.65645 5.85559 2.7646 5.96374C2.87276 6.0719 3.01907 6.13324 3.17201 6.13457C3.32496 6.1359 3.47231 6.07711 3.58233 5.97085L6.66992 2.88326L6.66992 16.1418C6.66992 16.2965 6.73137 16.4448 6.84077 16.5542C6.95017 16.6636 7.09854 16.7251 7.25325 16.7251C7.40796 16.7251 7.55633 16.6636 7.66573 16.5542C7.77512 16.4448 7.83658 16.2965 7.83658 16.1418L7.83658 2.88326L10.9242 5.97085C10.978 6.02656 11.0423 6.071 11.1135 6.10157C11.1847 6.13214 11.2612 6.14824 11.3387 6.14891C11.4161 6.14958 11.4929 6.13482 11.5646 6.10549C11.6363 6.07616 11.7015 6.03285 11.7562 5.97808C11.811 5.92331 11.8543 5.85818 11.8836 5.78649C11.913 5.7148 11.9277 5.63798 11.9271 5.56053C11.9264 5.48307 11.9103 5.40653 11.8797 5.33536C11.8492 5.26419 11.8047 5.19982 11.749 5.14601L7.66566 1.06268C7.55627 0.953322 7.40793 0.891888 7.25325 0.891888C7.09857 0.891888 6.95022 0.953322 6.84083 1.06268Z" fill="#38056C"/>
</g>
<defs>
<clipPath id="clip0_0_42">
<rect width="17" height="14" fill="white" transform="translate(0.25293 17.3083) rotate(-90)"/>
</clipPath>
</defs>
</svg>
