<svg width="15" height="18" viewBox="0 0 15 18" fill="none" xmlns="http://www.w3.org/2000/svg">
<g clip-path="url(#clip0_0_508)">
<path d="M6.97755 0.815488L2.89422 4.89882C2.78796 5.00884 2.72916 5.15619 2.73049 5.30914C2.73182 5.46209 2.79317 5.60839 2.90132 5.71655C3.00948 5.8247 3.15578 5.88605 3.30873 5.88738C3.46168 5.88871 3.60903 5.82991 3.71905 5.72365L6.80663 2.63607L6.80663 15.8946C6.80663 16.0493 6.86809 16.1977 6.97749 16.3071C7.08689 16.4164 7.23526 16.4779 7.38997 16.4779C7.54468 16.4779 7.69305 16.4164 7.80245 16.3071C7.91184 16.1977 7.9733 16.0493 7.9733 15.8946L7.9733 2.63607L11.0609 5.72365C11.1147 5.77937 11.1791 5.82381 11.2502 5.85438C11.3214 5.88495 11.3979 5.90104 11.4754 5.90172C11.5529 5.90239 11.6297 5.88763 11.7014 5.8583C11.773 5.82897 11.8382 5.78566 11.8929 5.73089C11.9477 5.67611 11.991 5.61098 12.0204 5.53929C12.0497 5.46761 12.0645 5.39079 12.0638 5.31334C12.0631 5.23588 12.047 5.15934 12.0164 5.08817C11.9859 5.017 11.9414 4.95263 11.8857 4.89882L7.80238 0.815488C7.69299 0.70613 7.54465 0.644696 7.38997 0.644696C7.23529 0.644696 7.08694 0.70613 6.97755 0.815488Z" fill="white"/>
</g>
<defs>
<clipPath id="clip0_0_508">
<rect width="17" height="14" fill="white" transform="translate(0.389648 17.0613) rotate(-90)"/>
</clipPath>
</defs>
</svg>
