<svg width="56" height="52" viewBox="0 0 56 52" fill="none" xmlns="http://www.w3.org/2000/svg">
<g clip-path="url(#clip0_0_65)">
<path d="M48.0215 7.50394C40.1913 -0.220253 28.2228 -1.37072 19.1561 4.04513L12.886 7.85031C11.1981 8.83011 9.60794 10.0325 8.15829 11.4625C-1.04886 20.545 -1.04886 35.271 8.15829 44.3535C15.9885 52.0778 27.9544 53.2282 37.0237 47.8123L43.2938 44.0047C44.9817 43.0249 46.5719 41.8225 48.0215 40.3925C57.2287 31.31 57.2287 16.584 48.0215 7.50145V7.50394Z" fill="#38056C" stroke="#38056C" stroke-width="0.691363" stroke-miterlimit="10"/>
<path d="M31.3503 47.2049C44.3709 47.2049 54.9261 36.7925 54.9261 23.9482C54.9261 11.1038 44.3709 0.691406 31.3503 0.691406C18.3297 0.691406 7.77441 11.1038 7.77441 23.9482C7.77441 36.7925 18.3297 47.2049 31.3503 47.2049Z" fill="white" stroke="#38056C" stroke-width="0.691363" stroke-miterlimit="10"/>
<path d="M31.3503 47.2049C44.3709 47.2049 54.9261 36.7925 54.9261 23.9482C54.9261 11.1038 44.3709 0.691406 31.3503 0.691406C18.3297 0.691406 7.77441 11.1038 7.77441 23.9482C7.77441 36.7925 18.3297 47.2049 31.3503 47.2049Z" stroke="#38056C" stroke-width="0.691363" stroke-linejoin="round"/>
<path d="M37.7356 14.85L29.5768 22.8983C29.3812 23.0913 29.0627 23.0913 28.8671 22.8983L24.9645 19.0486C24.5732 18.6626 23.9387 18.6626 23.545 19.0486L19.9986 22.547C19.6073 22.933 19.6073 23.5589 19.9986 23.9474L24.2547 28.1459L28.5109 32.3445C28.9022 32.7305 29.5367 32.7305 29.9305 32.3445L34.1867 28.1459L42.6991 19.7488C43.0904 19.3628 43.0904 18.7368 42.6991 18.3484L39.1526 14.85C38.7614 14.4641 38.1269 14.4641 37.7331 14.85H37.7356Z" stroke="#38056C" stroke-width="0.691363" stroke-linejoin="round"/>
</g>
<defs>
<clipPath id="clip0_0_65">
<rect width="54.6177" height="51.8522" fill="white" transform="translate(0.75293)"/>
</clipPath>
</defs>
</svg>
