<svg width="62" height="62" viewBox="0 0 62 62" fill="none" xmlns="http://www.w3.org/2000/svg">
<path d="M50.2504 12.4229C42.6119 4.78442 30.9365 3.64673 22.0919 9.00243L15.9752 12.7654C14.3286 13.7343 12.7775 14.9233 11.3633 16.3375C2.38167 25.3192 2.38167 39.8816 11.3633 48.8633C19.0017 56.5017 30.6747 57.6391 39.5218 52.2837L45.6384 48.5183C47.285 47.5494 48.8362 46.3603 50.2504 44.9462C59.2321 35.9645 59.2321 21.4021 50.2504 12.4204V12.4229Z" fill="#38056C" stroke="#38056C" stroke-miterlimit="10"/>
<path d="M33.9856 51.684C46.6873 51.684 56.9839 41.3872 56.9839 28.6855C56.9839 15.9838 46.6873 5.68701 33.9856 5.68701C21.2838 5.68701 10.9871 15.9838 10.9871 28.6855C10.9871 41.3872 21.2838 51.684 33.9856 51.684Z" fill="white" stroke="#38056C" stroke-miterlimit="10"/>
<path d="M33.9856 51.684C46.6873 51.684 56.9839 41.3872 56.9839 28.6855C56.9839 15.9838 46.6873 5.68701 33.9856 5.68701C21.2838 5.68701 10.9871 15.9838 10.9871 28.6855C10.9871 41.3872 21.2838 51.684 33.9856 51.684Z" stroke="#38056C" stroke-linejoin="round"/>
<path d="M40.217 19.6898L32.258 27.6487C32.0672 27.8396 31.7565 27.8396 31.5656 27.6487L27.7587 23.8418C27.377 23.4601 26.758 23.4601 26.3739 23.8418L22.9143 27.3013C22.5326 27.683 22.5326 28.302 22.9143 28.6861L27.0663 32.8381L31.2182 36.9901C31.5999 37.3718 32.2189 37.3718 32.603 36.9901L36.755 32.8381L45.0589 24.5342C45.4406 24.1525 45.4406 23.5335 45.0589 23.1494L41.5994 19.6898C41.2177 19.3082 40.5987 19.3082 40.2145 19.6898H40.217Z" stroke="#38056C" stroke-linejoin="round"/>
</svg>
