<svg width="224" height="58" viewBox="0 0 224 58" fill="none" xmlns="http://www.w3.org/2000/svg">
<g clip-path="url(#clip0_0_47)">
<path fill-rule="evenodd" clip-rule="evenodd" d="M8.08482 51.2676L12.3546 46.256H14.3151L9.51545 51.8505L14.6595 57.7628H12.5666L8.08482 52.5393V57.7363H6.57471V52.5393L2.09296 57.7363H0L5.14408 51.824L0.344411 46.2339H2.3049L6.57471 51.2455V46.2339H8.08482V51.272V51.2676ZM26.8022 57.7363H25.2921V48.7243L19.1148 57.7363H17.4722V46.256H18.9823V55.299L25.1596 46.256H26.8022V57.7363ZM37.0639 54.4733C37.0639 56.5927 35.5273 57.9483 33.4829 57.9483C31.7608 57.9483 30.4362 56.9945 30.0874 56.0938L30.5112 54.7161C31.2531 55.7759 32.3393 56.3057 33.505 56.3057C34.7766 56.3057 35.5714 55.5639 35.5714 54.3982C35.5714 53.4445 34.8296 52.5437 33.3725 52.5437H32.3923V50.9011H33.399C34.5117 50.9011 35.1211 50.1328 35.1211 49.2585C35.1211 48.3843 34.4852 47.6955 33.5315 47.6955C32.4188 47.6955 31.571 48.2783 30.9351 49.1261L30.6172 47.669C31.0941 46.7947 32.2068 46.0794 33.505 46.0794C35.3595 46.0794 36.6356 47.3775 36.6356 49.157C36.6356 50.1372 36.2117 51.038 35.4964 51.5679C36.4236 52.0977 37.0595 53.1045 37.0595 54.4821L37.0639 54.4733ZM40.5389 46.256H42.049V51.0292H48.2793V46.256H49.7894V57.7363H48.2793V52.6453H42.049V57.7363H40.5389V46.256ZM53.8738 57.7363V46.256H55.3839V50.7642H57.1059C59.2254 50.7642 60.7134 52.1949 60.7134 54.2393C60.7134 56.2836 59.1503 57.7408 57.1059 57.7408H53.8694L53.8738 57.7363ZM57.3488 56.1203C58.4085 56.1203 59.1768 55.299 59.1768 54.2393C59.1768 53.1265 58.382 52.3582 57.3488 52.3582H55.3883V56.0982H57.3488V56.1247V56.1203ZM45.8154 22.7389H55.0174V15.6608H59.1282V34.7756H55.0174V27.1147H45.8154V34.7756H41.7046V15.6653H45.8154V22.7433V22.7389ZM142.056 34.6962V32.7092C142.056 32.7092 139.963 35.226 136.276 35.226C131.503 35.226 126.465 31.7245 126.465 25.2028C126.465 17.8863 131.768 15.1001 135.985 15.1001C139.698 15.1001 141.977 17.5374 141.977 17.5374V15.6034H145.955V34.7182H142.056V34.6917V34.6962ZM130.549 25.2028C130.549 27.6931 132.483 30.7708 136.594 30.7708C140.255 30.7708 141.897 28.4924 141.897 28.4924V21.7322C140.599 20.2751 138.714 19.4803 136.594 19.4803C133.013 19.5068 130.549 21.9441 130.549 25.2072V25.2028ZM156.106 22.7389H165.308V15.6608H169.419V34.7756H165.308V27.1147H156.106V34.7756H151.995V15.6653H156.106V22.7433V22.7389ZM194.866 34.7756H200.142V29.4991H194.866V34.7756ZM17.1543 16.1421C17.1543 20.5444 14.0767 24.3859 8.51312 24.3859H5.0911V34.7536H0.821287V7.7085H8.48222C13.3614 7.7085 17.1499 11.157 17.1499 16.1377L17.1543 16.1421ZM5.01162 19.9616H9.04299C10.1027 19.9616 11.0035 19.6172 11.7188 18.9548C12.4341 18.266 12.805 17.3652 12.805 16.2525C12.805 15.1398 12.4606 14.292 11.7983 13.5767C11.1095 12.8614 10.2087 12.4905 9.12247 12.4905H5.01162V19.966V19.9616ZM95.6049 35.3408C90.9641 35.3408 85.7141 31.8128 85.7141 25.2646C85.7141 19.4847 90.0369 15.2414 95.6314 15.2414C99.5832 15.2414 102.153 17.6258 102.63 18.478L101.491 21.8735C101.491 21.8735 99.0799 19.6216 96.2142 19.6216C91.7854 19.6216 89.8514 22.7257 89.8514 25.2425C89.8514 28.7705 92.5537 30.943 96.2672 30.943C98.943 30.943 101.252 29.3269 101.782 28.7175L102.974 32.1131C103.001 32.1131 100.378 35.3497 95.6049 35.3497V35.3408ZM116.124 35.3408C111.483 35.3408 106.233 31.8128 106.233 25.2646C106.233 19.4847 110.556 15.2414 116.15 15.2414C120.102 15.2414 122.672 17.6258 123.149 18.478L122.01 21.8735C122.01 21.8735 119.599 19.6216 116.733 19.6216C112.304 19.6216 110.37 22.7257 110.37 25.2425C110.37 28.7705 113.073 30.943 116.786 30.943C119.462 30.943 121.771 29.3269 122.301 28.7175L123.493 32.1131C123.52 32.1131 120.87 35.3497 116.124 35.3497V35.3408ZM183.385 35.3408C178.745 35.3408 173.495 31.8128 173.495 25.2646C173.495 19.4847 177.817 15.2414 183.412 15.2414C187.364 15.2414 189.934 17.6258 190.411 18.478L189.271 21.8735C189.271 21.8735 186.86 19.6216 183.995 19.6216C179.566 19.6216 177.632 22.7257 177.632 25.2425C177.632 28.7705 180.334 30.943 184.048 30.943C186.724 30.943 189.033 29.3269 189.563 28.7175L190.755 32.1131C190.781 32.1131 188.132 35.3497 183.385 35.3497V35.3408ZM73.9423 31.2035C77.3379 31.2035 79.3248 29.349 79.8547 28.6866L81.0469 31.8967C80.782 32.3471 78.0797 35.3982 73.8363 35.3982C67.9769 35.3982 63.7601 31.5523 63.7601 25.375C63.7601 20.6813 66.8907 15.2988 73.333 15.2988C78.9539 15.2988 82.4554 19.8865 82.4554 25.216C82.4554 25.7724 82.4289 26.2758 82.3495 26.7261H67.9549C68.1668 28.1833 69.8094 31.2079 73.9467 31.2079L73.9423 31.2035ZM73.174 19.5907C69.5135 19.5907 68.1624 22.24 67.9769 23.3306H78.3446C77.9207 21.4496 76.1722 19.5907 73.174 19.5907ZM28.7406 31.2035C32.1362 31.2035 34.1231 29.349 34.653 28.6866L35.8452 31.8967C35.5803 32.3471 32.878 35.3982 28.6347 35.3982C22.7753 35.3982 18.5584 31.5523 18.5584 25.375C18.5584 20.6813 21.689 15.2988 28.1313 15.2988C33.7522 15.2988 37.2538 19.8865 37.2538 25.216C37.2538 25.7724 37.2273 26.2758 37.1478 26.7261H22.7488C22.9607 28.1833 24.6033 31.2079 28.7406 31.2079V31.2035ZM27.9723 19.5907C24.3119 19.5907 22.9607 22.24 22.7753 23.3306H33.1429C32.719 21.4496 30.9705 19.5907 27.9723 19.5907Z" fill="#50287D"/>
<path fill-rule="evenodd" clip-rule="evenodd" d="M209.397 27.1145L194.866 0.0473633H223.924L209.397 27.1145Z" fill="#79FF3A"/>
</g>
<defs>
<clipPath id="clip0_0_47">
<rect width="223.924" height="57.9051" fill="white" transform="translate(0 0.0473633)"/>
</clipPath>
</defs>
</svg>
