<svg width="212" height="56" viewBox="0 0 212 56" fill="none" xmlns="http://www.w3.org/2000/svg">
<g clip-path="url(#clip0_0_496)">
<path fill-rule="evenodd" clip-rule="evenodd" d="M7.62253 48.9682L11.6482 44.2431H13.4966L8.97135 49.5177L13.8213 55.092H11.848L7.62253 50.1671V55.067H6.19877V50.1671L1.97328 55.067H0L4.84994 49.4927L0.324717 44.2223H2.17311L6.19877 48.9474V44.2223H7.62253V48.9723V48.9682ZM25.2697 55.067H23.8459V46.5703L18.0218 55.067H16.4731V44.2431H17.8969V52.769L23.721 44.2431H25.2697V55.067ZM34.9446 51.9905C34.9446 53.9888 33.4958 55.2668 31.5683 55.2668C29.9447 55.2668 28.6958 54.3676 28.367 53.5184L28.7666 52.2195C29.466 53.2186 30.4901 53.7182 31.5891 53.7182C32.7881 53.7182 33.5374 53.0188 33.5374 51.9198C33.5374 51.0205 32.8381 50.1713 31.4643 50.1713H30.5401V48.6226H31.4892C32.5383 48.6226 33.1128 47.8983 33.1128 47.074C33.1128 46.2497 32.5133 45.6003 31.6141 45.6003C30.565 45.6003 29.7657 46.1498 29.1663 46.9491L28.8665 45.5753C29.3161 44.751 30.3652 44.0766 31.5891 44.0766C33.3376 44.0766 34.5407 45.3005 34.5407 46.9782C34.5407 47.9024 34.1411 48.7517 33.4667 49.2513C34.3409 49.7508 34.9404 50.7 34.9404 51.9989L34.9446 51.9905ZM38.2209 44.2431H39.6446V48.7434H45.5187V44.2431H46.9424V55.067H45.5187V50.267H39.6446V55.067H38.2209V44.2431ZM50.7933 55.067V44.2431H52.217V48.4936H53.8406C55.8389 48.4936 57.2418 49.8424 57.2418 51.7699C57.2418 53.6974 55.7681 55.0712 53.8406 55.0712H50.7891L50.7933 55.067ZM54.0696 53.5434C55.0687 53.5434 55.7931 52.769 55.7931 51.7699C55.7931 50.7208 55.0437 49.9964 54.0696 49.9964H52.2212V53.5225H54.0696V53.5475V53.5434ZM43.1957 22.0708H51.8715V15.3974H55.7473V33.4192H51.8715V26.1963H43.1957V33.4192H39.3199V15.4016H43.1957V22.0749V22.0708ZM133.933 33.3443V31.4709C133.933 31.4709 131.96 33.8438 128.484 33.8438C123.984 33.8438 119.234 30.5426 119.234 24.3937C119.234 17.4956 124.233 14.8687 128.209 14.8687C131.71 14.8687 133.858 17.1667 133.858 17.1667V15.3433H137.609V33.3651H133.933V33.3401V33.3443ZM123.084 24.3937C123.084 26.7417 124.908 29.6433 128.784 29.6433C132.235 29.6433 133.783 27.4952 133.783 27.4952V21.1216C132.56 19.7478 130.782 18.9984 128.784 18.9984C125.407 19.0234 123.084 21.3214 123.084 24.3979V24.3937ZM147.18 22.0708H155.856V15.3974H159.732V33.4192H155.856V26.1963H147.18V33.4192H143.304V15.4016H147.18V22.0749V22.0708ZM183.723 33.4192H188.698V28.4444H183.723V33.4192ZM16.1734 15.8512C16.1734 20.0017 13.2718 23.6236 8.02634 23.6236H4.79998V33.3984H0.774325V7.89978H7.9972C12.5974 7.89978 16.1692 11.1511 16.1692 15.847L16.1734 15.8512ZM4.72505 19.4522H8.52591C9.52503 19.4522 10.3743 19.1275 11.0487 18.503C11.7231 17.8536 12.0728 17.0043 12.0728 15.9553C12.0728 14.9062 11.7481 14.1069 11.1236 13.4325C10.4742 12.758 9.62495 12.4084 8.60084 12.4084H4.72505V19.4564V19.4522ZM90.1381 33.9521C85.7628 33.9521 80.8129 30.6258 80.8129 24.452C80.8129 19.0026 84.8885 15.0019 90.1631 15.0019C93.889 15.0019 96.3119 17.25 96.7615 18.0534L95.6875 21.2548C95.6875 21.2548 93.4145 19.1317 90.7126 19.1317C86.5371 19.1317 84.7137 22.0583 84.7137 24.4312C84.7137 27.7575 87.2615 29.8057 90.7626 29.8057C93.2854 29.8057 95.4627 28.282 95.9622 27.7075L97.0863 30.9089C97.1112 30.9089 94.6384 33.9604 90.1381 33.9604V33.9521ZM109.484 33.9521C105.108 33.9521 100.159 30.6258 100.159 24.452C100.159 19.0026 104.234 15.0019 109.509 15.0019C113.235 15.0019 115.658 17.25 116.107 18.0534L115.033 21.2548C115.033 21.2548 112.76 19.1317 110.058 19.1317C105.883 19.1317 104.059 22.0583 104.059 24.4312C104.059 27.7575 106.607 29.8057 110.108 29.8057C112.631 29.8057 114.808 28.282 115.308 27.7075L116.432 30.9089C116.457 30.9089 113.959 33.9604 109.484 33.9604V33.9521ZM172.899 33.9521C168.524 33.9521 163.574 30.6258 163.574 24.452C163.574 19.0026 167.65 15.0019 172.924 15.0019C176.65 15.0019 179.073 17.25 179.523 18.0534L178.449 21.2548C178.449 21.2548 176.176 19.1317 173.474 19.1317C169.298 19.1317 167.475 22.0583 167.475 24.4312C167.475 27.7575 170.023 29.8057 173.524 29.8057C176.047 29.8057 178.224 28.282 178.723 27.7075L179.847 30.9089C179.872 30.9089 177.375 33.9604 172.899 33.9604V33.9521ZM69.7143 30.0513C72.9156 30.0513 74.789 28.3028 75.2886 27.6784L76.4126 30.7049C76.1628 31.1295 73.615 34.0062 69.6144 34.0062C64.09 34.0062 60.1143 30.3802 60.1143 24.5561C60.1143 20.1308 63.0659 15.056 69.1398 15.056C74.4393 15.056 77.7406 19.3814 77.7406 24.4062C77.7406 24.9308 77.7156 25.4054 77.6407 25.83H64.0692C64.269 27.2038 65.8177 30.0555 69.7184 30.0555L69.7143 30.0513ZM68.9899 19.1025C65.5387 19.1025 64.2648 21.6003 64.09 22.6286H73.8648C73.4652 20.8552 71.8166 19.1025 68.9899 19.1025ZM27.0972 30.0513C30.2986 30.0513 32.172 28.3028 32.6715 27.6784L33.7956 30.7049C33.5458 31.1295 30.998 34.0062 26.9973 34.0062C21.473 34.0062 17.4973 30.3802 17.4973 24.5561C17.4973 20.1308 20.4489 15.056 26.5227 15.056C31.8223 15.056 35.1236 19.3814 35.1236 24.4062C35.1236 24.9308 35.0986 25.4054 35.0237 25.83H21.448C21.6478 27.2038 23.1965 30.0555 27.0972 30.0555V30.0513ZM26.3729 19.1025C22.9217 19.1025 21.6478 21.6003 21.473 22.6286H31.2478C30.8481 20.8552 29.1996 19.1025 26.3729 19.1025Z" fill="white"/>
<path fill-rule="evenodd" clip-rule="evenodd" d="M197.424 26.1961L183.723 0.676636H211.12L197.424 26.1961Z" fill="#79FF3A"/>
</g>
<defs>
<clipPath id="clip0_0_496">
<rect width="211.12" height="54.5941" fill="white" transform="translate(0 0.676758)"/>
</clipPath>
</defs>
</svg>
