<svg width="565" height="544" viewBox="0 0 565 544" fill="none" xmlns="http://www.w3.org/2000/svg">
<path d="M59.6904 159.108C53.9238 131.485 71.6421 104.417 99.2655 98.6508L315.585 53.4935C343.208 47.727 370.276 65.4455 376.042 93.0688L487.417 626.573C493.183 654.197 475.465 681.264 447.841 687.031L231.522 732.188C203.899 737.955 176.831 720.236 171.064 692.613L59.6904 159.108Z" fill="#38056C"/>
<mask id="mask0_0_311" style="mask-type:luminance" maskUnits="userSpaceOnUse" x="58" y="52" width="431" height="682">
<path fill-rule="evenodd" clip-rule="evenodd" d="M59.6906 159.109C53.924 131.485 71.6424 104.417 99.2657 98.651L315.585 53.4937C343.208 47.7272 370.276 65.4456 376.043 93.069L487.417 626.573C493.183 654.196 475.465 681.264 447.842 687.031L231.522 732.188C203.899 737.955 176.831 720.236 171.065 692.613L59.6906 159.109Z" fill="white"/>
</mask>
<g mask="url(#mask0_0_311)">
<path d="M99.5653 100.082L315.884 54.9248L315.287 52.0614L98.9675 97.2187L99.5653 100.082ZM374.612 93.3673L485.986 626.872L488.849 626.274L377.475 92.7696L374.612 93.3673ZM447.544 685.599L231.224 730.756L231.822 733.619L448.141 688.462L447.544 685.599ZM172.497 692.314L61.123 158.809L58.2597 159.407L169.634 692.911L172.497 692.314ZM231.224 730.756C204.392 736.357 178.099 719.146 172.497 692.314L169.634 692.911C175.565 721.325 203.408 739.551 231.822 733.619L231.224 730.756ZM485.986 626.872C491.587 653.704 474.376 679.997 447.544 685.599L448.141 688.462C476.555 682.531 494.781 654.688 488.849 626.274L485.986 626.872ZM315.884 54.9248C342.717 49.3234 369.01 66.5347 374.612 93.3673L377.475 92.7696C371.543 64.3556 343.701 46.1299 315.287 52.0614L315.884 54.9248ZM98.9675 97.2187C70.5535 103.15 52.328 130.993 58.2597 159.407L61.123 158.809C55.5215 131.976 72.7327 105.683 99.5653 100.082L98.9675 97.2187Z" fill="#38056C"/>
</g>
<path d="M64.7984 125.619L111.481 115.88L118.274 148.44L61.3838 160.308C58.412 146.064 59.6998 135.885 64.7984 125.619Z" fill="white"/>
<path d="M76.2266 155.676C70.4599 128.053 88.1783 100.985 115.802 95.2184L332.121 50.0611C359.744 44.2947 386.812 62.0131 392.579 89.6365L503.953 623.141C509.719 650.764 492.001 677.832 464.378 683.598L248.058 728.756C220.435 734.522 193.367 716.804 187.601 689.18L76.2266 155.676Z" fill="white"/>
<mask id="mask1_0_311" style="mask-type:luminance" maskUnits="userSpaceOnUse" x="75" y="48" width="431" height="682">
<path fill-rule="evenodd" clip-rule="evenodd" d="M76.2277 155.676C70.4611 128.052 88.1795 100.985 115.803 95.2182L332.122 50.0608C359.745 44.2943 386.813 62.0128 392.58 89.6361L503.954 623.14C509.72 650.764 492.002 677.831 464.379 683.598L248.06 728.755C220.436 734.522 193.368 716.803 187.602 689.18L76.2277 155.676Z" fill="white"/>
</mask>
<g mask="url(#mask1_0_311)">
<path d="M116.102 96.65L332.422 51.4927L331.824 48.6293L115.505 93.7866L116.102 96.65ZM391.149 89.9352L502.523 623.44L505.386 622.842L394.012 89.3374L391.149 89.9352ZM464.081 682.167L247.762 727.324L248.359 730.187L464.678 685.03L464.081 682.167ZM189.034 688.881L77.6601 155.377L74.7968 155.975L186.171 689.479L189.034 688.881ZM247.762 727.324C220.929 732.925 194.636 715.714 189.034 688.881L186.171 689.479C192.103 717.893 219.945 736.119 248.359 730.187L247.762 727.324ZM502.523 623.44C508.124 650.272 490.913 676.565 464.081 682.167L464.678 685.03C493.092 679.098 511.318 651.256 505.386 622.842L502.523 623.44ZM332.422 51.4927C359.254 45.8913 385.547 63.1025 391.149 89.9352L394.012 89.3374C388.081 60.9235 360.238 42.6978 331.824 48.6293L332.422 51.4927ZM115.505 93.7866C87.0906 99.7181 68.8651 127.561 74.7968 155.975L77.6601 155.377C72.0586 128.544 89.2698 102.251 116.102 96.65L115.505 93.7866Z" fill="#38056C"/>
</g>
<path d="M92.3048 152.916C88.1858 133.185 100.842 113.851 120.573 109.732L158.861 101.74C163.579 100.755 168.202 103.781 169.187 108.499C170.861 116.519 178.72 121.664 186.741 119.99L274.712 101.625C283.159 99.8621 288.602 91.6151 286.902 83.1551C285.892 78.1251 289.172 73.2351 294.21 72.2627L336.763 64.0476C356.343 60.2677 375.332 72.9035 379.407 92.4243L490.629 625.199C494.748 644.93 482.092 664.264 462.361 668.383L246.599 713.424C226.868 717.543 207.534 704.887 203.415 685.156L92.3048 152.916Z" fill="#CCC8FF"/>
<mask id="mask2_0_311" style="mask-type:luminance" maskUnits="userSpaceOnUse" x="91" y="63" width="401" height="652">
<path fill-rule="evenodd" clip-rule="evenodd" d="M92.305 152.916C88.1859 133.186 100.842 113.851 120.573 109.733L158.861 101.74C163.579 100.755 168.202 103.781 169.187 108.499C170.861 116.52 178.721 121.664 186.741 119.99L274.712 101.626C283.159 99.8624 288.602 91.6153 286.902 83.1552C285.892 78.1254 289.173 73.2354 294.21 72.2628L336.764 64.0477C356.343 60.2679 375.332 72.9037 379.408 92.4244L490.629 625.199C494.748 644.93 482.092 664.264 462.361 668.383L246.599 713.424C226.868 717.543 207.534 704.887 203.415 685.156L92.305 152.916Z" fill="white"/>
</mask>
<g mask="url(#mask2_0_311)">
<path d="M377.975 92.7226L489.197 625.498L492.06 624.9L380.838 92.1248L377.975 92.7226ZM462.062 666.951L246.299 711.992L246.897 714.856L462.659 669.814L462.062 666.951ZM204.846 684.857L93.7355 152.617L90.8722 153.215L201.982 685.455L204.846 684.857ZM120.871 111.163L159.159 103.171L158.561 100.307L120.273 108.3L120.871 111.163ZM294.486 73.6981L337.04 65.4831L336.485 62.6111L293.932 70.8261L294.486 73.6981ZM187.039 121.421L275.01 103.057L274.412 100.193L186.441 118.558L187.039 121.421ZM167.754 108.797C169.594 117.608 178.228 123.26 187.039 121.421L186.441 118.558C179.211 120.067 172.127 115.429 170.617 108.199L167.754 108.797ZM293.932 70.8261C288.097 71.9525 284.297 77.6166 285.467 83.4426L288.335 82.8665C287.485 78.6327 290.246 74.5166 294.486 73.6981L293.932 70.8261ZM159.159 103.171C163.086 102.351 166.934 104.87 167.754 108.797L170.617 108.199C169.468 102.691 164.07 99.1575 158.561 100.307L159.159 103.171ZM285.467 83.4426C287.009 91.115 282.073 98.5942 274.412 100.193L275.01 103.057C284.243 101.129 290.193 92.1142 288.335 82.8665L285.467 83.4426ZM246.299 711.992C227.359 715.946 208.8 703.797 204.846 684.857L201.982 685.455C206.266 705.976 226.375 719.139 246.897 714.856L246.299 711.992ZM489.197 625.498C493.151 644.438 481.002 662.997 462.062 666.951L462.659 669.814C483.181 665.531 496.344 645.422 492.06 624.9L489.197 625.498ZM380.838 92.1248C376.6 71.8219 356.85 58.6797 336.485 62.6111L337.04 65.4831C355.835 61.8547 374.063 73.9841 377.975 92.7226L380.838 92.1248ZM93.7355 152.617C89.7816 133.677 101.93 115.117 120.871 111.163L120.273 108.3C99.7512 112.584 86.5881 132.693 90.8722 153.215L93.7355 152.617Z" fill="#38056C"/>
</g>
<path fill-rule="evenodd" clip-rule="evenodd" d="M411.847 212.216L183.469 108.533L195.574 82.1924L408.948 180.271L411.847 212.216Z" fill="white"/>
<path fill-rule="evenodd" clip-rule="evenodd" d="M400.807 168.544L226.437 88.4455L229.475 81.8381L403.844 161.936L400.807 168.544Z" fill="white"/>
<mask id="mask3_0_311" style="mask-type:luminance" maskUnits="userSpaceOnUse" x="180" y="99" width="12" height="12">
<path fill-rule="evenodd" clip-rule="evenodd" d="M191.314 103.514C191.94 106.511 189.962 109.46 186.897 110.099C183.832 110.739 180.84 108.828 180.214 105.831C179.589 102.835 181.566 99.8863 184.631 99.2465C187.697 98.6066 190.689 100.517 191.314 103.514Z" fill="white"/>
</mask>
<g mask="url(#mask3_0_311)">
<path d="M189.882 103.813C190.336 105.989 188.903 108.187 186.598 108.668L187.195 111.531C191.021 110.733 193.542 107.033 192.745 103.216L189.882 103.813ZM186.598 108.668C184.293 109.149 182.1 107.709 181.645 105.533L178.782 106.13C179.579 109.948 183.37 112.33 187.195 111.531L186.598 108.668ZM181.645 105.533C181.191 103.357 182.625 101.159 184.93 100.678L184.332 97.8148C180.507 98.6134 177.985 102.313 178.782 106.13L181.645 105.533ZM184.93 100.678C187.235 100.197 189.428 101.637 189.882 103.813L192.745 103.216C191.948 99.3976 188.157 97.0163 184.332 97.8148L184.93 100.678Z" fill="#38056C"/>
</g>
<path d="M194.089 102.932C193.463 99.9349 195.385 96.9982 198.382 96.3726L259.68 83.5765C262.677 82.9509 265.613 84.8733 266.239 87.8702C266.865 90.8671 264.942 93.8038 261.945 94.4294L200.648 107.225C197.651 107.851 194.714 105.929 194.089 102.932Z" fill="white"/>
<mask id="mask4_0_311" style="mask-type:luminance" maskUnits="userSpaceOnUse" x="193" y="83" width="74" height="25">
<path fill-rule="evenodd" clip-rule="evenodd" d="M194.089 102.932C193.463 99.9346 195.386 96.998 198.383 96.3723L259.68 83.5763C262.677 82.9507 265.614 84.873 266.239 87.87C266.865 90.8669 264.943 93.8035 261.946 94.4292L200.648 107.225C197.651 107.851 194.715 105.928 194.089 102.932Z" fill="white"/>
</mask>
<g mask="url(#mask4_0_311)">
<path d="M198.681 97.8043L259.979 85.0083L259.381 82.1449L198.084 94.941L198.681 97.8043ZM261.647 92.9978L200.349 105.794L200.947 108.657L262.245 95.8612L261.647 92.9978ZM200.349 105.794C198.143 106.254 195.981 104.839 195.521 102.633L192.657 103.231C193.448 107.018 197.159 109.448 200.947 108.657L200.349 105.794ZM264.808 88.1691C265.268 90.3754 263.853 92.5373 261.647 92.9978L262.245 95.8612C266.032 95.0705 268.462 91.359 267.671 87.5714L264.808 88.1691ZM259.979 85.0083C262.185 84.5477 264.347 85.9629 264.808 88.1691L267.671 87.5714C266.88 83.7838 263.169 81.3542 259.381 82.1449L259.979 85.0083ZM198.084 94.941C194.296 95.7317 191.866 99.4431 192.657 103.231L195.521 102.633C195.06 100.427 196.475 98.2649 198.681 97.8043L198.084 94.941Z" fill="#38056C"/>
</g>
<path d="M89.9267 257.258C92.9938 256.627 95.9909 258.603 96.6208 261.67L107.382 314.071C108.012 317.138 106.036 320.136 102.969 320.766C99.9021 321.396 96.905 319.421 96.2751 316.353L85.5136 263.953C84.8837 260.885 86.8595 257.888 89.9267 257.258Z" fill="white"/>
<mask id="mask5_0_311" style="mask-type:luminance" maskUnits="userSpaceOnUse" x="85" y="257" width="23" height="64">
<path fill-rule="evenodd" clip-rule="evenodd" d="M89.9279 257.258C92.9951 256.627 95.9921 258.603 96.6221 261.67L107.384 314.071C108.013 317.138 106.038 320.136 102.971 320.766C99.9033 321.396 96.9063 319.421 96.2764 316.353L85.5149 263.953C84.8849 260.885 86.8607 257.888 89.9279 257.258Z" fill="white"/>
</mask>
<g mask="url(#mask5_0_311)">
<path d="M95.1905 261.965L105.952 314.366L108.817 313.777L98.0556 261.376L95.1905 261.965ZM97.7099 316.06L86.9484 263.659L84.0832 264.248L94.8447 316.648L97.7099 316.06ZM86.9484 263.659C86.481 261.383 87.9471 259.158 90.2231 258.691L89.6346 255.825C85.7763 256.618 83.2908 260.389 84.0832 264.248L86.9484 263.659ZM102.677 319.334C100.401 319.801 98.1773 318.336 97.7099 316.06L94.8447 316.648C95.6371 320.507 99.4073 322.992 103.266 322.199L102.677 319.334ZM105.952 314.366C106.419 316.642 104.953 318.866 102.677 319.334L103.266 322.199C107.124 321.406 109.61 317.635 108.817 313.777L105.952 314.366ZM98.0556 261.376C97.2632 257.518 93.493 255.033 89.6346 255.825L90.2231 258.691C92.4991 258.223 94.723 259.689 95.1905 261.965L98.0556 261.376Z" fill="#38056C"/>
</g>
<path d="M103.396 322.139C106.464 321.508 109.461 323.484 110.091 326.551L120.852 378.952C121.482 382.019 119.506 385.017 116.439 385.647C113.372 386.277 110.375 384.302 109.745 381.234L98.9833 328.834C98.3534 325.766 100.329 322.769 103.396 322.139Z" fill="white"/>
<mask id="mask6_0_311" style="mask-type:luminance" maskUnits="userSpaceOnUse" x="98" y="322" width="23" height="64">
<path fill-rule="evenodd" clip-rule="evenodd" d="M103.398 322.139C106.465 321.508 109.462 323.484 110.092 326.551L120.853 378.952C121.483 382.019 119.507 385.016 116.44 385.647C113.373 386.277 110.376 384.302 109.746 381.234L98.9846 328.834C98.3546 325.766 100.33 322.769 103.398 322.139Z" fill="white"/>
</mask>
<g mask="url(#mask6_0_311)">
<path d="M108.659 326.846L119.421 379.247L122.286 378.658L111.524 326.257L108.659 326.846ZM111.179 380.941L100.417 328.54L97.552 329.129L108.313 381.529L111.179 380.941ZM100.417 328.54C99.9497 326.264 101.416 324.04 103.692 323.572L103.103 320.707C99.245 321.5 96.7596 325.27 97.552 329.129L100.417 328.54ZM116.146 384.215C113.87 384.683 111.646 383.217 111.179 380.941L108.313 381.529C109.106 385.388 112.876 387.873 116.734 387.08L116.146 384.215ZM119.421 379.247C119.888 381.523 118.422 383.747 116.146 384.215L116.734 387.08C120.593 386.287 123.078 382.516 122.286 378.658L119.421 379.247ZM111.524 326.257C110.732 322.399 106.962 319.914 103.103 320.707L103.692 323.572C105.968 323.104 108.192 324.57 108.659 326.846L111.524 326.257Z" fill="#38056C"/>
</g>
<mask id="mask7_0_311" style="mask-type:luminance" maskUnits="userSpaceOnUse" x="91" y="63" width="401" height="652">
<path fill-rule="evenodd" clip-rule="evenodd" d="M92.305 152.916C88.1859 133.186 100.842 113.851 120.573 109.733L158.861 101.74C163.579 100.755 168.202 103.781 169.187 108.499C170.861 116.52 178.721 121.664 186.741 119.99L274.712 101.626C283.159 99.8624 288.602 91.6153 286.902 83.1552C285.892 78.1254 289.173 73.2354 294.21 72.2628L336.764 64.0477C356.343 60.2679 375.332 72.9037 379.408 92.4244L490.629 625.199C494.748 644.93 482.092 664.264 462.361 668.383L246.599 713.424C226.868 717.543 207.534 704.887 203.415 685.156L92.305 152.916Z" fill="white"/>
</mask>
<g mask="url(#mask7_0_311)">
<path d="M377.975 92.7226L489.197 625.498L492.06 624.9L380.838 92.1248L377.975 92.7226ZM462.062 666.951L246.299 711.992L246.897 714.856L462.659 669.814L462.062 666.951ZM204.846 684.857L93.7355 152.617L90.8722 153.215L201.982 685.455L204.846 684.857ZM120.871 111.163L159.159 103.171L158.561 100.307L120.273 108.3L120.871 111.163ZM294.486 73.6981L337.04 65.4831L336.485 62.6111L293.932 70.8261L294.486 73.6981ZM187.039 121.421L275.01 103.057L274.412 100.193L186.441 118.558L187.039 121.421ZM167.754 108.797C169.594 117.608 178.228 123.26 187.039 121.421L186.441 118.558C179.211 120.067 172.127 115.429 170.617 108.199L167.754 108.797ZM293.932 70.8261C288.097 71.9525 284.297 77.6166 285.467 83.4426L288.335 82.8665C287.485 78.6327 290.246 74.5166 294.486 73.6981L293.932 70.8261ZM159.159 103.171C163.086 102.351 166.934 104.87 167.754 108.797L170.617 108.199C169.468 102.691 164.07 99.1575 158.561 100.307L159.159 103.171ZM285.467 83.4426C287.009 91.115 282.073 98.5942 274.412 100.193L275.01 103.057C284.243 101.129 290.193 92.1142 288.335 82.8665L285.467 83.4426ZM246.299 711.992C227.359 715.946 208.8 703.797 204.846 684.857L201.982 685.455C206.266 705.976 226.375 719.139 246.897 714.856L246.299 711.992ZM489.197 625.498C493.151 644.438 481.002 662.997 462.062 666.951L462.659 669.814C483.181 665.531 496.344 645.422 492.06 624.9L489.197 625.498ZM380.838 92.1248C376.6 71.8219 356.85 58.6797 336.485 62.6111L337.04 65.4831C355.835 61.8547 374.063 73.9841 377.975 92.7226L380.838 92.1248ZM93.7355 152.617C89.7816 133.677 101.93 115.117 120.871 111.163L120.273 108.3C99.7512 112.584 86.5881 132.693 90.8722 153.215L93.7355 152.617Z" fill="#38056C"/>
</g>
<g clip-path="url(#clip0_0_311)">
<path d="M240.263 326.33L200.217 335.531L209.417 375.577L249.464 366.377L240.263 326.33Z" fill="#1A1A1A"/>
<path d="M240.263 326.33L251.723 323.697L253.04 329.427L247.31 330.744L248.619 336.442L254.349 335.125L253.04 329.427L264.468 326.801L267.094 338.23L255.666 340.855L258.299 352.315L252.569 353.632L256.511 370.79L233.622 376.049L237.564 393.207L243.294 391.891L249.869 420.509L244.139 421.826L242.823 416.096L237.093 417.412L235.777 411.682L241.507 410.366L238.881 398.937L233.151 400.254L229.209 383.095L217.78 385.721L220.406 397.149L226.104 395.84L227.421 401.57L215.993 404.196L209.417 375.577L249.464 366.377L240.263 326.33Z" fill="#CCC8FF"/>
<path d="M251.724 323.697L268.882 319.755L270.198 325.485L275.928 324.168L274.612 318.438L280.31 317.129L282.936 328.558L277.238 329.867L278.554 335.597L272.824 336.913L275.457 348.373L269.727 349.69L268.411 343.96L262.681 345.276L263.997 351.006L258.299 352.315L255.666 340.855L267.094 338.23L264.468 326.801L253.04 329.427L251.724 323.697Z" fill="#1A1A1A"/>
<path d="M274.612 318.439L268.882 319.755L270.198 325.485L275.928 324.169L274.612 318.439Z" fill="#CCC8FF"/>
<path d="M280.311 317.13L286.041 315.813L287.357 321.543L293.087 320.227L295.713 331.655L289.983 332.972L288.666 327.242L282.936 328.558L280.311 317.13Z" fill="#CCC8FF"/>
<path d="M291.771 314.497L286.041 315.813L287.357 321.543L293.087 320.227L291.771 314.497Z" fill="#1A1A1A"/>
<path d="M291.771 314.497L303.199 311.871L305.825 323.299L300.126 324.609L298.817 318.91L293.087 320.227L291.771 314.497Z" fill="#CCC8FF"/>
<path d="M303.199 311.871L314.659 309.238L315.976 314.968L310.246 316.285L311.555 321.983L305.825 323.299L303.199 311.871Z" fill="#1A1A1A"/>
<path d="M314.659 309.238L326.088 306.612L335.288 346.659L375.367 337.451L379.309 354.609L373.579 355.926L370.953 344.498L365.223 345.814L366.539 351.544L349.381 355.486L348.065 349.756L336.605 352.389L340.547 369.547L334.848 370.857L332.223 359.428L326.493 360.745L323.86 349.285L329.59 347.968L328.273 342.238L322.543 343.555L321.234 337.856L326.964 336.54L325.648 330.81L319.918 332.126L318.601 326.396L324.331 325.08L321.706 313.652L315.976 314.968L314.659 309.238Z" fill="#CCC8FF"/>
<path d="M366.135 297.411L326.088 306.612L335.289 346.659L375.335 337.458L366.135 297.411Z" fill="#1A1A1A"/>
<path d="M235.883 333.369L207.265 339.944L213.84 368.563L242.458 361.988L235.883 333.369Z" fill="#CCC8FF"/>
<path d="M253.041 329.427L247.311 330.743L248.627 336.473L254.357 335.157L253.041 329.427Z" fill="#1A1A1A"/>
<path d="M293.087 320.227L298.817 318.91L300.126 324.609L305.824 323.299L307.141 329.029L301.443 330.339L302.759 336.069L297.029 337.385L299.655 348.813L293.925 350.13L295.241 355.86L289.511 357.176L286.886 345.748L292.616 344.431L291.299 338.701L285.569 340.018L282.936 328.558L288.666 327.241L289.983 332.971L295.713 331.655L293.087 320.227Z" fill="#1A1A1A"/>
<path d="M315.976 314.968L310.246 316.285L311.563 322.015L317.293 320.698L315.976 314.968Z" fill="#CCC8FF"/>
<path d="M315.976 314.968L321.706 313.652L324.332 325.08L318.602 326.397L319.918 332.127L314.188 333.443L315.505 339.173L321.235 337.857L322.544 343.555L316.814 344.871L318.13 350.601L323.86 349.285L326.493 360.745L332.223 359.428L334.849 370.857L329.119 372.173L327.802 366.443L322.072 367.76L320.763 362.061L315.033 363.378L313.717 357.648L308.018 358.957L306.702 353.227L312.4 351.918L307.142 329.029L312.872 327.713L311.555 321.983L317.285 320.667L315.976 314.968Z" fill="#1A1A1A"/>
<path d="M361.752 304.451L333.134 311.026L339.709 339.644L368.327 333.069L361.752 304.451Z" fill="#CCC8FF"/>
<path d="M231.43 340.391L214.271 344.333L218.213 361.492L235.372 357.55L231.43 340.391Z" fill="#1A1A1A"/>
<path d="M277.239 329.867L282.937 328.558L285.57 340.018L279.872 341.327L281.188 347.057L286.886 345.748L289.512 357.176L295.242 355.86L297.875 367.32L292.145 368.636L293.454 374.335L282.026 376.96L280.717 371.262L269.257 373.895L267.94 368.165L285.13 364.215L282.497 352.755L276.767 354.072L278.084 359.802L272.354 361.118L269.728 349.69L275.458 348.373L272.825 336.913L278.555 335.597L277.239 329.867Z" fill="#CCC8FF"/>
<path d="M311.555 321.983L305.825 323.299L307.142 329.029L312.872 327.713L311.555 321.983Z" fill="#CCC8FF"/>
<path d="M357.331 311.466L340.173 315.408L344.115 332.566L361.274 328.624L357.331 311.466Z" fill="#1A1A1A"/>
<path d="M301.443 330.338L307.141 329.029L312.4 351.917L306.701 353.227L305.385 347.497L299.655 348.813L297.029 337.385L302.759 336.068L301.443 330.338Z" fill="#CCC8FF"/>
<path d="M268.412 343.96L262.682 345.276L263.998 351.006L269.728 349.69L268.412 343.96Z" fill="#CCC8FF"/>
<path d="M285.601 340.011L279.871 341.327L281.188 347.057L286.918 345.741L285.601 340.011Z" fill="#1A1A1A"/>
<path d="M291.3 338.701L285.57 340.018L286.886 345.748L292.616 344.431L291.3 338.701Z" fill="#CCC8FF"/>
<path d="M319.918 332.127L314.188 333.443L315.504 339.173L321.234 337.857L319.918 332.127Z" fill="#CCC8FF"/>
<path d="M325.648 330.81L319.918 332.126L321.234 337.856L326.964 336.54L325.648 330.81Z" fill="#1A1A1A"/>
<path d="M252.569 353.632L258.299 352.316L260.925 363.744L266.623 362.435L263.998 351.006L269.728 349.69L272.353 361.118L278.083 359.802L276.767 354.072L282.497 352.755L285.13 364.215L267.94 368.165L269.256 373.895L263.558 375.204L262.241 369.474L256.511 370.79L252.569 353.632Z" fill="#1A1A1A"/>
<path d="M264.03 350.999L258.3 352.316L260.933 363.776L266.663 362.459L264.03 350.999Z" fill="#CCC8FF"/>
<path d="M299.656 348.814L293.926 350.13L295.242 355.86L300.972 354.544L299.656 348.814Z" fill="#CCC8FF"/>
<path d="M305.385 347.497L299.655 348.813L300.972 354.543L306.702 353.227L305.385 347.497Z" fill="#1A1A1A"/>
<path d="M322.543 343.555L316.813 344.871L318.13 350.601L323.86 349.285L322.543 343.555Z" fill="#CCC8FF"/>
<path d="M328.274 342.238L322.544 343.555L323.86 349.285L329.59 347.968L328.274 342.238Z" fill="#1A1A1A"/>
<path d="M295.242 355.86L300.972 354.543L306.23 377.431L300.5 378.748L299.184 373.018L293.454 374.334L292.145 368.636L297.875 367.32L295.242 355.86Z" fill="#1A1A1A"/>
<path d="M300.972 354.543L306.702 353.227L308.018 358.957L313.716 357.648L315.033 363.378L309.335 364.687L311.96 376.115L317.659 374.806L318.975 380.536L324.705 379.22L326.021 384.95L331.751 383.633L330.435 377.903L324.705 379.22L322.072 367.76L327.802 366.443L329.119 372.173L334.849 370.857L337.481 382.317L343.18 381.008L344.489 386.706L355.949 384.073L358.582 395.533L364.312 394.216L365.628 399.946L348.438 403.896L345.805 392.436L340.107 393.745L338.791 388.015L333.061 389.332L334.377 395.062L340.107 393.745L341.424 399.475L335.694 400.792L337.01 406.522L331.28 407.838L333.906 419.266L328.176 420.583L329.492 426.313L323.794 427.622L321.161 416.162L326.859 414.853L322.917 397.694L328.647 396.378L327.331 390.648L321.601 391.964L322.917 397.694L305.759 401.637L304.442 395.907L310.172 394.59L308.863 388.892L314.593 387.575L313.277 381.845L307.547 383.162L308.863 388.892L303.133 390.208L304.442 395.907L298.712 397.223L297.403 391.525L291.705 392.834L293.014 398.532L287.284 399.849L284.658 388.42L290.388 387.104L289.072 381.374L294.77 380.065L296.087 385.795L301.817 384.478L300.5 378.748L306.23 377.432L300.972 354.543Z" fill="#CCC8FF"/>
<path d="M233.623 376.049L256.511 370.79L257.828 376.52L263.558 375.204L264.867 380.902L259.137 382.219L260.453 387.949L266.183 386.632L264.867 380.902L270.565 379.593L273.198 391.053L267.5 392.362L268.816 398.092L263.086 399.409L261.77 393.679L256.04 394.995L254.723 389.265L248.993 390.582L247.677 384.852L253.407 383.535L252.098 377.837L240.67 380.463L243.295 391.891L237.565 393.207L233.623 376.049Z" fill="#1A1A1A"/>
<path d="M262.242 369.474L256.512 370.79L257.828 376.52L263.558 375.204L262.242 369.474Z" fill="#CCC8FF"/>
<path d="M336.606 352.389L348.066 349.756L349.382 355.486L366.54 351.544L365.224 345.814L370.954 344.498L373.58 355.926L344.961 362.501L347.594 373.961L341.864 375.277L343.181 381.007L337.482 382.317L334.849 370.857L340.548 369.547L336.606 352.389Z" fill="#1A1A1A"/>
<path d="M217.781 385.721L229.209 383.095L233.151 400.254L238.881 398.937L241.507 410.366L235.777 411.682L237.093 417.412L242.823 416.096L244.14 421.826L249.87 420.509L243.295 391.891L248.993 390.582L250.31 396.312L256.04 394.995L257.356 400.725L251.626 402.042L252.935 407.74L258.665 406.424L257.356 400.725L263.086 399.409L264.395 405.107L275.824 402.481L278.456 413.941L272.758 415.251L271.442 409.521L265.712 410.837L267.028 416.567L261.298 417.884L259.982 412.154L254.252 413.47L255.568 419.2L261.298 417.884L262.615 423.614L251.186 426.239L252.495 431.938L235.305 435.887L232.68 424.459L226.981 425.768L229.607 437.196L223.877 438.513L215.993 404.196L227.421 401.57L226.105 395.84L220.406 397.149L217.781 385.721Z" fill="#1A1A1A"/>
<path d="M240.669 380.462L252.097 377.837L253.406 383.535L247.676 384.852L248.993 390.582L243.295 391.891L240.669 380.462Z" fill="#CCC8FF"/>
<path d="M269.288 373.888L263.558 375.204L264.874 380.934L270.604 379.618L269.288 373.888Z" fill="#CCC8FF"/>
<path d="M280.685 371.269L269.257 373.895L270.573 379.625L282.002 376.999L280.685 371.269Z" fill="#1A1A1A"/>
<path d="M309.335 364.687L315.033 363.378L316.342 369.076L322.072 367.759L324.705 379.219L318.975 380.536L317.659 374.806L311.961 376.115L309.335 364.687Z" fill="#1A1A1A"/>
<path d="M320.763 362.061L315.033 363.378L316.349 369.108L322.079 367.791L320.763 362.061Z" fill="#CCC8FF"/>
<path d="M264.868 380.902L259.138 382.219L260.454 387.949L266.184 386.632L264.868 380.902Z" fill="#CCC8FF"/>
<path d="M281.994 376.967L270.565 379.593L273.191 391.021L284.619 388.396L281.994 376.967Z" fill="#CCC8FF"/>
<path d="M282.025 376.96L293.454 374.335L294.77 380.065L289.072 381.374L290.388 387.104L284.658 388.42L282.025 376.96Z" fill="#1A1A1A"/>
<path d="M299.184 373.018L293.454 374.335L294.771 380.065L300.501 378.748L299.184 373.018Z" fill="#CCC8FF"/>
<path d="M344.961 362.501L373.579 355.926L376.212 367.386L381.942 366.069L383.258 371.799L377.528 373.116L378.838 378.814L373.108 380.13L371.798 374.432L366.068 375.749L363.436 364.289L357.737 365.598L360.37 377.058L343.18 381.007L341.864 375.277L347.594 373.961L344.961 362.501Z" fill="#CCC8FF"/>
<path d="M379.309 354.609L373.579 355.926L376.205 367.354L381.935 366.038L379.309 354.609Z" fill="#1A1A1A"/>
<path d="M254.723 389.265L248.993 390.582L250.31 396.312L256.04 394.995L254.723 389.265Z" fill="#CCC8FF"/>
<path d="M300.5 378.748L294.77 380.064L296.086 385.794L301.816 384.478L300.5 378.748Z" fill="#1A1A1A"/>
<path d="M357.737 365.598L363.435 364.289L366.068 375.749L371.798 374.433L373.107 380.131L378.837 378.814L377.528 373.116L383.258 371.8L388.517 394.688L382.787 396.004L380.154 384.544L368.694 387.177L367.377 381.447L361.679 382.757L364.312 394.217L358.582 395.533L355.949 384.073L344.489 386.706L343.18 381.008L360.37 377.058L357.737 365.598Z" fill="#1A1A1A"/>
<path d="M261.77 393.679L256.04 394.995L257.357 400.725L263.087 399.409L261.77 393.679Z" fill="#CCC8FF"/>
<path d="M267.501 392.362L273.199 391.053L274.516 396.783L280.246 395.467L284.188 412.625L289.918 411.308L292.543 422.737L275.385 426.679L274.076 420.981L268.346 422.297L270.972 433.725L265.242 435.042L263.925 429.312L258.195 430.628L259.512 436.358L265.242 435.042L266.558 440.772L249.4 444.714L248.083 438.984L242.353 440.3L244.986 451.76L273.604 445.185L278.863 468.074L284.593 466.757L285.902 472.456L297.331 469.83L298.647 475.56L292.917 476.876L295.55 488.336L278.392 492.278L269.184 452.2L229.137 461.401L227.828 455.702L239.256 453.077L237.94 447.347L226.511 449.972L223.878 438.512L229.608 437.196L226.983 425.768L232.681 424.458L235.307 435.887L252.497 431.937L251.188 426.239L262.616 423.613L261.299 417.883L267.029 416.567L265.713 410.837L271.443 409.521L272.759 415.251L278.458 413.941L275.825 402.481L264.396 405.107L263.087 399.409L268.817 398.092L267.501 392.362Z" fill="#CCC8FF"/>
<path d="M273.199 391.053L284.659 388.42L287.285 399.848L293.015 398.532L294.331 404.262L288.601 405.578L289.918 411.308L284.188 412.625L280.246 395.467L274.516 396.783L273.199 391.053Z" fill="#1A1A1A"/>
<path d="M313.278 381.845L307.548 383.162L308.864 388.892L314.594 387.575L313.278 381.845Z" fill="#1A1A1A"/>
<path d="M330.435 377.903L324.705 379.219L326.021 384.949L331.751 383.633L330.435 377.903Z" fill="#1A1A1A"/>
<path d="M228.77 407.293L223.04 408.609L225.673 420.069L231.403 418.753L228.77 407.293Z" fill="#CCC8FF"/>
<path d="M257.357 400.726L251.627 402.042L252.943 407.772L258.673 406.456L257.357 400.726Z" fill="#CCC8FF"/>
<path d="M297.434 391.518L291.704 392.834L293.021 398.564L298.751 397.248L297.434 391.518Z" fill="#1A1A1A"/>
<path d="M308.863 388.892L303.133 390.208L304.449 395.938L310.179 394.622L308.863 388.892Z" fill="#1A1A1A"/>
<path d="M298.744 397.216L293.014 398.532L294.33 404.262L300.06 402.946L298.744 397.216Z" fill="#CCC8FF"/>
<path d="M304.443 395.907L298.713 397.223L300.029 402.953L305.759 401.637L304.443 395.907Z" fill="#1A1A1A"/>
<path d="M327.331 390.648L321.601 391.965L322.917 397.695L328.647 396.378L327.331 390.648Z" fill="#1A1A1A"/>
<path d="M338.791 388.015L333.061 389.332L334.377 395.062L340.107 393.745L338.791 388.015Z" fill="#1A1A1A"/>
<path d="M361.679 382.757L367.377 381.447L368.694 387.177L380.154 384.544L382.786 396.004L371.326 398.637L370.01 392.907L364.312 394.217L361.679 382.757Z" fill="#CCC8FF"/>
<path d="M259.982 412.154L254.252 413.47L255.568 419.2L261.298 417.884L259.982 412.154Z" fill="#CCC8FF"/>
<path d="M294.331 404.262L288.601 405.579L289.917 411.309L295.647 409.992L294.331 404.262Z" fill="#CCC8FF"/>
<path d="M300.06 402.946L294.33 404.262L295.647 409.992L301.377 408.676L300.06 402.946Z" fill="#1A1A1A"/>
<path d="M305.759 401.636L300.029 402.953L301.346 408.683L307.076 407.366L305.759 401.636Z" fill="#CCC8FF"/>
<path d="M305.759 401.637L322.917 397.695L326.859 414.853L321.161 416.162L319.852 410.464L314.122 411.78L312.805 406.05L307.075 407.367L305.759 401.637Z" fill="#1A1A1A"/>
<path d="M340.107 393.745L345.806 392.436L348.438 403.896L337.01 406.522L335.694 400.792L341.424 399.475L340.107 393.745Z" fill="#1A1A1A"/>
<path d="M289.917 411.308L295.647 409.992L296.963 415.722L302.662 414.413L301.345 408.683L307.075 407.366L308.392 413.096L314.122 411.78L315.431 417.478L309.701 418.795L311.017 424.525L305.287 425.841L303.971 420.111L298.273 421.42L299.589 427.15L293.859 428.467L295.175 434.197L289.445 435.513L288.129 429.783L282.399 431.1L283.715 436.83L278.017 438.139L276.701 432.409L270.971 433.725L268.345 422.297L274.075 420.98L275.384 426.679L292.543 422.737L289.917 411.308Z" fill="#1A1A1A"/>
<path d="M301.377 408.676L295.647 409.992L296.964 415.722L302.694 414.406L301.377 408.676Z" fill="#CCC8FF"/>
<path d="M312.805 406.05L307.075 407.366L308.392 413.096L314.122 411.78L312.805 406.05Z" fill="#CCC8FF"/>
<path d="M370.042 392.899L364.312 394.216L365.628 399.946L371.358 398.629L370.042 392.899Z" fill="#1A1A1A"/>
<path d="M319.852 410.464L314.122 411.78L315.439 417.51L321.169 416.194L319.852 410.464Z" fill="#CCC8FF"/>
<path d="M331.28 407.838L337.01 406.521L339.635 417.95L345.365 416.633L346.682 422.363L352.38 421.054L348.438 403.896L365.628 399.946L366.937 405.645L355.477 408.277L356.794 414.007L373.952 410.065L375.268 415.795L369.57 417.105L372.196 428.533L377.894 427.224L381.843 444.414L387.573 443.097L386.257 437.367L391.987 436.051L389.354 424.591L383.624 425.907L379.682 408.749L385.412 407.432L384.095 401.702L389.825 400.386L392.458 411.846L386.728 413.162L388.045 418.892L393.775 417.576L399.033 440.464L393.303 441.781L394.613 447.479L400.343 446.163L402.976 457.623L397.246 458.939L398.562 464.669L392.832 465.986L390.199 454.526L384.469 455.842L383.153 450.112L377.454 451.421L376.145 445.723L353.257 450.981L354.566 456.68L337.376 460.629L338.692 466.359L327.264 468.985L328.58 474.715L322.85 476.031L324.167 481.761L318.437 483.078L317.12 477.348L311.422 478.657L310.106 472.927L315.804 471.618L311.862 454.459L334.75 449.201L336.067 454.931L341.797 453.614L340.48 447.884L334.75 449.201L332.117 437.741L337.847 436.424L336.538 430.726L342.268 429.41L340.952 423.68L335.222 424.996L336.538 430.726L325.11 433.352L323.793 427.622L329.492 426.313L328.175 420.582L333.905 419.266L331.28 407.838Z" fill="#1A1A1A"/>
<path d="M337.01 406.521L348.438 403.896L352.38 421.054L346.682 422.363L345.365 416.633L339.635 417.95L337.01 406.521Z" fill="#CCC8FF"/>
<path d="M365.629 399.946L371.327 398.637L373.953 410.065L356.794 414.007L355.478 408.277L366.938 405.645L365.629 399.946Z" fill="#CCC8FF"/>
<path d="M371.327 398.637L382.787 396.004L384.096 401.703L378.366 403.019L379.683 408.749L373.953 410.066L371.327 398.637Z" fill="#1A1A1A"/>
<path d="M388.516 394.688L382.786 396.004L384.103 401.734L389.833 400.418L388.516 394.688Z" fill="#CCC8FF"/>
<path d="M263.925 429.312L258.195 430.628L259.511 436.358L265.241 435.042L263.925 429.312Z" fill="#1A1A1A"/>
<path d="M298.273 421.421L303.971 420.112L305.288 425.842L311.018 424.525L313.651 435.985L307.921 437.302L306.604 431.572L300.906 432.881L302.222 438.611L273.604 445.186L270.971 433.726L276.701 432.409L278.017 438.139L283.716 436.83L282.399 431.1L288.129 429.784L289.446 435.514L295.176 434.197L293.859 428.467L299.589 427.151L298.273 421.421Z" fill="#CCC8FF"/>
<path d="M315.431 417.478L309.701 418.795L311.018 424.525L316.748 423.208L315.431 417.478Z" fill="#CCC8FF"/>
<path d="M315.431 417.478L321.161 416.162L323.794 427.622L318.064 428.938L319.381 434.668L313.651 435.985L311.018 424.525L316.748 423.208L315.431 417.478Z" fill="#1A1A1A"/>
<path d="M384.096 401.702L378.366 403.019L379.682 408.749L385.412 407.432L384.096 401.702Z" fill="#CCC8FF"/>
<path d="M242.353 440.3L248.083 438.984L249.399 444.714L266.557 440.772L265.241 435.042L270.971 433.725L273.604 445.185L244.985 451.76L242.353 440.3Z" fill="#1A1A1A"/>
<path d="M373.952 410.065L379.682 408.749L383.624 425.907L389.354 424.591L391.987 436.051L386.257 437.367L387.574 443.097L381.844 444.414L377.894 427.224L372.196 428.533L369.57 417.105L375.268 415.795L373.952 410.065Z" fill="#CCC8FF"/>
<path d="M237.938 447.347L226.51 449.973L227.826 455.703L239.255 453.077L237.938 447.347Z" fill="#1A1A1A"/>
<path d="M300.905 432.881L306.604 431.571L307.92 437.301L313.65 435.985L314.959 441.683L320.689 440.367L322.006 446.097L310.546 448.73L309.229 443L303.531 444.309L304.847 450.039L293.387 452.672L292.071 446.942L286.341 448.258L287.657 453.988L281.959 455.297L283.275 461.027L288.974 459.718L290.29 465.448L307.48 461.499L310.106 472.927L304.376 474.244L305.692 479.974L299.962 481.29L301.279 487.02L295.549 488.337L292.916 476.877L298.646 475.56L297.329 469.83L285.901 472.456L284.592 466.757L278.862 468.074L273.603 445.186L302.222 438.611L300.905 432.881Z" fill="#1A1A1A"/>
<path d="M323.793 427.622L318.063 428.938L319.38 434.668L325.11 433.352L323.793 427.622Z" fill="#CCC8FF"/>
<path d="M340.952 423.68L335.222 424.996L336.539 430.726L342.269 429.41L340.952 423.68Z" fill="#CCC8FF"/>
<path d="M392.459 411.846L386.729 413.163L388.045 418.893L393.775 417.576L392.459 411.846Z" fill="#CCC8FF"/>
<path d="M319.38 434.668L313.65 435.985L314.967 441.715L320.697 440.398L319.38 434.668Z" fill="#CCC8FF"/>
<path d="M325.111 433.352L319.381 434.668L320.697 440.398L326.427 439.082L325.111 433.352Z" fill="#1A1A1A"/>
<path d="M325.11 433.352L336.539 430.726L337.848 436.425L332.118 437.741L334.751 449.201L311.863 454.46L315.805 471.618L310.106 472.927L307.481 461.499L290.291 465.448L288.974 459.718L283.276 461.027L281.959 455.297L287.658 453.988L286.341 448.258L292.071 446.942L293.388 452.672L304.848 450.039L303.531 444.309L309.23 443L310.546 448.73L322.006 446.097L320.69 440.367L326.42 439.05L325.11 433.352Z" fill="#CCC8FF"/>
<path d="M365.158 424.151L348 428.094L351.942 445.252L369.1 441.31L365.158 424.151Z" fill="#CCC8FF"/>
<path d="M269.183 452.2L229.136 461.401L238.337 501.447L278.383 492.247L269.183 452.2Z" fill="#1A1A1A"/>
<path d="M360.736 431.166L355.006 432.482L356.322 438.212L362.052 436.896L360.736 431.166Z" fill="#1A1A1A"/>
<path d="M264.801 459.239L236.183 465.814L242.758 494.433L271.376 487.858L264.801 459.239Z" fill="#CCC8FF"/>
<path d="M260.357 466.293L243.198 470.235L247.14 487.394L264.299 483.452L260.357 466.293Z" fill="#1A1A1A"/>
<path d="M340.481 447.885L334.751 449.201L336.067 454.931L341.797 453.615L340.481 447.885Z" fill="#CCC8FF"/>
<path d="M353.257 450.982L376.146 445.723L377.455 451.422L383.153 450.112L384.47 455.842L373.041 458.468L375.674 469.928L358.516 473.87L357.199 468.14L345.74 470.773L344.423 465.043L338.693 466.359L337.377 460.63L354.567 456.68L355.883 462.41L361.581 461.101L362.898 466.831L368.628 465.514L367.311 459.784L361.581 461.101L360.265 455.371L354.567 456.68L353.257 450.982Z" fill="#CCC8FF"/>
<path d="M399.034 440.464L393.304 441.781L394.62 447.511L400.35 446.194L399.034 440.464Z" fill="#CCC8FF"/>
<path d="M360.296 455.363L354.566 456.68L355.883 462.41L361.613 461.093L360.296 455.363Z" fill="#1A1A1A"/>
<path d="M310.107 472.927L304.377 474.243L305.693 479.973L311.423 478.657L310.107 472.927Z" fill="#CCC8FF"/>
<path d="M338.693 466.359L327.265 468.985L328.581 474.715L340.009 472.089L338.693 466.359Z" fill="#CCC8FF"/>
<path d="M338.693 466.359L344.423 465.043L345.739 470.773L357.199 468.14L358.516 473.87L329.898 480.445L328.581 474.715L340.009 472.089L338.693 466.359Z" fill="#1A1A1A"/>
<path d="M367.312 459.784L361.582 461.1L362.898 466.83L368.628 465.514L367.312 459.784Z" fill="#1A1A1A"/>
<path d="M384.469 455.842L373.041 458.468L375.667 469.896L387.095 467.27L384.469 455.842Z" fill="#1A1A1A"/>
<path d="M390.199 454.526L384.469 455.842L387.094 467.271L392.824 465.954L390.199 454.526Z" fill="#CCC8FF"/>
<path d="M305.693 479.974L299.963 481.29L301.279 487.02L307.009 485.704L305.693 479.974Z" fill="#CCC8FF"/>
<path d="M311.422 478.657L305.692 479.973L307.009 485.703L312.739 484.387L311.422 478.657Z" fill="#1A1A1A"/>
<path d="M317.153 477.341L311.423 478.657L312.739 484.387L318.469 483.071L317.153 477.341Z" fill="#CCC8FF"/>
<path d="M328.582 474.715L322.852 476.032L324.168 481.762L329.898 480.445L328.582 474.715Z" fill="#CCC8FF"/>
<path d="M402.976 457.623L397.246 458.939L398.563 464.669L404.293 463.353L402.976 457.623Z" fill="#CCC8FF"/>
</g>
<path d="M157.975 259.997L158.772 259.824C159.159 258.311 159.402 256.833 159.502 255.387C159.601 253.937 159.577 252.403 159.428 250.785L165.441 249.481L167.283 257.978L168.66 257.679L169.707 262.507L167.596 262.964L166.944 259.958L160.48 261.36L161.132 264.366L159.022 264.824L157.975 259.997ZM161.559 252.229C161.642 253.339 161.638 254.535 161.546 255.816C161.459 257.096 161.301 258.265 161.073 259.325L165.103 258.451L163.655 251.775L161.559 252.229ZM177.834 257.596L175.681 258.063L174.32 251.789L172.337 252.219C172.569 254.016 172.672 255.373 172.644 256.291C172.615 257.203 172.462 257.894 172.185 258.363C171.911 258.827 171.482 259.121 170.899 259.248C170.4 259.356 169.974 259.37 169.622 259.289L169.248 257.567C169.499 257.611 169.74 257.608 169.97 257.558C170.239 257.5 170.42 257.258 170.515 256.834C170.615 256.408 170.638 255.731 170.584 254.801C170.534 253.866 170.39 252.6 170.152 251.001L176.122 249.706L177.834 257.596ZM181.588 256.782L179.259 257.287L180.707 253.707C180.153 253.605 179.7 253.383 179.35 253.041C179.005 252.697 178.773 252.254 178.656 251.713C178.491 250.951 178.646 250.292 179.121 249.735C179.601 249.178 180.335 248.792 181.323 248.578L184.993 247.782L186.704 255.672L184.552 256.139L183.915 253.203L182.729 253.46L181.588 256.782ZM180.769 251.27C180.841 251.599 181.026 251.83 181.326 251.962C181.624 252.089 181.983 252.107 182.402 252.017L183.601 251.756L183.17 249.766L181.695 250.086C181.342 250.163 181.083 250.31 180.919 250.528C180.758 250.74 180.708 250.987 180.769 251.27ZM198.747 244.799L200.459 252.689L198.299 253.157L196.938 246.883L194.08 247.503L195.441 253.777L193.288 254.244L191.577 246.354L198.747 244.799ZM207.37 251.338C206.443 251.539 205.643 251.36 204.97 250.802L204.857 250.826C205.075 251.469 205.196 251.841 205.218 251.945L205.911 255.142L203.759 255.609L201.295 244.246L203.045 243.867L203.57 244.824L203.669 244.803C204.003 243.913 204.664 243.36 205.652 243.146C206.584 242.944 207.391 243.146 208.074 243.751C208.757 244.357 209.238 245.3 209.515 246.579C209.698 247.422 209.732 248.18 209.617 248.855C209.507 249.529 209.259 250.078 208.873 250.502C208.487 250.926 207.986 251.204 207.37 251.338ZM205.334 245.018C204.802 245.133 204.45 245.382 204.277 245.765C204.102 246.142 204.092 246.709 204.246 247.464L204.297 247.696C204.48 248.543 204.737 249.123 205.066 249.436C205.399 249.748 205.839 249.845 206.385 249.726C207.349 249.517 207.659 248.617 207.314 247.027C207.146 246.251 206.9 245.696 206.576 245.362C206.256 245.023 205.842 244.908 205.334 245.018ZM213.641 249.83L211.312 250.335L212.76 246.755C212.206 246.653 211.754 246.431 211.403 246.089C211.058 245.745 210.827 245.302 210.709 244.761C210.544 243.999 210.699 243.34 211.174 242.784C211.654 242.226 212.389 241.84 213.377 241.626L217.046 240.83L218.758 248.72L216.605 249.187L215.968 246.251L214.783 246.508L213.641 249.83ZM212.822 244.318C212.894 244.647 213.079 244.878 213.379 245.01C213.677 245.137 214.036 245.155 214.455 245.065L215.655 244.804L215.223 242.814L213.748 243.134C213.395 243.211 213.136 243.358 212.972 243.576C212.811 243.788 212.761 244.035 212.822 244.318ZM231.242 246.013L229.23 246.449L227.882 240.231L227.864 240.693C227.825 241.741 227.76 242.541 227.668 243.093L227.036 246.925L225.504 247.257L223.314 244.008C223 243.534 222.626 242.854 222.192 241.968L221.954 241.517L223.302 247.735L221.298 248.169L219.587 240.279L222.551 239.636L224.636 242.709C224.856 243.04 225.075 243.429 225.295 243.874C225.519 244.318 225.689 244.702 225.804 245.027C225.806 244.288 225.816 243.756 225.835 243.432C225.857 243.102 225.891 242.796 225.939 242.515C225.986 242.234 226.205 240.982 226.595 238.759L229.53 238.122L231.242 246.013ZM234.652 241.127C234.822 241.908 235.077 242.471 235.418 242.816C235.763 243.16 236.225 243.269 236.804 243.144C237.378 243.019 237.747 242.732 237.91 242.283C238.078 241.828 238.076 241.207 237.906 240.422C237.736 239.641 237.482 239.083 237.144 238.747C236.805 238.412 236.346 238.307 235.767 238.432C235.193 238.557 234.822 238.842 234.652 239.287C234.482 239.728 234.482 240.342 234.652 241.127ZM240.108 239.944C240.386 241.229 240.265 242.307 239.745 243.178C239.225 244.05 238.36 244.616 237.151 244.879C236.393 245.043 235.69 245.023 235.039 244.819C234.388 244.611 233.84 244.23 233.395 243.676C232.95 243.122 232.637 242.432 232.458 241.603C232.178 240.314 232.297 239.239 232.815 238.378C233.332 237.517 234.201 236.954 235.419 236.69C236.177 236.526 236.88 236.546 237.531 236.749C238.181 236.953 238.728 237.33 239.172 237.879C239.616 238.428 239.928 239.116 240.108 239.944ZM246.771 234.383L247.121 235.999L243.826 236.714L245.186 242.988L243.034 243.455L241.323 235.565L246.771 234.383ZM251.095 237.561C251.265 238.342 251.52 238.905 251.861 239.25C252.206 239.594 252.668 239.703 253.247 239.577C253.821 239.453 254.19 239.166 254.353 238.717C254.521 238.262 254.519 237.641 254.349 236.855C254.179 236.074 253.925 235.516 253.587 235.181C253.248 234.845 252.789 234.741 252.21 234.866C251.636 234.991 251.265 235.276 251.095 235.721C250.925 236.162 250.925 236.775 251.095 237.561ZM256.551 236.378C256.829 237.662 256.708 238.74 256.188 239.612C255.668 240.483 254.803 241.05 253.594 241.312C252.836 241.477 252.133 241.457 251.482 241.253C250.831 241.045 250.283 240.663 249.838 240.11C249.393 239.556 249.08 238.865 248.901 238.037C248.621 236.748 248.74 235.673 249.258 234.812C249.775 233.951 250.644 233.388 251.862 233.124C252.62 232.96 253.323 232.979 253.974 233.183C254.624 233.387 255.171 233.763 255.615 234.312C256.059 234.861 256.371 235.55 256.551 236.378ZM266.755 238.458C264.299 238.991 262.779 237.909 262.194 235.213C261.903 233.872 262.015 232.776 262.53 231.926C263.045 231.07 263.925 230.508 265.172 230.237C266.084 230.039 266.942 230.04 267.744 230.241L267.47 232.044C267.102 231.981 266.762 231.939 266.452 231.918C266.141 231.891 265.84 231.91 265.548 231.973C264.428 232.216 264.041 233.133 264.386 234.723C264.721 236.266 265.448 236.916 266.568 236.673C266.982 236.584 267.353 236.446 267.683 236.262C268.011 236.072 268.326 235.822 268.628 235.51L269.028 237.352C268.727 237.648 268.408 237.878 268.069 238.04C267.734 238.201 267.296 238.341 266.755 238.458ZM272.104 233.005C272.274 233.786 272.529 234.348 272.87 234.693C273.215 235.037 273.677 235.146 274.256 235.021C274.83 234.896 275.199 234.609 275.362 234.16C275.53 233.705 275.528 233.085 275.358 232.299C275.188 231.518 274.934 230.96 274.595 230.624C274.257 230.289 273.798 230.184 273.219 230.309C272.645 230.434 272.274 230.719 272.104 231.165C271.934 231.606 271.934 232.219 272.104 233.005ZM277.56 231.821C277.838 233.106 277.717 234.184 277.197 235.055C276.677 235.927 275.812 236.494 274.603 236.756C273.845 236.92 273.141 236.9 272.491 236.697C271.84 236.488 271.292 236.107 270.847 235.553C270.401 235 270.089 234.309 269.909 233.481C269.63 232.191 269.749 231.116 270.267 230.255C270.784 229.394 271.652 228.832 272.871 228.567C273.628 228.403 274.332 228.423 274.982 228.627C275.633 228.83 276.18 229.207 276.624 229.756C277.068 230.305 277.38 230.993 277.56 231.821ZM282.342 228.117C281.886 228.216 281.56 228.439 281.364 228.787C281.168 229.13 281.108 229.571 281.186 230.111L284.207 229.456C284.082 228.926 283.854 228.547 283.524 228.318C283.192 228.085 282.798 228.018 282.342 228.117ZM284.087 234.699C282.817 234.974 281.748 234.839 280.881 234.293C280.014 233.747 279.441 232.832 279.162 231.548C278.876 230.226 278.984 229.133 279.486 228.27C279.992 227.402 280.829 226.841 281.996 226.588C283.111 226.346 284.048 226.476 284.807 226.976C285.565 227.477 286.066 228.287 286.309 229.406L286.536 230.451L281.447 231.555C281.603 232.161 281.888 232.599 282.301 232.869C282.715 233.139 283.227 233.208 283.839 233.075C284.314 232.972 284.753 232.825 285.155 232.635C285.557 232.444 285.965 232.191 286.379 231.874L286.74 233.54C286.404 233.81 286.032 234.036 285.624 234.218C285.216 234.405 284.704 234.565 284.087 234.699ZM293.913 230.772L292.894 226.072L291.277 226.422C291.35 227.323 291.367 228.189 291.331 229.019C291.299 229.849 291.176 230.646 290.963 231.412L293.913 230.772ZM298.178 234.458L296.244 234.877L295.631 232.047L290.323 233.198L290.937 236.028L289.003 236.448L288.048 232.044L288.712 231.9C289.011 231.101 289.198 230.135 289.272 229C289.347 227.866 289.296 226.599 289.12 225.198L294.696 223.989L296.065 230.305L297.223 230.054L298.178 234.458ZM299.572 222.931L300.248 226.051C300.32 226.38 300.44 227.196 300.61 228.499L303.051 222.177L305.641 221.615L307.352 229.505L305.271 229.957L304.588 226.809C304.466 226.249 304.342 225.449 304.215 224.407L301.784 230.713L299.201 231.273L297.49 223.383L299.572 222.931ZM310.348 220.594L311.006 223.629L314.013 222.977L313.355 219.942L315.507 219.475L317.218 227.365L315.066 227.832L314.36 224.579L311.354 225.231L312.059 228.484L309.907 228.951L308.196 221.061L310.348 220.594ZM321.622 219.597C321.166 219.696 320.84 219.92 320.644 220.267C320.448 220.611 320.388 221.052 320.466 221.592L323.486 220.937C323.362 220.407 323.134 220.028 322.804 219.799C322.472 219.566 322.078 219.498 321.622 219.597ZM323.367 226.179C322.097 226.455 321.028 226.32 320.161 225.774C319.294 225.228 318.721 224.313 318.442 223.028C318.156 221.706 318.264 220.614 318.766 219.751C319.272 218.883 320.109 218.322 321.276 218.069C322.391 217.827 323.328 217.956 324.087 218.457C324.845 218.957 325.346 219.767 325.589 220.887L325.816 221.932L320.727 223.035C320.883 223.642 321.168 224.08 321.581 224.35C321.995 224.62 322.507 224.689 323.119 224.556C323.594 224.453 324.032 224.306 324.435 224.115C324.837 223.925 325.245 223.671 325.659 223.355L326.02 225.02C325.684 225.29 325.312 225.516 324.903 225.698C324.496 225.885 323.984 226.046 323.367 226.179ZM329.035 216.541L329.694 219.576L332.7 218.924L332.042 215.889L334.194 215.422L335.906 223.312L333.753 223.779L333.047 220.526L330.041 221.178L330.747 224.431L328.594 224.898L326.883 217.008L329.035 216.541ZM338.824 214.418L339.5 217.537C339.572 217.867 339.692 218.683 339.861 219.986L342.303 213.663L344.893 213.102L346.604 220.992L344.522 221.443L343.84 218.296C343.718 217.736 343.594 216.935 343.466 215.894L341.036 222.2L338.453 222.76L336.742 214.87L338.824 214.418ZM350.358 220.178L348.029 220.683L349.477 217.103C348.923 217.001 348.471 216.779 348.121 216.436C347.775 216.092 347.544 215.65 347.427 215.109C347.261 214.347 347.416 213.687 347.892 213.131C348.372 212.574 349.106 212.188 350.094 211.974L353.764 211.178L355.475 219.068L353.322 219.535L352.686 216.599L351.5 216.856L350.358 220.178ZM349.54 214.665C349.611 214.995 349.797 215.225 350.096 215.358C350.395 215.485 350.753 215.503 351.172 215.412L352.372 215.152L351.94 213.162L350.465 213.482C350.112 213.558 349.854 213.706 349.689 213.924C349.528 214.136 349.478 214.383 349.54 214.665ZM200.025 273.396C197.569 273.929 196.048 272.847 195.464 270.151C195.173 268.81 195.285 267.714 195.8 266.864C196.314 266.008 197.194 265.446 198.441 265.175C199.354 264.977 200.211 264.978 201.014 265.179L200.74 266.982C200.371 266.919 200.032 266.877 199.722 266.856C199.411 266.829 199.11 266.848 198.818 266.911C197.698 267.154 197.311 268.071 197.656 269.661C197.99 271.204 198.717 271.854 199.837 271.611C200.251 271.522 200.623 271.384 200.952 271.2C201.281 271.01 201.596 270.76 201.898 270.448L202.297 272.29C201.997 272.586 201.677 272.816 201.338 272.978C201.004 273.139 200.566 273.279 200.025 273.396ZM212.023 262.385L214.394 261.87L212.088 266.331L216.381 269.701L213.939 270.23L209.846 266.928L210.714 270.93L208.561 271.397L206.85 263.507L209.002 263.04L209.834 266.872L212.023 262.385ZM218.655 265.062C218.825 265.843 219.08 266.406 219.42 266.751C219.766 267.095 220.228 267.204 220.807 267.078C221.381 266.954 221.75 266.667 221.913 266.217C222.081 265.762 222.079 265.142 221.909 264.356C221.739 263.575 221.485 263.017 221.146 262.682C220.808 262.346 220.349 262.241 219.77 262.367C219.196 262.491 218.825 262.776 218.655 263.222C218.485 263.663 218.485 264.276 218.655 265.062ZM224.11 263.879C224.389 265.163 224.268 266.241 223.748 267.113C223.227 267.984 222.363 268.551 221.154 268.813C220.396 268.978 219.692 268.958 219.042 268.754C218.391 268.546 217.843 268.164 217.398 267.611C216.952 267.057 216.64 266.366 216.46 265.538C216.181 264.249 216.3 263.174 216.817 262.313C217.335 261.452 218.203 260.889 219.422 260.625C220.179 260.46 220.883 260.48 221.533 260.684C222.183 260.888 222.731 261.264 223.175 261.813C223.619 262.362 223.931 263.051 224.11 263.879ZM227.478 259.033L228.136 262.067L231.143 261.415L230.484 258.381L232.637 257.914L234.348 265.804L232.196 266.271L231.49 263.017L228.484 263.669L229.189 266.923L227.037 267.39L225.325 259.499L227.478 259.033ZM240.13 264.698C237.674 265.23 236.154 264.149 235.569 261.453C235.278 260.112 235.39 259.016 235.905 258.165C236.419 257.31 237.3 256.747 238.547 256.477C239.459 256.279 240.317 256.28 241.119 256.48L240.845 258.284C240.477 258.221 240.137 258.179 239.827 258.157C239.516 258.131 239.215 258.15 238.923 258.213C237.803 258.456 237.416 259.372 237.761 260.963C238.096 262.506 238.823 263.156 239.943 262.913C240.357 262.823 240.728 262.686 241.058 262.501C241.386 262.312 241.701 262.061 242.003 261.749L242.403 263.591C242.102 263.888 241.783 264.117 241.443 264.28C241.109 264.441 240.671 264.58 240.13 264.698ZM241.783 255.93L244.14 255.419L246.592 259.535C246.802 259.893 246.988 260.331 247.15 260.847L247.192 260.838C247.139 260.342 247.141 259.864 247.199 259.403L247.697 254.647L250.004 254.147L248.596 263.77C248.469 264.66 248.165 265.371 247.685 265.904C247.209 266.436 246.592 266.784 245.835 266.948C245.463 267.029 245.09 267.068 244.715 267.065L244.344 265.357C244.617 265.362 244.905 265.332 245.211 265.266C245.592 265.183 245.899 264.993 246.13 264.697C246.367 264.404 246.514 264.005 246.572 263.5L246.615 263.084L241.783 255.93ZM260.205 260.196L258.053 260.663L256.692 254.389L254.709 254.819C254.941 256.616 255.043 257.973 255.016 258.89C254.987 259.803 254.834 260.494 254.556 260.963C254.282 261.426 253.854 261.721 253.27 261.848C252.772 261.956 252.346 261.969 251.993 261.888L251.62 260.166C251.871 260.21 252.112 260.207 252.342 260.157C252.61 260.099 252.792 259.858 252.887 259.433C252.987 259.008 253.01 258.33 252.956 257.401C252.906 256.466 252.762 255.199 252.524 253.601L258.494 252.306L260.205 260.196ZM263.862 254.334L265.38 254.004C266.593 253.741 267.534 253.739 268.201 253.998C268.868 254.258 269.286 254.778 269.456 255.559C269.819 257.234 268.838 258.323 266.514 258.827L262.76 259.642L261.048 251.752L263.201 251.285L263.862 254.334ZM267.309 256.054C267.243 255.748 267.073 255.553 266.798 255.47C266.524 255.387 266.145 255.398 265.66 255.503L264.185 255.823L264.589 257.686L266.092 257.36C267.048 257.153 267.453 256.717 267.309 256.054ZM276.744 248.347L277.094 249.964L274.511 250.524L275.872 256.798L273.719 257.265L272.359 250.991L269.769 251.552L269.418 249.936L276.744 248.347ZM285.23 254.768L284.581 253.786L284.524 253.798C284.261 254.333 283.956 254.732 283.609 254.994C283.265 255.251 282.786 255.446 282.169 255.58C281.412 255.744 280.767 255.657 280.236 255.319C279.709 254.98 279.359 254.411 279.186 253.611C279.004 252.774 279.162 252.094 279.66 251.572C280.161 251.045 280.998 250.632 282.169 250.333L283.529 249.994L283.454 249.648C283.281 248.848 282.785 248.537 281.966 248.715C281.336 248.852 280.636 249.203 279.867 249.769L278.839 248.469C279.644 247.797 280.599 247.341 281.705 247.102C282.763 246.872 283.625 246.926 284.29 247.265C284.954 247.604 285.389 248.244 285.593 249.184L286.733 254.442L285.23 254.768ZM283.802 251.25L282.975 251.459C282.353 251.614 281.912 251.828 281.651 252.101C281.39 252.374 281.306 252.723 281.398 253.146C281.529 253.753 281.943 253.981 282.639 253.83C283.138 253.722 283.505 253.492 283.739 253.141C283.978 252.788 284.046 252.375 283.942 251.9L283.802 251.25ZM289.686 245.54L290.344 248.575L293.351 247.923L292.693 244.888L294.845 244.421L296.556 252.312L294.404 252.778L293.698 249.525L290.692 250.177L291.398 253.43L289.245 253.897L287.534 246.007L289.686 245.54ZM303.921 242.453L304.271 244.069L301.688 244.629L303.049 250.903L300.896 251.37L299.536 245.096L296.946 245.658L296.595 244.042L303.921 242.453ZM308.252 245.63C308.422 246.411 308.677 246.973 309.017 247.318C309.363 247.662 309.825 247.771 310.404 247.646C310.978 247.521 311.347 247.234 311.51 246.785C311.678 246.33 311.676 245.71 311.506 244.924C311.336 244.143 311.082 243.585 310.743 243.249C310.405 242.914 309.946 242.809 309.367 242.934C308.793 243.059 308.421 243.344 308.252 243.79C308.082 244.23 308.082 244.844 308.252 245.63ZM313.707 244.446C313.986 245.731 313.865 246.809 313.345 247.68C312.824 248.552 311.96 249.119 310.751 249.381C309.993 249.545 309.289 249.525 308.639 249.322C307.988 249.113 307.44 248.732 306.995 248.178C306.549 247.624 306.237 246.934 306.057 246.106C305.778 244.816 305.897 243.741 306.414 242.88C306.932 242.019 307.8 241.457 309.019 241.192C309.776 241.028 310.48 241.048 311.13 241.252C311.78 241.455 312.328 241.832 312.772 242.381C313.216 242.93 313.528 243.618 313.707 244.446ZM326.577 245.8L324.566 246.237L323.218 240.019L323.2 240.481C323.161 241.529 323.095 242.329 323.003 242.881L322.371 246.713L320.84 247.045L318.65 243.796C318.335 243.322 317.961 242.642 317.528 241.756L317.289 241.305L318.638 247.522L316.634 247.957L314.922 240.067L317.887 239.424L319.972 242.497C320.191 242.828 320.411 243.217 320.631 243.662C320.855 244.105 321.025 244.49 321.139 244.815C321.142 244.075 321.152 243.544 321.17 243.219C321.192 242.889 321.227 242.584 321.274 242.303C321.322 242.021 321.54 240.77 321.93 238.547L324.866 237.91L326.577 245.8ZM181.219 292.623C181.388 293.404 181.643 293.967 181.984 294.312C182.329 294.656 182.792 294.765 183.37 294.639C183.944 294.515 184.313 294.228 184.477 293.779C184.644 293.324 184.642 292.703 184.472 291.918C184.303 291.137 184.049 290.578 183.71 290.243C183.371 289.908 182.912 289.803 182.334 289.928C181.76 290.053 181.388 290.338 181.219 290.783C181.048 291.224 181.048 291.838 181.219 292.623ZM186.674 291.44C186.953 292.725 186.832 293.803 186.311 294.674C185.791 295.545 184.926 296.112 183.717 296.375C182.96 296.539 182.256 296.519 181.606 296.315C180.954 296.107 180.406 295.726 179.961 295.172C179.516 294.618 179.203 293.927 179.024 293.099C178.744 291.81 178.863 290.735 179.381 289.874C179.899 289.013 180.767 288.45 181.985 288.186C182.743 288.022 183.447 288.041 184.097 288.245C184.747 288.449 185.294 288.826 185.738 289.375C186.182 289.924 186.494 290.612 186.674 291.44ZM194.417 285.645L194.767 287.261L192.184 287.821L193.545 294.095L191.393 294.562L190.032 288.288L187.442 288.85L187.091 287.234L194.417 285.645ZM201.127 292.599C198.671 293.131 197.151 292.05 196.566 289.354C196.275 288.013 196.387 286.917 196.902 286.066C197.416 285.211 198.297 284.648 199.543 284.378C200.456 284.18 201.314 284.181 202.116 284.382L201.842 286.185C201.473 286.122 201.134 286.08 200.824 286.058C200.513 286.032 200.212 286.051 199.92 286.114C198.8 286.357 198.413 287.273 198.758 288.864C199.092 290.407 199.82 291.057 200.939 290.814C201.353 290.724 201.725 290.587 202.054 290.402C202.383 290.213 202.698 289.962 203 289.65L203.399 291.492C203.099 291.789 202.779 292.019 202.44 292.181C202.106 292.342 201.668 292.481 201.127 292.599ZM209.081 282.464L211.453 281.95L209.147 286.411L213.439 289.78L210.997 290.31L206.904 287.008L207.772 291.01L205.62 291.476L203.908 283.586L206.061 283.119L206.892 286.952L209.081 282.464ZM219.868 288.386L219.219 287.404L219.163 287.416C218.899 287.951 218.594 288.35 218.247 288.612C217.904 288.869 217.424 289.064 216.808 289.198C216.05 289.362 215.406 289.275 214.874 288.937C214.348 288.598 213.997 288.029 213.824 287.229C213.642 286.391 213.8 285.712 214.298 285.19C214.799 284.663 215.636 284.25 216.808 283.951L218.168 283.612L218.093 283.266C217.919 282.466 217.423 282.155 216.605 282.333C215.974 282.469 215.274 282.821 214.505 283.387L213.477 282.087C214.282 281.415 215.238 280.959 216.343 280.719C217.402 280.49 218.263 280.544 218.928 280.883C219.593 281.222 220.027 281.861 220.231 282.802L221.371 288.06L219.868 288.386ZM218.44 284.868L217.614 285.077C216.992 285.232 216.551 285.445 216.29 285.719C216.029 285.992 215.944 286.341 216.036 286.764C216.168 287.371 216.582 287.599 217.278 287.448C217.777 287.34 218.143 287.11 218.377 286.759C218.616 286.406 218.684 285.993 218.581 285.517L218.44 284.868ZM224.325 279.158L224.983 282.193L227.989 281.541L227.331 278.506L229.484 278.039L231.195 285.929L229.042 286.396L228.337 283.143L225.33 283.795L226.036 287.048L223.884 287.515L222.172 279.625L224.325 279.158ZM234.113 277.035L234.79 280.155C234.861 280.484 234.981 281.3 235.151 282.603L237.592 276.281L240.182 275.719L241.894 283.609L239.812 284.061L239.129 280.913C239.008 280.353 238.883 279.553 238.756 278.511L236.325 284.817L233.742 285.377L232.031 277.487L234.113 277.035ZM248.812 282.256C247.885 282.457 247.085 282.279 246.412 281.72L246.299 281.745C246.517 282.387 246.638 282.76 246.66 282.863L247.354 286.06L245.201 286.527L242.737 275.165L244.487 274.785L245.012 275.743L245.111 275.721C245.445 274.831 246.106 274.279 247.094 274.065C248.026 273.863 248.833 274.064 249.516 274.67C250.199 275.275 250.68 276.218 250.957 277.498C251.14 278.34 251.174 279.099 251.059 279.774C250.949 280.448 250.701 280.997 250.315 281.42C249.929 281.844 249.428 282.123 248.812 282.256ZM246.776 275.937C246.244 276.052 245.892 276.301 245.719 276.683C245.545 277.061 245.534 277.627 245.688 278.382L245.739 278.615C245.922 279.462 246.179 280.042 246.508 280.355C246.841 280.666 247.281 280.763 247.827 280.645C248.791 280.436 249.101 279.536 248.756 277.946C248.588 277.169 248.342 276.614 248.018 276.281C247.698 275.941 247.284 275.826 246.776 275.937ZM251.043 273.363L253.4 272.852L255.852 276.968C256.063 277.327 256.249 277.764 256.41 278.281L256.452 278.272C256.399 277.776 256.401 277.297 256.459 276.837L256.957 272.081L259.265 271.58L257.857 281.203C257.73 282.093 257.426 282.804 256.945 283.337C256.469 283.869 255.853 284.217 255.095 284.381C254.723 284.462 254.35 284.501 253.975 284.499L253.605 282.791C253.877 282.796 254.166 282.765 254.472 282.699C254.853 282.616 255.159 282.427 255.39 282.13C255.627 281.837 255.775 281.438 255.833 280.933L255.875 280.517L251.043 273.363ZM262.772 270.82L263.448 273.939C263.52 274.268 263.64 275.084 263.81 276.388L266.251 270.065L268.841 269.503L270.552 277.393L268.471 277.845L267.788 274.697C267.666 274.137 267.542 273.337 267.415 272.295L264.984 278.601L262.401 279.161L260.69 271.271L262.772 270.82ZM267.47 266.246C267.571 267.146 267.379 267.86 266.893 268.389C266.405 268.913 265.621 269.293 264.539 269.527C263.423 269.769 262.556 269.756 261.936 269.486C261.321 269.216 260.881 268.631 260.617 267.733L262.544 267.315C262.682 267.792 262.876 268.107 263.126 268.26C263.379 268.407 263.777 268.422 264.318 268.304C264.793 268.201 265.123 268.019 265.307 267.757C265.496 267.49 265.567 267.127 265.522 266.669L267.47 266.246ZM277.924 267.533L278.274 269.149L275.691 269.71L277.052 275.984L274.9 276.45L273.539 270.176L270.949 270.738L270.598 269.122L277.924 267.533ZM283.255 267.825C282.799 267.924 282.473 268.148 282.278 268.495C282.081 268.839 282.022 269.28 282.099 269.82L285.12 269.165C284.995 268.635 284.767 268.256 284.437 268.027C284.106 267.794 283.712 267.726 283.255 267.825ZM285.001 274.407C283.73 274.683 282.662 274.548 281.794 274.002C280.927 273.456 280.354 272.541 280.076 271.256C279.789 269.934 279.897 268.842 280.399 267.979C280.906 267.111 281.742 266.55 282.909 266.297C284.024 266.055 284.961 266.184 285.72 266.685C286.479 267.185 286.979 267.995 287.222 269.115L287.449 270.16L282.361 271.263C282.517 271.87 282.801 272.308 283.215 272.578C283.628 272.848 284.14 272.917 284.752 272.784C285.227 272.681 285.666 272.534 286.068 272.343C286.47 272.153 286.878 271.899 287.292 271.583L287.653 273.248C287.318 273.518 286.946 273.744 286.537 273.926C286.129 274.113 285.617 274.274 285.001 274.407ZM302.684 265.008C302.947 266.222 302.951 267.287 302.697 268.205C302.446 269.116 301.946 269.853 301.196 270.415L304.282 272.649L301.48 273.257L299.087 271.352L298.924 271.388C297.343 271.73 296.03 271.535 294.984 270.801C293.938 270.067 293.229 268.842 292.857 267.125C292.484 265.407 292.623 264.005 293.274 262.918C293.929 261.825 295.049 261.107 296.635 260.763C298.22 260.419 299.531 260.613 300.566 261.344C301.606 262.074 302.312 263.296 302.684 265.008ZM295.153 266.641C295.403 267.794 295.81 268.615 296.374 269.103C296.939 269.592 297.656 269.741 298.526 269.553C300.272 269.174 300.893 267.825 300.39 265.506C299.886 263.181 298.766 262.207 297.03 262.584C296.159 262.773 295.567 263.209 295.252 263.893C294.936 264.573 294.903 265.489 295.153 266.641ZM307.176 263.443L307.882 263.289C308.574 263.139 309.059 262.913 309.338 262.611C309.618 262.31 309.704 261.912 309.597 261.418C309.491 260.928 309.246 260.617 308.862 260.483C308.483 260.349 307.941 260.358 307.235 260.511L306.572 260.655L307.176 263.443ZM307.562 265.221L308.421 269.18L306.233 269.655L303.995 259.337L307.002 258.685C308.404 258.381 309.497 258.412 310.281 258.779C311.064 259.141 311.568 259.842 311.793 260.882C311.925 261.489 311.875 262.066 311.644 262.614C311.412 263.157 311.02 263.629 310.466 264.029C312.522 266.012 313.858 267.291 314.476 267.867L312.048 268.393L308.726 264.968L307.562 265.221ZM314.546 264.718L314.164 262.954L317.954 262.132L318.336 263.896L314.546 264.718ZM324.303 257.474L326.674 256.96L324.368 261.421L328.661 264.79L326.219 265.32L322.126 262.018L322.994 266.019L320.841 266.486L319.13 258.596L321.282 258.129L322.113 261.961L324.303 257.474ZM330.935 260.152C331.104 260.933 331.36 261.496 331.7 261.84C332.046 262.184 332.508 262.293 333.087 262.168C333.661 262.043 334.029 261.756 334.193 261.307C334.36 260.852 334.359 260.232 334.188 259.446C334.019 258.665 333.765 258.107 333.426 257.771C333.087 257.436 332.629 257.331 332.05 257.457C331.476 257.581 331.104 257.866 330.935 258.312C330.765 258.753 330.765 259.366 330.935 260.152ZM336.39 258.968C336.669 260.253 336.548 261.331 336.028 262.202C335.507 263.074 334.643 263.641 333.433 263.903C332.676 264.067 331.972 264.047 331.322 263.844C330.671 263.635 330.123 263.254 329.677 262.7C329.232 262.147 328.92 261.456 328.74 260.628C328.461 259.339 328.58 258.263 329.097 257.402C329.615 256.541 330.483 255.979 331.702 255.714C332.459 255.55 333.163 255.57 333.813 255.774C334.463 255.977 335.01 256.354 335.455 256.903C335.899 257.452 336.211 258.14 336.39 258.968ZM343.915 259.834L342.896 255.134L341.28 255.484C341.352 256.385 341.37 257.251 341.333 258.081C341.301 258.911 341.179 259.708 340.965 260.474L343.915 259.834ZM348.18 263.52L346.247 263.939L345.633 261.109L340.326 262.26L340.94 265.09L339.006 265.51L338.051 261.106L338.714 260.962C339.014 260.163 339.201 259.196 339.275 258.062C339.349 256.928 339.298 255.66 339.123 254.26L344.698 253.051L346.068 259.367L347.225 259.116L348.18 263.52ZM348.681 259.391C348.596 258.996 348.637 258.674 348.804 258.426C348.972 258.178 349.258 258.01 349.663 257.922C350.054 257.838 350.377 257.876 350.634 258.037C350.895 258.197 351.068 258.47 351.151 258.856C351.232 259.227 351.187 259.545 351.018 259.808C350.847 260.067 350.569 260.238 350.184 260.322C349.788 260.407 349.46 260.37 349.199 260.21C348.936 260.045 348.764 259.773 348.681 259.391ZM347.417 253.562C347.331 253.167 347.372 252.845 347.54 252.597C347.708 252.349 347.994 252.181 348.399 252.093C348.789 252.008 349.113 252.046 349.369 252.208C349.631 252.368 349.803 252.641 349.887 253.026C349.97 253.407 349.923 253.728 349.748 253.988C349.577 254.241 349.3 254.41 348.919 254.492C348.524 254.578 348.196 254.541 347.934 254.381C347.673 254.221 347.501 253.948 347.417 253.562Z" fill="#38056C"/>
<defs>
<clipPath id="clip0_0_311">
<rect width="170.272" height="170.272" fill="white" transform="translate(200.217 335.531) rotate(-12.9391)"/>
</clipPath>
</defs>
</svg>
