<svg width="507" height="513" viewBox="0 0 507 513" fill="none" xmlns="http://www.w3.org/2000/svg">
<g clip-path="url(#clip0_31_2681)">
<path d="M59.7544 121.274C53.9878 93.6507 71.7061 66.583 99.3294 60.8166L315.649 15.6593C343.272 9.89282 370.34 27.6113 376.106 55.2346L487.48 588.739C493.247 616.362 475.529 643.43 447.905 649.197L231.586 694.354C203.963 700.12 176.895 682.402 171.128 654.779L59.7544 121.274Z" fill="#38056C"/>
<mask id="mask0_31_2681" style="mask-type:luminance" maskUnits="userSpaceOnUse" x="58" y="14" width="431" height="682">
<path fill-rule="evenodd" clip-rule="evenodd" d="M59.7546 121.274C53.988 93.6509 71.7063 66.5832 99.3297 60.8168L315.649 15.6594C343.272 9.89297 370.34 27.6114 376.107 55.2348L487.481 588.739C493.247 616.362 475.529 643.43 447.906 649.197L231.586 694.354C203.963 700.12 176.895 682.402 171.129 654.779L59.7546 121.274Z" fill="white"/>
</mask>
<g mask="url(#mask0_31_2681)">
<path d="M99.6292 62.2478L315.948 17.0905L315.351 14.2272L99.0315 59.3845L99.6292 62.2478ZM374.676 55.5331L486.05 589.038L488.913 588.44L377.539 54.9353L374.676 55.5331ZM447.608 647.765L231.288 692.922L231.886 695.785L448.205 650.628L447.608 647.765ZM172.561 654.479L61.187 120.975L58.3237 121.573L169.698 655.077L172.561 654.479ZM231.288 692.922C204.456 698.523 178.163 681.312 172.561 654.479L169.698 655.077C175.629 683.491 203.472 701.717 231.886 695.785L231.288 692.922ZM486.05 589.038C491.651 615.87 474.44 642.163 447.608 647.765L448.205 650.628C476.619 644.696 494.845 616.854 488.913 588.44L486.05 589.038ZM315.948 17.0905C342.781 11.4891 369.074 28.7004 374.676 55.5331L377.539 54.9353C371.607 26.5213 343.765 8.29567 315.351 14.2272L315.948 17.0905ZM99.0315 59.3845C70.6175 65.316 52.392 93.1585 58.3237 121.573L61.187 120.975C55.5854 94.1422 72.7966 67.8492 99.6292 62.2478L99.0315 59.3845Z" fill="#38056C"/>
</g>
<path d="M64.8624 87.7852L111.545 78.0462L118.338 110.606L61.4478 122.474C58.476 108.229 59.7637 98.0509 64.8624 87.7852Z" fill="white"/>
<path d="M76.2905 117.842C70.5239 90.2184 88.2422 63.1506 115.866 57.3842L332.185 12.2269C359.808 6.46045 386.876 24.1789 392.643 51.8022L504.017 585.307C509.783 612.93 492.065 639.998 464.442 645.764L248.122 690.921C220.499 696.688 193.431 678.969 187.665 651.346L76.2905 117.842Z" fill="white"/>
<mask id="mask1_31_2681" style="mask-type:luminance" maskUnits="userSpaceOnUse" x="75" y="11" width="431" height="682">
<path fill-rule="evenodd" clip-rule="evenodd" d="M76.2917 117.841C70.5251 90.2181 88.2434 63.1503 115.867 57.3839L332.186 12.2266C359.809 6.4601 386.877 24.1786 392.644 51.8019L504.018 585.306C509.784 612.929 492.066 639.997 464.443 645.764L248.124 690.921C220.5 696.687 193.432 678.969 187.666 651.346L76.2917 117.841Z" fill="white"/>
</mask>
<g mask="url(#mask1_31_2681)">
<path d="M116.166 58.8157L332.486 13.6584L331.888 10.795L115.569 55.9523L116.166 58.8157ZM391.213 52.1009L502.587 585.605L505.45 585.008L394.076 51.5032L391.213 52.1009ZM464.145 644.332L247.825 689.49L248.423 692.353L464.742 647.196L464.145 644.332ZM189.098 651.047L77.7241 117.543L74.8608 118.14L186.235 651.645L189.098 651.047ZM247.825 689.49C220.993 695.091 194.7 677.88 189.098 651.047L186.235 651.645C192.167 680.059 220.009 698.285 248.423 692.353L247.825 689.49ZM502.587 585.605C508.188 612.438 490.977 638.731 464.145 644.332L464.742 647.196C493.156 641.264 511.382 613.422 505.45 585.008L502.587 585.605ZM332.486 13.6584C359.318 8.05702 385.611 25.2683 391.213 52.1009L394.076 51.5032C388.144 23.0892 360.302 4.86354 331.888 10.795L332.486 13.6584ZM115.569 55.9523C87.1546 61.8839 68.9291 89.7264 74.8608 118.14L77.7241 117.543C72.1225 90.71 89.3337 64.4171 116.166 58.8157L115.569 55.9523Z" fill="#38056C"/>
</g>
<path d="M92.3688 115.082C88.2498 95.3512 100.906 76.017 120.637 71.8981L158.925 63.9054C163.643 62.9205 168.266 65.9467 169.251 70.6647C170.925 78.6852 178.784 83.8298 186.805 82.1555L274.776 63.7913C283.223 62.0279 288.666 53.7809 286.966 45.3208C285.956 40.2909 289.236 35.4009 294.274 34.4284L336.827 26.2134C356.407 22.4335 375.396 35.0693 379.471 54.59L490.693 587.365C494.812 607.096 482.156 626.43 462.425 630.549L246.663 675.59C226.932 679.709 207.598 667.053 203.479 647.322L92.3688 115.082Z" fill="#CCC8FF"/>
<mask id="mask2_31_2681" style="mask-type:luminance" maskUnits="userSpaceOnUse" x="91" y="25" width="401" height="652">
<path fill-rule="evenodd" clip-rule="evenodd" d="M92.3689 115.082C88.2498 95.3514 100.906 76.0172 120.637 71.8983L158.925 63.9056C163.643 62.9207 168.266 65.9469 169.251 70.6649C170.925 78.6853 178.785 83.83 186.805 82.1557L274.776 63.7915C283.223 62.0281 288.666 53.7811 286.966 45.321C285.956 40.2912 289.236 35.4011 294.274 34.4286L336.827 26.2135C356.407 22.4337 375.396 35.0694 379.472 54.5901L490.693 587.365C494.812 607.096 482.156 626.43 462.425 630.549L246.663 675.59C226.932 679.709 207.598 667.053 203.479 647.322L92.3689 115.082Z" fill="white"/>
</mask>
<g mask="url(#mask2_31_2681)">
<path d="M378.039 54.8883L489.261 587.663L492.124 587.066L380.902 54.2906L378.039 54.8883ZM462.125 629.117L246.363 674.158L246.961 677.021L462.723 631.98L462.125 629.117ZM204.91 647.023L93.7995 114.783L90.9361 115.38L202.046 647.62L204.91 647.023ZM120.935 73.3292L159.223 65.3365L158.625 62.4732L120.337 70.4659L120.935 73.3292ZM294.55 35.8639L337.104 27.6489L336.549 24.7769L293.995 32.9919L294.55 35.8639ZM187.103 83.5866L275.074 65.2224L274.476 62.3591L186.505 80.7233L187.103 83.5866ZM167.818 70.963C169.658 79.7742 178.292 85.426 187.103 83.5866L186.505 80.7233C179.275 82.2326 172.191 77.5951 170.681 70.3653L167.818 70.963ZM293.995 32.9919C288.161 34.1183 284.361 39.7824 285.531 45.6084L288.399 45.0323C287.549 40.7985 290.31 36.6824 294.55 35.8639L293.995 32.9919ZM159.223 65.3365C163.15 64.5166 166.998 67.0357 167.818 70.963L170.681 70.3653C169.531 64.8566 164.134 61.3232 158.625 62.4732L159.223 65.3365ZM285.531 45.6084C287.073 53.2807 282.137 60.7599 274.476 62.3591L275.074 65.2224C284.307 63.2949 290.257 54.28 288.399 45.0323L285.531 45.6084ZM246.363 674.158C227.423 678.112 208.864 665.963 204.91 647.023L202.046 647.62C206.33 668.142 226.439 681.305 246.961 677.021L246.363 674.158ZM489.261 587.663C493.215 606.604 481.066 625.163 462.125 629.117L462.723 631.98C483.245 627.696 496.408 607.587 492.124 587.066L489.261 587.663ZM380.902 54.2906C376.664 33.9877 356.914 20.8455 336.549 24.7769L337.104 27.6489C355.899 24.0204 374.127 36.1499 378.039 54.8883L380.902 54.2906ZM93.7995 114.783C89.8455 95.8424 101.994 77.2831 120.935 73.3292L120.337 70.4659C99.8152 74.7499 86.6521 94.8588 90.9361 115.38L93.7995 114.783Z" fill="#38056C"/>
</g>
<path fill-rule="evenodd" clip-rule="evenodd" d="M411.91 174.382L183.533 70.6987L195.638 44.3582L409.012 142.437L411.91 174.382Z" fill="white"/>
<path fill-rule="evenodd" clip-rule="evenodd" d="M400.871 130.709L226.501 50.6113L229.539 44.0039L403.908 124.102L400.871 130.709Z" fill="white"/>
<mask id="mask3_31_2681" style="mask-type:luminance" maskUnits="userSpaceOnUse" x="180" y="61" width="12" height="12">
<path fill-rule="evenodd" clip-rule="evenodd" d="M191.378 65.6801C192.004 68.677 190.026 71.6253 186.961 72.2652C183.896 72.905 180.904 70.9942 180.278 67.9972C179.652 65.0003 181.63 62.0521 184.695 61.4122C187.761 60.7724 190.753 62.6832 191.378 65.6801Z" fill="white"/>
</mask>
<g mask="url(#mask3_31_2681)">
<path d="M189.946 65.979C190.4 68.155 188.967 70.3523 186.662 70.8335L187.26 73.6968C191.085 72.8983 193.607 69.1991 192.81 65.3813L189.946 65.979ZM186.662 70.8335C184.357 71.3147 182.164 69.8745 181.709 67.6985L178.846 68.2962C179.643 72.114 183.434 74.4954 187.26 73.6968L186.662 70.8335ZM181.709 67.6985C181.255 65.5224 182.689 63.3251 184.994 62.844L184.396 59.9806C180.571 60.7792 178.049 64.4783 178.846 68.2962L181.709 67.6985ZM184.994 62.844C187.299 62.3628 189.492 63.803 189.946 65.979L192.81 65.3813C192.013 61.5634 188.221 59.1821 184.396 59.9806L184.994 62.844Z" fill="#38056C"/>
</g>
<path d="M194.153 65.0976C193.527 62.1007 195.45 59.164 198.446 58.5384L259.744 45.7423C262.741 45.1167 265.678 47.039 266.303 50.036C266.929 53.0329 265.007 55.9696 262.01 56.5952L200.712 69.3913C197.715 70.0169 194.778 68.0945 194.153 65.0976Z" fill="white"/>
<mask id="mask4_31_2681" style="mask-type:luminance" maskUnits="userSpaceOnUse" x="194" y="45" width="73" height="25">
<path fill-rule="evenodd" clip-rule="evenodd" d="M194.153 65.0973C193.527 62.1004 195.45 59.1638 198.447 58.5381L259.744 45.7421C262.741 45.1165 265.678 47.0388 266.303 50.0357C266.929 53.0326 265.007 55.9693 262.01 56.5949L200.712 69.3909C197.715 70.0166 194.779 68.0943 194.153 65.0973Z" fill="white"/>
</mask>
<g mask="url(#mask4_31_2681)">
<path d="M198.745 59.9701L260.043 47.174L259.445 44.3107L198.148 57.1068L198.745 59.9701ZM261.711 55.1636L200.413 67.9596L201.011 70.823L262.309 58.0269L261.711 55.1636ZM200.413 67.9596C198.207 68.4202 196.045 67.005 195.584 64.7988L192.721 65.3965C193.512 69.1842 197.223 71.6137 201.011 70.823L200.413 67.9596ZM264.872 50.3349C265.332 52.5411 263.917 54.703 261.711 55.1636L262.309 58.0269C266.096 57.2362 268.526 53.5248 267.735 49.7372L264.872 50.3349ZM260.043 47.174C262.249 46.7135 264.411 48.1286 264.872 50.3349L267.735 49.7372C266.944 45.9495 263.233 43.52 259.445 44.3107L260.043 47.174ZM198.148 57.1068C194.36 57.8974 191.93 61.6089 192.721 65.3965L195.584 64.7988C195.124 62.5925 196.539 60.4307 198.745 59.9701L198.148 57.1068Z" fill="#38056C"/>
</g>
<path d="M89.9906 219.423C93.0578 218.793 96.0549 220.769 96.6848 223.836L107.446 276.237C108.076 279.304 106.1 282.301 103.033 282.932C99.9661 283.562 96.969 281.586 96.3391 278.519L85.5776 226.118C84.9477 223.051 86.9234 220.054 89.9906 219.423Z" fill="white"/>
<mask id="mask5_31_2681" style="mask-type:luminance" maskUnits="userSpaceOnUse" x="85" y="219" width="23" height="65">
<path fill-rule="evenodd" clip-rule="evenodd" d="M89.9919 219.423C93.059 218.793 96.0561 220.769 96.6861 223.836L107.448 276.237C108.077 279.304 106.102 282.301 103.035 282.932C99.9673 283.562 96.9702 281.586 96.3403 278.519L85.5789 226.119C84.9489 223.051 86.9247 220.054 89.9919 219.423Z" fill="white"/>
</mask>
<g mask="url(#mask5_31_2681)">
<path d="M95.2544 224.131L106.016 276.531L108.881 275.943L98.1196 223.542L95.2544 224.131ZM97.7739 278.225L87.0124 225.825L84.1472 226.413L94.9087 278.814L97.7739 278.225ZM87.0124 225.825C86.545 223.549 88.0111 221.324 90.287 220.857L89.6986 217.991C85.8402 218.784 83.3548 222.555 84.1472 226.413L87.0124 225.825ZM102.741 281.5C100.465 281.967 98.2413 280.501 97.7739 278.225L94.9087 278.814C95.7011 282.673 99.4713 285.158 103.33 284.365L102.741 281.5ZM106.016 276.531C106.483 278.808 105.017 281.032 102.741 281.5L103.33 284.365C107.188 283.572 109.674 279.801 108.881 275.943L106.016 276.531ZM98.1196 223.542C97.3272 219.683 93.557 217.198 89.6986 217.991L90.287 220.857C92.563 220.389 94.787 221.855 95.2544 224.131L98.1196 223.542Z" fill="#38056C"/>
</g>
<path d="M103.46 284.304C106.528 283.674 109.525 285.65 110.155 288.717L120.916 341.118C121.546 344.185 119.57 347.182 116.503 347.813C113.436 348.443 110.439 346.467 109.809 343.4L99.0473 290.999C98.4174 287.932 100.393 284.935 103.46 284.304Z" fill="white"/>
<mask id="mask6_31_2681" style="mask-type:luminance" maskUnits="userSpaceOnUse" x="98" y="284" width="24" height="64">
<path fill-rule="evenodd" clip-rule="evenodd" d="M103.462 284.304C106.529 283.674 109.526 285.649 110.156 288.717L120.917 341.117C121.547 344.185 119.571 347.182 116.504 347.812C113.437 348.443 110.44 346.467 109.81 343.4L99.0486 290.999C98.4186 287.932 100.394 284.935 103.462 284.304Z" fill="white"/>
</mask>
<g mask="url(#mask6_31_2681)">
<path d="M108.723 289.012L119.485 341.413L122.35 340.824L111.588 288.423L108.723 289.012ZM111.243 343.106L100.481 290.706L97.6159 291.295L108.377 343.695L111.243 343.106ZM100.481 290.706C100.014 288.43 101.48 286.205 103.756 285.738L103.167 282.872C99.309 283.665 96.8235 287.436 97.6159 291.295L100.481 290.706ZM116.21 346.381C113.934 346.848 111.71 345.382 111.243 343.106L108.377 343.695C109.17 347.554 112.94 350.039 116.798 349.246L116.21 346.381ZM119.485 341.413C119.952 343.689 118.486 345.913 116.21 346.381L116.798 349.246C120.657 348.453 123.142 344.682 122.35 340.824L119.485 341.413ZM111.588 288.423C110.796 284.565 107.026 282.079 103.167 282.872L103.756 285.738C106.032 285.27 108.256 286.736 108.723 289.012L111.588 288.423Z" fill="#38056C"/>
</g>
<mask id="mask7_31_2681" style="mask-type:luminance" maskUnits="userSpaceOnUse" x="91" y="25" width="401" height="652">
<path fill-rule="evenodd" clip-rule="evenodd" d="M92.3689 115.082C88.2498 95.3514 100.906 76.0172 120.637 71.8983L158.925 63.9056C163.643 62.9207 168.266 65.9469 169.251 70.6649C170.925 78.6853 178.785 83.83 186.805 82.1557L274.776 63.7915C283.223 62.0281 288.666 53.7811 286.966 45.321C285.956 40.2912 289.236 35.4011 294.274 34.4286L336.827 26.2135C356.407 22.4337 375.396 35.0694 379.472 54.5901L490.693 587.365C494.812 607.096 482.156 626.43 462.425 630.549L246.663 675.59C226.932 679.709 207.598 667.053 203.479 647.322L92.3689 115.082Z" fill="white"/>
</mask>
<g mask="url(#mask7_31_2681)">
<path d="M378.039 54.8883L489.261 587.663L492.124 587.066L380.902 54.2906L378.039 54.8883ZM462.125 629.117L246.363 674.158L246.961 677.021L462.723 631.98L462.125 629.117ZM204.91 647.023L93.7995 114.783L90.9361 115.38L202.046 647.62L204.91 647.023ZM120.935 73.3292L159.223 65.3365L158.625 62.4732L120.337 70.4659L120.935 73.3292ZM294.55 35.8639L337.104 27.6489L336.549 24.7769L293.995 32.9919L294.55 35.8639ZM187.103 83.5866L275.074 65.2224L274.476 62.3591L186.505 80.7233L187.103 83.5866ZM167.818 70.963C169.658 79.7742 178.292 85.426 187.103 83.5866L186.505 80.7233C179.275 82.2326 172.191 77.5951 170.681 70.3653L167.818 70.963ZM293.995 32.9919C288.161 34.1183 284.361 39.7824 285.531 45.6084L288.399 45.0323C287.549 40.7985 290.31 36.6824 294.55 35.8639L293.995 32.9919ZM159.223 65.3365C163.15 64.5166 166.998 67.0357 167.818 70.963L170.681 70.3653C169.531 64.8566 164.134 61.3232 158.625 62.4732L159.223 65.3365ZM285.531 45.6084C287.073 53.2807 282.137 60.7599 274.476 62.3591L275.074 65.2224C284.307 63.2949 290.257 54.28 288.399 45.0323L285.531 45.6084ZM246.363 674.158C227.423 678.112 208.864 665.963 204.91 647.023L202.046 647.62C206.33 668.142 226.439 681.305 246.961 677.021L246.363 674.158ZM489.261 587.663C493.215 606.604 481.066 625.163 462.125 629.117L462.723 631.98C483.245 627.696 496.408 607.587 492.124 587.066L489.261 587.663ZM380.902 54.2906C376.664 33.9877 356.914 20.8455 336.549 24.7769L337.104 27.6489C355.899 24.0204 374.127 36.1499 378.039 54.8883L380.902 54.2906ZM93.7995 114.783C89.8455 95.8424 101.994 77.2831 120.935 73.3292L120.337 70.4659C99.8152 74.7499 86.6521 94.8588 90.9361 115.38L93.7995 114.783Z" fill="#38056C"/>
</g>
<g clip-path="url(#clip1_31_2681)">
<path d="M259.701 285.984L252.534 287.634L254.185 294.801L261.351 293.15L259.701 285.984Z" fill="black"/>
<path d="M280.575 281.177L273.408 282.827L275.059 289.994L282.225 288.343L280.575 281.177Z" fill="black"/>
<path d="M287.533 279.574L280.366 281.225L282.017 288.391L289.183 286.741L287.533 279.574Z" fill="black"/>
<path d="M261.303 292.942L254.136 294.592L255.787 301.759L262.953 300.108L261.303 292.942Z" fill="black"/>
<path d="M282.177 288.135L275.01 289.785L276.661 296.952L283.827 295.301L282.177 288.135Z" fill="black"/>
<path d="M296.093 284.93L288.926 286.58L290.577 293.747L297.743 292.097L296.093 284.93Z" fill="black"/>
<path d="M303.051 283.328L295.884 284.978L297.535 292.145L304.701 290.494L303.051 283.328Z" fill="black"/>
<path d="M316.967 280.123L309.8 281.773L311.451 288.94L318.617 287.29L316.967 280.123Z" fill="black"/>
<path d="M262.906 299.899L255.739 301.55L257.389 308.717L264.556 307.066L262.906 299.899Z" fill="black"/>
<path d="M276.821 296.695L269.654 298.345L271.305 305.512L278.471 303.862L276.821 296.695Z" fill="black"/>
<path d="M290.737 293.49L283.57 295.141L285.221 302.307L292.387 300.657L290.737 293.49Z" fill="black"/>
<path d="M285.382 302.051L278.215 303.701L279.865 310.868L287.032 309.217L285.382 302.051Z" fill="black"/>
<path d="M292.34 300.448L285.173 302.099L286.823 309.265L293.99 307.615L292.34 300.448Z" fill="black"/>
<path d="M313.214 295.641L306.047 297.292L307.697 304.458L314.864 302.808L313.214 295.641Z" fill="black"/>
<path d="M273.068 312.213L265.901 313.864L267.552 321.03L274.718 319.38L273.068 312.213Z" fill="black"/>
<path d="M280.026 310.611L272.859 312.261L274.51 319.428L281.676 317.778L280.026 310.611Z" fill="black"/>
<path d="M307.858 304.202L300.691 305.852L302.341 313.019L309.508 311.368L307.858 304.202Z" fill="black"/>
<path d="M314.816 302.599L307.649 304.25L309.3 311.416L316.467 309.766L314.816 302.599Z" fill="black"/>
<path d="M321.774 300.997L314.607 302.647L316.257 309.814L323.424 308.164L321.774 300.997Z" fill="black"/>
<path d="M267.713 320.773L260.546 322.424L262.196 329.591L269.363 327.94L267.713 320.773Z" fill="black"/>
<path d="M274.67 319.171L267.503 320.822L269.154 327.988L276.321 326.338L274.67 319.171Z" fill="black"/>
<path d="M288.586 315.967L281.419 317.617L283.07 324.784L290.237 323.133L288.586 315.967Z" fill="black"/>
<path d="M309.46 311.16L302.293 312.81L303.944 319.977L311.111 318.326L309.46 311.16Z" fill="black"/>
<path d="M316.418 309.557L309.251 311.208L310.902 318.374L318.069 316.724L316.418 309.557Z" fill="black"/>
<path d="M323.376 307.955L316.209 309.605L317.86 316.772L325.027 315.122L323.376 307.955Z" fill="black"/>
<path d="M269.315 327.731L262.148 329.382L263.798 336.549L270.965 334.898L269.315 327.731Z" fill="black"/>
<path d="M283.231 324.527L276.064 326.177L277.714 333.344L284.881 331.693L283.231 324.527Z" fill="black"/>
<path d="M297.147 321.322L289.98 322.973L291.63 330.139L298.797 328.489L297.147 321.322Z" fill="black"/>
<path d="M311.063 318.118L303.896 319.768L305.546 326.935L312.713 325.284L311.063 318.118Z" fill="black"/>
<path d="M324.979 314.913L317.812 316.563L319.462 323.73L326.629 322.08L324.979 314.913Z" fill="black"/>
<path d="M270.917 334.689L263.75 336.34L265.4 343.507L272.567 341.856L270.917 334.689Z" fill="black"/>
<path d="M284.833 331.485L277.667 333.135L279.317 340.302L286.484 338.651L284.833 331.485Z" fill="black"/>
<path d="M305.707 326.678L298.54 328.328L300.19 335.495L307.357 333.845L305.707 326.678Z" fill="black"/>
<path d="M230.771 351.261L223.604 352.912L225.255 360.078L232.422 358.428L230.771 351.261Z" fill="black"/>
<path d="M237.729 349.659L230.562 351.309L232.213 358.476L239.38 356.826L237.729 349.659Z" fill="black"/>
<path d="M244.687 348.057L237.521 349.707L239.171 356.874L246.338 355.223L244.687 348.057Z" fill="black"/>
<path d="M258.603 344.852L251.437 346.502L253.087 353.669L260.254 352.019L258.603 344.852Z" fill="black"/>
<path d="M272.519 341.647L265.353 343.298L267.003 350.465L274.17 348.814L272.519 341.647Z" fill="black"/>
<path d="M279.477 340.045L272.311 341.695L273.961 348.862L281.128 347.212L279.477 340.045Z" fill="black"/>
<path d="M300.351 335.238L293.185 336.889L294.835 344.055L302.002 342.405L300.351 335.238Z" fill="black"/>
<path d="M307.309 333.636L300.143 335.286L301.793 342.453L308.96 340.803L307.309 333.636Z" fill="black"/>
<path d="M314.267 332.034L307.101 333.684L308.751 340.851L315.918 339.2L314.267 332.034Z" fill="black"/>
<path d="M321.225 330.431L314.058 332.082L315.708 339.248L322.875 337.598L321.225 330.431Z" fill="black"/>
<path d="M328.183 328.829L321.017 330.479L322.667 337.646L329.834 335.996L328.183 328.829Z" fill="black"/>
<path d="M335.141 327.227L327.975 328.877L329.625 336.044L336.792 334.393L335.141 327.227Z" fill="black"/>
<path d="M342.099 325.624L334.933 327.275L336.583 334.442L343.75 332.791L342.099 325.624Z" fill="black"/>
<path d="M349.057 324.022L341.891 325.672L343.541 332.839L350.708 331.189L349.057 324.022Z" fill="black"/>
<path d="M369.931 319.215L362.764 320.866L364.415 328.032L371.581 326.382L369.931 319.215Z" fill="black"/>
<path d="M376.889 317.613L369.723 319.263L371.373 326.43L378.54 324.78L376.889 317.613Z" fill="black"/>
<path d="M383.847 316.011L376.68 317.661L378.331 324.828L385.497 323.177L383.847 316.011Z" fill="black"/>
<path d="M218.458 361.424L211.291 363.074L212.941 370.241L220.108 368.591L218.458 361.424Z" fill="black"/>
<path d="M246.289 355.015L239.123 356.665L240.773 363.832L247.94 362.181L246.289 355.015Z" fill="black"/>
<path d="M281.079 347.003L273.913 348.653L275.563 355.82L282.73 354.17L281.079 347.003Z" fill="black"/>
<path d="M288.037 345.401L280.871 347.051L282.521 354.218L289.688 352.568L288.037 345.401Z" fill="black"/>
<path d="M301.953 342.196L294.787 343.847L296.437 351.013L303.604 349.363L301.953 342.196Z" fill="black"/>
<path d="M308.911 340.594L301.745 342.244L303.395 349.411L310.562 347.761L308.911 340.594Z" fill="black"/>
<path d="M315.869 338.992L308.703 340.642L310.353 347.809L317.52 346.158L315.869 338.992Z" fill="black"/>
<path d="M343.701 332.582L336.535 334.233L338.185 341.4L345.352 339.749L343.701 332.582Z" fill="black"/>
<path d="M371.533 326.173L364.367 327.824L366.017 334.99L373.184 333.34L371.533 326.173Z" fill="black"/>
<path d="M227.018 366.78L219.851 368.43L221.501 375.597L228.668 373.946L227.018 366.78Z" fill="black"/>
<path d="M240.934 363.575L233.767 365.225L235.417 372.392L242.584 370.742L240.934 363.575Z" fill="black"/>
<path d="M261.808 358.768L254.641 360.418L256.291 367.585L263.458 365.935L261.808 358.768Z" fill="black"/>
<path d="M268.766 357.166L261.599 358.816L263.249 365.983L270.416 364.333L268.766 357.166Z" fill="black"/>
<path d="M275.724 355.563L268.557 357.214L270.208 364.38L277.374 362.73L275.724 355.563Z" fill="black"/>
<path d="M282.682 353.961L275.515 355.611L277.166 362.778L284.332 361.128L282.682 353.961Z" fill="black"/>
<path d="M289.64 352.359L282.473 354.009L284.124 361.176L291.29 359.526L289.64 352.359Z" fill="black"/>
<path d="M296.598 350.757L289.431 352.407L291.082 359.574L298.248 357.923L296.598 350.757Z" fill="black"/>
<path d="M303.556 349.154L296.389 350.805L298.04 357.971L305.206 356.321L303.556 349.154Z" fill="black"/>
<path d="M345.304 339.54L338.137 341.191L339.788 348.358L346.954 346.707L345.304 339.54Z" fill="black"/>
<path d="M366.177 334.734L359.011 336.384L360.661 343.551L367.828 341.9L366.177 334.734Z" fill="black"/>
<path d="M380.094 331.529L372.927 333.179L374.578 340.346L381.744 338.696L380.094 331.529Z" fill="black"/>
<path d="M387.052 329.927L379.885 331.577L381.536 338.744L388.702 337.093L387.052 329.927Z" fill="black"/>
<path d="M242.536 370.533L235.369 372.183L237.02 379.35L244.186 377.7L242.536 370.533Z" fill="black"/>
<path d="M249.494 368.931L242.328 370.581L243.978 377.748L251.145 376.097L249.494 368.931Z" fill="black"/>
<path d="M256.452 367.328L249.286 368.979L250.936 376.145L258.103 374.495L256.452 367.328Z" fill="black"/>
<path d="M270.368 364.124L263.202 365.774L264.852 372.941L272.019 371.29L270.368 364.124Z" fill="black"/>
<path d="M291.242 359.317L284.075 360.967L285.726 368.134L292.892 366.484L291.242 359.317Z" fill="black"/>
<path d="M298.2 357.714L291.034 359.365L292.684 366.532L299.851 364.881L298.2 357.714Z" fill="black"/>
<path d="M305.158 356.112L297.991 357.763L299.642 364.929L306.808 363.279L305.158 356.112Z" fill="black"/>
<path d="M312.116 354.51L304.949 356.16L306.6 363.327L313.766 361.677L312.116 354.51Z" fill="black"/>
<path d="M332.99 349.703L325.823 351.353L327.474 358.52L334.64 356.87L332.99 349.703Z" fill="black"/>
<path d="M346.906 346.498L339.739 348.149L341.39 355.315L348.556 353.665L346.906 346.498Z" fill="black"/>
<path d="M353.864 344.896L346.697 346.546L348.348 353.713L355.514 352.063L353.864 344.896Z" fill="black"/>
<path d="M367.78 341.692L360.613 343.342L362.264 350.509L369.43 348.858L367.78 341.692Z" fill="black"/>
<path d="M381.696 338.487L374.529 340.137L376.18 347.304L383.346 345.654L381.696 338.487Z" fill="black"/>
<path d="M388.654 336.885L381.487 338.535L383.138 345.702L390.304 344.051L388.654 336.885Z" fill="black"/>
<path d="M223.264 382.298L216.098 383.948L217.748 391.115L224.915 389.465L223.264 382.298Z" fill="black"/>
<path d="M237.18 379.093L230.014 380.744L231.664 387.91L238.831 386.26L237.18 379.093Z" fill="black"/>
<path d="M244.138 377.491L236.972 379.141L238.622 386.308L245.789 384.658L244.138 377.491Z" fill="black"/>
<path d="M251.096 375.889L243.93 377.539L245.58 384.706L252.747 383.055L251.096 375.889Z" fill="black"/>
<path d="M265.012 372.684L257.846 374.334L259.496 381.501L266.663 379.851L265.012 372.684Z" fill="black"/>
<path d="M278.928 369.479L271.762 371.13L273.412 378.296L280.579 376.646L278.928 369.479Z" fill="black"/>
<path d="M285.886 367.877L278.72 369.527L280.37 376.694L287.537 375.044L285.886 367.877Z" fill="black"/>
<path d="M299.802 364.673L292.636 366.323L294.286 373.49L301.453 371.839L299.802 364.673Z" fill="black"/>
<path d="M313.718 361.468L306.552 363.118L308.202 370.285L315.369 368.635L313.718 361.468Z" fill="black"/>
<path d="M320.677 359.865L313.51 361.516L315.16 368.683L322.327 367.032L320.677 359.865Z" fill="black"/>
<path d="M341.551 355.059L334.384 356.709L336.034 363.876L343.201 362.225L341.551 355.059Z" fill="black"/>
<path d="M355.467 351.854L348.3 353.504L349.95 360.671L357.117 359.021L355.467 351.854Z" fill="black"/>
<path d="M369.382 348.65L362.215 350.3L363.866 357.467L371.032 355.816L369.382 348.65Z" fill="black"/>
<path d="M376.341 347.047L369.174 348.698L370.824 355.864L377.991 354.214L376.341 347.047Z" fill="black"/>
<path d="M383.298 345.445L376.131 347.095L377.782 354.262L384.948 352.612L383.298 345.445Z" fill="black"/>
<path d="M390.257 343.843L383.09 345.493L384.74 352.66L391.907 351.009L390.257 343.843Z" fill="black"/>
<path d="M224.867 389.256L217.7 390.906L219.351 398.073L226.517 396.423L224.867 389.256Z" fill="black"/>
<path d="M238.783 386.051L231.616 387.702L233.267 394.868L240.433 393.218L238.783 386.051Z" fill="black"/>
<path d="M245.74 384.449L238.574 386.099L240.224 393.266L247.391 391.616L245.74 384.449Z" fill="black"/>
<path d="M259.656 381.244L252.49 382.895L254.14 390.062L261.307 388.411L259.656 381.244Z" fill="black"/>
<path d="M273.572 378.04L266.406 379.69L268.056 386.857L275.223 385.206L273.572 378.04Z" fill="black"/>
<path d="M280.531 376.437L273.364 378.088L275.015 385.255L282.181 383.604L280.531 376.437Z" fill="black"/>
<path d="M287.489 374.835L280.322 376.486L281.972 383.652L289.139 382.002L287.489 374.835Z" fill="black"/>
<path d="M301.405 371.631L294.238 373.281L295.888 380.448L303.055 378.797L301.405 371.631Z" fill="black"/>
<path d="M308.363 370.028L301.196 371.679L302.846 378.845L310.013 377.195L308.363 370.028Z" fill="black"/>
<path d="M329.237 365.221L322.07 366.872L323.721 374.038L330.887 372.388L329.237 365.221Z" fill="black"/>
<path d="M336.195 363.619L329.028 365.269L330.678 372.436L337.845 370.786L336.195 363.619Z" fill="black"/>
<path d="M343.153 362.017L335.986 363.667L337.636 370.834L344.803 369.183L343.153 362.017Z" fill="black"/>
<path d="M350.111 360.414L342.944 362.065L344.594 369.231L351.761 367.581L350.111 360.414Z" fill="black"/>
<path d="M370.985 355.607L363.818 357.258L365.468 364.425L372.635 362.774L370.985 355.607Z" fill="black"/>
<path d="M226.469 396.214L219.302 397.864L220.953 405.031L228.119 403.381L226.469 396.214Z" fill="black"/>
<path d="M254.301 389.805L247.134 391.455L248.785 398.622L255.951 396.971L254.301 389.805Z" fill="black"/>
<path d="M268.217 386.6L261.05 388.25L262.701 395.417L269.867 393.767L268.217 386.6Z" fill="black"/>
<path d="M289.091 381.793L281.924 383.443L283.575 390.61L290.741 388.96L289.091 381.793Z" fill="black"/>
<path d="M303.007 378.589L295.84 380.239L297.491 387.406L304.657 385.755L303.007 378.589Z" fill="black"/>
<path d="M309.965 376.986L302.798 378.637L304.449 385.803L311.615 384.153L309.965 376.986Z" fill="black"/>
<path d="M316.923 375.384L309.756 377.034L311.407 384.201L318.573 382.551L316.923 375.384Z" fill="black"/>
<path d="M323.881 373.782L316.714 375.432L318.365 382.599L325.531 380.948L323.881 373.782Z" fill="black"/>
<path d="M344.755 368.975L337.588 370.625L339.239 377.792L346.405 376.141L344.755 368.975Z" fill="black"/>
<path d="M351.713 367.372L344.546 369.023L346.197 376.189L353.363 374.539L351.713 367.372Z" fill="black"/>
<path d="M358.671 365.77L351.504 367.42L353.155 374.587L360.322 372.937L358.671 365.77Z" fill="black"/>
<path d="M365.629 364.168L358.462 365.818L360.113 372.985L367.28 371.334L365.629 364.168Z" fill="black"/>
<path d="M372.587 362.565L365.42 364.216L367.071 371.383L374.238 369.732L372.587 362.565Z" fill="black"/>
<path d="M386.503 359.361L379.336 361.011L380.987 368.178L388.154 366.528L386.503 359.361Z" fill="black"/>
<path d="M393.461 357.758L386.294 359.409L387.945 366.576L395.112 364.925L393.461 357.758Z" fill="black"/>
<path d="M228.072 403.172L220.905 404.822L222.555 411.989L229.722 410.339L228.072 403.172Z" fill="black"/>
<path d="M241.988 399.967L234.821 401.618L236.471 408.784L243.638 407.134L241.988 399.967Z" fill="black"/>
<path d="M248.946 398.365L241.779 400.015L243.429 407.182L250.596 405.532L248.946 398.365Z" fill="black"/>
<path d="M262.862 395.16L255.695 396.811L257.345 403.977L264.512 402.327L262.862 395.16Z" fill="black"/>
<path d="M276.777 391.956L269.61 393.606L271.261 400.773L278.427 399.122L276.777 391.956Z" fill="black"/>
<path d="M283.736 390.353L276.569 392.004L278.219 399.171L285.386 397.52L283.736 390.353Z" fill="black"/>
<path d="M297.652 387.149L290.485 388.799L292.135 395.966L299.302 394.316L297.652 387.149Z" fill="black"/>
<path d="M304.609 385.547L297.442 387.197L299.093 394.364L306.259 392.713L304.609 385.547Z" fill="black"/>
<path d="M318.525 382.342L311.358 383.992L313.009 391.159L320.176 389.509L318.525 382.342Z" fill="black"/>
<path d="M325.483 380.74L318.316 382.39L319.967 389.557L327.134 387.906L325.483 380.74Z" fill="black"/>
<path d="M339.399 377.535L332.232 379.185L333.883 386.352L341.05 384.702L339.399 377.535Z" fill="black"/>
<path d="M353.315 374.33L346.148 375.981L347.799 383.147L354.966 381.497L353.315 374.33Z" fill="black"/>
<path d="M374.189 369.523L367.022 371.174L368.673 378.341L375.84 376.69L374.189 369.523Z" fill="black"/>
<path d="M395.063 364.716L387.896 366.367L389.547 373.534L396.714 371.883L395.063 364.716Z" fill="black"/>
<path d="M229.674 410.13L222.507 411.78L224.157 418.947L231.324 417.297L229.674 410.13Z" fill="black"/>
<path d="M243.59 406.925L236.423 408.576L238.073 415.742L245.24 414.092L243.59 406.925Z" fill="black"/>
<path d="M271.422 400.516L264.255 402.166L265.905 409.333L273.072 407.683L271.422 400.516Z" fill="black"/>
<path d="M299.254 394.107L292.087 395.757L293.737 402.924L300.904 401.274L299.254 394.107Z" fill="black"/>
<path d="M341.002 384.493L333.835 386.143L335.485 393.31L342.652 391.66L341.002 384.493Z" fill="black"/>
<path d="M347.96 382.891L340.793 384.541L342.443 391.708L349.61 390.057L347.96 382.891Z" fill="black"/>
<path d="M354.918 381.288L347.751 382.939L349.401 390.105L356.568 388.455L354.918 381.288Z" fill="black"/>
<path d="M361.876 379.686L354.709 381.336L356.359 388.503L363.526 386.853L361.876 379.686Z" fill="black"/>
<path d="M368.834 378.084L361.667 379.734L363.317 386.901L370.484 385.25L368.834 378.084Z" fill="black"/>
<path d="M389.708 373.277L382.541 374.927L384.191 382.094L391.358 380.443L389.708 373.277Z" fill="black"/>
<path d="M396.665 371.674L389.499 373.325L391.149 380.492L398.316 378.841L396.665 371.674Z" fill="black"/>
<path d="M286.94 404.269L279.773 405.92L281.424 413.086L288.591 411.436L286.94 404.269Z" fill="black"/>
<path d="M293.898 402.667L286.731 404.318L288.382 411.484L295.549 409.834L293.898 402.667Z" fill="black"/>
<path d="M307.814 399.463L300.647 401.113L302.297 408.28L309.464 406.629L307.814 399.463Z" fill="black"/>
<path d="M328.688 394.656L321.521 396.306L323.172 403.473L330.339 401.822L328.688 394.656Z" fill="black"/>
<path d="M335.646 393.053L328.479 394.704L330.129 401.87L337.296 400.22L335.646 393.053Z" fill="black"/>
<path d="M342.604 391.451L335.438 393.101L337.088 400.268L344.255 398.618L342.604 391.451Z" fill="black"/>
<path d="M370.436 385.042L363.269 386.692L364.919 393.859L372.086 392.208L370.436 385.042Z" fill="black"/>
<path d="M391.31 380.235L384.143 381.885L385.793 389.052L392.96 387.401L391.31 380.235Z" fill="black"/>
<path d="M295.5 409.625L288.333 411.276L289.984 418.442L297.151 416.792L295.5 409.625Z" fill="black"/>
<path d="M302.458 408.023L295.292 409.673L296.942 416.84L304.109 415.19L302.458 408.023Z" fill="black"/>
<path d="M309.416 406.42L302.25 408.071L303.9 415.238L311.067 413.587L309.416 406.42Z" fill="black"/>
<path d="M316.374 404.818L309.208 406.469L310.858 413.635L318.025 411.985L316.374 404.818Z" fill="black"/>
<path d="M323.332 403.216L316.166 404.866L317.816 412.033L324.983 410.383L323.332 403.216Z" fill="black"/>
<path d="M337.248 400.011L330.082 401.662L331.732 408.828L338.899 407.178L337.248 400.011Z" fill="black"/>
<path d="M344.206 398.409L337.04 400.059L338.69 407.226L345.857 405.576L344.206 398.409Z" fill="black"/>
<path d="M358.122 395.204L350.956 396.855L352.606 404.021L359.773 402.371L358.122 395.204Z" fill="black"/>
<path d="M372.038 392L364.872 393.65L366.522 400.817L373.689 399.167L372.038 392Z" fill="black"/>
<path d="M385.954 388.795L378.788 390.445L380.438 397.612L387.605 395.962L385.954 388.795Z" fill="black"/>
<path d="M392.912 387.193L385.746 388.843L387.396 396.01L394.563 394.359L392.912 387.193Z" fill="black"/>
<path d="M399.87 385.59L392.704 387.241L394.354 394.408L401.521 392.757L399.87 385.59Z" fill="black"/>
<path d="M297.103 416.583L289.936 418.234L291.586 425.4L298.753 423.75L297.103 416.583Z" fill="black"/>
<path d="M317.976 411.776L310.81 413.427L312.46 420.593L319.627 418.943L317.976 411.776Z" fill="black"/>
<path d="M331.893 408.572L324.726 410.222L326.376 417.389L333.543 415.738L331.893 408.572Z" fill="black"/>
<path d="M338.85 406.969L331.684 408.62L333.334 415.786L340.501 414.136L338.85 406.969Z" fill="black"/>
<path d="M345.809 405.367L338.642 407.017L340.292 414.184L347.459 412.534L345.809 405.367Z" fill="black"/>
<path d="M373.641 398.958L366.474 400.608L368.124 407.775L375.291 406.125L373.641 398.958Z" fill="black"/>
<path d="M387.556 395.753L380.39 397.403L382.04 404.57L389.207 402.92L387.556 395.753Z" fill="black"/>
<path d="M394.514 394.151L387.348 395.801L388.998 402.968L396.165 401.318L394.514 394.151Z" fill="black"/>
<path d="M291.747 425.143L284.58 426.794L286.23 433.961L293.397 432.31L291.747 425.143Z" fill="black"/>
<path d="M305.663 421.939L298.496 423.589L300.146 430.756L307.313 429.105L305.663 421.939Z" fill="black"/>
<path d="M312.621 420.336L305.454 421.987L307.104 429.154L314.271 427.503L312.621 420.336Z" fill="black"/>
<path d="M340.453 413.927L333.286 415.578L334.937 422.744L342.103 421.094L340.453 413.927Z" fill="black"/>
<path d="M347.411 412.325L340.244 413.975L341.895 421.142L349.061 419.492L347.411 412.325Z" fill="black"/>
<path d="M354.369 410.723L347.202 412.373L348.853 419.54L356.019 417.889L354.369 410.723Z" fill="black"/>
<path d="M361.327 409.12L354.16 410.771L355.811 417.937L362.977 416.287L361.327 409.12Z" fill="black"/>
<path d="M368.285 407.518L361.118 409.168L362.769 416.335L369.935 414.685L368.285 407.518Z" fill="black"/>
<path d="M375.243 405.916L368.076 407.566L369.727 414.733L376.893 413.083L375.243 405.916Z" fill="black"/>
<path d="M382.201 404.313L375.034 405.964L376.685 413.13L383.851 411.48L382.201 404.313Z" fill="black"/>
<path d="M389.159 402.711L381.992 404.361L383.643 411.528L390.809 409.878L389.159 402.711Z" fill="black"/>
<path d="M403.075 399.506L395.908 401.157L397.559 408.324L404.725 406.673L403.075 399.506Z" fill="black"/>
<path d="M293.349 432.101L286.183 433.752L287.833 440.919L295 439.268L293.349 432.101Z" fill="black"/>
<path d="M314.223 427.294L307.057 428.945L308.707 436.112L315.874 434.461L314.223 427.294Z" fill="black"/>
<path d="M321.181 425.692L314.014 427.343L315.665 434.509L322.831 432.859L321.181 425.692Z" fill="black"/>
<path d="M328.139 424.09L320.973 425.74L322.623 432.907L329.79 431.257L328.139 424.09Z" fill="black"/>
<path d="M335.097 422.488L327.93 424.138L329.581 431.305L336.747 429.654L335.097 422.488Z" fill="black"/>
<path d="M342.055 420.885L334.889 422.536L336.539 429.702L343.706 428.052L342.055 420.885Z" fill="black"/>
<path d="M355.971 417.681L348.804 419.331L350.455 426.498L357.621 424.847L355.971 417.681Z" fill="black"/>
<path d="M369.887 414.476L362.72 416.126L364.371 423.293L371.537 421.643L369.887 414.476Z" fill="black"/>
<path d="M376.845 412.874L369.678 414.524L371.329 421.691L378.495 420.04L376.845 412.874Z" fill="black"/>
<path d="M404.677 406.464L397.511 408.115L399.161 415.282L406.328 413.631L404.677 406.464Z" fill="black"/>
<path d="M294.951 439.059L287.785 440.71L289.435 447.877L296.602 446.226L294.951 439.059Z" fill="black"/>
<path d="M301.909 437.457L294.743 439.107L296.393 446.274L303.56 444.624L301.909 437.457Z" fill="black"/>
<path d="M308.867 435.855L301.701 437.505L303.351 444.672L310.518 443.021L308.867 435.855Z" fill="black"/>
<path d="M322.783 432.65L315.617 434.301L317.267 441.467L324.434 439.817L322.783 432.65Z" fill="black"/>
<path d="M364.531 423.036L357.365 424.687L359.015 431.854L366.182 430.203L364.531 423.036Z" fill="black"/>
<path d="M385.406 418.229L378.239 419.88L379.889 427.046L387.056 425.396L385.406 418.229Z" fill="black"/>
<path d="M406.28 413.423L399.113 415.073L400.763 422.24L407.93 420.589L406.28 413.423Z" fill="black"/>
<path d="M303.512 444.415L296.345 446.065L297.996 453.232L305.162 451.582L303.512 444.415Z" fill="black"/>
<path d="M310.47 442.813L303.303 444.463L304.954 451.63L312.12 449.979L310.47 442.813Z" fill="black"/>
<path d="M317.428 441.21L310.261 442.861L311.912 450.027L319.078 448.377L317.428 441.21Z" fill="black"/>
<path d="M324.386 439.608L317.219 441.258L318.87 448.425L326.036 446.775L324.386 439.608Z" fill="black"/>
<path d="M331.344 438.006L324.177 439.656L325.828 446.823L332.994 445.173L331.344 438.006Z" fill="black"/>
<path d="M359.176 431.597L352.009 433.247L353.66 440.414L360.826 438.763L359.176 431.597Z" fill="black"/>
<path d="M387.008 425.187L379.841 426.838L381.491 434.005L388.658 432.354L387.008 425.187Z" fill="black"/>
<path d="M407.882 420.381L400.715 422.031L402.365 429.198L409.532 427.547L407.882 420.381Z" fill="black"/>
<path d="M325.988 446.566L318.821 448.217L320.472 455.383L327.638 453.733L325.988 446.566Z" fill="black"/>
<path d="M332.946 444.964L325.779 446.614L327.43 453.781L334.596 452.131L332.946 444.964Z" fill="black"/>
<path d="M339.904 443.362L332.737 445.012L334.388 452.179L341.554 450.528L339.904 443.362Z" fill="black"/>
<path d="M360.778 438.555L353.611 440.205L355.262 447.372L362.428 445.721L360.778 438.555Z" fill="black"/>
<path d="M402.526 428.941L395.359 430.591L397.01 437.758L404.176 436.108L402.526 428.941Z" fill="black"/>
<path d="M409.484 427.339L402.317 428.989L403.968 436.156L411.134 434.505L409.484 427.339Z" fill="black"/>
<path d="M196.87 300.452L208.086 349.158L256.792 337.942L245.576 289.236L196.87 300.452ZM248.232 332.586L213.442 340.598L205.43 305.808L240.22 297.796L248.232 332.586Z" fill="black"/>
<path d="M322.114 271.611L333.33 320.317L382.036 309.101L370.82 260.395L322.114 271.611ZM373.476 303.745L338.686 311.757L330.675 276.967L365.465 268.955L373.476 303.745Z" fill="black"/>
<path d="M225.711 425.696L236.928 474.402L285.634 463.186L274.417 414.48L225.711 425.696ZM277.073 457.83L242.283 465.842L234.272 431.052L269.062 423.04L277.073 457.83Z" fill="black"/>
<path d="M234.865 306.357L213.991 311.164L218.798 332.038L239.672 327.231L234.865 306.357Z" fill="black"/>
<path d="M360.109 277.515L339.235 282.322L344.042 303.196L364.916 298.389L360.109 277.515Z" fill="black"/>
<path d="M263.706 431.601L242.832 436.407L247.639 457.281L268.513 452.475L263.706 431.601Z" fill="black"/>
</g>
<path d="M150.857 222.611L151.712 222.426C152.127 220.803 152.388 219.217 152.495 217.666C152.602 216.111 152.575 214.465 152.415 212.729L158.866 211.33L160.843 220.445L162.319 220.125L163.442 225.303L161.178 225.794L160.479 222.569L153.544 224.073L154.244 227.298L151.98 227.789L150.857 222.611ZM154.701 214.279C154.791 215.469 154.786 216.752 154.688 218.126C154.594 219.499 154.425 220.754 154.18 221.89L158.503 220.953L156.95 213.791L154.701 214.279Z" fill="#38056C"/>
<path d="M172.16 220.036L169.851 220.537L168.391 213.806L166.264 214.268C166.513 216.195 166.622 217.651 166.593 218.635C166.562 219.614 166.398 220.355 166.1 220.859C165.806 221.356 165.346 221.672 164.721 221.808C164.186 221.924 163.729 221.938 163.351 221.851L162.95 220.004C163.219 220.051 163.478 220.048 163.725 219.995C164.013 219.932 164.207 219.673 164.309 219.218C164.417 218.761 164.441 218.035 164.384 217.038C164.33 216.035 164.175 214.676 163.919 212.961L170.324 211.572L172.16 220.036Z" fill="#38056C"/>
<path d="M176.187 219.162L173.689 219.704L175.242 215.864C174.647 215.755 174.162 215.517 173.787 215.149C173.416 214.78 173.168 214.305 173.042 213.725C172.865 212.907 173.031 212.2 173.541 211.603C174.056 211.006 174.843 210.592 175.903 210.362L179.84 209.508L181.676 217.972L179.367 218.473L178.684 215.323L177.412 215.599L176.187 219.162ZM175.309 213.249C175.386 213.603 175.585 213.85 175.906 213.992C176.226 214.128 176.611 214.148 177.06 214.051L178.347 213.771L177.884 211.636L176.302 211.98C175.923 212.062 175.646 212.22 175.469 212.454C175.297 212.681 175.243 212.946 175.309 213.249Z" fill="#38056C"/>
<path d="M194.594 206.308L196.43 214.772L194.114 215.274L192.654 208.544L189.588 209.209L191.048 215.939L188.739 216.44L186.903 207.976L194.594 206.308Z" fill="#38056C"/>
<path d="M203.844 213.322C202.85 213.538 201.992 213.346 201.27 212.747L201.149 212.773C201.383 213.463 201.512 213.863 201.536 213.974L202.28 217.403L199.971 217.904L197.327 205.715L199.205 205.308L199.768 206.335L199.874 206.312C200.233 205.357 200.942 204.765 202.002 204.535C203.001 204.318 203.867 204.535 204.6 205.184C205.332 205.834 205.848 206.845 206.145 208.218C206.341 209.121 206.378 209.935 206.255 210.659C206.137 211.382 205.871 211.971 205.457 212.426C205.043 212.88 204.505 213.179 203.844 213.322ZM201.66 206.543C201.09 206.667 200.712 206.934 200.526 207.344C200.339 207.749 200.328 208.357 200.493 209.166L200.547 209.416C200.745 210.325 201.019 210.947 201.372 211.282C201.73 211.617 202.202 211.721 202.787 211.594C203.822 211.369 204.154 210.404 203.784 208.698C203.604 207.865 203.34 207.27 202.993 206.912C202.65 206.548 202.205 206.425 201.66 206.543Z" fill="#38056C"/>
<path d="M210.571 211.705L208.073 212.247L209.626 208.406C209.032 208.297 208.547 208.059 208.171 207.691C207.8 207.323 207.552 206.848 207.426 206.268C207.249 205.45 207.415 204.743 207.925 204.146C208.44 203.548 209.228 203.134 210.288 202.904L214.224 202.05L216.06 210.514L213.751 211.015L213.068 207.866L211.796 208.142L210.571 211.705ZM209.693 205.792C209.77 206.145 209.969 206.392 210.29 206.534C210.61 206.671 210.995 206.69 211.444 206.593L212.731 206.314L212.268 204.179L210.686 204.522C210.308 204.604 210.03 204.762 209.854 204.996C209.681 205.224 209.628 205.489 209.693 205.792Z" fill="#38056C"/>
<path d="M229.452 207.61L227.294 208.078L225.848 201.408L225.829 201.904C225.787 203.028 225.717 203.886 225.618 204.478L224.94 208.588L223.297 208.945L220.948 205.459C220.611 204.951 220.209 204.222 219.744 203.271L219.489 202.787L220.935 209.457L218.785 209.923L216.949 201.459L220.129 200.77L222.366 204.066C222.602 204.422 222.837 204.838 223.073 205.315C223.314 205.792 223.495 206.204 223.619 206.552C223.621 205.759 223.632 205.189 223.652 204.841C223.675 204.487 223.713 204.159 223.763 203.858C223.814 203.556 224.049 202.213 224.467 199.829L227.616 199.146L229.452 207.61Z" fill="#38056C"/>
<path d="M233.111 202.369C233.293 203.207 233.566 203.811 233.932 204.181C234.302 204.55 234.798 204.667 235.419 204.532C236.035 204.399 236.43 204.091 236.606 203.609C236.785 203.121 236.784 202.455 236.601 201.612C236.419 200.775 236.147 200.176 235.783 199.816C235.42 199.456 234.928 199.344 234.307 199.478C233.691 199.612 233.293 199.918 233.111 200.396C232.928 200.869 232.928 201.527 233.111 202.369ZM238.963 201.1C239.262 202.478 239.132 203.634 238.574 204.569C238.016 205.504 237.088 206.112 235.791 206.394C234.978 206.57 234.223 206.549 233.526 206.33C232.827 206.106 232.239 205.697 231.762 205.103C231.284 204.509 230.949 203.768 230.756 202.88C230.456 201.497 230.584 200.344 231.14 199.42C231.695 198.497 232.626 197.893 233.933 197.609C234.746 197.433 235.501 197.454 236.198 197.673C236.896 197.892 237.483 198.295 237.959 198.884C238.436 199.473 238.77 200.212 238.963 201.1Z" fill="#38056C"/>
<path d="M246.111 195.135L246.487 196.868L242.951 197.635L244.411 204.365L242.102 204.866L240.266 196.402L246.111 195.135Z" fill="#38056C"/>
<path d="M250.75 198.544C250.931 199.382 251.205 199.985 251.571 200.355C251.941 200.724 252.437 200.841 253.058 200.707C253.673 200.573 254.069 200.265 254.245 199.783C254.424 199.295 254.422 198.63 254.24 197.787C254.058 196.949 253.785 196.35 253.422 195.99C253.059 195.631 252.567 195.518 251.946 195.653C251.33 195.786 250.931 196.092 250.75 196.57C250.567 197.043 250.567 197.701 250.75 198.544ZM256.602 197.275C256.901 198.652 256.771 199.809 256.213 200.744C255.654 201.678 254.727 202.287 253.43 202.568C252.617 202.744 251.862 202.723 251.165 202.504C250.466 202.281 249.878 201.872 249.401 201.278C248.923 200.684 248.588 199.943 248.395 199.054C248.095 197.672 248.223 196.518 248.778 195.595C249.334 194.671 250.265 194.067 251.572 193.784C252.385 193.608 253.14 193.629 253.837 193.847C254.535 194.066 255.121 194.47 255.598 195.059C256.074 195.648 256.409 196.386 256.602 197.275Z" fill="#38056C"/>
<path d="M267.548 199.506C264.914 200.077 263.283 198.917 262.656 196.025C262.344 194.587 262.464 193.411 263.016 192.499C263.568 191.581 264.512 190.977 265.85 190.687C266.829 190.475 267.749 190.476 268.609 190.691L268.315 192.626C267.92 192.558 267.556 192.513 267.223 192.49C266.89 192.462 266.566 192.482 266.254 192.549C265.052 192.81 264.637 193.793 265.007 195.499C265.366 197.155 266.146 197.852 267.347 197.591C267.791 197.495 268.19 197.348 268.543 197.15C268.896 196.946 269.234 196.678 269.557 196.343L269.986 198.319C269.664 198.637 269.321 198.883 268.957 199.058C268.598 199.23 268.129 199.38 267.548 199.506Z" fill="#38056C"/>
<path d="M273.286 193.656C273.468 194.494 273.742 195.097 274.107 195.467C274.478 195.836 274.974 195.953 275.594 195.819C276.21 195.685 276.606 195.377 276.781 194.895C276.961 194.407 276.959 193.742 276.776 192.899C276.595 192.061 276.322 191.462 275.959 191.102C275.595 190.743 275.103 190.63 274.482 190.765C273.867 190.898 273.468 191.204 273.286 191.682C273.104 192.155 273.104 192.813 273.286 193.656ZM279.138 192.387C279.437 193.764 279.308 194.921 278.749 195.856C278.191 196.791 277.263 197.399 275.966 197.68C275.154 197.856 274.399 197.835 273.701 197.616C273.003 197.393 272.415 196.984 271.937 196.39C271.46 195.796 271.125 195.055 270.932 194.166C270.632 192.784 270.76 191.63 271.315 190.707C271.87 189.783 272.802 189.179 274.109 188.896C274.921 188.72 275.676 188.741 276.374 188.959C277.071 189.178 277.658 189.582 278.135 190.171C278.611 190.76 278.946 191.498 279.138 192.387Z" fill="#38056C"/>
<path d="M284.269 188.412C283.779 188.519 283.429 188.758 283.22 189.131C283.009 189.499 282.945 189.973 283.029 190.552L286.269 189.849C286.135 189.281 285.891 188.874 285.536 188.629C285.181 188.378 284.758 188.306 284.269 188.412ZM286.141 195.473C284.778 195.769 283.632 195.624 282.702 195.038C281.771 194.452 281.157 193.471 280.858 192.093C280.55 190.675 280.666 189.503 281.205 188.577C281.748 187.646 282.646 187.044 283.897 186.773C285.093 186.513 286.098 186.652 286.912 187.189C287.726 187.726 288.264 188.595 288.524 189.796L288.767 190.916L283.309 192.1C283.476 192.751 283.782 193.221 284.225 193.511C284.668 193.8 285.218 193.874 285.874 193.732C286.384 193.621 286.854 193.464 287.286 193.259C287.717 193.055 288.155 192.783 288.599 192.443L288.986 194.23C288.626 194.519 288.227 194.762 287.789 194.957C287.351 195.158 286.802 195.33 286.141 195.473Z" fill="#38056C"/>
<path d="M296.681 191.261L295.588 186.219L293.854 186.595C293.931 187.561 293.95 188.49 293.911 189.381C293.877 190.271 293.745 191.126 293.517 191.947L296.681 191.261ZM301.256 195.215L299.182 195.665L298.524 192.629L292.83 193.864L293.489 196.9L291.415 197.35L290.39 192.625L291.102 192.471C291.423 191.614 291.624 190.577 291.703 189.36C291.783 188.143 291.728 186.784 291.54 185.282L297.521 183.985L298.99 190.76L300.232 190.491L301.256 195.215Z" fill="#38056C"/>
<path d="M302.752 182.85L303.477 186.196C303.554 186.549 303.683 187.425 303.865 188.823L306.484 182.041L309.262 181.438L311.098 189.902L308.865 190.386L308.132 187.01C308.002 186.409 307.869 185.55 307.732 184.433L305.125 191.197L302.354 191.798L300.518 183.334L302.752 182.85Z" fill="#38056C"/>
<path d="M314.311 180.343L315.018 183.598L318.243 182.899L317.537 179.643L319.846 179.143L321.681 187.606L319.372 188.107L318.615 184.617L315.39 185.317L316.147 188.807L313.838 189.307L312.002 180.844L314.311 180.343Z" fill="#38056C"/>
<path d="M326.405 179.273C325.916 179.38 325.566 179.619 325.356 179.992C325.145 180.36 325.082 180.834 325.165 181.413L328.405 180.71C328.271 180.142 328.027 179.735 327.673 179.49C327.317 179.239 326.895 179.167 326.405 179.273ZM328.278 186.334C326.915 186.63 325.768 186.485 324.838 185.899C323.908 185.314 323.293 184.332 322.994 182.954C322.687 181.536 322.803 180.364 323.342 179.439C323.885 178.507 324.782 177.905 326.034 177.634C327.23 177.374 328.235 177.513 329.049 178.05C329.863 178.587 330.4 179.456 330.661 180.657L330.904 181.778L325.445 182.961C325.613 183.612 325.918 184.082 326.362 184.372C326.805 184.661 327.355 184.735 328.011 184.593C328.521 184.482 328.991 184.325 329.422 184.12C329.854 183.916 330.291 183.644 330.736 183.304L331.123 185.091C330.763 185.38 330.364 185.623 329.925 185.818C329.488 186.019 328.939 186.191 328.278 186.334Z" fill="#38056C"/>
<path d="M334.358 175.995L335.064 179.25L338.289 178.551L337.583 175.296L339.892 174.795L341.728 183.259L339.419 183.759L338.662 180.269L335.437 180.969L336.193 184.459L333.884 184.96L332.049 176.496L334.358 175.995Z" fill="#38056C"/>
<path d="M344.858 173.718L345.584 177.064C345.66 177.417 345.789 178.293 345.971 179.691L348.59 172.908L351.368 172.306L353.204 180.769L350.971 181.254L350.239 177.877C350.108 177.277 349.975 176.418 349.838 175.301L347.231 182.065L344.46 182.666L342.624 174.202L344.858 173.718Z" fill="#38056C"/>
<path d="M357.231 179.896L354.733 180.438L356.286 176.597C355.692 176.489 355.207 176.25 354.831 175.883C354.46 175.514 354.212 175.039 354.086 174.459C353.909 173.641 354.075 172.934 354.585 172.337C355.1 171.739 355.888 171.325 356.948 171.096L360.884 170.242L362.72 178.706L360.411 179.206L359.728 176.057L358.456 176.333L357.231 179.896ZM356.353 173.983C356.43 174.336 356.629 174.584 356.95 174.725C357.271 174.862 357.655 174.882 358.104 174.784L359.391 174.505L358.928 172.37L357.346 172.713C356.968 172.795 356.69 172.953 356.514 173.187C356.341 173.415 356.288 173.68 356.353 173.983Z" fill="#38056C"/>
<path d="M195.965 236.985C193.33 237.556 191.699 236.396 191.072 233.504C190.76 232.065 190.881 230.89 191.433 229.977C191.984 229.06 192.929 228.456 194.266 228.166C195.245 227.954 196.165 227.955 197.026 228.17L196.732 230.104C196.337 230.037 195.973 229.992 195.64 229.969C195.306 229.941 194.983 229.96 194.67 230.028C193.469 230.289 193.053 231.272 193.423 232.978C193.782 234.633 194.563 235.331 195.764 235.07C196.208 234.974 196.607 234.827 196.96 234.629C197.312 234.425 197.65 234.157 197.974 233.822L198.403 235.798C198.081 236.116 197.738 236.362 197.374 236.536C197.015 236.709 196.545 236.859 195.965 236.985Z" fill="#38056C"/>
<path d="M208.836 225.173L211.379 224.621L208.906 229.406L213.51 233.021L210.891 233.589L206.5 230.047L207.431 234.339L205.122 234.84L203.286 226.376L205.595 225.875L206.487 229.986L208.836 225.173Z" fill="#38056C"/>
<path d="M215.95 228.045C216.132 228.882 216.406 229.486 216.771 229.856C217.142 230.225 217.637 230.342 218.258 230.207C218.874 230.074 219.27 229.766 219.445 229.284C219.625 228.796 219.623 228.131 219.44 227.288C219.259 226.45 218.986 225.851 218.623 225.491C218.259 225.131 217.767 225.019 217.146 225.154C216.531 225.287 216.132 225.593 215.95 226.071C215.767 226.544 215.767 227.202 215.95 228.045ZM221.802 226.775C222.101 228.153 221.971 229.31 221.413 230.244C220.855 231.179 219.927 231.787 218.63 232.069C217.818 232.245 217.063 232.224 216.365 232.005C215.667 231.781 215.079 231.373 214.601 230.779C214.124 230.185 213.788 229.444 213.596 228.555C213.296 227.172 213.424 226.019 213.979 225.095C214.534 224.172 215.465 223.568 216.773 223.285C217.585 223.108 218.34 223.13 219.038 223.348C219.735 223.567 220.322 223.971 220.799 224.56C221.275 225.149 221.61 225.887 221.802 226.775Z" fill="#38056C"/>
<path d="M225.415 221.577L226.121 224.832L229.346 224.133L228.64 220.877L230.949 220.376L232.784 228.84L230.475 229.341L229.718 225.851L226.493 226.551L227.25 230.041L224.941 230.541L223.106 222.078L225.415 221.577Z" fill="#38056C"/>
<path d="M238.987 227.654C236.352 228.225 234.721 227.065 234.094 224.173C233.782 222.734 233.903 221.559 234.455 220.646C235.006 219.729 235.951 219.125 237.288 218.835C238.267 218.623 239.187 218.624 240.048 218.839L239.754 220.773C239.359 220.706 238.995 220.661 238.662 220.638C238.328 220.61 238.005 220.63 237.692 220.697C236.491 220.958 236.075 221.941 236.445 223.647C236.804 225.302 237.585 226 238.786 225.739C239.23 225.643 239.629 225.496 239.982 225.298C240.334 225.094 240.672 224.826 240.996 224.491L241.425 226.467C241.103 226.785 240.76 227.031 240.396 227.205C240.037 227.378 239.567 227.528 238.987 227.654Z" fill="#38056C"/>
<path d="M240.76 218.249L243.288 217.7L245.918 222.116C246.144 222.5 246.344 222.969 246.517 223.524L246.562 223.514C246.505 222.982 246.507 222.469 246.569 221.974L247.104 216.873L249.579 216.336L248.069 226.659C247.932 227.613 247.606 228.376 247.091 228.948C246.581 229.518 245.919 229.892 245.106 230.068C244.708 230.154 244.307 230.196 243.905 230.194L243.508 228.362C243.8 228.367 244.109 228.334 244.438 228.263C244.846 228.174 245.175 227.971 245.423 227.653C245.677 227.339 245.835 226.911 245.897 226.369L245.943 225.923L240.76 218.249Z" fill="#38056C"/>
<path d="M260.522 222.824L258.213 223.325L256.753 216.595L254.626 217.056C254.875 218.984 254.985 220.44 254.955 221.424C254.924 222.403 254.76 223.144 254.462 223.647C254.168 224.144 253.709 224.461 253.083 224.596C252.548 224.712 252.091 224.727 251.713 224.64L251.312 222.793C251.581 222.84 251.84 222.837 252.087 222.783C252.375 222.721 252.57 222.462 252.672 222.006C252.779 221.55 252.803 220.823 252.746 219.826C252.692 218.823 252.537 217.464 252.282 215.75L258.686 214.361L260.522 222.824Z" fill="#38056C"/>
<path d="M264.445 216.536L266.073 216.183C267.375 215.9 268.384 215.898 269.099 216.176C269.815 216.455 270.263 217.013 270.445 217.85C270.835 219.647 269.783 220.816 267.29 221.357L263.262 222.23L261.427 213.766L263.736 213.265L264.445 216.536ZM268.143 218.381C268.072 218.053 267.889 217.845 267.595 217.755C267.3 217.666 266.893 217.677 266.374 217.79L264.791 218.133L265.225 220.132L266.837 219.782C267.862 219.56 268.297 219.093 268.143 218.381Z" fill="#38056C"/>
<path d="M278.263 210.115L278.639 211.848L275.868 212.449L277.328 219.179L275.019 219.68L273.559 212.95L270.781 213.553L270.405 211.819L278.263 210.115Z" fill="#38056C"/>
<path d="M287.366 217.002L286.67 215.948L286.61 215.962C286.327 216.535 286 216.963 285.627 217.245C285.259 217.52 284.744 217.729 284.083 217.873C283.271 218.049 282.579 217.956 282.009 217.593C281.444 217.23 281.069 216.619 280.883 215.761C280.688 214.863 280.857 214.134 281.391 213.574C281.929 213.008 282.826 212.565 284.083 212.245L285.542 211.881L285.462 211.51C285.276 210.652 284.743 210.318 283.865 210.509C283.189 210.655 282.438 211.032 281.614 211.639L280.511 210.245C281.374 209.524 282.399 209.035 283.585 208.778C284.721 208.532 285.645 208.59 286.358 208.953C287.071 209.317 287.537 210.003 287.756 211.012L288.979 216.652L287.366 217.002ZM285.834 213.228L284.948 213.452C284.281 213.618 283.807 213.848 283.528 214.141C283.248 214.434 283.157 214.808 283.255 215.262C283.397 215.913 283.841 216.158 284.588 215.996C285.123 215.88 285.516 215.633 285.767 215.256C286.023 214.879 286.096 214.435 285.985 213.925L285.834 213.228Z" fill="#38056C"/>
<path d="M292.147 207.103L292.853 210.359L296.078 209.659L295.372 206.404L297.681 205.903L299.517 214.367L297.208 214.868L296.451 211.378L293.226 212.077L293.983 215.567L291.674 216.068L289.838 207.604L292.147 207.103Z" fill="#38056C"/>
<path d="M307.417 203.792L307.793 205.525L305.022 206.126L306.481 212.856L304.172 213.357L302.713 206.627L299.934 207.23L299.558 205.496L307.417 203.792Z" fill="#38056C"/>
<path d="M312.063 207.199C312.245 208.037 312.518 208.641 312.884 209.01C313.255 209.379 313.75 209.496 314.371 209.362C314.987 209.228 315.383 208.92 315.558 208.438C315.738 207.95 315.736 207.285 315.553 206.442C315.371 205.604 315.099 205.005 314.735 204.646C314.372 204.286 313.88 204.173 313.259 204.308C312.643 204.441 312.245 204.747 312.063 205.225C311.88 205.698 311.88 206.356 312.063 207.199ZM317.915 205.93C318.214 207.308 318.084 208.464 317.526 209.399C316.968 210.334 316.04 210.942 314.743 211.223C313.931 211.399 313.176 211.378 312.478 211.159C311.78 210.936 311.192 210.527 310.714 209.933C310.236 209.339 309.901 208.598 309.709 207.71C309.409 206.327 309.536 205.173 310.092 204.25C310.647 203.326 311.578 202.722 312.886 202.439C313.698 202.263 314.453 202.284 315.151 202.503C315.848 202.721 316.435 203.125 316.911 203.714C317.388 204.303 317.722 205.041 317.915 205.93Z" fill="#38056C"/>
<path d="M331.721 207.382L329.563 207.85L328.117 201.18L328.098 201.676C328.056 202.8 327.986 203.658 327.887 204.25L327.209 208.361L325.566 208.717L323.217 205.232C322.88 204.723 322.478 203.994 322.013 203.043L321.758 202.56L323.204 209.229L321.054 209.696L319.218 201.232L322.398 200.542L324.635 203.838C324.871 204.194 325.106 204.61 325.342 205.088C325.583 205.564 325.764 205.976 325.888 206.325C325.89 205.532 325.901 204.961 325.921 204.613C325.944 204.26 325.982 203.932 326.032 203.63C326.083 203.328 326.318 201.986 326.736 199.601L329.885 198.918L331.721 207.382Z" fill="#38056C"/>
<path d="M175.791 257.61C175.973 258.448 176.246 259.052 176.612 259.422C176.983 259.791 177.478 259.908 178.099 259.773C178.715 259.64 179.111 259.332 179.286 258.85C179.466 258.362 179.464 257.696 179.281 256.853C179.099 256.016 178.827 255.417 178.463 255.057C178.1 254.697 177.608 254.585 176.987 254.719C176.371 254.853 175.973 255.159 175.791 255.637C175.608 256.11 175.608 256.767 175.791 257.61ZM181.643 256.341C181.942 257.719 181.812 258.875 181.254 259.81C180.696 260.745 179.768 261.353 178.471 261.634C177.659 261.811 176.904 261.789 176.206 261.571C175.508 261.347 174.92 260.938 174.442 260.344C173.964 259.75 173.629 259.009 173.437 258.121C173.137 256.738 173.264 255.585 173.82 254.661C174.375 253.737 175.306 253.134 176.614 252.85C177.426 252.674 178.181 252.695 178.879 252.914C179.576 253.133 180.163 253.536 180.639 254.125C181.116 254.714 181.451 255.453 181.643 256.341Z" fill="#38056C"/>
<path d="M189.949 250.124L190.325 251.858L187.554 252.459L189.014 259.189L186.705 259.69L185.245 252.96L182.467 253.562L182.091 251.829L189.949 250.124Z" fill="#38056C"/>
<path d="M197.147 257.584C194.513 258.155 192.882 256.995 192.254 254.103C191.943 252.665 192.063 251.489 192.615 250.577C193.167 249.659 194.111 249.055 195.449 248.765C196.428 248.553 197.347 248.554 198.208 248.769L197.914 250.704C197.519 250.636 197.155 250.591 196.822 250.568C196.489 250.54 196.165 250.56 195.852 250.628C194.651 250.888 194.236 251.871 194.606 253.577C194.965 255.233 195.745 255.93 196.946 255.67C197.39 255.573 197.789 255.426 198.142 255.228C198.495 255.025 198.833 254.756 199.156 254.421L199.585 256.397C199.263 256.715 198.92 256.962 198.556 257.136C198.197 257.309 197.728 257.458 197.147 257.584Z" fill="#38056C"/>
<path d="M205.68 246.713L208.224 246.161L205.75 250.946L210.355 254.561L207.736 255.129L203.345 251.587L204.276 255.879L201.967 256.38L200.131 247.916L202.44 247.415L203.332 251.526L205.68 246.713Z" fill="#38056C"/>
<path d="M217.251 253.065L216.555 252.011L216.495 252.024C216.212 252.598 215.885 253.026 215.513 253.307C215.144 253.583 214.63 253.792 213.968 253.936C213.156 254.112 212.464 254.019 211.894 253.656C211.329 253.292 210.954 252.682 210.768 251.824C210.573 250.925 210.742 250.196 211.276 249.637C211.814 249.071 212.711 248.628 213.968 248.308L215.427 247.944L215.347 247.573C215.161 246.715 214.629 246.381 213.75 246.571C213.074 246.718 212.324 247.095 211.499 247.702L210.396 246.308C211.259 245.587 212.284 245.098 213.47 244.841C214.606 244.594 215.53 244.653 216.243 245.016C216.956 245.379 217.422 246.066 217.641 247.075L218.864 252.715L217.251 253.065ZM215.72 249.291L214.833 249.515C214.166 249.681 213.693 249.91 213.413 250.204C213.133 250.497 213.042 250.871 213.141 251.325C213.282 251.976 213.726 252.22 214.473 252.058C215.008 251.942 215.401 251.696 215.652 251.319C215.908 250.941 215.981 250.497 215.871 249.988L215.72 249.291Z" fill="#38056C"/>
<path d="M222.032 243.166L222.738 246.421L225.963 245.722L225.257 242.467L227.566 241.966L229.402 250.43L227.093 250.93L226.336 247.44L223.111 248.14L223.868 251.63L221.559 252.131L219.723 243.667L222.032 243.166Z" fill="#38056C"/>
<path d="M232.532 240.889L233.258 244.235C233.335 244.588 233.464 245.464 233.645 246.862L236.264 240.079L239.043 239.477L240.879 247.94L238.645 248.425L237.913 245.048C237.783 244.448 237.649 243.589 237.513 242.472L234.905 249.236L232.135 249.837L230.299 241.373L232.532 240.889Z" fill="#38056C"/>
<path d="M248.3 246.489C247.306 246.705 246.448 246.513 245.726 245.914L245.605 245.94C245.839 246.63 245.968 247.03 245.992 247.141L246.736 250.57L244.427 251.071L241.783 238.882L243.661 238.475L244.224 239.502L244.33 239.479C244.689 238.524 245.398 237.932 246.458 237.702C247.457 237.485 248.323 237.702 249.056 238.351C249.788 239.001 250.304 240.012 250.601 241.385C250.797 242.288 250.834 243.102 250.711 243.826C250.593 244.549 250.327 245.138 249.913 245.593C249.499 246.047 248.961 246.346 248.3 246.489ZM246.116 239.71C245.546 239.834 245.168 240.101 244.982 240.511C244.795 240.916 244.784 241.524 244.949 242.333L245.003 242.583C245.2 243.492 245.475 244.114 245.828 244.449C246.186 244.784 246.658 244.888 247.243 244.761C248.278 244.536 248.61 243.571 248.24 241.865C248.06 241.032 247.796 240.437 247.449 240.079C247.105 239.715 246.661 239.592 246.116 239.71Z" fill="#38056C"/>
<path d="M250.693 236.95L253.222 236.401L255.852 240.817C256.078 241.201 256.278 241.67 256.451 242.225L256.496 242.215C256.439 241.683 256.441 241.17 256.503 240.676L257.037 235.574L259.513 235.037L258.003 245.36C257.866 246.314 257.54 247.077 257.025 247.649C256.514 248.219 255.853 248.593 255.04 248.769C254.642 248.855 254.241 248.897 253.839 248.895L253.442 247.063C253.733 247.068 254.043 247.035 254.371 246.964C254.78 246.875 255.109 246.672 255.357 246.354C255.611 246.04 255.769 245.612 255.831 245.07L255.877 244.624L250.693 236.95Z" fill="#38056C"/>
<path d="M263.275 234.221L264.001 237.567C264.078 237.92 264.207 238.796 264.389 240.194L267.008 233.411L269.786 232.809L271.622 241.273L269.388 241.757L268.656 238.381C268.526 237.78 268.392 236.921 268.256 235.804L265.649 242.568L262.878 243.169L261.042 234.705L263.275 234.221ZM268.315 229.315C268.424 230.28 268.217 231.046 267.696 231.613C267.173 232.176 266.331 232.583 265.17 232.835C263.974 233.094 263.044 233.079 262.379 232.79C261.718 232.5 261.247 231.873 260.964 230.909L263.031 230.461C263.179 230.973 263.387 231.311 263.655 231.475C263.927 231.633 264.353 231.649 264.933 231.523C265.443 231.412 265.797 231.217 265.995 230.936C266.197 230.649 266.274 230.26 266.225 229.768L268.315 229.315Z" fill="#38056C"/>
<path d="M279.529 230.696L279.905 232.429L277.134 233.03L278.594 239.76L276.285 240.261L274.825 233.531L272.047 234.134L271.671 232.4L279.529 230.696Z" fill="#38056C"/>
<path d="M285.248 231.009C284.759 231.115 284.409 231.355 284.199 231.728C283.989 232.096 283.925 232.569 284.008 233.148L287.248 232.446C287.115 231.878 286.87 231.471 286.516 231.225C286.16 230.975 285.738 230.903 285.248 231.009ZM287.121 238.07C285.758 238.365 284.611 238.22 283.681 237.635C282.751 237.049 282.136 236.067 281.838 234.689C281.53 233.271 281.646 232.099 282.185 231.174C282.728 230.242 283.625 229.641 284.877 229.369C286.073 229.11 287.078 229.249 287.892 229.785C288.706 230.322 289.243 231.191 289.504 232.393L289.747 233.513L284.289 234.697C284.456 235.347 284.761 235.818 285.205 236.107C285.648 236.397 286.198 236.47 286.854 236.328C287.364 236.218 287.834 236.06 288.265 235.856C288.697 235.651 289.134 235.379 289.579 235.04L289.966 236.826C289.606 237.116 289.207 237.358 288.768 237.554C288.331 237.754 287.782 237.926 287.121 238.07Z" fill="#38056C"/>
<path d="M306.089 227.987C306.372 229.289 306.377 230.432 306.104 231.416C305.835 232.394 305.298 233.184 304.494 233.786L307.804 236.184L304.798 236.836L302.231 234.792L302.057 234.83C300.361 235.198 298.952 234.988 297.83 234.201C296.708 233.414 295.947 232.099 295.548 230.257C295.148 228.415 295.298 226.911 295.996 225.745C296.698 224.573 297.9 223.802 299.601 223.433C301.302 223.064 302.707 223.272 303.818 224.056C304.934 224.839 305.691 226.15 306.089 227.987ZM298.012 229.739C298.28 230.975 298.717 231.856 299.322 232.38C299.927 232.904 300.696 233.064 301.63 232.862C303.502 232.456 304.169 231.009 303.629 228.52C303.088 226.027 301.887 224.983 300.024 225.386C299.091 225.589 298.455 226.057 298.117 226.791C297.779 227.52 297.743 228.502 298.012 229.739Z" fill="#38056C"/>
<path d="M310.909 226.307L311.666 226.143C312.408 225.982 312.929 225.74 313.228 225.416C313.528 225.092 313.62 224.665 313.505 224.135C313.392 223.61 313.129 223.276 312.717 223.133C312.311 222.989 311.729 222.998 310.972 223.163L310.26 223.317L310.909 226.307ZM311.323 228.215L312.244 232.462L309.897 232.971L307.496 221.903L310.722 221.204C312.226 220.877 313.398 220.911 314.239 221.305C315.079 221.693 315.62 222.445 315.862 223.561C316.003 224.212 315.95 224.831 315.702 225.418C315.453 226.001 315.032 226.507 314.438 226.937C316.643 229.064 318.077 230.436 318.739 231.053L316.135 231.618L312.572 227.944L311.323 228.215Z" fill="#38056C"/>
<path d="M318.815 227.676L318.405 225.783L322.47 224.902L322.881 226.794L318.815 227.676Z" fill="#38056C"/>
<path d="M329.281 219.905L331.825 219.353L329.351 224.139L333.956 227.753L331.336 228.321L326.945 224.779L327.876 229.072L325.567 229.572L323.732 221.109L326.041 220.608L326.932 224.719L329.281 219.905Z" fill="#38056C"/>
<path d="M336.396 222.777C336.577 223.615 336.851 224.219 337.216 224.589C337.587 224.957 338.083 225.075 338.704 224.94C339.319 224.806 339.715 224.499 339.891 224.017C340.07 223.529 340.068 222.863 339.886 222.02C339.704 221.182 339.431 220.584 339.068 220.224C338.704 219.864 338.212 219.751 337.592 219.886C336.976 220.02 336.577 220.325 336.395 220.803C336.213 221.276 336.213 221.934 336.396 222.777ZM342.248 221.508C342.546 222.886 342.417 224.042 341.859 224.977C341.3 225.912 340.373 226.52 339.076 226.801C338.263 226.978 337.508 226.956 336.811 226.738C336.112 226.514 335.524 226.105 335.046 225.511C334.569 224.917 334.234 224.176 334.041 223.288C333.741 221.905 333.869 220.752 334.424 219.828C334.98 218.904 335.911 218.301 337.218 218.017C338.031 217.841 338.786 217.862 339.483 218.081C340.18 218.299 340.767 218.703 341.244 219.292C341.72 219.881 342.055 220.62 342.248 221.508Z" fill="#38056C"/>
<path d="M350.32 222.436L349.226 217.394L347.493 217.77C347.57 218.736 347.589 219.665 347.55 220.556C347.516 221.446 347.384 222.302 347.155 223.123L350.32 222.436ZM354.895 226.39L352.821 226.84L352.162 223.804L346.469 225.039L347.128 228.075L345.053 228.525L344.029 223.801L344.74 223.646C345.062 222.789 345.262 221.752 345.342 220.536C345.421 219.319 345.367 217.959 345.179 216.457L351.159 215.16L352.629 221.936L353.87 221.666L354.895 226.39Z" fill="#38056C"/>
<path d="M355.432 221.962C355.34 221.538 355.384 221.193 355.564 220.926C355.745 220.66 356.052 220.48 356.486 220.386C356.905 220.295 357.252 220.336 357.527 220.509C357.807 220.68 357.992 220.973 358.082 221.387C358.168 221.786 358.121 222.126 357.939 222.409C357.756 222.686 357.458 222.87 357.044 222.96C356.62 223.052 356.268 223.012 355.987 222.84C355.706 222.663 355.521 222.37 355.432 221.962ZM354.076 215.708C353.984 215.284 354.028 214.939 354.208 214.673C354.388 214.407 354.695 214.227 355.129 214.132C355.548 214.042 355.895 214.083 356.171 214.255C356.451 214.427 356.636 214.72 356.726 215.134C356.814 215.542 356.765 215.886 356.577 216.165C356.393 216.437 356.096 216.618 355.688 216.706C355.264 216.798 354.912 216.758 354.631 216.587C354.351 216.415 354.166 216.122 354.076 215.708Z" fill="#38056C"/>
</g>
<defs>
<clipPath id="clip0_31_2681">
<rect width="507" height="513" fill="white"/>
</clipPath>
<clipPath id="clip1_31_2681">
<rect width="207.063" height="207.063" fill="white" transform="translate(179.75 289.741) rotate(-12.9681)"/>
</clipPath>
</defs>
</svg>
