<svg width="88" height="104" viewBox="0 0 88 104" fill="none" xmlns="http://www.w3.org/2000/svg">
<path d="M74.0471 51.811C74.0596 54.7246 72.0134 58.2898 69.4941 59.7591L39.5364 77.1825C37.8513 78.1703 36.2783 80.1335 35.4357 82.3166L27.9775 101.101C27.8529 101.421 27.6454 101.691 27.4213 101.84C27.3508 101.882 27.2844 101.911 27.2263 101.931C27.1432 101.956 27.0644 101.961 26.998 101.952L26.8195 101.861L19.2367 97.9554C19.0333 97.8516 18.8715 97.6897 18.7677 97.4905L15.4639 91.1985L14.887 91.5347C14.6421 91.6758 14.4056 91.7962 14.1773 91.8999C13.949 92.0037 13.7291 92.0867 13.5133 92.1531C13.0443 92.2942 12.6126 92.3564 12.21 92.344H12.1021C11.5833 92.3315 11.1226 92.2029 10.7325 91.9746L3.20363 88.0193C1.9585 87.4631 1.2529 86.0105 1.24875 84.2299L1.12842 41.8251C1.12842 41.3769 1.17405 40.912 1.26536 40.443L9.13454 44.6764C9.47073 42.7424 10.5457 40.692 11.9652 39.2477L4.17481 35.0516C4.64796 34.5868 5.15432 34.1842 5.68557 33.8771L61.4257 1.44983C62.7081 0.698601 63.8744 0.644653 64.7128 1.15515L71.9636 4.96938L71.9802 4.97768C72.0549 4.99429 72.1255 5.01503 72.1919 5.03994C72.3994 5.11465 72.5945 5.21426 72.7688 5.34707C72.8186 5.38442 72.8684 5.42177 72.9141 5.46328C72.9348 5.47987 72.9556 5.49648 72.9722 5.51723C73.0012 5.54214 73.0261 5.57119 73.051 5.59609C73.0884 5.6293 73.1174 5.6625 73.1464 5.69986C73.1755 5.73306 73.2046 5.77041 73.2336 5.80777C73.2461 5.81607 73.2544 5.82851 73.2585 5.84512C73.3 5.89908 73.3374 5.95303 73.3747 6.01113C73.4827 6.1813 73.574 6.36808 73.6445 6.57559C73.6694 6.63371 73.6902 6.69595 73.711 6.76236C73.7151 6.77066 73.7192 6.78311 73.7192 6.79971C73.7483 6.89102 73.7732 6.98234 73.7898 7.08195C73.7939 7.08611 73.7981 7.0944 73.7981 7.1027C73.8188 7.20646 73.8396 7.31438 73.8521 7.42644C73.8687 7.5385 73.8811 7.65469 73.8894 7.7709V7.78336C73.8977 7.90372 73.9018 8.02824 73.9018 8.15691H73.906L73.9267 8.1403L74.0471 51.811Z" fill="#38056C"/>
<path d="M39.5361 77.1826L39.3295 76.8274L39.3283 76.8282L39.5361 77.1826ZM35.4355 82.3167L35.8174 82.4683L35.8188 82.4646L35.4355 82.3167ZM27.9772 101.101L27.5953 100.95L27.5944 100.952L27.9772 101.101ZM27.4211 101.84L27.6294 102.194L27.6393 102.189L27.649 102.182L27.4211 101.84ZM27.226 101.932L27.3441 102.325L27.3542 102.322L27.3642 102.318L27.226 101.932ZM26.9977 101.952L26.8106 102.318L26.875 102.351L26.9467 102.36L26.9977 101.952ZM26.8192 101.861L26.6311 102.226L26.6321 102.227L26.8192 101.861ZM19.2364 97.9555L19.4246 97.5902L19.4232 97.5895L19.2364 97.9555ZM18.7674 97.4906L19.1319 97.3008L19.1312 97.2996L18.7674 97.4906ZM15.4637 91.1986L15.8274 91.0076L15.6278 90.6274L15.2568 90.8436L15.4637 91.1986ZM14.8868 91.5348L15.0919 91.8908L15.0936 91.8898L14.8868 91.5348ZM13.513 92.1532L13.6314 92.5466L13.6338 92.5459L13.513 92.1532ZM12.2098 92.3441L12.2225 91.9334L12.2161 91.9332H12.2098V92.3441ZM12.1018 92.3441L12.092 92.7548L12.0969 92.755H12.1018V92.3441ZM10.7322 91.9747L10.9397 91.6201L10.9316 91.6153L10.9233 91.611L10.7322 91.9747ZM3.20337 88.0193L3.39446 87.6556L3.38288 87.6495L3.37094 87.6442L3.20337 88.0193ZM1.12816 41.8252H0.717285L0.717289 41.8264L1.12816 41.8252ZM1.2651 40.4431L1.45976 40.0813L0.968426 39.8169L0.861804 40.3646L1.2651 40.4431ZM9.13428 44.6765L8.93962 45.0384L9.44149 45.3083L9.53909 44.7469L9.13428 44.6765ZM11.9649 39.2478L12.2579 39.5358L12.6415 39.1455L12.1597 38.886L11.9649 39.2478ZM4.17455 35.0517L3.8866 34.7586L3.48907 35.1492L3.97971 35.4134L4.17455 35.0517ZM5.68531 33.8771L5.89095 34.2328L5.89192 34.2323L5.68531 33.8771ZM61.4254 1.44991L61.632 1.80506L61.6331 1.80444L61.4254 1.44991ZM64.7126 1.15524L64.4989 1.50616L64.5099 1.51287L64.5213 1.51886L64.7126 1.15524ZM71.9633 4.96946L71.772 5.33317L71.7796 5.33696L71.9633 4.96946ZM71.9799 4.97777L71.7962 5.34527L71.8414 5.36789L71.8908 5.37885L71.9799 4.97777ZM72.1916 5.04002L72.0473 5.42477L72.0525 5.42661L72.1916 5.04002ZM72.7685 5.34715L72.5195 5.67398L72.522 5.67585L72.7685 5.34715ZM72.9138 5.46336L72.6374 5.76738L72.647 5.77611L72.6571 5.7842L72.9138 5.46336ZM72.9719 5.51732L72.6511 5.77399L72.6752 5.80415L72.7045 5.82928L72.9719 5.51732ZM73.0507 5.59618L72.7602 5.8867L72.7687 5.89525L72.7778 5.90327L73.0507 5.59618ZM73.1462 5.69994L72.8219 5.95219L72.8292 5.96156L72.837 5.9705L73.1462 5.69994ZM73.2334 5.80785L72.9091 6.0601L72.95 6.11274L73.0055 6.14972L73.2334 5.80785ZM73.2583 5.84521L72.8597 5.94485L72.8804 6.02789L72.9326 6.09572L73.2583 5.84521ZM73.3745 6.01122L73.7215 5.79118L73.7201 5.78904L73.3745 6.01122ZM73.6443 6.57568L73.2553 6.70795L73.2604 6.72296L73.2666 6.73753L73.6443 6.57568ZM73.7107 6.76244L73.3185 6.885L73.3284 6.9166L73.3432 6.94619L73.7107 6.76244ZM73.719 6.7998H73.3081V6.86359L73.3274 6.92437L73.719 6.7998ZM73.7895 7.08204L73.3842 7.14959L73.4059 7.27946L73.499 7.37257L73.7895 7.08204ZM73.7978 7.10278H73.387V7.14346L73.3949 7.18336L73.7978 7.10278ZM73.8518 7.42652L73.4434 7.47189L73.4443 7.47932L73.4454 7.48673L73.8518 7.42652ZM73.8891 7.77099H74.3V7.75633L74.299 7.74171L73.8891 7.77099ZM73.8891 7.78345H73.4783V7.79759L73.4792 7.81171L73.8891 7.78345ZM73.9016 8.15699H73.4907V8.56786H73.9016V8.15699ZM73.9057 8.15699V8.56786H74.0501L74.1627 8.47762L73.9057 8.15699ZM73.9265 8.14039L74.3373 8.13925L74.335 7.28651L73.6695 7.81976L73.9265 8.14039ZM73.636 51.8122C73.6418 53.1794 73.162 54.729 72.3633 56.1224C71.5646 57.5158 70.4696 58.7144 69.2869 59.4042L69.7004 60.1143C71.0369 59.3349 72.2251 58.016 73.0762 56.5311C73.9273 55.0462 74.4643 53.3558 74.4577 51.8093L73.636 51.8122ZM69.2869 59.4042L39.3295 76.8274L39.7427 77.5378L69.7004 60.1143L69.2869 59.4042ZM39.3283 76.8282C37.5487 77.8714 35.9216 79.9159 35.0522 82.1687L35.8188 82.4646C36.6344 80.3512 38.1534 78.4694 39.7439 77.5371L39.3283 76.8282ZM35.0536 82.1651L27.5953 100.95L28.3591 101.253L35.8174 82.4683L35.0536 82.1651ZM27.5944 100.952C27.4941 101.21 27.3338 101.405 27.1931 101.498L27.649 102.182C27.9565 101.977 28.2112 101.633 28.36 101.251L27.5944 100.952ZM27.2127 101.486C27.1672 101.513 27.1247 101.531 27.0878 101.545L27.3642 102.318C27.4435 102.29 27.5338 102.251 27.6294 102.194L27.2127 101.486ZM27.1079 101.538C27.0811 101.546 27.0599 101.546 27.0487 101.545L26.9467 102.36C27.0684 102.375 27.2049 102.367 27.3441 102.325L27.1079 101.538ZM27.1848 101.587L27.0063 101.495L26.6321 102.227L26.8106 102.318L27.1848 101.587ZM27.0073 101.496L19.4246 97.5902L19.0483 98.3207L26.6311 102.226L27.0073 101.496ZM19.4232 97.5895C19.2964 97.5248 19.1964 97.4247 19.1319 97.3008L18.403 97.6804C18.546 97.9549 18.7698 98.1786 19.0497 98.3214L19.4232 97.5895ZM19.1312 97.2996L15.8274 91.0076L15.0999 91.3896L18.4037 97.6816L19.1312 97.2996ZM15.2568 90.8436L14.6799 91.1798L15.0936 91.8898L15.6705 91.5536L15.2568 90.8436ZM14.6816 91.1788C14.4484 91.3132 14.2236 91.4275 14.007 91.526L14.3471 92.2741C14.5871 92.165 14.8354 92.0386 15.0919 91.8908L14.6816 91.1788ZM14.007 91.526C13.7943 91.6226 13.5908 91.6994 13.3922 91.7605L13.6338 92.5459C13.8669 92.4742 14.1032 92.3849 14.3471 92.2741L14.007 91.526ZM13.3946 91.7597C12.9602 91.8904 12.5732 91.9442 12.2225 91.9334L12.1971 92.7548C12.6515 92.7688 13.1278 92.6982 13.6314 92.5466L13.3946 91.7597ZM12.2098 91.9332H12.1018V92.755H12.2098V91.9332ZM12.1117 91.9333C11.6561 91.9224 11.2645 91.8101 10.9397 91.6201L10.5247 92.3293C10.9802 92.5958 11.51 92.7409 12.092 92.7548L12.1117 91.9333ZM10.9233 91.611L3.39446 87.6556L3.01228 88.3831L10.5411 92.3384L10.9233 91.611ZM3.37094 87.6442C2.33179 87.18 1.66331 85.9232 1.65936 84.2291L0.837615 84.231C0.841967 86.0979 1.5847 87.7463 3.0358 88.3945L3.37094 87.6442ZM1.65936 84.2291L1.53903 41.824L0.717289 41.8264L0.837615 84.231L1.65936 84.2291ZM1.53903 41.8252C1.53903 41.4046 1.58188 40.966 1.66841 40.5216L0.861804 40.3646C0.765714 40.8581 0.717285 41.3493 0.717285 41.8252H1.53903ZM1.07045 40.8049L8.93962 45.0384L9.32894 44.3147L1.45976 40.0813L1.07045 40.8049ZM9.53909 44.7469C9.86032 42.8988 10.8942 40.9234 12.2579 39.5358L11.6719 38.9598C10.1967 40.4608 9.08062 42.586 8.72948 44.6062L9.53909 44.7469ZM12.1597 38.886L4.36939 34.69L3.97971 35.4134L11.7701 39.6095L12.1597 38.886ZM4.4625 35.3448C4.91644 34.8988 5.39566 34.5192 5.89095 34.2328L5.47967 33.5214C4.91246 33.8493 4.37896 34.2749 3.8866 34.7586L4.4625 35.3448ZM5.89192 34.2323L61.632 1.80506L61.2188 1.09477L5.4787 33.522L5.89192 34.2323ZM61.6331 1.80444C62.8363 1.09968 63.8333 1.10091 64.4989 1.50616L64.9262 0.804306C63.915 0.188553 62.5795 0.297699 61.2177 1.09538L61.6331 1.80444ZM64.5213 1.51886L71.772 5.33317L72.1546 4.60583L64.9038 0.791611L64.5213 1.51886ZM71.7796 5.33696L71.7962 5.34527L72.1637 4.61028L72.1471 4.60196L71.7796 5.33696ZM71.8908 5.37885C71.9483 5.39162 72.0003 5.40711 72.0473 5.42477L72.3359 4.65531C72.2502 4.62316 72.1611 4.59712 72.0691 4.57668L71.8908 5.37885ZM72.0525 5.42661C72.2278 5.48974 72.3842 5.57088 72.5195 5.67398L73.0175 5.02033C72.8042 4.8578 72.5705 4.73972 72.3308 4.65343L72.0525 5.42661ZM72.522 5.67585C72.5745 5.71521 72.6085 5.74112 72.6374 5.76738L73.1902 5.15934C73.1278 5.1026 73.0622 5.0538 73.0151 5.01845L72.522 5.67585ZM72.6571 5.7842C72.6627 5.78865 72.6657 5.79104 72.6683 5.79317C72.6706 5.7951 72.6711 5.79554 72.6705 5.795C72.6694 5.79407 72.6613 5.7868 72.6511 5.77399L73.2927 5.26065C73.2429 5.19829 73.185 5.15418 73.1705 5.14252L72.6571 5.7842ZM72.7045 5.82928C72.704 5.8288 72.7067 5.83109 72.7166 5.84146C72.7221 5.84718 72.7261 5.85143 72.7342 5.85994C72.7411 5.8672 72.7502 5.87671 72.7602 5.8867L73.3413 5.30564C73.3321 5.29646 73.3306 5.29436 73.3091 5.27204C73.2931 5.25542 73.2689 5.23074 73.2393 5.20536L72.7045 5.82928ZM72.7778 5.90327C72.7908 5.91481 72.8028 5.92768 72.8219 5.95219L73.4705 5.44769C73.4315 5.39749 73.3854 5.34395 73.3237 5.28909L72.7778 5.90327ZM72.837 5.9705C72.8568 5.99318 72.8785 6.02087 72.9091 6.0601L73.5577 5.5556C73.5301 5.52013 73.4937 5.4731 73.4554 5.42937L72.837 5.9705ZM73.0055 6.14972C72.9203 6.09296 72.8764 6.01175 72.8597 5.94485L73.6569 5.74556C73.6318 5.64546 73.5713 5.53935 73.4613 5.46599L73.0055 6.14972ZM72.9326 6.09572C72.9658 6.13887 72.9965 6.1831 73.0289 6.23341L73.7201 5.78904C73.6777 5.72313 73.6337 5.65945 73.5839 5.59469L72.9326 6.09572ZM73.0275 6.23126C73.1185 6.37469 73.1955 6.53209 73.2553 6.70795L74.0333 6.44342C73.952 6.20424 73.8463 5.98807 73.7215 5.79118L73.0275 6.23126ZM73.2666 6.73753C73.2829 6.77562 73.2987 6.82148 73.3185 6.885L74.1029 6.63989C74.0812 6.5706 74.0554 6.49196 74.0219 6.41383L73.2666 6.73753ZM73.3432 6.94619C73.3218 6.90341 73.3081 6.85332 73.3081 6.7998H74.1298C74.1298 6.71307 74.1079 6.63808 74.0782 6.5787L73.3432 6.94619ZM73.3274 6.92437C73.353 7.00487 73.372 7.07599 73.3842 7.14959L74.1948 7.01449C74.1739 6.88886 74.143 6.77734 74.1105 6.67522L73.3274 6.92437ZM73.499 7.37257C73.4577 7.33131 73.4328 7.28813 73.4177 7.25293C73.4018 7.21599 73.387 7.16486 73.387 7.10278H74.2087C74.2087 6.97804 74.1558 6.86726 74.0801 6.7915L73.499 7.37257ZM73.3949 7.18336C73.4156 7.28667 73.4331 7.3792 73.4434 7.47189L74.2602 7.38114C74.2455 7.2497 74.2216 7.12642 74.2007 7.0222L73.3949 7.18336ZM73.4454 7.48673C73.4603 7.58769 73.4717 7.69353 73.4793 7.80026L74.299 7.74171C74.29 7.61604 74.2765 7.48946 74.2582 7.36629L73.4454 7.48673ZM73.4783 7.77099V7.78345H74.3V7.77099H73.4783ZM73.4792 7.81171C73.4868 7.9221 73.4907 8.03717 73.4907 8.15699H74.3125C74.3125 8.01949 74.308 7.88551 74.299 7.75518L73.4792 7.81171ZM73.9016 8.56786H73.9057V7.74612H73.9016V8.56786ZM74.1627 8.47762L74.1834 8.46101L73.6695 7.81976L73.6488 7.83636L74.1627 8.47762ZM73.5156 8.14153L73.636 51.8122L74.4577 51.8093L74.3373 8.13925L73.5156 8.14153Z" fill="#38056C"/>
<path d="M11.9644 39.248C10.545 40.6924 9.47001 42.7427 9.13383 44.6768L1.26465 40.4433C1.63404 38.5009 2.7422 36.4714 4.1741 35.0519L11.9644 39.248Z" fill="#E5E3FF"/>
<path d="M11.9644 39.248L12.2574 39.536L12.641 39.1457L12.1592 38.8863L11.9644 39.248ZM9.13378 44.6767L8.93912 45.0386L9.44099 45.3086L9.53858 44.7471L9.13378 44.6767ZM1.2646 40.4433L0.860959 40.3665L0.804688 40.6624L1.06994 40.8051L1.2646 40.4433ZM4.17405 35.0519L4.36889 34.6902L4.10093 34.5458L3.88479 34.7601L4.17405 35.0519ZM11.6713 38.96C10.1962 40.461 9.08011 42.5862 8.72897 44.6064L9.53858 44.7471C9.85981 42.899 10.8937 40.9237 12.2574 39.536L11.6713 38.96ZM9.32843 44.3149L1.45926 40.0815L1.06994 40.8051L8.93912 45.0386L9.32843 44.3149ZM1.66824 40.5201C2.02133 38.6634 3.08736 36.7077 4.4633 35.3437L3.88479 34.7601C2.39694 36.235 1.24664 38.3385 0.860959 40.3665L1.66824 40.5201ZM3.9792 35.4136L11.7696 39.6097L12.1592 38.8863L4.36889 34.6902L3.9792 35.4136Z" fill="#38056C"/>
<path d="M74.0473 51.8109C74.0598 54.7245 72.0136 58.2897 69.4943 59.759L39.5366 77.1824C37.8515 78.1702 36.2785 80.1334 35.436 82.3165L27.9777 101.101C27.8532 101.421 27.6457 101.691 27.4215 101.84C27.351 101.882 27.2846 101.911 27.2265 101.931C27.0563 101.985 26.9235 101.965 26.828 101.877L26.8197 101.861L20.7311 90.2604C20.2123 89.2685 19.0792 89.09 17.8506 89.8038L15.4642 91.1984L14.8872 91.5346C14.6424 91.6757 14.4058 91.7961 14.1775 91.8998C13.9493 92.0036 13.7293 92.0866 13.5135 92.153C13.0445 92.2941 12.6128 92.3563 12.2102 92.3439H12.1023C10.2388 92.2277 9.15554 90.5177 9.15139 88.3097L9.02686 45.9049C9.02686 45.5064 9.06421 45.0914 9.13477 44.6763C9.47095 42.7422 10.5459 40.6919 11.9654 39.2476C12.4634 38.7288 13.0113 38.2888 13.5841 37.9568L69.32 5.52957C70.3036 4.95681 71.2167 4.78664 71.9638 4.96926C72.0427 4.98587 72.1215 5.01077 72.1921 5.03983C72.4038 5.11039 72.5947 5.21414 72.769 5.34695C72.8188 5.38431 72.8686 5.42166 72.9143 5.46317C72.935 5.47977 72.9558 5.49637 72.9724 5.51712C73.0014 5.54202 73.0263 5.57108 73.0512 5.59598C73.0886 5.62918 73.1176 5.66239 73.1467 5.69974C73.1757 5.73295 73.2048 5.7703 73.2339 5.80766C73.2463 5.81596 73.2546 5.82841 73.2587 5.84501C73.3002 5.89896 73.3376 5.95292 73.375 6.01102C73.4829 6.18119 73.5742 6.36797 73.6448 6.57549C73.6697 6.63359 73.6904 6.69584 73.7112 6.76225C73.7153 6.77055 73.7194 6.783 73.7194 6.7996C73.7485 6.89091 73.7734 6.98222 73.79 7.08183C73.7942 7.08598 73.7983 7.09428 73.7983 7.10258C73.8191 7.20634 73.8398 7.31425 73.8523 7.42632C73.8689 7.53838 73.8813 7.65459 73.8896 7.7708V7.78325C73.8979 7.90361 73.9021 8.02814 73.9021 8.1568H73.9062L73.9269 8.14019L74.0473 51.8109Z" fill="white"/>
<path d="M39.5368 77.1825L39.3303 76.8274L39.329 76.8281L39.5368 77.1825ZM35.4362 82.3166L35.8181 82.4682L35.8195 82.4645L35.4362 82.3166ZM27.9779 101.101L27.596 100.95L27.5951 100.952L27.9779 101.101ZM27.4218 101.84L27.6301 102.194L27.6401 102.188L27.6497 102.182L27.4218 101.84ZM27.2267 101.932L27.3509 102.323L27.3579 102.321L27.3649 102.318L27.2267 101.932ZM26.8282 101.878L26.4609 102.062L26.495 102.13L26.5512 102.181L26.8282 101.878ZM26.8199 101.861L27.1874 101.677L27.1837 101.67L26.8199 101.861ZM17.8509 89.804L17.6445 89.4487L17.6436 89.4492L17.8509 89.804ZM14.8875 91.5347L15.0926 91.8907L15.0943 91.8897L14.8875 91.5347ZM13.5137 92.1531L13.6321 92.5466L13.6345 92.5458L13.5137 92.1531ZM12.2105 92.344L12.2232 91.9333L12.2168 91.9331H12.2105V92.344ZM12.1026 92.344L12.077 92.7541L12.0898 92.7549H12.1026V92.344ZM9.02709 45.905H8.61621L8.61621 45.9062L9.02709 45.905ZM9.135 44.6765L8.73019 44.6061L8.72994 44.6076L9.135 44.6765ZM11.9656 39.2477L12.2587 39.5357L12.262 39.5323L11.9656 39.2477ZM71.9641 4.96938L71.8665 5.3685L71.8729 5.37008L71.8794 5.37144L71.9641 4.96938ZM72.1923 5.03995L72.0359 5.41987L72.049 5.42525L72.0624 5.42973L72.1923 5.03995ZM72.7693 5.34708L72.5202 5.67391L72.5227 5.67577L72.7693 5.34708ZM72.9145 5.46329L72.6381 5.7673L72.6477 5.77602L72.6578 5.78412L72.9145 5.46329ZM72.9726 5.51724L72.6518 5.77391L72.6759 5.80407L72.7052 5.8292L72.9726 5.51724ZM73.0515 5.5961L72.7609 5.88663L72.7695 5.89517L72.7785 5.90319L73.0515 5.5961ZM73.1469 5.69986L72.8226 5.95211L72.8299 5.96149L72.8377 5.97043L73.1469 5.69986ZM73.2341 5.80779L72.9098 6.06003L72.9507 6.11266L73.0062 6.14964L73.2341 5.80779ZM73.259 5.84513L72.8604 5.94478L72.8811 6.0278L72.9333 6.09564L73.259 5.84513ZM73.3752 6.01115L73.7222 5.7911L73.7208 5.78896L73.3752 6.01115ZM73.645 6.57561L73.256 6.70786L73.2611 6.72288L73.2673 6.73746L73.645 6.57561ZM73.7114 6.76237L73.3192 6.88492L73.3291 6.91651L73.3439 6.94612L73.7114 6.76237ZM73.7197 6.79972H73.3088V6.86351L73.3281 6.9243L73.7197 6.79972ZM73.7902 7.08195L73.385 7.14951L73.4066 7.27938L73.4997 7.37249L73.7902 7.08195ZM73.7986 7.10271H73.3877V7.14339L73.3957 7.18329L73.7986 7.10271ZM73.8525 7.42644L73.4442 7.47181L73.445 7.47925L73.4461 7.48665L73.8525 7.42644ZM73.8899 7.77092H74.3007V7.75626L74.2997 7.74165L73.8899 7.77092ZM73.8899 7.78337H73.479V7.79752L73.4799 7.81164L73.8899 7.78337ZM73.9023 8.15691H73.4914V8.56779H73.9023V8.15691ZM73.9065 8.15691V8.56779H74.0508L74.1634 8.47755L73.9065 8.15691ZM73.9272 8.14031L74.3381 8.13918L74.3357 7.28642L73.6703 7.81968L73.9272 8.14031ZM73.6367 51.8122C73.6425 53.1793 73.1627 54.7289 72.364 56.1224C71.5653 57.5158 70.4704 58.7144 69.2876 59.4042L69.7011 60.1142C71.0377 59.3348 72.2258 58.0159 73.077 56.531C73.928 55.0461 74.465 53.3557 74.4584 51.8093L73.6367 51.8122ZM69.2876 59.4042L39.3303 76.8274L39.7434 77.5377L69.7011 60.1142L69.2876 59.4042ZM39.329 76.8281C37.5494 77.8713 35.9223 79.9158 35.0529 82.1687L35.8195 82.4645C36.6351 80.3512 38.1541 78.4694 39.7446 77.537L39.329 76.8281ZM35.0543 82.165L27.596 100.95L28.3598 101.253L35.8181 82.4682L35.0543 82.165ZM27.5951 100.952C27.4949 101.209 27.3345 101.405 27.1939 101.498L27.6497 102.182C27.9573 101.977 28.212 101.633 28.3608 101.251L27.5951 100.952ZM27.2135 101.486C27.1679 101.513 27.1254 101.531 27.0885 101.545L27.3649 102.318C27.4442 102.29 27.5346 102.251 27.6301 102.194L27.2135 101.486ZM27.1025 101.54C27.0596 101.553 27.0472 101.549 27.0567 101.551C27.0619 101.551 27.0707 101.553 27.081 101.558C27.0914 101.563 27.0997 101.569 27.1053 101.574L26.5512 102.181C26.7885 102.398 27.0901 102.406 27.3509 102.323L27.1025 101.54ZM27.1956 101.694L27.1874 101.677L26.4525 102.045L26.4609 102.062L27.1956 101.694ZM27.1837 101.67L21.0951 90.0696L20.3672 90.4509L26.4561 102.052L27.1837 101.67ZM21.0951 90.0696C20.7779 89.4631 20.2566 89.0872 19.6214 88.9867C19.0005 88.8885 18.3145 89.0594 17.6445 89.4487L18.0573 90.1592C18.6158 89.8347 19.1105 89.7379 19.493 89.7984C19.8612 89.8566 20.1656 90.0655 20.3672 90.4509L21.0951 90.0696ZM17.6436 89.4492L15.2571 90.8438L15.6713 91.5535L18.0582 90.1587L17.6436 89.4492ZM15.2571 90.8438L14.6806 91.1797L15.0943 91.8897L15.6713 91.5535L15.2571 90.8438ZM14.6823 91.1787C14.4491 91.3131 14.2243 91.4275 14.0077 91.5259L14.3478 92.274C14.5878 92.1649 14.8361 92.0385 15.0926 91.8907L14.6823 91.1787ZM14.0077 91.5259C13.795 91.6226 13.5915 91.6993 13.3929 91.7604L13.6345 92.5458C13.8676 92.4741 14.104 92.3848 14.3478 92.274L14.0077 91.5259ZM13.3953 91.7597C12.9609 91.8904 12.5739 91.9442 12.2232 91.9333L12.1978 92.7547C12.6522 92.7687 13.1285 92.6981 13.6321 92.5466L13.3953 91.7597ZM12.2105 91.9331H12.1026V92.7549H12.2105V91.9331ZM12.1281 91.9339C11.3303 91.8842 10.7041 91.499 10.2661 90.8752C9.82146 90.2422 9.56445 89.3508 9.56249 88.309L8.74075 88.3106C8.74294 89.4769 9.02963 90.5445 9.59358 91.3475C10.1641 92.1598 11.0113 92.6876 12.077 92.7541L12.1281 91.9339ZM9.56249 88.309L9.43796 45.9038L8.61621 45.9062L8.74075 88.3106L9.56249 88.309ZM9.43796 45.905C9.43796 45.5317 9.473 45.1398 9.54006 44.7453L8.72994 44.6076C8.65589 45.0432 8.61621 45.4813 8.61621 45.905H9.43796ZM9.5398 44.7468C9.86103 42.8988 10.8949 40.9234 12.2587 39.5357L11.6726 38.9597C10.1974 40.4607 9.08133 42.586 8.73019 44.6061L9.5398 44.7468ZM12.262 39.5323C12.7368 39.0377 13.2548 38.6229 13.7904 38.3124L13.3782 37.6015C12.7683 37.9551 12.1906 38.4201 11.6692 38.9632L12.262 39.5323ZM13.7904 38.3124L69.5269 5.88483L69.1136 5.17455L13.3782 37.6015L13.7904 38.3124ZM69.5269 5.88483C70.4508 5.34686 71.254 5.21878 71.8665 5.3685L72.0616 4.57026C71.18 4.35475 70.157 4.56702 69.1136 5.17455L69.5269 5.88483ZM71.8794 5.37144C71.9325 5.38261 71.9874 5.39989 72.0359 5.41987L72.3488 4.66003C72.2562 4.6219 72.1533 4.58935 72.0487 4.56732L71.8794 5.37144ZM72.0624 5.42973C72.2286 5.48514 72.3797 5.5668 72.5202 5.67391L73.0183 5.02025C72.8102 4.86172 72.5794 4.73586 72.3223 4.65016L72.0624 5.42973ZM72.5227 5.67577C72.5752 5.71513 72.6092 5.74104 72.6381 5.7673L73.1909 5.15926C73.1285 5.10252 73.0629 5.05372 73.0158 5.01838L72.5227 5.67577ZM72.6578 5.78412C72.6634 5.78857 72.6664 5.79097 72.669 5.79309C72.6713 5.79501 72.6718 5.79546 72.6712 5.79492C72.6701 5.79399 72.662 5.78673 72.6518 5.77391L73.2935 5.26057C73.2436 5.1982 73.1858 5.15411 73.1712 5.14245L72.6578 5.78412ZM72.7052 5.8292C72.7047 5.82872 72.7074 5.83102 72.7174 5.84138C72.7229 5.84711 72.7268 5.85135 72.7349 5.85986C72.7418 5.86712 72.7509 5.87664 72.7609 5.88663L73.342 5.30557C73.3328 5.29639 73.3313 5.29428 73.3098 5.27197C73.2939 5.25535 73.2696 5.23067 73.24 5.20528L72.7052 5.8292ZM72.7785 5.90319C72.7915 5.91473 72.8035 5.9276 72.8226 5.95211L73.4712 5.44761C73.4322 5.39742 73.3862 5.34388 73.3244 5.28902L72.7785 5.90319ZM72.8377 5.97043C72.8575 5.9931 72.8793 6.02079 72.9098 6.06003L73.5584 5.55552C73.5308 5.52006 73.4944 5.47303 73.4561 5.42931L72.8377 5.97043ZM73.0062 6.14964C72.9211 6.09288 72.8771 6.01167 72.8604 5.94478L73.6576 5.74548C73.6326 5.64539 73.5721 5.53927 73.462 5.4659L73.0062 6.14964ZM72.9333 6.09564C72.9665 6.13879 72.9973 6.18301 73.0296 6.23332L73.7208 5.78896C73.6785 5.72305 73.6345 5.65938 73.5846 5.59462L72.9333 6.09564ZM73.0282 6.23119C73.1192 6.37463 73.1962 6.53201 73.256 6.70786L74.034 6.44335C73.9527 6.20416 73.8471 5.98799 73.7222 5.7911L73.0282 6.23119ZM73.2673 6.73746C73.2837 6.77555 73.2994 6.82141 73.3192 6.88492L74.1036 6.63982C74.0819 6.57052 74.0561 6.49188 74.0226 6.41376L73.2673 6.73746ZM73.3439 6.94612C73.3225 6.90333 73.3088 6.85326 73.3088 6.79972H74.1305C74.1305 6.71298 74.1086 6.63802 74.0789 6.57862L73.3439 6.94612ZM73.3281 6.9243C73.3538 7.00479 73.3727 7.07591 73.385 7.14951L74.1955 7.01442C74.1746 6.88879 74.1437 6.77727 74.1112 6.67515L73.3281 6.9243ZM73.4997 7.37249C73.4585 7.33124 73.4335 7.28806 73.4184 7.25286C73.4025 7.21591 73.3877 7.16479 73.3877 7.10271H74.2094C74.2094 6.97797 74.1565 6.86719 74.0808 6.79143L73.4997 7.37249ZM73.3957 7.18329C73.4163 7.2866 73.4339 7.37913 73.4442 7.47181L74.2609 7.38107C74.2463 7.24963 74.2223 7.12634 74.2014 7.02213L73.3957 7.18329ZM73.4461 7.48665C73.461 7.58762 73.4724 7.69346 73.48 7.80019L74.2997 7.74165C74.2907 7.61595 74.2772 7.48939 74.2589 7.36623L73.4461 7.48665ZM73.479 7.77092V7.78337H74.3007V7.77092H73.479ZM73.4799 7.81164C73.4876 7.92202 73.4914 8.0371 73.4914 8.15691H74.3132C74.3132 8.01941 74.3087 7.88544 74.2998 7.7551L73.4799 7.81164ZM73.9023 8.56779H73.9065V7.74604H73.9023V8.56779ZM74.1634 8.47755L74.1841 8.46094L73.6703 7.81968L73.6495 7.83629L74.1634 8.47755ZM73.5163 8.14144L73.6367 51.8122L74.4584 51.8093L74.3381 8.13918L73.5163 8.14144Z" fill="#38056C"/>
<path d="M61.471 101.762L50.7754 95.9471C50.2566 95.6898 49.9245 95.0838 49.9245 94.1998L49.8747 77.54V76.2824L49.8457 65.4125C49.8457 65.1302 49.8706 64.8356 49.9162 64.5367L60.7281 70.3556C60.6741 70.6711 60.6492 70.9865 60.6492 71.2853L60.6824 82.1511V83.4087L60.7322 100.073C60.7322 100.899 61.0144 101.484 61.4751 101.766L61.471 101.762Z" fill="#38056C"/>
<path d="M61.4713 101.762L61.7636 101.473L61.7209 101.43L61.6675 101.401L61.4713 101.762ZM50.7756 95.9472L50.9719 95.5862L50.9651 95.5825L50.9582 95.5791L50.7756 95.9472ZM49.9248 94.1998H50.3356L50.3356 94.1986L49.9248 94.1998ZM49.875 77.54H49.4641L49.4641 77.5413L49.875 77.54ZM49.875 76.2825H50.2858L50.2858 76.2814L49.875 76.2825ZM49.8459 65.4125H49.4351L49.4351 65.4136L49.8459 65.4125ZM49.9165 64.5368L50.1112 64.175L49.5983 63.8989L49.5103 64.4747L49.9165 64.5368ZM60.7283 70.3557L61.1333 70.4249L61.1831 70.1338L60.923 69.9939L60.7283 70.3557ZM60.6494 71.2854H60.2386L60.2386 71.2866L60.6494 71.2854ZM60.6827 82.1512H61.0935L61.0935 82.1499L60.6827 82.1512ZM60.6827 83.4087H60.2718L60.2718 83.41L60.6827 83.4087ZM60.7325 100.073H61.1434L61.1433 100.071L60.7325 100.073ZM61.4754 101.766L61.2607 102.116L64.1434 103.882L61.7677 101.477L61.4754 101.766ZM61.6675 101.401L50.9719 95.5862L50.5794 96.3081L61.275 102.123L61.6675 101.401ZM50.9582 95.5791C50.6271 95.4149 50.3356 94.9895 50.3356 94.1998H49.5139C49.5139 95.1783 49.8866 95.9648 50.5931 96.3153L50.9582 95.5791ZM50.3356 94.1986L50.2858 77.5388L49.4641 77.5413L49.5139 94.2011L50.3356 94.1986ZM50.2858 77.54L50.2858 76.2825H49.4641L49.4641 77.54H50.2858ZM50.2858 76.2814L50.2568 65.4114L49.4351 65.4136L49.4641 76.2836L50.2858 76.2814ZM50.2568 65.4125C50.2568 65.154 50.2796 64.8802 50.3226 64.5988L49.5103 64.4747C49.462 64.791 49.4351 65.1066 49.4351 65.4125H50.2568ZM49.7217 64.8986L60.5336 70.7175L60.923 69.9939L50.1112 64.175L49.7217 64.8986ZM60.3233 70.2864C60.2653 70.6255 60.2386 70.9642 60.2386 71.2854H61.0603C61.0603 71.0089 61.0834 70.7167 61.1333 70.4249L60.3233 70.2864ZM60.2386 71.2866L60.2718 82.1524L61.0935 82.1499L61.0603 71.2841L60.2386 71.2866ZM60.2718 82.1512L60.2718 83.4087H61.0935L61.0935 82.1512H60.2718ZM60.2718 83.41L60.3216 100.074L61.1433 100.071L61.0935 83.4075L60.2718 83.41ZM60.3216 100.073C60.3216 100.982 60.6348 101.733 61.2607 102.116L61.69 101.416C61.3945 101.235 61.1434 100.815 61.1434 100.073H60.3216ZM61.7677 101.477L61.7636 101.473L61.179 102.051L61.1831 102.055L61.7677 101.477Z" fill="#38056C"/>
<path d="M80.2555 44.1492L80.2929 57.663V58.1071C79.774 57.0528 78.6119 56.7623 77.263 57.5053L66.4097 51.6615C67.3518 51.1302 68.2068 51.097 68.8211 51.4705C68.8584 51.4913 68.8958 51.5079 68.9248 51.5328C68.9622 51.5494 68.9996 51.5702 69.0328 51.5909C69.0701 51.6117 69.1075 51.6283 69.1365 51.649C69.1739 51.6698 69.2112 51.6905 69.2444 51.7113C69.2776 51.7279 69.3108 51.7486 69.3482 51.7694C69.3856 51.7901 69.4229 51.8067 69.4561 51.8316L69.481 51.8441L69.4478 38.2888C69.4478 38.0398 69.4686 37.7783 69.5059 37.5168L80.3136 43.3357C80.2679 43.6096 80.2472 43.8877 80.2472 44.1533L80.2555 44.1492Z" fill="#38056C"/>
<path d="M80.2556 44.1492L80.6665 44.148L80.6647 43.4844L80.0714 43.7819L80.2556 44.1492ZM80.293 57.6629H80.7039L80.7039 57.6618L80.293 57.6629ZM80.293 58.107L79.9244 58.2884L80.7039 59.8724V58.107H80.293ZM77.2632 57.5052L77.0684 57.867L77.2654 57.9731L77.4614 57.8651L77.2632 57.5052ZM66.4098 51.6614L66.208 51.3035L65.5586 51.6697L66.2151 52.0232L66.4098 51.6614ZM68.8213 51.4705L68.6078 51.8216L68.6147 51.8258L68.6217 51.8297L68.8213 51.4705ZM68.925 51.5328L68.6576 51.8447L68.7032 51.8838L68.7581 51.9082L68.925 51.5328ZM69.0329 51.5909L68.8152 51.9393L68.8241 51.9449L68.8334 51.95L69.0329 51.5909ZM69.1367 51.649L68.8979 51.9833L68.9168 51.9968L68.9372 52.0081L69.1367 51.649ZM69.2446 51.7112L69.0268 52.0597L69.0434 52.07L69.0609 52.0787L69.2446 51.7112ZM69.4563 51.8316L69.2098 52.1603L69.2393 52.1825L69.2724 52.199L69.4563 51.8316ZM69.4812 51.844L69.2973 52.2115L69.8937 52.51L69.892 51.843L69.4812 51.844ZM69.448 38.2888H69.0371L69.0371 38.2898L69.448 38.2888ZM69.5061 37.5168L69.7009 37.155L69.1826 36.876L69.0993 37.4587L69.5061 37.5168ZM80.3137 43.3357L80.719 43.4032L80.7674 43.1133L80.5085 42.9739L80.3137 43.3357ZM80.2474 44.1533H79.8365V44.819L80.4316 44.5206L80.2474 44.1533ZM79.8448 44.1503L79.8822 57.6641L80.7039 57.6618L80.6665 44.148L79.8448 44.1503ZM79.8821 57.6629V58.107H80.7039L80.7039 57.6629H79.8821ZM80.6617 57.9256C80.3515 57.2953 79.8324 56.8703 79.1749 56.7303C78.5284 56.5927 77.7993 56.7409 77.065 57.1453L77.4614 57.8651C78.076 57.5267 78.6024 57.4486 79.0038 57.5341C79.3944 57.6172 79.7158 57.8645 79.9244 58.2884L80.6617 57.9256ZM77.458 57.1435L66.6046 51.2997L66.2151 52.0232L77.0684 57.867L77.458 57.1435ZM66.6116 52.0193C67.4747 51.5327 68.1632 51.5512 68.6078 51.8216L69.0347 51.1194C68.2508 50.6427 67.2293 50.7277 66.208 51.3035L66.6116 52.0193ZM68.6217 51.8297C68.6355 51.8373 68.6488 51.8443 68.6573 51.8488C68.6671 51.854 68.6719 51.8566 68.6758 51.8588C68.6787 51.8606 68.6793 51.8607 68.6758 51.8588C68.6728 51.8568 68.6662 51.852 68.6576 51.8447L69.1924 51.2208C69.1475 51.1823 69.1036 51.1565 69.0767 51.1414C69.0629 51.1337 69.0496 51.1267 69.041 51.1222C69.0311 51.1169 69.0257 51.1141 69.0208 51.1113L68.6217 51.8297ZM68.7581 51.9082C68.7737 51.9151 68.7938 51.926 68.8152 51.9393L69.2507 51.2425C69.2056 51.2143 69.151 51.1836 69.0919 51.1573L68.7581 51.9082ZM68.8334 51.95C68.8476 51.9579 68.8607 51.9648 68.871 51.9702C68.8829 51.9764 68.8884 51.9792 68.8957 51.9831C68.9019 51.9864 68.9046 51.9879 68.9054 51.9884C68.9062 51.9888 68.9031 51.9871 68.8979 51.9833L69.3755 51.3146C69.3377 51.2876 69.3011 51.2679 69.2801 51.2568C69.2503 51.241 69.2473 51.2399 69.2325 51.2317L68.8334 51.95ZM68.9372 52.0081C68.9766 52.0301 69.0043 52.0456 69.0268 52.0597L69.4624 51.3628C69.4185 51.3354 69.3715 51.3094 69.3362 51.2898L68.9372 52.0081ZM69.0609 52.0787C69.086 52.0913 69.0839 52.0924 69.1488 52.1285L69.5479 51.4102C69.5381 51.4047 69.4696 51.3644 69.4284 51.3437L69.0609 52.0787ZM69.1488 52.1285C69.1629 52.1363 69.176 52.1432 69.1855 52.1482C69.1962 52.1538 69.2021 52.1569 69.2079 52.16C69.2189 52.166 69.2165 52.1654 69.2098 52.1603L69.7028 51.5029C69.6629 51.4729 69.6252 51.4515 69.5999 51.4378C69.5556 51.4137 69.5742 51.4248 69.5479 51.4102L69.1488 52.1285ZM69.2724 52.199L69.2973 52.2115L69.6651 51.4766L69.6402 51.4642L69.2724 52.199ZM69.892 51.843L69.8588 38.2878L69.0371 38.2898L69.0703 51.845L69.892 51.843ZM69.8588 38.2888C69.8588 38.062 69.8778 37.8201 69.9128 37.5749L69.0993 37.4587C69.0597 37.7365 69.0371 38.0175 69.0371 38.2888H69.8588ZM69.3113 37.8786L80.119 43.6975L80.5085 42.9739L69.7009 37.155L69.3113 37.8786ZM79.9085 43.2681C79.8588 43.5661 79.8365 43.8669 79.8365 44.1533H80.6582C80.6582 43.9085 80.6774 43.6531 80.719 43.4032L79.9085 43.2681ZM80.4316 44.5206L80.4398 44.5164L80.0714 43.7819L80.0632 43.786L80.4316 44.5206Z" fill="#38056C"/>
<path d="M85.8971 37.9284C85.316 37.667 84.5565 37.7251 83.6974 38.1858L72.8398 32.3461L72.8648 32.3337C73.8567 31.79 74.72 31.7858 75.3301 32.1801L85.9013 37.9284H85.8971Z" fill="#38056C"/>
<path d="M85.8965 37.9284L85.7279 38.3031L85.8083 38.3393H85.8965V37.9284ZM83.6968 38.1858L83.5022 38.5476L83.6965 38.6521L83.8909 38.5479L83.6968 38.1858ZM72.8393 32.3461L72.6557 31.9786L71.9468 32.3326L72.6446 32.708L72.8393 32.3461ZM72.8642 32.3337L73.0478 32.7012L73.0548 32.6977L73.0617 32.694L72.8642 32.3337ZM75.3295 32.1801L75.1065 32.5252L75.1196 32.5336L75.1332 32.5411L75.3295 32.1801ZM85.9007 37.9284V38.3393H87.5163L86.0969 37.5675L85.9007 37.9284ZM86.0651 37.5537C85.3308 37.2233 84.4329 37.3248 83.5026 37.8237L83.8909 38.5479C84.6789 38.1253 85.3001 38.1106 85.7279 38.3031L86.0651 37.5537ZM83.8914 37.8239L73.0339 31.9843L72.6446 32.708L83.5022 38.5476L83.8914 37.8239ZM73.0229 32.7137L73.0478 32.7012L72.6806 31.9661L72.6557 31.9786L73.0229 32.7137ZM73.0617 32.694C73.9712 32.1954 74.6647 32.2397 75.1065 32.5252L75.5525 31.835C74.7741 31.332 73.7411 31.3845 72.6667 31.9734L73.0617 32.694ZM75.1332 32.5411L85.7044 38.2894L86.0969 37.5675L75.5258 31.8192L75.1332 32.5411ZM85.9007 37.5176H85.8965V38.3393H85.9007V37.5176Z" fill="#38056C"/>
<path d="M67.5179 65.4406C67.4432 65.6564 67.3851 65.8723 67.3353 66.0922C66.9161 64.735 65.6585 64.2992 64.0482 65.1916L53.1948 59.3478C54.22 58.7667 55.1082 58.7169 55.7349 59.1071C55.7722 59.1278 55.8096 59.1444 55.8386 59.1693C55.876 59.1859 55.9134 59.2067 55.9466 59.2274C55.9839 59.2482 56.0213 59.2648 56.0503 59.2855C56.0877 59.3063 56.125 59.327 56.1582 59.3478C56.1956 59.3644 56.2329 59.3851 56.262 59.4059C56.2993 59.4266 56.3367 59.4433 56.3699 59.4682C56.4073 59.4848 56.4446 59.5055 56.4737 59.5263C56.511 59.547 56.5484 59.5636 56.5816 59.5844C56.6189 59.6051 56.6563 59.6259 56.6853 59.6466C56.6853 59.6466 56.6853 59.6466 56.6853 59.6383L67.5013 65.4572L67.5179 65.4406Z" fill="#38056C"/>
<path d="M67.5183 65.4406L67.9066 65.575L68.4904 63.8884L67.2279 65.15L67.5183 65.4406ZM67.3357 66.0922L66.9431 66.2135L67.3969 67.6826L67.7364 66.183L67.3357 66.0922ZM64.0486 65.1916L63.8538 65.5533L64.0514 65.6597L64.2477 65.551L64.0486 65.1916ZM53.1952 59.3478L52.9926 58.9903L52.3457 59.357L53.0004 59.7096L53.1952 59.3478ZM55.7353 59.1071L55.5181 59.4559L55.5268 59.4613L55.5358 59.4662L55.7353 59.1071ZM55.839 59.1693L55.5717 59.4813L55.6173 59.5204L55.6722 59.5448L55.839 59.1693ZM55.947 59.2274L55.7292 59.5758L55.7382 59.5815L55.7474 59.5866L55.947 59.2274ZM56.0507 59.2855L55.8119 59.6199L55.8308 59.6334L55.8512 59.6447L56.0507 59.2855ZM56.1586 59.3478L55.9409 59.6962L55.9654 59.7115L55.9918 59.7232L56.1586 59.3478ZM56.2624 59.4059L56.0236 59.7402L56.0425 59.7538L56.0629 59.7651L56.2624 59.4059ZM56.3703 59.4682L56.1238 59.7969L56.161 59.8247L56.2034 59.8436L56.3703 59.4682ZM56.4741 59.5263L56.2353 59.8606L56.2542 59.8741L56.2745 59.8854L56.4741 59.5263ZM56.582 59.5844L56.3642 59.9328L56.3732 59.9384L56.3825 59.9435L56.582 59.5844ZM56.6858 59.6466L56.4469 59.981L57.0966 60.445V59.6466H56.6858ZM56.6858 59.6383L56.8804 59.2765L56.2749 58.9507V59.6383H56.6858ZM67.5017 65.4572L67.3071 65.819L67.5761 65.9638L67.7921 65.7478L67.5017 65.4572ZM67.1301 65.3062C67.0492 65.5398 66.9872 65.7708 66.935 66.0015L67.7364 66.183C67.7838 65.9737 67.8381 65.773 67.9066 65.575L67.1301 65.3062ZM67.7283 65.971C67.4865 65.1882 66.9803 64.6175 66.2547 64.4041C65.5453 64.1955 64.7121 64.3542 63.8494 64.8322L64.2477 65.551C64.9954 65.1366 65.5962 65.067 66.0229 65.1925C66.4335 65.3133 66.7657 65.6391 66.9431 66.2135L67.7283 65.971ZM64.2434 64.8298L53.39 58.986L53.0004 59.7096L63.8538 65.5533L64.2434 64.8298ZM53.3978 59.7052C54.3554 59.1625 55.071 59.1775 55.5181 59.4559L55.9524 58.7583C55.1462 58.2564 54.0854 58.371 52.9926 58.9903L53.3978 59.7052ZM55.5358 59.4662C55.5495 59.4739 55.5628 59.4808 55.5713 59.4853C55.5811 59.4905 55.5859 59.4931 55.5898 59.4953C55.5927 59.4972 55.5933 59.4972 55.5898 59.4953C55.5868 59.4933 55.5802 59.4886 55.5717 59.4813L56.1064 58.8574C56.0616 58.8189 56.0177 58.7931 55.9908 58.778C55.977 58.7703 55.9636 58.7633 55.9551 58.7587C55.9452 58.7535 55.9397 58.7506 55.9348 58.7479L55.5358 59.4662ZM55.6722 59.5448C55.6878 59.5517 55.7079 59.5626 55.7292 59.5758L56.1647 58.879C56.1196 58.8508 56.065 58.8201 56.0059 58.7939L55.6722 59.5448ZM55.7474 59.5866C55.7616 59.5944 55.7747 59.6014 55.785 59.6067C55.7969 59.6129 55.8024 59.6157 55.8097 59.6196C55.8159 59.6229 55.8186 59.6244 55.8194 59.6249C55.8202 59.6254 55.8172 59.6236 55.8119 59.6199L56.2895 58.9512C56.2518 58.9242 56.2152 58.9045 56.1942 58.8934C56.1644 58.8776 56.1614 58.8765 56.1465 58.8683L55.7474 59.5866ZM55.8512 59.6447C55.8907 59.6667 55.9183 59.6821 55.9409 59.6962L56.3764 58.9994C56.3325 58.972 56.2854 58.9459 56.2503 58.9264L55.8512 59.6447ZM55.9918 59.7232C55.9992 59.7265 56.0066 59.7303 56.0132 59.734C56.0164 59.7358 56.019 59.7373 56.0209 59.7385C56.0229 59.7397 56.0238 59.7404 56.0236 59.7402L56.5012 59.0715C56.4455 59.0317 56.383 58.9979 56.3255 58.9723L55.9918 59.7232ZM56.0629 59.7651C56.0769 59.7728 56.09 59.7797 56.0995 59.7847C56.1102 59.7904 56.1161 59.7934 56.1219 59.7965C56.1329 59.8025 56.1305 59.8019 56.1238 59.7969L56.6168 59.1395C56.5769 59.1095 56.5393 59.0881 56.514 59.0744C56.4695 59.0502 56.4885 59.0615 56.4619 59.0467L56.0629 59.7651ZM56.2034 59.8436C56.2108 59.8469 56.2183 59.8506 56.2249 59.8543C56.2281 59.8561 56.2307 59.8577 56.2326 59.8589C56.2346 59.8601 56.2354 59.8607 56.2353 59.8606L56.7129 59.1919C56.6572 59.1521 56.5947 59.1183 56.5372 59.0927L56.2034 59.8436ZM56.2745 59.8854C56.3008 59.9 56.329 59.9142 56.3417 59.9207C56.3496 59.9248 56.3548 59.9275 56.3589 59.9297C56.3628 59.9319 56.3643 59.9328 56.3642 59.9328L56.7998 59.2359C56.7676 59.2159 56.737 59.1999 56.7175 59.1899C56.6939 59.1778 56.6847 59.1733 56.6736 59.1671L56.2745 59.8854ZM56.3825 59.9435C56.402 59.9544 56.4162 59.9623 56.4287 59.9696C56.4346 59.9731 56.439 59.9758 56.4423 59.9779C56.4457 59.9801 56.447 59.981 56.4469 59.981L56.9246 59.3123C56.8727 59.2752 56.8128 59.2426 56.7815 59.2252L56.3825 59.9435ZM56.6858 59.6466C57.0966 59.6466 57.0966 59.6466 57.0966 59.6466C57.0966 59.6466 57.0966 59.6466 57.0966 59.6466C57.0966 59.6466 57.0966 59.646 57.0966 59.6459C57.0966 59.646 57.0966 59.6459 57.0966 59.6459C57.0966 59.6459 57.0966 59.6453 57.0966 59.6453C57.0966 59.6453 57.0966 59.6446 57.0966 59.6446C57.0966 59.6446 57.0966 59.6446 57.0966 59.6446C57.0966 59.6446 57.0966 59.6439 57.0966 59.6439C57.0966 59.6439 57.0966 59.6433 57.0966 59.6432C57.0966 59.6433 57.0966 59.6432 57.0966 59.6432C57.0966 59.6432 57.0966 59.6426 57.0966 59.6426C57.0966 59.6426 57.0966 59.6426 57.0966 59.6426C57.0966 59.6426 57.0966 59.6419 57.0966 59.6419C57.0966 59.6419 57.0966 59.6419 57.0966 59.6419C57.0966 59.6419 57.0966 59.6412 57.0966 59.6412C57.0966 59.6412 57.0966 59.6411 57.0966 59.6412C57.0966 59.6411 57.0966 59.6405 57.0966 59.6405C57.0966 59.6405 57.0966 59.6398 57.0966 59.6398C57.0966 59.6398 57.0966 59.6398 57.0966 59.6398C57.0966 59.6398 57.0966 59.6391 57.0966 59.6391C57.0966 59.639 57.0966 59.6384 57.0966 59.6384C57.0966 59.6384 57.0966 59.6383 57.0966 59.6384L56.2749 59.6383C56.2749 59.6383 56.2749 59.639 56.2749 59.639C56.2749 59.639 56.2749 59.639 56.2749 59.639C56.2749 59.639 56.2749 59.6397 56.2749 59.6397C56.2749 59.6397 56.2749 59.6404 56.2749 59.6404C56.2749 59.6404 56.2749 59.6404 56.2749 59.6404C56.2749 59.6404 56.2749 59.6411 56.2749 59.6411C56.2749 59.6411 56.2749 59.6418 56.2749 59.6418C56.2749 59.6418 56.2749 59.6425 56.2749 59.6425C56.2749 59.6425 56.2749 59.6425 56.2749 59.6425C56.2749 59.6425 56.2749 59.6432 56.2749 59.6432C56.2749 59.6432 56.2749 59.6438 56.2749 59.6438C56.2749 59.6439 56.2749 59.6438 56.2749 59.6438C56.2749 59.6439 56.2749 59.6445 56.2749 59.6445C56.2749 59.6445 56.2749 59.6445 56.2749 59.6445C56.2749 59.6445 56.2749 59.6452 56.2749 59.6452C56.2749 59.6452 56.2749 59.6459 56.2749 59.6459C56.2749 59.6459 56.2749 59.6459 56.2749 59.6459V59.6466C56.2749 59.6466 56.2749 59.6466 56.2749 59.6466C56.2749 59.6466 56.2749 59.6466 56.6858 59.6466ZM56.4911 60.0001L67.3071 65.819L67.6964 65.0954L56.8804 59.2765L56.4911 60.0001ZM67.7921 65.7478L67.8088 65.7312L67.2279 65.15L67.2113 65.1666L67.7921 65.7478Z" fill="#38056C"/>
<path d="M64.045 65.1922C64.0118 65.2088 63.9786 65.2254 63.9496 65.2462C62.3392 66.2423 61.0484 68.4005 60.7289 70.3595L49.917 64.5406C50.2283 62.5692 51.5232 60.3819 53.1502 59.3733C53.1668 59.365 53.1792 59.3567 53.1958 59.3484L64.0492 65.1922H64.045Z" fill="#E5E3FF"/>
<path d="M64.0451 65.1922V64.7814H63.9482L63.8614 64.8247L64.0451 65.1922ZM63.9497 65.2462L64.1658 65.5956L64.1774 65.5884L64.1885 65.5805L63.9497 65.2462ZM60.729 70.3595L60.5342 70.7213L61.0417 70.9944L61.1345 70.4257L60.729 70.3595ZM49.9171 64.5406L49.5113 64.4765L49.4658 64.7643L49.7224 64.9024L49.9171 64.5406ZM53.1503 59.3733L52.9666 59.0058L52.9498 59.0142L52.9338 59.0241L53.1503 59.3733ZM53.1959 59.3484L53.3907 58.9867L53.203 58.8856L53.0122 58.9809L53.1959 59.3484ZM64.0493 65.1922V65.6031H65.6791L64.2441 64.8305L64.0493 65.1922ZM63.8614 64.8247C63.8339 64.8385 63.7708 64.8691 63.7109 64.9118L64.1885 65.5805C64.1855 65.5827 64.186 65.582 64.1935 65.5779C64.2015 65.5735 64.2111 65.5686 64.2289 65.5597L63.8614 64.8247ZM63.7336 64.8968C62.0053 65.9658 60.6588 68.2379 60.3235 70.2934L61.1345 70.4257C61.4383 68.5631 62.6734 66.5188 64.1658 65.5956L63.7336 64.8968ZM60.9237 69.9977L50.1118 64.1788L49.7224 64.9024L60.5342 70.7213L60.9237 69.9977ZM50.323 64.6047C50.6189 62.7301 51.8583 60.6576 53.3668 59.7226L52.9338 59.0241C51.1883 60.1062 49.8378 62.4082 49.5113 64.4765L50.323 64.6047ZM53.334 59.7408C53.354 59.7309 53.3706 59.7213 53.377 59.7176C53.3851 59.713 53.383 59.7143 53.3797 59.7159L53.0122 58.9809C52.9923 58.9909 52.9756 59.0005 52.9693 59.0042C52.9611 59.0088 52.9632 59.0075 52.9666 59.0058L53.334 59.7408ZM53.0012 59.7102L63.8545 65.554L64.2441 64.8305L53.3907 58.9867L53.0012 59.7102ZM64.0493 64.7814H64.0451V65.6031H64.0493V64.7814Z" fill="#38056C"/>
<path d="M70.9056 61.2157C70.8102 61.2614 70.7064 61.3112 70.6068 61.3734C69.2371 62.1662 68.0626 63.7807 67.523 65.4408L56.707 59.6219C57.2424 57.9452 58.4295 56.3057 59.8033 55.5006C59.8821 55.4508 59.9651 55.4134 60.044 55.3719L70.9056 61.2157Z" fill="#E5E3FF"/>
<path d="M70.9057 61.2158L71.083 61.5864L71.813 61.2373L71.1004 60.8539L70.9057 61.2158ZM70.6069 61.3735L70.8127 61.7291L70.8187 61.7256L70.8246 61.7219L70.6069 61.3735ZM67.5231 65.4409L67.3285 65.8027L67.7618 66.0359L67.9139 65.5679L67.5231 65.4409ZM56.7071 59.622L56.3157 59.497L56.2119 59.8222L56.5125 59.9839L56.7071 59.622ZM59.8034 55.5006L60.0111 55.8551L60.017 55.8517L60.0228 55.848L59.8034 55.5006ZM60.0441 55.372L60.2388 55.0102L60.0462 54.9066L59.8527 55.0084L60.0441 55.372ZM70.7285 60.8451C70.6353 60.8897 70.5112 60.9488 70.3891 61.0251L70.8246 61.7219C70.9018 61.6737 70.9853 61.6332 71.083 61.5864L70.7285 60.8451ZM70.4011 61.0179C68.9258 61.8718 67.6962 63.579 67.1324 65.3139L67.9139 65.5679C68.4292 63.9825 69.5487 62.4607 70.8127 61.7291L70.4011 61.0179ZM67.7178 65.0791L56.9018 59.2602L56.5125 59.9839L67.3285 65.8027L67.7178 65.0791ZM57.0985 59.747C57.6097 58.146 58.7419 56.599 60.0111 55.8551L59.5956 55.1462C58.1173 56.0126 56.8753 57.7445 56.3157 59.497L57.0985 59.747ZM60.0228 55.848C60.084 55.8093 60.1265 55.7929 60.2354 55.7356L59.8527 55.0084C59.8039 55.0341 59.6804 55.0923 59.584 55.1533L60.0228 55.848ZM59.8494 55.7338L70.7111 61.5776L71.1004 60.8539L60.2388 55.0102L59.8494 55.7338Z" fill="#38056C"/>
<path d="M74.0765 61.6226C74.0184 61.7844 73.9727 61.9504 73.9354 62.1123C73.9188 62.1704 73.9022 62.2285 73.8897 62.2866C73.4913 60.9917 72.3251 60.5393 70.9056 61.22L60.0439 55.3762C60.9238 54.9362 61.7083 54.9321 62.281 55.2932C62.3184 55.3098 62.3557 55.3305 62.3848 55.3513C62.4221 55.372 62.4595 55.3886 62.4927 55.4135C62.5301 55.4301 62.5633 55.4509 62.5965 55.4716C62.6338 55.4924 62.6712 55.509 62.7044 55.5297C62.7417 55.5505 62.7791 55.5671 62.8081 55.592C62.8455 55.6086 62.8829 55.6294 62.9161 55.6501C62.9534 55.6709 62.9908 55.6875 63.0198 55.7124C63.0572 55.729 63.0945 55.7497 63.1277 55.7705C63.1651 55.7912 63.2024 55.8078 63.2315 55.8286C63.2356 55.8286 63.2398 55.8286 63.2439 55.8369C63.2439 55.8286 63.2439 55.8244 63.2522 55.8161L74.0641 61.6392L74.0765 61.6226Z" fill="#38056C"/>
<path d="M74.076 61.6226L74.4627 61.7614L75.3836 59.1959L73.7474 61.3759L74.076 61.6226ZM73.9348 62.1123L74.3299 62.2252L74.3328 62.215L74.3352 62.2047L73.9348 62.1123ZM73.8892 62.2866L73.4965 62.4075L73.9604 63.9152L74.2909 62.3727L73.8892 62.2866ZM70.9051 61.22L70.7104 61.5818L70.8944 61.6808L71.0827 61.5905L70.9051 61.22ZM60.0434 55.3762L59.8596 55.0087L59.1514 55.3628L59.8487 55.738L60.0434 55.3762ZM62.2805 55.2932L62.0614 55.6408L62.0865 55.6566L62.1136 55.6686L62.2805 55.2932ZM62.3842 55.3513L62.1454 55.6856L62.1644 55.6992L62.1847 55.7105L62.3842 55.3513ZM62.4921 55.4135L62.2456 55.7422L62.2828 55.7701L62.3253 55.789L62.4921 55.4135ZM62.5959 55.4717L62.3781 55.8201L62.3871 55.8257L62.3964 55.8308L62.5959 55.4717ZM62.7038 55.5298L62.4861 55.8782L62.495 55.8838L62.5043 55.8889L62.7038 55.5298ZM62.8076 55.592L62.5402 55.904L62.5858 55.9431L62.6407 55.9675L62.8076 55.592ZM62.9155 55.6501L62.6977 55.9985L62.7067 56.0042L62.716 56.0093L62.9155 55.6501ZM63.0193 55.7124L62.7519 56.0243L62.7975 56.0634L62.8524 56.0878L63.0193 55.7124ZM63.1272 55.7705L62.9094 56.1189L62.9184 56.1245L62.9276 56.1297L63.1272 55.7705ZM63.2309 55.8286L62.9921 56.1629L63.0993 56.2395H63.2309V55.8286ZM63.2433 55.8369L62.8758 56.0206L63.6542 57.5774V55.8369H63.2433ZM63.2517 55.8161L63.4465 55.4544L63.1773 55.3094L62.9611 55.5256L63.2517 55.8161ZM74.0635 61.6392L73.8687 62.0009L74.1799 62.1685L74.3921 61.8858L74.0635 61.6392ZM73.6893 61.4838C73.6243 61.6647 73.5744 61.847 73.5345 62.0199L74.3352 62.2047C74.37 62.0539 74.4115 61.9041 74.4627 61.7614L73.6893 61.4838ZM73.5398 61.9995C73.5238 62.0552 73.5033 62.1266 73.4874 62.2006L74.2909 62.3727C74.3 62.3304 74.3126 62.2857 74.3299 62.2252L73.5398 61.9995ZM74.2819 62.1658C74.0522 61.4194 73.5823 60.8686 72.9212 60.6266C72.269 60.3879 71.5047 60.4767 70.7274 60.8495L71.0827 61.5905C71.7248 61.2826 72.2534 61.2572 72.6388 61.3983C73.0152 61.5361 73.3277 61.8589 73.4965 62.4075L74.2819 62.1658ZM71.0997 60.8582L60.2381 55.0144L59.8487 55.738L70.7104 61.5818L71.0997 60.8582ZM60.2271 55.7437C61.0255 55.3445 61.6489 55.3807 62.0614 55.6408L62.4996 54.9456C61.7666 54.4835 60.821 54.528 59.8596 55.0087L60.2271 55.7437ZM62.1136 55.6686C62.121 55.6719 62.1284 55.6757 62.135 55.6793C62.1382 55.6811 62.1408 55.6827 62.1427 55.6839C62.1447 55.6851 62.1456 55.6857 62.1454 55.6856L62.623 55.017C62.5674 54.9772 62.505 54.9433 62.4473 54.9177L62.1136 55.6686ZM62.1847 55.7105C62.1987 55.7183 62.2119 55.7252 62.2214 55.7301C62.2321 55.7358 62.2379 55.7388 62.2437 55.742C62.2548 55.748 62.2524 55.7473 62.2456 55.7422L62.7387 55.0849C62.6987 55.0549 62.661 55.0335 62.6358 55.0198C62.5914 54.9957 62.6101 55.0067 62.5838 54.9921L62.1847 55.7105ZM62.3253 55.789C62.3273 55.7899 62.3318 55.7921 62.3405 55.7971C62.3502 55.8026 62.3605 55.8091 62.3781 55.8201L62.8137 55.1232C62.7839 55.1046 62.7269 55.0683 62.659 55.0381L62.3253 55.789ZM62.3964 55.8308C62.4227 55.8454 62.4508 55.8596 62.4635 55.8661C62.4715 55.8702 62.4767 55.8729 62.4807 55.8752C62.4846 55.8773 62.4861 55.8782 62.4861 55.8782L62.9216 55.1813C62.8894 55.1612 62.8588 55.1453 62.8393 55.1353C62.8157 55.1232 62.8065 55.1186 62.7954 55.1125L62.3964 55.8308ZM62.5043 55.8889C62.5181 55.8966 62.5313 55.9036 62.5398 55.9081C62.5497 55.9133 62.5545 55.9158 62.5584 55.918C62.5613 55.9199 62.5619 55.9199 62.5584 55.918C62.5554 55.916 62.5487 55.9113 62.5402 55.904L63.075 55.2801C63.0301 55.2416 62.9862 55.2157 62.9592 55.2007C62.9455 55.193 62.9321 55.1859 62.9236 55.1814C62.9137 55.1762 62.9082 55.1733 62.9034 55.1706L62.5043 55.8889ZM62.6407 55.9675C62.6563 55.9744 62.6764 55.9852 62.6977 55.9985L63.1333 55.3017C63.0882 55.2735 63.0336 55.2428 62.9745 55.2166L62.6407 55.9675ZM62.716 56.0093C62.7298 56.017 62.743 56.0239 62.7515 56.0284C62.7614 56.0336 62.7662 56.0362 62.7701 56.0384C62.7729 56.0403 62.7735 56.0403 62.7701 56.0384C62.7671 56.0364 62.7604 56.0316 62.7519 56.0243L63.2866 55.4004C63.2418 55.3619 63.1979 55.3361 63.1709 55.321C63.1572 55.3133 63.1438 55.3063 63.1353 55.3018C63.1254 55.2966 63.1199 55.2937 63.115 55.291L62.716 56.0093ZM62.8524 56.0878C62.8679 56.0948 62.8881 56.1056 62.9094 56.1189L63.3449 55.4221C63.2999 55.3939 63.2453 55.3632 63.1861 55.3369L62.8524 56.0878ZM62.9276 56.1297C62.9418 56.1375 62.955 56.1444 62.9652 56.1498C62.9772 56.156 62.9826 56.1588 62.9899 56.1627C62.9962 56.166 62.9988 56.1675 62.9997 56.168C63.0004 56.1684 62.9974 56.1667 62.9921 56.1629L63.4697 55.4943C63.432 55.4673 63.3954 55.4475 63.3744 55.4364C63.3446 55.4206 63.3415 55.4196 63.3267 55.4113L62.9276 56.1297ZM63.2309 56.2395C63.2431 56.2395 63.1494 56.2455 63.0524 56.1966C62.9475 56.1438 62.8966 56.0622 62.8758 56.0206L63.6108 55.6532C63.5859 55.6033 63.5309 55.5175 63.4219 55.4626C63.3698 55.4364 63.3214 55.4256 63.2855 55.4211C63.2684 55.4189 63.2544 55.4182 63.2455 55.4179C63.241 55.4178 63.2374 55.4178 63.235 55.4177C63.2328 55.4177 63.231 55.4177 63.2309 55.4177V56.2395ZM63.6542 55.8369C63.6542 55.8184 63.658 55.8851 63.6341 55.9566C63.6068 56.0386 63.5602 56.0887 63.5422 56.1067L62.9611 55.5256C62.9348 55.5519 62.8841 55.6082 62.8547 55.6964C62.8406 55.7384 62.8357 55.7748 62.8338 55.7996C62.8329 55.8114 62.8327 55.821 62.8326 55.8267C62.8325 55.8319 62.8325 55.8366 62.8325 55.8369H63.6542ZM63.0568 56.1779L73.8687 62.0009L74.2583 61.2774L63.4465 55.4544L63.0568 56.1779ZM74.3921 61.8858L74.4046 61.8692L73.7474 61.3759L73.7349 61.3925L74.3921 61.8858Z" fill="#38056C"/>
<path d="M77.2645 57.5051L77.1566 57.5674C75.7911 58.3601 74.6207 59.9621 74.077 61.6223L63.2651 55.7993C63.8005 54.1267 64.9834 52.4955 66.3572 51.6945C66.3779 51.6821 66.3945 51.6738 66.4153 51.6613L77.2686 57.5051H77.2645Z" fill="#E5E3FF"/>
<path d="M77.2648 57.5051V57.0942H77.1547L77.0595 57.1492L77.2648 57.5051ZM77.1568 57.5673L76.9515 57.2114L76.9506 57.212L77.1568 57.5673ZM74.0773 61.6223L73.8824 61.984L74.3149 62.2169L74.4677 61.7502L74.0773 61.6223ZM63.2654 55.7992L62.8741 55.674L62.77 55.9991L63.0706 56.161L63.2654 55.7992ZM66.3574 51.6945L66.5644 52.0495L66.5688 52.0468L66.3574 51.6945ZM66.4156 51.6613L66.6103 51.2995L66.4046 51.1887L66.2042 51.309L66.4156 51.6613ZM77.2689 57.5051V57.9159H78.8987L77.4637 57.1433L77.2689 57.5051ZM77.0595 57.1492L76.9515 57.2114L77.3622 57.9232L77.4701 57.861L77.0595 57.1492ZM76.9506 57.212C75.4803 58.0655 74.255 59.7596 73.6868 61.4944L74.4677 61.7502C74.987 60.1646 76.1024 58.6546 77.3631 57.9227L76.9506 57.212ZM74.2721 61.2605L63.4602 55.4375L63.0706 56.161L73.8824 61.984L74.2721 61.2605ZM63.6567 55.9245C64.1679 54.3276 65.2957 52.7892 66.5644 52.0495L66.1505 51.3395C64.6716 52.2018 63.4337 53.9256 62.8741 55.674L63.6567 55.9245ZM66.5688 52.0468C66.5726 52.0446 66.5763 52.0425 66.5861 52.037C66.595 52.0321 66.6099 52.0238 66.627 52.0136L66.2042 51.309C66.2004 51.3112 66.1967 51.3133 66.1869 51.3187C66.178 51.3237 66.1631 51.332 66.1461 51.3422L66.5688 52.0468ZM66.2208 52.023L77.0741 57.8668L77.4637 57.1433L66.6103 51.2995L66.2208 52.023ZM77.2689 57.0942H77.2648V57.9159H77.2689V57.0942Z" fill="#38056C"/>
<path d="M83.6976 38.1852C83.6976 38.1852 83.6769 38.1976 83.6644 38.2018C82.0084 39.1647 80.6305 41.3312 80.3233 43.3317L69.5156 37.5128C69.8062 35.5081 71.1799 33.325 72.8401 32.3455L83.6976 38.1852Z" fill="#E5E3FF"/>
<path d="M83.6972 38.1853L83.9088 38.5375L84.528 38.1656L83.8919 37.8234L83.6972 38.1853ZM83.664 38.2019L83.5341 37.8121L83.494 37.8255L83.4575 37.8467L83.664 38.2019ZM80.3229 43.3318L80.1282 43.6936L80.6407 43.9695L80.7291 43.3942L80.3229 43.3318ZM69.5152 37.5129L69.1086 37.454L69.0674 37.7384L69.3205 37.8747L69.5152 37.5129ZM72.8397 32.3456L73.0343 31.9838L72.8304 31.8741L72.6309 31.9918L72.8397 32.3456ZM83.6972 38.1853C83.4857 37.8331 83.4857 37.8331 83.4857 37.833C83.4859 37.8329 83.4866 37.8325 83.4868 37.8324C83.4871 37.8322 83.4874 37.832 83.4876 37.8319C83.4881 37.8316 83.4884 37.8314 83.4886 37.8313C83.489 37.8311 83.4895 37.8308 83.4904 37.8303C83.491 37.83 83.4938 37.8285 83.4985 37.8263C83.5014 37.8249 83.5147 37.8186 83.5341 37.8121L83.794 38.5917C83.8371 38.5773 83.8728 38.5577 83.8802 38.5537C83.8879 38.5496 83.8944 38.5459 83.899 38.5433C83.9013 38.5419 83.9034 38.5407 83.905 38.5397C83.9058 38.5393 83.9066 38.5388 83.9072 38.5384C83.9075 38.5383 83.9078 38.5381 83.9081 38.5379C83.9082 38.5378 83.9087 38.5376 83.9088 38.5375C83.9087 38.5375 83.9089 38.5375 83.9088 38.5375C83.9088 38.5375 83.9088 38.5375 83.6972 38.1853ZM83.4575 37.8467C81.6818 38.8792 80.2405 41.161 79.9168 43.2695L80.7291 43.3942C81.0196 41.5016 82.3343 39.4504 83.8706 38.5571L83.4575 37.8467ZM80.5177 42.97L69.71 37.1511L69.3205 37.8747L80.1282 43.6936L80.5177 42.97ZM69.9219 37.5718C70.1965 35.6768 71.5069 33.6091 73.0485 32.6995L72.6309 31.9918C70.8522 33.0412 69.415 35.3397 69.1086 37.454L69.9219 37.5718ZM72.6451 32.7075L83.5026 38.5471L83.8919 37.8234L73.0343 31.9838L72.6451 32.7075Z" fill="#38056C"/>
<path d="M87.217 84.658C87.2253 86.3472 86.0466 88.4141 84.5815 89.2649L63.3895 101.596C62.825 101.924 62.2979 102.023 61.8704 101.924C61.8289 101.915 61.7915 101.903 61.7542 101.89C61.7127 101.878 61.6753 101.866 61.638 101.845C61.5798 101.82 61.5259 101.791 61.472 101.762C61.0113 101.48 60.729 100.894 60.729 100.068L60.6792 83.4045V82.1469L60.646 71.2811C60.646 70.9823 60.6751 70.6669 60.7249 70.3514C61.0486 68.3924 62.3352 66.2342 63.9456 65.2381C63.9788 65.2174 64.012 65.2008 64.0411 65.1842C65.6514 64.2918 66.909 64.7276 67.3282 66.0848C67.378 65.8648 67.4361 65.649 67.5108 65.4332C68.0504 63.773 69.2291 62.1585 70.5946 61.3658C70.6942 61.3035 70.7979 61.2537 70.8934 61.2081C72.3129 60.5232 73.4791 60.9798 73.8775 62.2747C73.89 62.2166 73.9066 62.1585 73.9232 62.1004C73.9606 61.9386 74.0104 61.7725 74.0643 61.6107C74.608 59.9505 75.7826 58.3484 77.1439 57.5557L77.2518 57.4935C78.6007 56.7505 79.7587 57.041 80.2817 58.0953V57.6512L80.2443 44.1374C80.2443 43.8718 80.265 43.5937 80.3107 43.3198C80.6178 41.3193 81.9958 39.1527 83.6518 38.1898C83.6642 38.1898 83.6725 38.1774 83.685 38.1732C84.5441 37.7125 85.3037 37.6503 85.8847 37.9159L86.0051 37.9865C86.0881 38.0363 86.1711 38.0861 86.2458 38.1483C86.279 38.1732 86.3122 38.2023 86.3413 38.2272C86.3413 38.2272 86.3537 38.2355 86.3579 38.2438C86.4243 38.3102 86.4865 38.3766 86.5488 38.4555C86.582 38.497 86.6152 38.5385 86.6401 38.5883C86.6608 38.6215 86.6816 38.6589 86.7023 38.6879C86.7646 38.7875 86.8144 38.8996 86.8601 39.0199C86.8808 39.0739 86.9016 39.1237 86.9182 39.1818C86.9348 39.2316 86.9514 39.2814 86.968 39.3354C87.0178 39.518 87.0468 39.7131 87.0634 39.9289C87.0717 39.9787 87.0759 40.0285 87.0759 40.0824C87.0759 40.1571 87.0842 40.2402 87.0842 40.319L87.2046 84.6496L87.217 84.658Z" fill="#E5E3FF"/>
<path d="M87.2162 84.6579L87.6271 84.6559L87.626 84.4378L87.4448 84.3165L87.2162 84.6579ZM61.8697 101.924L61.9629 101.523L61.9566 101.522L61.9502 101.521L61.8697 101.924ZM61.7534 101.89L61.8834 101.501L61.8775 101.499L61.8715 101.497L61.7534 101.89ZM61.6372 101.845L61.8367 101.486L61.8184 101.475L61.7991 101.467L61.6372 101.845ZM61.4712 101.762L61.2566 102.112L61.2664 102.118L61.2764 102.124L61.4712 101.762ZM60.7283 100.068H61.1392L61.1392 100.067L60.7283 100.068ZM60.6785 83.4045H60.2676L60.2676 83.4057L60.6785 83.4045ZM60.6785 82.1469H61.0894L61.0894 82.1456L60.6785 82.1469ZM60.6452 71.2811H60.2344L60.2344 71.2824L60.6452 71.2811ZM60.7241 70.3514L60.3187 70.2844L60.3183 70.2873L60.7241 70.3514ZM63.9449 65.2381L64.161 65.5875L64.1626 65.5865L63.9449 65.2381ZM64.0403 65.1841L63.8412 64.8247L63.8365 64.8274L64.0403 65.1841ZM67.3275 66.0848L66.9349 66.206L67.3887 67.6751L67.7282 66.1755L67.3275 66.0848ZM67.5101 65.4332L67.8984 65.5676L67.9008 65.5602L67.5101 65.4332ZM70.5938 61.3657L70.8001 61.7211L70.8059 61.7177L70.8116 61.7142L70.5938 61.3657ZM70.8927 61.208L71.0699 61.5787L71.0712 61.5781L70.8927 61.208ZM73.8768 62.2747L73.4841 62.3955L73.948 63.9033L74.2785 62.3608L73.8768 62.2747ZM73.9225 62.1004L74.3176 62.2132L74.3205 62.2031L74.3228 62.1928L73.9225 62.1004ZM74.0636 61.6106L74.4534 61.7405L74.4541 61.7385L74.0636 61.6106ZM77.1432 57.5557L76.9379 57.1998L76.9364 57.2006L77.1432 57.5557ZM77.2511 57.4934L77.0528 57.1334L77.0458 57.1375L77.2511 57.4934ZM80.2809 58.0952L79.9128 58.2778L80.6918 59.848V58.0952H80.2809ZM80.2809 57.6511H80.6918L80.6918 57.65L80.2809 57.6511ZM80.2436 44.1374H79.8327L79.8327 44.1385L80.2436 44.1374ZM80.3099 43.3197L80.7153 43.3873L80.7161 43.3821L80.3099 43.3197ZM83.651 38.1898V37.7789H83.5403L83.4445 37.8346L83.651 38.1898ZM83.6842 38.1732L83.8142 38.563L83.8475 38.5519L83.8784 38.5353L83.6842 38.1732ZM85.884 37.9159L86.0918 37.5614L86.0738 37.5509L86.0548 37.5422L85.884 37.9159ZM86.0044 37.9864L86.2158 37.6341L86.2121 37.632L86.0044 37.9864ZM86.2451 38.1483L85.982 38.4639L85.9901 38.4707L85.9985 38.477L86.2451 38.1483ZM86.3405 38.2271L86.0731 38.5391L86.092 38.5553L86.1127 38.5691L86.3405 38.2271ZM86.3571 38.2438L85.9896 38.4275L86.0194 38.4871L86.0666 38.5343L86.3571 38.2438ZM86.548 38.4554L86.2255 38.71L86.2272 38.7121L86.548 38.4554ZM86.6393 38.5882L86.2718 38.772L86.2806 38.7894L86.2909 38.806L86.6393 38.5882ZM86.7016 38.6879L87.05 38.4701L87.0433 38.4594L87.0359 38.449L86.7016 38.6879ZM86.8593 39.0199L86.4751 39.1656L86.4758 39.1674L86.8593 39.0199ZM86.9174 39.1818L86.5224 39.2946L86.5248 39.3032L86.5276 39.3117L86.9174 39.1818ZM86.9672 39.3353L87.3636 39.2272L87.3619 39.2208L87.3599 39.2145L86.9672 39.3353ZM87.0627 39.9288L86.653 39.9603L86.6544 39.9785L86.6574 39.9964L87.0627 39.9288ZM87.0835 40.319H86.6726L86.6726 40.3201L87.0835 40.319ZM87.2038 84.6496L86.793 84.6507L86.7936 84.8694L86.9753 84.991L87.2038 84.6496ZM86.8054 84.6599C86.8091 85.4153 86.5448 86.2837 86.0943 87.0719C85.6438 87.8601 85.0295 88.5291 84.3744 88.9096L84.7871 89.6202C85.5971 89.1498 86.3047 88.3599 86.8077 87.4796C87.3108 86.5994 87.6317 85.5897 87.6271 84.6559L86.8054 84.6599ZM84.3744 88.9096L63.1821 101.241L63.5951 101.951L84.7871 89.6202L84.3744 88.9096ZM63.1821 101.241C62.6768 101.534 62.258 101.592 61.9629 101.523L61.7764 102.324C62.3363 102.454 62.9714 102.313 63.5951 101.951L63.1821 101.241ZM61.9502 101.521C61.9375 101.518 61.9235 101.514 61.8834 101.501L61.6235 102.28C61.6581 102.292 61.7188 102.312 61.7891 102.327L61.9502 101.521ZM61.8715 101.497C61.835 101.486 61.8333 101.484 61.8367 101.486L61.4377 102.204C61.5158 102.247 61.5889 102.27 61.6354 102.284L61.8715 101.497ZM61.7991 101.467C61.7605 101.451 61.7224 101.43 61.666 101.4L61.2764 102.124C61.3279 102.151 61.3977 102.189 61.4754 102.222L61.7991 101.467ZM61.6859 101.411C61.3903 101.23 61.1392 100.811 61.1392 100.068H60.3174C60.3174 100.978 60.6307 101.729 61.2566 102.112L61.6859 101.411ZM61.1392 100.067L61.0894 83.4032L60.2676 83.4057L60.3174 100.07L61.1392 100.067ZM61.0894 83.4045L61.0894 82.1469H60.2676L60.2676 83.4045H61.0894ZM61.0894 82.1456L61.0561 71.2798L60.2344 71.2824L60.2676 82.1481L61.0894 82.1456ZM61.0561 71.2811C61.0561 71.008 61.0828 70.7144 61.13 70.4155L60.3183 70.2873C60.2659 70.6193 60.2344 70.9565 60.2344 71.2811H61.0561ZM61.1295 70.4184C61.4375 68.5546 62.669 66.5104 64.161 65.5875L63.7287 64.8887C62.0001 65.9579 60.6582 68.2302 60.3187 70.2844L61.1295 70.4184ZM64.1626 65.5865C64.1693 65.5823 64.1779 65.5774 64.1917 65.5698C64.2001 65.5652 64.2044 65.5629 64.2148 65.5572C64.2233 65.5526 64.2335 65.547 64.2442 65.5409L63.8365 64.8274C63.826 64.8334 63.8185 64.8373 63.7966 64.8493C63.7783 64.8593 63.7536 64.8731 63.7271 64.8897L64.1626 65.5865ZM64.2395 65.5435C64.9872 65.1292 65.588 65.0596 66.0147 65.1851C66.4253 65.3058 66.7575 65.6316 66.9349 66.206L67.72 65.9635C67.4783 65.1807 66.9721 64.61 66.2465 64.3967C65.537 64.1881 64.7038 64.3467 63.8412 64.8247L64.2395 65.5435ZM67.7282 66.1755C67.7756 65.9661 67.8299 65.7656 67.8984 65.5676L67.1218 65.2988C67.0409 65.5324 66.9789 65.7634 66.9267 65.994L67.7282 66.1755ZM67.9008 65.5602C68.4159 63.9753 69.5395 62.4529 70.8001 61.7211L70.3876 61.0104C68.9172 61.864 67.6833 63.5707 67.1193 65.3062L67.9008 65.5602ZM70.8116 61.7142C70.8887 61.6659 70.9723 61.6254 71.0699 61.5787L70.7154 60.8374C70.6221 60.882 70.4982 60.941 70.3761 61.0173L70.8116 61.7142ZM71.0712 61.5781C71.7129 61.2685 72.241 61.2433 72.626 61.3847C73.0025 61.5228 73.3152 61.8466 73.4841 62.3955L74.2695 62.1538C74.0399 61.4078 73.5703 60.8559 72.9092 60.6132C72.2566 60.3737 71.4919 60.4627 70.7141 60.838L71.0712 61.5781ZM74.2785 62.3608C74.2876 62.3186 74.3002 62.274 74.3176 62.2132L73.5274 61.9875C73.5116 62.0429 73.4909 62.1146 73.475 62.1886L74.2785 62.3608ZM74.3228 62.1928C74.3563 62.0479 74.4018 61.8952 74.4534 61.7405L73.6738 61.4807C73.6174 61.6498 73.5634 61.8291 73.5221 62.008L74.3228 62.1928ZM74.4541 61.7385C74.9731 60.1535 76.0926 58.6429 77.3499 57.9107L76.9364 57.2006C75.4711 58.0539 74.2414 59.7474 73.6731 61.4827L74.4541 61.7385ZM77.3485 57.9116L77.4564 57.8493L77.0458 57.1375L76.9379 57.1998L77.3485 57.9116ZM77.4493 57.8533C78.064 57.5148 78.5894 57.4368 78.9901 57.5222C79.38 57.6053 79.702 57.8527 79.9128 58.2778L80.649 57.9126C80.3369 57.2835 79.8184 56.8585 79.1613 56.7185C78.5151 56.5808 77.787 56.7291 77.0528 57.1334L77.4493 57.8533ZM80.6918 58.0952L80.6918 57.6511H79.87V58.0952H80.6918ZM80.6918 57.65L80.6544 44.1362L79.8327 44.1385L79.87 57.6523L80.6918 57.65ZM80.6544 44.1374C80.6544 43.8925 80.6736 43.6371 80.7153 43.3873L79.9047 43.2522C79.855 43.5502 79.8327 43.8509 79.8327 44.1374H80.6544ZM80.7161 43.3821C81.0066 41.4895 82.3213 39.4383 83.8576 38.545L83.4445 37.8346C81.6688 38.8671 80.2275 41.149 79.9038 43.2574L80.7161 43.3821ZM83.651 38.6007C83.7256 38.6007 83.7865 38.5814 83.8292 38.5621C83.8681 38.5445 83.8961 38.5246 83.9034 38.5195C83.9054 38.5181 83.9135 38.5124 83.9095 38.5152C83.909 38.5155 83.9044 38.5189 83.8979 38.5231C83.8851 38.5313 83.8558 38.5491 83.8142 38.563L83.5543 37.7834C83.5064 37.7994 83.4714 37.8203 83.4532 37.832C83.444 37.838 83.4367 37.8431 83.4335 37.8454C83.4327 37.846 83.4319 37.8465 83.4314 37.8468C83.4312 37.847 83.431 37.8472 83.4308 37.8473C83.4306 37.8474 83.4309 37.8472 83.4308 37.8473C83.4304 37.8476 83.4303 37.8476 83.4314 37.8468C83.4336 37.8454 83.4569 37.8286 83.4903 37.8135C83.5275 37.7966 83.5827 37.7789 83.651 37.7789V38.6007ZM83.8784 38.5353C84.6683 38.1117 85.2878 38.0951 85.7132 38.2895L86.0548 37.5422C85.318 37.2054 84.4184 37.3133 83.4901 37.8111L83.8784 38.5353ZM85.6762 38.2703L85.7966 38.3409L86.2121 37.632L86.0918 37.5614L85.6762 38.2703ZM85.793 38.3388C85.8805 38.3913 85.9358 38.4254 85.982 38.4639L86.5081 37.8326C86.4049 37.7467 86.2943 37.6812 86.2158 37.6341L85.793 38.3388ZM85.9985 38.477C86.0182 38.4918 86.0387 38.5096 86.0731 38.5391L86.6079 37.9152C86.5843 37.8949 86.5383 37.8546 86.4916 37.8196L85.9985 38.477ZM86.3405 38.2271C86.1127 38.5691 86.1128 38.5691 86.1127 38.5691C86.1126 38.569 86.1121 38.5687 86.1119 38.5686C86.1116 38.5684 86.1114 38.5682 86.1111 38.568C86.1105 38.5676 86.11 38.5673 86.1094 38.5669C86.1083 38.5661 86.1072 38.5654 86.1061 38.5646C86.1039 38.563 86.1015 38.5613 86.0989 38.5595C86.0942 38.5559 86.0876 38.5509 86.08 38.5444C86.0729 38.5383 86.061 38.5277 86.0475 38.5126C86.0356 38.4995 86.0112 38.4706 85.9896 38.4275L86.7246 38.06C86.6836 37.9779 86.6249 37.9292 86.6145 37.9203C86.6033 37.9106 86.5933 37.903 86.5861 37.8977C86.5824 37.8949 86.579 37.8925 86.576 37.8905C86.5745 37.8894 86.5731 37.8885 86.5719 37.8876C86.5712 37.8872 86.5706 37.8867 86.57 37.8863C86.5697 37.8861 86.5694 37.8859 86.5691 37.8857C86.569 37.8857 86.5693 37.8858 86.5691 37.8857C86.5691 37.8857 86.5686 37.8854 86.5685 37.8853C86.5685 37.8853 86.5685 37.8853 86.5685 37.8853C86.5684 37.8853 86.5683 37.8852 86.3405 38.2271ZM86.0666 38.5343C86.1266 38.5943 86.1768 38.6483 86.2255 38.71L86.8705 38.2008C86.7948 38.1049 86.7204 38.026 86.6477 37.9532L86.0666 38.5343ZM86.2272 38.7121C86.2449 38.7343 86.2545 38.7464 86.2624 38.7575C86.2695 38.7674 86.2716 38.7715 86.2718 38.772L87.0068 38.4045C86.9594 38.3097 86.8984 38.2356 86.8689 38.1988L86.2272 38.7121ZM86.2909 38.806C86.2939 38.8108 86.3377 38.8852 86.3673 38.9267L87.0359 38.449C87.0359 38.449 87.0347 38.4474 87.0321 38.4432C87.0294 38.4391 87.0262 38.4338 87.0218 38.4266C87.0171 38.4188 87.0132 38.4122 87.007 38.4019C87.0014 38.3927 86.9948 38.3818 86.9877 38.3705L86.2909 38.806ZM86.3532 38.9056C86.3952 38.9728 86.4339 39.0569 86.4751 39.1656L87.2435 38.8742C87.1934 38.7422 87.1325 38.6021 87.05 38.4701L86.3532 38.9056ZM86.4758 39.1674C86.5014 39.2339 86.5123 39.2593 86.5224 39.2946L87.3125 39.0689C87.2894 38.988 87.2587 38.9137 87.2428 38.8724L86.4758 39.1674ZM86.5276 39.3117C86.5444 39.362 86.5595 39.4074 86.5745 39.4562L87.3599 39.2145C87.3417 39.1553 87.3236 39.1011 87.3072 39.0518L86.5276 39.3117ZM86.5708 39.4434C86.6118 39.5937 86.6377 39.7616 86.653 39.9603L87.4723 39.8973C87.4544 39.6644 87.4223 39.4422 87.3636 39.2272L86.5708 39.4434ZM86.6574 39.9964C86.6619 40.0233 86.6643 40.0505 86.6643 40.0824H87.486C87.486 40.0064 87.4801 39.9339 87.468 39.8613L86.6574 39.9964ZM86.6643 40.0824C86.6643 40.1324 86.667 40.183 86.669 40.2205C86.6711 40.2621 86.6726 40.292 86.6726 40.319H87.4943C87.4943 40.2671 87.4916 40.216 87.4896 40.1778C87.4874 40.1353 87.486 40.107 87.486 40.0824H86.6643ZM86.6726 40.3201L86.793 84.6507L87.6147 84.6485L87.4943 40.3179L86.6726 40.3201ZM86.9753 84.991L86.9877 84.9993L87.4448 84.3165L87.4324 84.3082L86.9753 84.991Z" fill="#38056C"/>
<path d="M86.2579 38.1566L85.9948 38.4722L86.2831 38.7124L86.5484 38.4471L86.2579 38.1566ZM86.0171 37.9947L86.2285 37.6424L86.2249 37.6403L86.0171 37.9947ZM85.8968 37.9242L86.0757 37.5543L85.689 38.2786L85.8968 37.9242ZM86.262 38.1524L86.5526 38.443L86.8673 38.1283L86.5285 37.8397L86.262 38.1524ZM86.5209 37.8409C86.4177 37.755 86.307 37.6894 86.2285 37.6424L85.8057 38.347C85.8933 38.3996 85.9486 38.4337 85.9948 38.4722L86.5209 37.8409ZM86.2249 37.6403L86.1046 37.5697L85.689 38.2786L85.8093 38.3492L86.2249 37.6403ZM85.7178 38.294C85.8318 38.3492 85.9214 38.402 85.9956 38.4652L86.5285 37.8397C86.3786 37.712 86.219 37.6237 86.0757 37.5543L85.7178 38.294ZM85.9715 37.8619L85.9673 37.8661L86.5484 38.4471L86.5526 38.443L85.9715 37.8619Z" fill="#38056C"/>
<path d="M50.1089 64.1727L50.0384 64.1353L49.6538 64.8615L49.7243 64.8988L50.1089 64.1727Z" fill="#38056C"/>
<path d="M64.2975 64.8591L64.2441 64.8304L63.8545 65.5539L63.9079 65.5826L64.2975 64.8591Z" fill="#38056C"/>
<path d="M53.3946 58.989L53.3199 58.9475L52.9209 59.6658L52.9956 59.7073L53.3946 58.989Z" fill="#38056C"/>
<path d="M64.2829 64.8521L64.2537 64.8354L63.8457 65.5487L63.8749 65.5654L64.2829 64.8521Z" fill="#38056C"/>
<path d="M80.6142 43.0166L80.5229 42.9668L80.1294 43.6882L80.2207 43.738L80.6142 43.0166Z" fill="#38056C"/>
<path d="M69.7047 37.1443L69.6092 37.0945L69.229 37.823L69.3245 37.8728L69.7047 37.1443Z" fill="#38056C"/>
<path d="M83.9945 37.8817L83.899 37.8277L83.4946 38.5431L83.5901 38.597L83.9945 37.8817Z" fill="#38056C"/>
<path d="M73.0313 31.9821L72.9608 31.9448L72.5762 32.671L72.6467 32.7083L73.0313 31.9821Z" fill="#38056C"/>
<path d="M67.7972 65.123L67.71 65.0773L67.3286 65.8052L67.4158 65.8508L67.7972 65.123Z" fill="#38056C"/>
<path d="M56.904 59.2643L56.8376 59.227L56.4346 59.9431L56.5009 59.9805L56.904 59.2643Z" fill="#38056C"/>
<path d="M74.3948 61.3256L74.2745 61.2592L73.8774 61.9786L73.9978 62.045L74.3948 61.3256Z" fill="#38056C"/>
<path d="M63.4543 55.4313L63.2551 55.3275L62.8755 56.0563L63.0747 56.1601L63.4543 55.4313Z" fill="#38056C"/>
<path d="M71.1056 60.8569L71.0882 60.8482L70.7202 61.583L70.7376 61.5917L71.1056 60.8569Z" fill="#38056C"/>
<path d="M60.2469 55.0149L60.1223 54.9443L59.7173 55.6593L59.8418 55.7299L60.2469 55.0149Z" fill="#38056C"/>
<path d="M77.5351 57.1847L77.4687 57.1474L77.0659 57.8636L77.1323 57.901L77.5351 57.1847Z" fill="#38056C"/>
<path d="M66.6056 51.2982L66.5268 51.2567L66.144 51.9838L66.2229 52.0253L66.6056 51.2982Z" fill="#38056C"/>
<path d="M69.2539 52.1896L80.1321 58.0458L80.5217 57.3222L69.6434 51.466L69.2539 52.1896Z" fill="#38056C"/>
<path d="M66.9292 66.0925V75.1944H67.7509V66.0925H66.9292Z" fill="#38056C"/>
<path d="M73.52 62.0751V71.1729H74.3418V62.0751H73.52Z" fill="#38056C"/>
<path d="M79.8784 58.1112V67.2671H80.7002V58.1112H79.8784Z" fill="#38056C"/>
</svg>
