<svg width="564" height="528" viewBox="0 0 564 528" fill="none" xmlns="http://www.w3.org/2000/svg">
<path d="M59.4194 146.16C53.6528 118.536 71.3711 91.4685 98.9945 85.7021L315.314 40.5448C342.937 34.7783 370.005 52.4968 375.771 80.1201L487.146 613.625C492.912 641.248 475.194 668.316 447.57 674.082L231.251 719.239C203.628 725.006 176.56 707.287 170.793 679.664L59.4194 146.16Z" fill="#38056C"/>
<mask id="mask0_2022_544" style="mask-type:luminance" maskUnits="userSpaceOnUse" x="58" y="39" width="431" height="682">
<path fill-rule="evenodd" clip-rule="evenodd" d="M59.4196 146.16C53.653 118.536 71.3714 91.4685 98.9947 85.7022L315.314 40.5448C342.937 34.7783 370.005 52.4968 375.772 80.1201L487.146 613.624C492.912 641.248 475.194 668.315 447.571 674.082L231.251 719.239C203.628 725.006 176.56 707.287 170.794 679.664L59.4196 146.16Z" fill="white"/>
</mask>
<g mask="url(#mask0_2022_544)">
<path d="M99.2943 87.1331L315.613 41.9758L315.016 39.1124L98.6965 84.2697L99.2943 87.1331ZM374.341 80.4183L485.715 613.923L488.578 613.325L377.204 79.8206L374.341 80.4183ZM447.273 672.65L230.953 717.807L231.551 720.67L447.87 675.513L447.273 672.65ZM172.226 679.365L60.852 145.86L57.9887 146.458L169.363 679.962L172.226 679.365ZM230.953 717.807C204.121 723.408 177.828 706.197 172.226 679.365L169.363 679.962C175.294 708.376 203.137 726.602 231.551 720.67L230.953 717.807ZM485.715 613.923C491.316 640.755 474.105 667.048 447.273 672.65L447.87 675.513C476.284 669.582 494.51 641.739 488.578 613.325L485.715 613.923ZM315.613 41.9758C342.446 36.3744 368.739 53.5857 374.341 80.4183L377.204 79.8206C371.272 51.4066 343.43 33.1809 315.016 39.1124L315.613 41.9758ZM98.6965 84.2697C70.2825 90.2012 52.057 118.044 57.9887 146.458L60.852 145.86C55.2505 119.027 72.4617 92.7345 99.2943 87.1331L98.6965 84.2697Z" fill="#38056C"/>
</g>
<path d="M64.5274 112.671L111.21 102.932L118.003 135.491L61.1128 147.36C58.141 133.115 59.4288 122.936 64.5274 112.671Z" fill="white"/>
<path d="M75.9556 142.727C70.1889 115.104 87.9073 88.036 115.531 82.2696L331.85 37.1123C359.473 31.3458 386.541 49.0643 392.308 76.6876L503.682 610.192C509.448 637.815 491.73 664.883 464.107 670.65L247.787 715.807C220.164 721.573 193.096 703.855 187.33 676.232L75.9556 142.727Z" fill="white"/>
<mask id="mask1_2022_544" style="mask-type:luminance" maskUnits="userSpaceOnUse" x="74" y="36" width="431" height="681">
<path fill-rule="evenodd" clip-rule="evenodd" d="M75.9567 142.727C70.1901 115.103 87.9085 88.0357 115.532 82.2693L331.851 37.112C359.474 31.3455 386.542 49.0639 392.309 76.6873L503.683 610.192C509.449 637.815 491.731 664.883 464.108 670.649L247.789 715.806C220.165 721.573 193.097 703.854 187.331 676.231L75.9567 142.727Z" fill="white"/>
</mask>
<g mask="url(#mask1_2022_544)">
<path d="M115.831 83.7012L332.151 38.5439L331.553 35.6806L115.234 80.8378L115.831 83.7012ZM390.878 76.9864L502.252 610.491L505.115 609.893L393.741 76.3887L390.878 76.9864ZM463.81 669.218L247.491 714.375L248.088 717.239L464.407 672.081L463.81 669.218ZM188.763 675.933L77.3891 142.428L74.5258 143.026L185.9 676.53L188.763 675.933ZM247.491 714.375C220.658 719.977 194.365 702.765 188.763 675.933L185.9 676.53C191.832 704.944 219.674 723.17 248.088 717.239L247.491 714.375ZM502.252 610.491C507.853 637.324 490.642 663.617 463.81 669.218L464.407 672.081C492.821 666.15 511.047 638.307 505.115 609.893L502.252 610.491ZM332.151 38.5439C358.983 32.9425 385.276 50.1538 390.878 76.9864L393.741 76.3887C387.81 47.9747 359.967 29.749 331.553 35.6806L332.151 38.5439ZM115.234 80.8378C86.8196 86.7693 68.5941 114.612 74.5258 143.026L77.3891 142.428C71.7876 115.596 88.9988 89.3026 115.831 83.7012L115.234 80.8378Z" fill="#38056C"/>
</g>
<path d="M92.0338 139.967C87.9148 120.237 100.571 100.902 120.302 96.7835L158.59 88.7908C163.308 87.8059 167.931 90.8321 168.916 95.5501C170.59 103.571 178.449 108.715 186.47 107.041L274.441 88.6766C282.888 86.9133 288.331 78.6662 286.631 70.2062C285.621 65.1763 288.901 60.2863 293.939 59.3138L336.492 51.0988C356.072 47.3188 375.061 59.9547 379.136 79.4754L490.358 612.251C494.477 631.981 481.821 651.316 462.09 655.435L246.328 700.476C226.597 704.594 207.263 691.938 203.144 672.207L92.0338 139.967Z" fill="#CCC8FF"/>
<mask id="mask2_2022_544" style="mask-type:luminance" maskUnits="userSpaceOnUse" x="91" y="50" width="401" height="652">
<path fill-rule="evenodd" clip-rule="evenodd" d="M92.0335 139.968C87.9144 120.237 100.57 100.903 120.301 96.7838L158.589 88.7911C163.307 87.8062 167.931 90.8324 168.915 95.5504C170.59 103.571 178.449 108.716 186.47 107.041L274.441 88.677C282.888 86.9136 288.331 78.6666 286.631 70.2065C285.62 65.1767 288.901 60.2867 293.938 59.3141L336.492 51.099C356.072 47.3192 375.061 59.9549 379.136 79.4756L490.358 612.251C494.477 631.981 481.821 651.316 462.09 655.435L246.328 700.476C226.597 704.594 207.263 691.938 203.144 672.208L92.0335 139.968Z" fill="white"/>
</mask>
<g mask="url(#mask2_2022_544)">
<path d="M377.703 79.7738L488.925 612.549L491.788 611.951L380.567 79.1761L377.703 79.7738ZM461.79 654.002L246.028 699.043L246.625 701.907L462.388 656.866L461.79 654.002ZM204.574 671.908L93.464 139.668L90.6007 140.266L201.711 672.506L204.574 671.908ZM120.599 98.2147L158.887 90.2219L158.289 87.3587L120.001 95.3514L120.599 98.2147ZM294.215 60.7494L336.768 52.5344L336.214 49.6624L293.66 57.8773L294.215 60.7494ZM186.767 108.472L274.738 90.1079L274.141 87.2446L186.17 105.609L186.767 108.472ZM167.483 95.8485C169.322 104.66 177.956 110.312 186.767 108.472L186.17 105.609C178.94 107.118 171.855 102.481 170.346 95.2508L167.483 95.8485ZM293.66 57.8773C287.825 59.0038 284.025 64.6678 285.196 70.4939L288.064 69.9178C287.213 65.684 289.974 61.5679 294.215 60.7494L293.66 57.8773ZM158.887 90.2219C162.814 89.4021 166.663 91.9213 167.483 95.8485L170.346 95.2508C169.196 89.7421 163.798 86.2087 158.289 87.3587L158.887 90.2219ZM285.196 70.4939C286.737 78.1662 281.801 85.6454 274.141 87.2446L274.738 90.1079C283.972 88.1804 289.922 79.1655 288.064 69.9178L285.196 70.4939ZM246.028 699.043C227.087 702.997 208.528 690.848 204.574 671.908L201.711 672.506C205.995 693.027 226.104 706.191 246.625 701.907L246.028 699.043ZM488.925 612.549C492.879 631.489 480.73 650.049 461.79 654.002L462.388 656.866C482.909 652.582 496.073 632.473 491.788 611.951L488.925 612.549ZM380.567 79.1761C376.328 58.8731 356.578 45.731 336.214 49.6624L336.768 52.5344C355.563 48.906 373.792 61.0354 377.703 79.7738L380.567 79.1761ZM93.464 139.668C89.5101 120.728 101.659 102.169 120.599 98.2147L120.001 95.3514C99.4797 99.6354 86.3166 119.744 90.6007 140.266L93.464 139.668Z" fill="#38056C"/>
</g>
<path fill-rule="evenodd" clip-rule="evenodd" d="M411.576 199.267L183.198 95.5842L195.303 69.2437L408.677 167.322L411.576 199.267Z" fill="white"/>
<path fill-rule="evenodd" clip-rule="evenodd" d="M400.536 155.595L226.166 75.4968L229.204 68.8894L403.573 148.987L400.536 155.595Z" fill="white"/>
<mask id="mask3_2022_544" style="mask-type:luminance" maskUnits="userSpaceOnUse" x="179" y="86" width="13" height="12">
<path fill-rule="evenodd" clip-rule="evenodd" d="M191.043 90.5656C191.669 93.5625 189.691 96.5108 186.626 97.1507C183.561 97.7905 180.569 95.8797 179.943 92.8827C179.318 89.8858 181.295 86.9376 184.36 86.2977C187.426 85.6579 190.418 87.5687 191.043 90.5656Z" fill="white"/>
</mask>
<g mask="url(#mask3_2022_544)">
<path d="M189.611 90.8645C190.066 93.0405 188.632 95.2378 186.327 95.719L186.925 98.5823C190.75 97.7838 193.272 94.0846 192.475 90.2668L189.611 90.8645ZM186.327 95.719C184.022 96.2002 181.829 94.76 181.375 92.5839L178.511 93.1817C179.308 96.9995 183.099 99.3809 186.925 98.5823L186.327 95.719ZM181.375 92.5839C180.92 90.4079 182.354 88.2106 184.659 87.7295L184.061 84.8661C180.236 85.6647 177.714 89.3638 178.511 93.1817L181.375 92.5839ZM184.659 87.7295C186.964 87.2483 189.157 88.6885 189.611 90.8645L192.475 90.2668C191.678 86.4489 187.887 84.0676 184.061 84.8661L184.659 87.7295Z" fill="#38056C"/>
</g>
<path d="M193.817 89.983C193.192 86.986 195.114 84.0494 198.111 83.4237L259.409 70.6277C262.406 70.0021 265.342 71.9244 265.968 74.9213C266.593 77.9183 264.671 80.855 261.674 81.4806L200.377 94.2766C197.38 94.9023 194.443 92.9799 193.817 89.983Z" fill="white"/>
<mask id="mask4_2022_544" style="mask-type:luminance" maskUnits="userSpaceOnUse" x="193" y="70" width="74" height="25">
<path fill-rule="evenodd" clip-rule="evenodd" d="M193.818 89.9827C193.192 86.9858 195.114 84.0492 198.111 83.4235L259.409 70.6275C262.406 70.0018 265.342 71.9241 265.968 74.9211C266.594 77.918 264.671 80.8547 261.674 81.4803L200.377 94.2763C197.38 94.9019 194.443 92.9796 193.818 89.9827Z" fill="white"/>
</mask>
<g mask="url(#mask4_2022_544)">
<path d="M198.41 84.8554L259.707 72.0593L259.11 69.196L197.812 81.992L198.41 84.8554ZM261.375 80.0488L200.078 92.8449L200.676 95.7082L261.973 82.9122L261.375 80.0488ZM200.078 92.8449C197.872 93.3055 195.71 91.8903 195.249 89.684L192.386 90.2818C193.176 94.0694 196.888 96.4989 200.676 95.7082L200.078 92.8449ZM264.536 75.2201C264.997 77.4264 263.582 79.5883 261.375 80.0488L261.973 82.9122C265.761 82.1215 268.19 78.41 267.4 74.6224L264.536 75.2201ZM259.707 72.0593C261.914 71.5987 264.076 73.0139 264.536 75.2201L267.4 74.6224C266.609 70.8348 262.897 68.4053 259.11 69.196L259.707 72.0593ZM197.812 81.992C194.024 82.7827 191.595 86.4941 192.386 90.2818L195.249 89.684C194.788 87.4778 196.204 85.3159 198.41 84.8554L197.812 81.992Z" fill="#38056C"/>
</g>
<path d="M89.6557 244.309C92.7228 243.678 95.7199 245.654 96.3498 248.721L107.111 301.122C107.741 304.189 105.765 307.187 102.698 307.817C99.6311 308.447 96.634 306.472 96.0041 303.405L85.2426 251.004C84.6127 247.937 86.5885 244.939 89.6557 244.309Z" fill="white"/>
<mask id="mask5_2022_544" style="mask-type:luminance" maskUnits="userSpaceOnUse" x="85" y="244" width="23" height="64">
<path fill-rule="evenodd" clip-rule="evenodd" d="M89.657 244.309C92.7241 243.679 95.7211 245.654 96.3511 248.721L107.113 301.122C107.742 304.189 105.767 307.187 102.7 307.817C99.6323 308.448 96.6353 306.472 96.0054 303.405L85.2439 251.004C84.6139 247.937 86.5898 244.939 89.657 244.309Z" fill="white"/>
</mask>
<g mask="url(#mask5_2022_544)">
<path d="M94.9195 249.016L105.681 301.417L108.546 300.828L97.7846 248.427L94.9195 249.016ZM97.4389 303.111L86.6774 250.71L83.8122 251.299L94.5737 303.7L97.4389 303.111ZM86.6774 250.71C86.21 248.434 87.6761 246.21 89.9521 245.742L89.3636 242.877C85.5053 243.67 83.0198 247.44 83.8122 251.299L86.6774 250.71ZM102.406 306.385C100.13 306.853 97.9063 305.387 97.4389 303.111L94.5737 303.7C95.3661 307.558 99.1364 310.043 102.995 309.25L102.406 306.385ZM105.681 301.417C106.148 303.693 104.682 305.917 102.406 306.385L102.995 309.25C106.853 308.457 109.339 304.687 108.546 300.828L105.681 301.417ZM97.7846 248.427C96.9922 244.569 93.222 242.084 89.3636 242.877L89.9521 245.742C92.2281 245.274 94.452 246.74 94.9195 249.016L97.7846 248.427Z" fill="#38056C"/>
</g>
<path d="M103.125 309.19C106.193 308.559 109.19 310.535 109.82 313.602L120.581 366.003C121.211 369.07 119.235 372.068 116.168 372.698C113.101 373.328 110.104 371.353 109.474 368.286L98.7123 315.885C98.0824 312.818 100.058 309.82 103.125 309.19Z" fill="white"/>
<mask id="mask6_2022_544" style="mask-type:luminance" maskUnits="userSpaceOnUse" x="98" y="309" width="23" height="64">
<path fill-rule="evenodd" clip-rule="evenodd" d="M103.127 309.19C106.194 308.559 109.191 310.535 109.821 313.602L120.582 366.003C121.212 369.07 119.236 372.068 116.169 372.698C113.102 373.328 110.105 371.353 109.475 368.286L98.7136 315.885C98.0836 312.818 100.059 309.82 103.127 309.19Z" fill="white"/>
</mask>
<g mask="url(#mask6_2022_544)">
<path d="M108.388 313.897L119.15 366.298L122.015 365.709L111.253 313.309L108.388 313.897ZM110.908 367.992L100.146 315.591L97.281 316.18L108.042 368.581L110.908 367.992ZM100.146 315.591C99.6787 313.315 101.145 311.091 103.421 310.623L102.832 307.758C98.974 308.551 96.4886 312.322 97.281 316.18L100.146 315.591ZM115.875 371.266C113.599 371.734 111.375 370.268 110.908 367.992L108.042 368.581C108.835 372.439 112.605 374.924 116.463 374.131L115.875 371.266ZM119.15 366.298C119.617 368.574 118.151 370.798 115.875 371.266L116.463 374.131C120.322 373.338 122.807 369.568 122.015 365.709L119.15 366.298ZM111.253 313.309C110.461 309.45 106.691 306.965 102.832 307.758L103.421 310.623C105.697 310.155 107.921 311.621 108.388 313.897L111.253 313.309Z" fill="#38056C"/>
</g>
<mask id="mask7_2022_544" style="mask-type:luminance" maskUnits="userSpaceOnUse" x="91" y="50" width="401" height="652">
<path fill-rule="evenodd" clip-rule="evenodd" d="M92.0335 139.968C87.9144 120.237 100.57 100.903 120.301 96.7838L158.589 88.7911C163.307 87.8062 167.931 90.8324 168.915 95.5504C170.59 103.571 178.449 108.716 186.47 107.041L274.441 88.677C282.888 86.9136 288.331 78.6666 286.631 70.2065C285.62 65.1767 288.901 60.2867 293.938 59.3141L336.492 51.099C356.072 47.3192 375.061 59.9549 379.136 79.4756L490.358 612.251C494.477 631.981 481.821 651.316 462.09 655.435L246.328 700.476C226.597 704.594 207.263 691.938 203.144 672.208L92.0335 139.968Z" fill="white"/>
</mask>
<g mask="url(#mask7_2022_544)">
<path d="M377.703 79.7738L488.925 612.549L491.788 611.951L380.567 79.1761L377.703 79.7738ZM461.79 654.002L246.028 699.043L246.625 701.907L462.388 656.866L461.79 654.002ZM204.574 671.908L93.464 139.668L90.6007 140.266L201.711 672.506L204.574 671.908ZM120.599 98.2147L158.887 90.2219L158.289 87.3587L120.001 95.3514L120.599 98.2147ZM294.215 60.7494L336.768 52.5344L336.214 49.6624L293.66 57.8773L294.215 60.7494ZM186.767 108.472L274.738 90.1079L274.141 87.2446L186.17 105.609L186.767 108.472ZM167.483 95.8485C169.322 104.66 177.956 110.312 186.767 108.472L186.17 105.609C178.94 107.118 171.855 102.481 170.346 95.2508L167.483 95.8485ZM293.66 57.8773C287.825 59.0038 284.025 64.6678 285.196 70.4939L288.064 69.9178C287.213 65.684 289.974 61.5679 294.215 60.7494L293.66 57.8773ZM158.887 90.2219C162.814 89.4021 166.663 91.9213 167.483 95.8485L170.346 95.2508C169.196 89.7421 163.798 86.2087 158.289 87.3587L158.887 90.2219ZM285.196 70.4939C286.737 78.1662 281.801 85.6454 274.141 87.2446L274.738 90.1079C283.972 88.1804 289.922 79.1655 288.064 69.9178L285.196 70.4939ZM246.028 699.043C227.087 702.997 208.528 690.848 204.574 671.908L201.711 672.506C205.995 693.027 226.104 706.191 246.625 701.907L246.028 699.043ZM488.925 612.549C492.879 631.489 480.73 650.049 461.79 654.002L462.388 656.866C482.909 652.582 496.073 632.473 491.788 611.951L488.925 612.549ZM380.567 79.1761C376.328 58.8731 356.578 45.731 336.214 49.6624L336.768 52.5344C355.563 48.906 373.792 61.0354 377.703 79.7738L380.567 79.1761ZM93.464 139.668C89.5101 120.728 101.659 102.169 120.599 98.2147L120.001 95.3514C99.4797 99.6354 86.3166 119.744 90.6007 140.266L93.464 139.668Z" fill="#38056C"/>
</g>
<path d="M239.018 354.388L239.155 354.242L239.05 354.07C236.009 349.107 230.3 340.179 230.349 333.865C235.931 313.23 259.598 293.277 284.283 289.864C302.371 287.642 318.114 293.71 326.679 304.575L326.784 304.713L326.95 304.665C329.521 303.893 332.183 303.332 334.915 302.997C353.73 300.683 369.186 310.1 372.074 324.502L372.115 324.705L372.321 324.71C389.608 325.054 402.94 338.389 402.809 356.659L402.778 361.07C402.646 380.462 387.335 398.276 368.094 401.427L264.089 418.449C243.737 421.778 226.93 407.482 227.071 386.972L227.102 382.562C227.176 372.003 231.75 361.904 239.012 354.39L239.018 354.388Z" fill="#38056C"/>
<path d="M239.018 354.388L239.385 355.383L239.62 355.297L239.792 355.114L239.018 354.388ZM239.154 354.242L239.928 354.968L240.479 354.381L240.062 353.692L239.154 354.242ZM239.05 354.07L239.957 353.52L239.955 353.515L239.05 354.07ZM230.349 333.865L229.324 333.588L229.289 333.72L229.288 333.857L230.349 333.865ZM284.283 289.864L284.153 288.811L284.145 288.812L284.137 288.813L284.283 289.864ZM326.678 304.575L327.522 303.932L327.517 303.925L327.512 303.918L326.678 304.575ZM326.783 304.713L325.94 305.357L326.38 305.933L327.076 305.733L326.783 304.713ZM326.949 304.666L327.242 305.686L327.248 305.684L327.255 305.682L326.949 304.666ZM372.073 324.503L371.033 324.711L371.033 324.712L372.073 324.503ZM372.114 324.705L371.074 324.915L371.241 325.743L372.085 325.766L372.114 324.705ZM372.32 324.711L372.291 325.771L372.299 325.772L372.32 324.711ZM239.012 354.39L238.644 353.394L238.417 353.478L238.248 353.653L239.012 354.39ZM239.792 355.114L239.928 354.968L238.38 353.516L238.244 353.662L239.792 355.114ZM240.062 353.692L239.957 353.52L238.142 354.62L238.247 354.792L240.062 353.692ZM239.955 353.515C238.424 351.018 236.266 347.592 234.491 344.004C232.701 340.383 231.387 336.765 231.41 333.874L229.288 333.857C229.261 337.28 230.777 341.282 232.589 344.945C234.416 348.64 236.634 352.16 238.145 354.625L239.955 353.515ZM231.373 334.142C234.092 324.091 241.248 314.119 250.827 306.226C260.398 298.337 272.308 292.591 284.428 290.916L284.137 288.813C271.572 290.55 259.305 296.488 249.477 304.588C239.655 312.682 232.187 323.005 229.324 333.588L231.373 334.142ZM284.412 290.918C302.211 288.731 317.555 294.716 325.845 305.232L327.512 303.918C318.671 292.704 302.53 286.553 284.153 288.811L284.412 290.918ZM325.835 305.219L325.94 305.357L327.627 304.069L327.522 303.932L325.835 305.219ZM327.076 305.733L327.242 305.686L326.657 303.646L326.491 303.693L327.076 305.733ZM327.255 305.682C329.768 304.927 332.371 304.379 335.043 304.051L334.785 301.944C331.994 302.287 329.273 302.86 326.644 303.649L327.255 305.682ZM335.043 304.051C353.497 301.781 368.288 311.022 371.033 324.711L373.114 324.294C370.083 309.179 353.963 299.586 334.785 301.944L335.043 304.051ZM371.033 324.712L371.074 324.915L373.154 324.495L373.114 324.293L371.033 324.712ZM372.085 325.766L372.291 325.771L372.349 323.65L372.143 323.644L372.085 325.766ZM372.299 325.772C389 326.104 401.874 338.957 401.747 356.652L403.87 356.667C404.005 337.822 390.215 324.005 372.341 323.65L372.299 325.772ZM401.747 356.652L401.716 361.062L403.839 361.077L403.87 356.667L401.747 356.652ZM401.716 361.062C401.588 379.933 386.657 397.312 367.922 400.38L368.265 402.474C388.012 399.241 403.703 380.991 403.839 361.077L401.716 361.062ZM367.922 400.38L263.917 417.402L264.26 419.496L368.265 402.474L367.922 400.38ZM263.917 417.402C244.208 420.626 227.995 406.826 228.131 386.98L226.009 386.965C225.864 408.139 243.266 422.931 264.26 419.496L263.917 417.402ZM228.131 386.98L228.162 382.569L226.04 382.554L226.009 386.965L228.131 386.98ZM228.162 382.569C228.234 372.312 232.681 362.467 239.775 355.127L238.248 353.653C230.818 361.341 226.116 371.695 226.04 382.554L228.162 382.569ZM239.379 355.386L239.385 355.383L238.65 353.392L238.644 353.394L239.379 355.386Z" fill="#38056C"/>
<path d="M239.018 354.388L239.385 355.383L239.62 355.297L239.792 355.114L239.018 354.388ZM239.154 354.242L239.928 354.968L240.479 354.381L240.062 353.692L239.154 354.242ZM239.05 354.07L239.957 353.52L239.955 353.515L239.05 354.07ZM230.349 333.865L229.324 333.588L229.289 333.72L229.288 333.857L230.349 333.865ZM284.283 289.864L284.153 288.811L284.145 288.812L284.137 288.813L284.283 289.864ZM326.678 304.575L327.522 303.932L327.517 303.925L327.512 303.918L326.678 304.575ZM326.783 304.713L325.94 305.357L326.38 305.933L327.076 305.733L326.783 304.713ZM326.949 304.666L327.242 305.686L327.248 305.684L327.255 305.682L326.949 304.666ZM372.073 324.503L371.033 324.711L371.033 324.712L372.073 324.503ZM372.114 324.705L371.074 324.915L371.241 325.743L372.085 325.766L372.114 324.705ZM372.32 324.711L372.291 325.771L372.299 325.772L372.32 324.711ZM239.012 354.39L238.644 353.394L238.417 353.478L238.248 353.653L239.012 354.39ZM239.792 355.114L239.928 354.968L238.38 353.516L238.244 353.662L239.792 355.114ZM240.062 353.692L239.957 353.52L238.142 354.62L238.247 354.792L240.062 353.692ZM239.955 353.515C238.424 351.018 236.266 347.592 234.491 344.004C232.701 340.383 231.387 336.765 231.41 333.874L229.288 333.857C229.261 337.28 230.777 341.282 232.589 344.945C234.416 348.64 236.634 352.16 238.145 354.625L239.955 353.515ZM231.373 334.142C234.092 324.091 241.248 314.119 250.827 306.226C260.398 298.337 272.308 292.591 284.428 290.916L284.137 288.813C271.572 290.55 259.305 296.488 249.477 304.588C239.655 312.682 232.187 323.005 229.324 333.588L231.373 334.142ZM284.412 290.918C302.211 288.731 317.555 294.716 325.845 305.232L327.512 303.918C318.671 292.704 302.53 286.553 284.153 288.811L284.412 290.918ZM325.835 305.219L325.94 305.357L327.627 304.069L327.522 303.932L325.835 305.219ZM327.076 305.733L327.242 305.686L326.657 303.646L326.491 303.693L327.076 305.733ZM327.255 305.682C329.768 304.927 332.371 304.379 335.043 304.051L334.785 301.944C331.994 302.287 329.273 302.86 326.644 303.649L327.255 305.682ZM335.043 304.051C353.497 301.781 368.288 311.022 371.033 324.711L373.114 324.294C370.083 309.179 353.963 299.586 334.785 301.944L335.043 304.051ZM371.033 324.712L371.074 324.915L373.154 324.495L373.114 324.293L371.033 324.712ZM372.085 325.766L372.291 325.771L372.349 323.65L372.143 323.644L372.085 325.766ZM372.299 325.772C389 326.104 401.874 338.957 401.747 356.652L403.87 356.667C404.005 337.822 390.215 324.005 372.341 323.65L372.299 325.772ZM401.747 356.652L401.716 361.062L403.839 361.077L403.87 356.667L401.747 356.652ZM401.716 361.062C401.588 379.933 386.657 397.312 367.922 400.38L368.265 402.474C388.012 399.241 403.703 380.991 403.839 361.077L401.716 361.062ZM367.922 400.38L263.917 417.402L264.26 419.496L368.265 402.474L367.922 400.38ZM263.917 417.402C244.208 420.626 227.995 406.826 228.131 386.98L226.009 386.965C225.864 408.139 243.266 422.931 264.26 419.496L263.917 417.402ZM228.131 386.98L228.162 382.569L226.04 382.554L226.009 386.965L228.131 386.98ZM228.162 382.569C228.234 372.312 232.681 362.467 239.775 355.127L238.248 353.653C230.818 361.341 226.116 371.695 226.04 382.554L228.162 382.569ZM239.379 355.386L239.385 355.383L238.65 353.392L238.644 353.394L239.379 355.386Z" fill="#38056C"/>
<path d="M336.244 302.805L321.42 315.381L333.794 313.446L345.711 302.996L338.908 302.746L336.246 302.811L336.244 302.805Z" fill="#CCC8FF"/>
<path d="M231.731 363.605L231.87 363.465L231.768 363.299C228.823 358.396 227.198 352.72 227.238 346.511C227.396 323.873 249.703 302.723 277.148 299.345C295.242 297.12 310.987 303.194 319.546 314.062L319.651 314.2L319.817 314.152C322.388 313.38 325.05 312.819 327.782 312.484C345.914 310.252 360.922 318.917 364.577 332.43L364.625 332.617L364.817 332.621C381.897 333.157 395.04 346.405 394.916 364.564L394.883 368.934C394.75 388.156 379.703 405.859 360.641 409.216L257.397 427.399C236.885 431.012 219.794 416.685 219.937 395.997L219.97 391.627C220.04 381.15 224.544 371.119 231.724 363.621L231.731 363.605Z" fill="#79FF3A"/>
<path d="M231.731 363.605L230.978 362.856L230.846 362.989L230.767 363.16L231.731 363.605ZM231.87 363.465L232.622 364.213L233.211 363.621L232.774 362.909L231.87 363.465ZM231.768 363.299L230.858 363.845L230.863 363.854L231.768 363.299ZM319.545 314.062L320.389 313.418L320.384 313.411L320.379 313.405L319.545 314.062ZM319.651 314.2L318.807 314.844L319.247 315.42L319.944 315.22L319.651 314.2ZM319.817 314.152L320.11 315.172L320.116 315.17L320.122 315.168L319.817 314.152ZM364.576 332.43L365.603 332.164L365.6 332.153L364.576 332.43ZM364.624 332.617L363.597 332.883L363.799 333.661L364.602 333.678L364.624 332.617ZM364.816 332.621L364.849 331.56L364.838 331.56L364.816 332.621ZM231.723 363.621L232.49 364.355L232.612 364.227L232.687 364.066L231.723 363.621ZM232.483 364.353L232.622 364.213L231.117 362.717L230.978 362.856L232.483 364.353ZM232.774 362.909L232.672 362.743L230.863 363.854L230.965 364.021L232.774 362.909ZM232.677 362.752C229.832 358.016 228.259 352.532 228.299 346.518L226.176 346.504C226.135 352.908 227.813 358.775 230.858 363.845L232.677 362.752ZM228.299 346.518C228.452 324.566 250.194 303.731 277.277 300.398L277.018 298.292C249.211 301.714 226.339 323.18 226.176 346.504L228.299 346.518ZM277.277 300.398C295.082 298.209 310.427 304.2 318.712 314.718L320.379 313.405C311.545 302.188 295.401 296.032 277.018 298.292L277.277 300.398ZM318.702 314.706L318.807 314.844L320.494 313.555L320.389 313.418L318.702 314.706ZM319.944 315.22L320.11 315.172L319.524 313.132L319.358 313.18L319.944 315.22ZM320.122 315.168C322.635 314.414 325.238 313.865 327.911 313.537L327.652 311.431C324.861 311.773 322.14 312.346 319.511 313.136L320.122 315.168ZM327.911 313.537C345.689 311.349 360.075 319.854 363.552 332.707L365.6 332.153C361.767 317.98 346.138 309.155 327.652 311.431L327.911 313.537ZM363.549 332.697L363.597 332.883L365.652 332.35L365.603 332.164L363.549 332.697ZM364.602 333.678L364.794 333.682L364.838 331.56L364.646 331.556L364.602 333.678ZM364.783 333.681C381.281 334.199 393.974 346.968 393.854 364.556L395.976 364.571C396.105 345.843 382.511 332.114 364.849 331.56L364.783 333.681ZM393.854 364.556L393.821 368.926L395.944 368.942L395.976 364.571L393.854 364.556ZM393.821 368.926C393.692 387.631 379.019 404.902 360.456 408.171L360.824 410.262C380.386 406.816 395.807 388.682 395.944 368.942L393.821 368.926ZM360.456 408.171L257.212 426.354L257.58 428.444L360.824 410.262L360.456 408.171ZM257.212 426.354C237.344 429.853 220.859 416.02 220.998 396.004L218.875 395.989C218.728 417.348 236.425 432.171 257.58 428.444L257.212 426.354ZM220.998 396.004L221.03 391.634L218.908 391.619L218.875 395.989L220.998 396.004ZM221.03 391.634C221.099 381.457 225.477 371.678 232.49 364.355L230.957 362.887C223.61 370.559 218.98 380.844 218.908 391.619L221.03 391.634ZM232.687 364.066L232.694 364.05L230.767 363.16L230.76 363.176L232.687 364.066Z" fill="#38056C"/>
<path d="M185.344 358.729L185.486 358.581L185.382 358.409C183.624 355.543 181.207 341.735 181.234 338.088C181.234 338.088 195.681 323.217 211.589 321.262C222.075 319.976 231.185 323.494 236.134 329.772L236.247 329.914L236.419 329.864C237.906 329.417 239.452 329.091 241.032 328.896C251.933 327.558 260.839 333.008 262.505 341.3L262.548 341.508L262.76 341.512C272.746 341.708 280.442 349.407 280.368 359.966L280.349 362.529C280.272 373.742 271.411 384.056 260.285 385.871L199.827 395.762C188.069 397.688 178.363 389.426 178.444 377.579L178.464 375.016C178.507 368.908 181.147 363.072 185.353 358.719L185.344 358.729Z" fill="#38056C"/>
<path d="M185.344 358.729L184.57 358.003L186.107 359.466L185.344 358.729ZM185.486 358.581L186.25 359.318L186.817 358.73L186.394 358.031L185.486 358.581ZM185.382 358.409L186.289 357.859L186.286 357.854L185.382 358.409ZM181.234 338.088L180.473 337.348L180.176 337.654L180.173 338.08L181.234 338.088ZM236.134 329.772L235.3 330.429L235.305 330.435L236.134 329.772ZM236.247 329.914L235.419 330.577L235.862 331.13L236.543 330.933L236.247 329.914ZM236.419 329.864L236.715 330.883L236.724 330.88L236.419 329.864ZM241.032 328.896L240.903 327.842L240.901 327.843L241.032 328.896ZM262.505 341.3L261.465 341.509L261.466 341.514L262.505 341.3ZM262.548 341.508L261.509 341.722L261.681 342.556L262.531 342.569L262.548 341.508ZM262.76 341.512L262.781 340.451L262.777 340.451L262.76 341.512ZM185.353 358.719L186.127 359.445L184.59 357.981L185.353 358.719ZM186.107 359.466L186.25 359.318L184.722 357.844L184.58 357.992L186.107 359.466ZM186.394 358.031L186.289 357.859L184.474 358.959L184.579 359.131L186.394 358.031ZM186.286 357.854C185.938 357.286 185.489 356.028 185.013 354.261C184.548 352.54 184.088 350.458 183.68 348.341C182.859 344.07 182.282 339.802 182.295 338.096L180.173 338.08C180.158 340.021 180.776 344.48 181.596 348.742C182.01 350.891 182.481 353.026 182.964 354.814C183.434 356.556 183.947 358.099 184.477 358.964L186.286 357.854ZM181.234 338.088C181.995 338.827 181.995 338.827 181.995 338.827C181.995 338.827 181.995 338.827 181.995 338.827C181.995 338.827 181.996 338.827 181.996 338.826C181.998 338.825 182 338.822 182.003 338.819C182.009 338.813 182.018 338.803 182.031 338.79C182.057 338.764 182.097 338.724 182.149 338.672C182.255 338.566 182.414 338.41 182.622 338.209C183.039 337.808 183.655 337.229 184.445 336.527C186.025 335.122 188.297 333.228 191.059 331.274C196.605 327.351 204.021 323.261 211.719 322.315L211.46 320.208C203.248 321.218 195.487 325.541 189.833 329.542C186.994 331.55 184.66 333.496 183.035 334.94C182.222 335.663 181.585 336.261 181.149 336.681C180.932 336.89 180.764 337.055 180.651 337.169C180.594 337.226 180.55 337.269 180.52 337.3C180.505 337.315 180.494 337.326 180.486 337.335C180.482 337.339 180.479 337.342 180.477 337.344C180.476 337.345 180.475 337.346 180.474 337.347C180.474 337.347 180.473 337.348 180.473 337.348C180.472 337.348 180.473 337.348 181.234 338.088ZM211.719 322.315C221.915 321.064 230.627 324.5 235.3 330.429L236.967 329.115C231.744 322.488 222.234 318.887 211.46 320.208L211.719 322.315ZM235.305 330.435L235.419 330.577L237.075 329.25L236.962 329.109L235.305 330.435ZM236.543 330.933L236.715 330.883L236.123 328.845L235.951 328.895L236.543 330.933ZM236.724 330.88C238.154 330.451 239.641 330.137 241.162 329.949L240.901 327.843C239.263 328.045 237.659 328.383 236.114 328.848L236.724 330.88ZM241.161 329.949C251.7 328.656 259.942 333.929 261.465 341.509L263.546 341.091C261.736 332.087 252.166 326.46 240.903 327.842L241.161 329.949ZM261.466 341.514L261.509 341.722L263.588 341.294L263.545 341.086L261.466 341.514ZM262.531 342.569L262.743 342.573L262.777 340.451L262.565 340.447L262.531 342.569ZM262.739 342.573C272.138 342.758 279.376 349.974 279.307 359.958L281.429 359.974C281.507 348.84 273.354 340.659 262.781 340.451L262.739 342.573ZM279.307 359.958L279.287 362.521L281.41 362.537L281.429 359.974L279.307 359.958ZM279.287 362.521C279.214 373.213 270.733 383.091 260.114 384.824L260.456 386.918C272.089 385.021 281.329 374.271 281.41 362.537L279.287 362.521ZM260.114 384.824L199.656 394.715L199.998 396.809L260.456 386.918L260.114 384.824ZM199.656 394.715C188.54 396.535 179.429 388.77 179.505 377.587L177.383 377.571C177.297 390.082 187.597 398.841 199.998 396.809L199.656 394.715ZM179.505 377.587L179.525 375.024L177.402 375.008L177.383 377.571L179.505 377.587ZM179.525 375.024C179.566 369.216 182.079 363.635 186.117 359.456L184.59 357.981C180.215 362.51 177.448 368.599 177.402 375.008L179.525 375.024ZM184.58 357.992L184.57 358.003L186.117 359.455L186.127 359.445L184.58 357.992Z" fill="#38056C"/>
<path d="M246.699 329.218L237.381 337.26L241.218 339.992L251.503 330.056L248.18 329.379L246.699 329.218Z" fill="#CCC8FF"/>
<path d="M185.344 358.73L184.57 358.004L186.108 359.467L185.344 358.73ZM185.487 358.582L186.25 359.319L186.818 358.731L186.394 358.032L185.487 358.582ZM185.382 358.41L186.29 357.86L186.287 357.855L185.382 358.41ZM236.134 329.773L235.3 330.43L235.306 330.436L236.134 329.773ZM236.247 329.915L235.419 330.578L235.862 331.131L236.543 330.934L236.247 329.915ZM236.419 329.865L236.715 330.884L236.725 330.881L236.419 329.865ZM241.032 328.897L240.903 327.843L240.902 327.844L241.032 328.897ZM262.506 341.301L261.465 341.51L261.466 341.515L262.506 341.301ZM262.549 341.509L261.509 341.723L261.681 342.557L262.532 342.57L262.549 341.509ZM262.761 341.513L262.782 340.452L262.777 340.451L262.761 341.513ZM185.354 358.72L186.128 359.446L184.591 357.982L185.354 358.72ZM186.108 359.467L186.25 359.319L184.723 357.845L184.58 357.993L186.108 359.467ZM186.394 358.032L186.29 357.86L184.475 358.96L184.579 359.132L186.394 358.032ZM186.287 357.855C184.632 355.157 183.715 352.019 183.741 348.571L181.618 348.555C181.59 352.402 182.616 355.93 184.478 358.965L186.287 357.855ZM183.741 348.571C183.828 336.169 196.166 324.229 211.719 322.316L211.461 320.209C195.184 322.211 181.715 334.781 181.618 348.555L183.741 348.571ZM211.719 322.316C221.916 321.065 230.627 324.501 235.3 330.43L236.967 329.116C231.744 322.489 222.235 318.888 211.461 320.209L211.719 322.316ZM235.306 330.436L235.419 330.578L237.076 329.251L236.962 329.11L235.306 330.436ZM236.543 330.934L236.715 330.884L236.124 328.846L235.952 328.895L236.543 330.934ZM236.725 330.881C238.154 330.452 239.641 330.138 241.163 329.95L240.902 327.844C239.263 328.046 237.659 328.384 236.114 328.848L236.725 330.881ZM241.162 329.95C251.701 328.657 259.942 333.93 261.465 341.51L263.546 341.092C261.737 332.088 252.167 326.461 240.903 327.843L241.162 329.95ZM261.466 341.515L261.509 341.723L263.588 341.295L263.545 341.087L261.466 341.515ZM262.532 342.57L262.744 342.574L262.777 340.451L262.565 340.448L262.532 342.57ZM262.74 342.574C272.138 342.759 279.377 349.975 279.307 359.959L281.43 359.975C281.507 348.841 273.354 340.66 262.782 340.452L262.74 342.574ZM279.307 359.959L279.288 362.522L281.41 362.538L281.43 359.975L279.307 359.959ZM279.288 362.522C279.214 373.214 270.734 383.092 260.114 384.825L260.456 386.919C272.09 385.022 281.33 374.272 281.41 362.538L279.288 362.522ZM260.114 384.825L199.656 394.716L199.999 396.81L260.456 386.919L260.114 384.825ZM199.656 394.716C188.54 396.536 179.429 388.771 179.506 377.588L177.383 377.572C177.298 390.083 187.597 398.842 199.999 396.81L199.656 394.716ZM179.506 377.588L179.525 375.025L177.403 375.009L177.383 377.572L179.506 377.588ZM179.525 375.025C179.567 369.217 182.079 363.636 186.117 359.457L184.591 357.982C180.215 362.511 177.449 368.6 177.403 375.009L179.525 375.025ZM184.58 357.993L184.57 358.004L186.118 359.456L186.128 359.446L184.58 357.993Z" fill="#38056C"/>
<path d="M232.432 326.073L217.407 338.472L226.193 337.963L236.181 329.782L233.547 326.92L232.432 326.073Z" fill="#CCC8FF"/>
<path d="M185.344 358.729L184.57 358.003L186.107 359.466L185.344 358.729ZM185.486 358.581L186.25 359.318L186.817 358.73L186.394 358.031L185.486 358.581ZM185.382 358.409L186.289 357.859L186.286 357.854L185.382 358.409ZM181.342 338.381L180.571 337.652L180.284 337.956L180.281 338.374L181.342 338.381ZM236.134 329.772L235.3 330.429L235.305 330.435L236.134 329.772ZM236.247 329.914L235.419 330.577L235.862 331.13L236.543 330.933L236.247 329.914ZM236.419 329.864L236.715 330.883L236.724 330.88L236.419 329.864ZM241.032 328.896L240.903 327.842L240.901 327.843L241.032 328.896ZM262.505 341.3L261.465 341.509L261.466 341.514L262.505 341.3ZM262.548 341.508L261.509 341.722L261.681 342.556L262.531 342.569L262.548 341.508ZM262.76 341.512L262.781 340.451L262.777 340.451L262.76 341.512ZM185.353 358.719L186.127 359.445L184.59 357.981L185.353 358.719ZM186.107 359.466L186.25 359.318L184.722 357.844L184.58 357.992L186.107 359.466ZM186.394 358.031L186.289 357.859L184.474 358.959L184.579 359.131L186.394 358.031ZM186.286 357.854C185.938 357.286 185.496 356.046 185.03 354.309C184.576 352.616 184.13 350.573 183.736 348.493C182.942 344.299 182.392 340.1 182.403 338.388L180.281 338.374C180.268 340.315 180.858 344.697 181.651 348.887C182.05 351 182.508 353.099 182.98 354.859C183.441 356.575 183.947 358.099 184.477 358.964L186.286 357.854ZM181.342 338.381C182.113 339.11 182.113 339.11 182.113 339.11C182.113 339.11 182.113 339.11 182.113 339.11C182.113 339.11 182.114 339.109 182.115 339.109C182.116 339.107 182.118 339.105 182.121 339.102C182.127 339.095 182.136 339.086 182.149 339.072C182.175 339.046 182.214 339.005 182.267 338.951C182.371 338.844 182.529 338.684 182.736 338.48C183.149 338.07 183.761 337.48 184.546 336.764C186.116 335.332 188.374 333.401 191.122 331.412C196.64 327.415 204.027 323.257 211.718 322.315L211.46 320.208C203.241 321.215 195.504 325.617 189.877 329.693C187.051 331.739 184.731 333.723 183.116 335.196C182.308 335.933 181.675 336.543 181.243 336.971C181.027 337.185 180.86 337.353 180.747 337.469C180.691 337.527 180.648 337.572 180.618 337.602C180.603 337.618 180.592 337.63 180.584 337.638C180.58 337.642 180.577 337.645 180.575 337.648C180.574 337.649 180.573 337.65 180.572 337.651C180.572 337.651 180.571 337.652 180.571 337.652C180.571 337.652 180.571 337.652 181.342 338.381ZM211.718 322.315C221.915 321.064 230.627 324.5 235.3 330.429L236.967 329.115C231.744 322.488 222.234 318.887 211.46 320.208L211.718 322.315ZM235.305 330.435L235.419 330.577L237.075 329.25L236.962 329.109L235.305 330.435ZM236.543 330.933L236.715 330.883L236.123 328.845L235.951 328.895L236.543 330.933ZM236.724 330.88C238.154 330.451 239.641 330.137 241.162 329.949L240.901 327.843C239.263 328.045 237.659 328.383 236.114 328.848L236.724 330.88ZM241.161 329.949C251.7 328.656 259.942 333.929 261.465 341.509L263.546 341.091C261.736 332.087 252.166 326.46 240.903 327.842L241.161 329.949ZM261.466 341.514L261.509 341.722L263.588 341.294L263.545 341.086L261.466 341.514ZM262.531 342.569L262.743 342.573L262.777 340.451L262.565 340.447L262.531 342.569ZM262.739 342.573C272.138 342.758 279.376 349.974 279.307 359.958L281.429 359.974C281.507 348.84 273.354 340.659 262.781 340.451L262.739 342.573ZM279.307 359.958L279.287 362.521L281.41 362.537L281.429 359.974L279.307 359.958ZM279.287 362.521C279.214 373.213 270.733 383.091 260.114 384.824L260.456 386.918C272.089 385.021 281.329 374.271 281.41 362.537L279.287 362.521ZM260.114 384.824L199.656 394.715L199.998 396.809L260.456 386.918L260.114 384.824ZM199.656 394.715C188.54 396.535 179.429 388.77 179.505 377.587L177.383 377.571C177.297 390.082 187.597 398.841 199.998 396.809L199.656 394.715ZM179.505 377.587L179.525 375.024L177.402 375.008L177.383 377.571L179.505 377.587ZM179.525 375.024C179.566 369.216 182.079 363.635 186.117 359.456L184.59 357.981C180.215 362.51 177.448 368.599 177.402 375.008L179.525 375.024ZM184.58 357.992L184.57 358.003L186.117 359.455L186.127 359.445L184.58 357.992Z" fill="#38056C"/>
<path d="M176.115 365.481L176.251 365.335L176.147 365.163C174.448 362.329 173.51 359.051 173.534 355.466C173.626 342.378 186.529 330.123 202.444 328.166C212.929 326.88 222.032 330.394 226.98 336.673L227.093 336.814L227.265 336.764C228.753 336.317 230.292 335.994 231.872 335.798C242.369 334.508 251.027 339.526 253.138 347.307L253.188 347.499L253.382 347.509C263.246 347.819 270.841 355.466 270.766 365.964L270.75 368.5C270.671 379.618 261.968 389.86 250.943 391.801L190.933 402.37C179.078 404.46 169.211 396.183 169.295 384.234L169.311 381.698C169.352 375.639 171.957 369.837 176.113 365.495L176.115 365.481Z" fill="#CCC8FF"/>
<path d="M176.114 365.481L175.34 364.755L175.098 365.013L175.059 365.364L176.114 365.481ZM176.251 365.335L177.024 366.061L177.576 365.474L177.158 364.785L176.251 365.335ZM176.146 365.163L175.236 365.709L175.239 365.713L176.146 365.163ZM226.979 336.673L226.146 337.33L226.151 337.336L226.979 336.673ZM227.093 336.814L226.265 337.478L226.708 338.031L227.388 337.834L227.093 336.814ZM227.265 336.765L227.56 337.784L227.57 337.781L227.265 336.765ZM231.872 335.799L231.742 334.745L231.741 334.746L231.872 335.799ZM253.137 347.307L254.163 347.038L254.161 347.029L253.137 347.307ZM253.187 347.499L252.161 347.769L252.358 348.519L253.133 348.559L253.187 347.499ZM253.382 347.509L253.327 348.569L253.338 348.57L253.348 348.57L253.382 347.509ZM270.765 365.965L269.704 365.957L269.704 365.958L270.765 365.965ZM176.112 365.495L176.879 366.229L177.128 365.969L177.167 365.612L176.112 365.495ZM176.888 366.207L177.024 366.061L175.477 364.609L175.34 364.755L176.888 366.207ZM177.158 364.785L177.054 364.613L175.239 365.713L175.343 365.885L177.158 364.785ZM177.057 364.617C175.458 361.95 174.572 358.863 174.594 355.473L172.472 355.459C172.447 359.239 173.438 362.708 175.236 365.709L177.057 364.617ZM174.594 355.473C174.682 343.071 187.02 331.132 202.573 329.22L202.314 327.113C186.037 329.115 172.569 341.685 172.472 355.459L174.594 355.473ZM202.573 329.22C212.77 327.969 221.473 331.401 226.146 337.33L227.813 336.016C222.589 329.389 213.088 325.791 202.314 327.113L202.573 329.22ZM226.151 337.336L226.265 337.478L227.921 336.151L227.808 336.009L226.151 337.336ZM227.388 337.834L227.56 337.784L226.969 335.745L226.797 335.795L227.388 337.834ZM227.57 337.781C228.999 337.352 230.48 337.04 232.002 336.852L231.741 334.746C230.103 334.948 228.505 335.284 226.959 335.748L227.57 337.781ZM232.001 336.852C242.145 335.605 250.181 340.463 252.113 347.585L254.161 347.029C251.872 338.589 242.593 333.411 231.742 334.745L232.001 336.852ZM252.111 347.577L252.161 347.769L254.214 347.23L254.163 347.038L252.111 347.577ZM253.133 348.559L253.327 348.569L253.436 346.45L253.242 346.44L253.133 348.559ZM253.348 348.57C262.631 348.862 269.776 356.029 269.704 365.957L271.826 365.972C271.906 354.903 263.86 346.777 253.415 346.449L253.348 348.57ZM269.704 365.958L269.688 368.493L271.81 368.507L271.826 365.971L269.704 365.958ZM269.688 368.493C269.613 379.094 261.284 388.903 250.758 390.756L251.126 392.846C262.652 390.817 271.728 380.143 271.81 368.507L269.688 368.493ZM250.758 390.756L190.748 401.325L191.116 403.415L251.126 392.846L250.758 390.756ZM190.748 401.325C179.538 403.302 170.276 395.52 170.355 384.241L168.233 384.226C168.144 396.848 178.618 405.619 191.116 403.415L190.748 401.325ZM170.355 384.241L170.372 381.705L168.249 381.691L168.233 384.226L170.355 384.241ZM170.372 381.705C170.411 375.945 172.89 370.396 176.879 366.229L175.346 364.761C171.022 369.278 168.293 375.333 168.249 381.691L170.372 381.705ZM177.167 365.612L177.169 365.597L175.059 365.364L175.058 365.378L177.167 365.612Z" fill="#38056C"/>
<path d="M195.593 387.795L236.425 380.017C236.896 379.928 237.384 380.029 237.78 380.299C238.177 380.568 238.451 380.985 238.54 381.456C238.63 381.927 238.529 382.415 238.259 382.812C237.989 383.209 237.573 383.482 237.102 383.572L196.27 391.35C195.799 391.439 195.311 391.338 194.915 391.068C194.518 390.799 194.244 390.382 194.155 389.911C194.065 389.439 194.166 388.952 194.436 388.555C194.706 388.158 195.122 387.885 195.593 387.795Z" fill="#38056C" stroke="#CCC8FF"/>
<path d="M211.027 371.988L212.026 372.67L211.8 371.481L207.224 347.459C207.134 346.988 207.236 346.5 207.505 346.103C207.775 345.706 208.192 345.433 208.663 345.343C209.134 345.253 209.622 345.355 210.019 345.624C210.416 345.894 210.689 346.311 210.779 346.782L215.355 370.804L215.581 371.993L216.26 370.991L222.296 362.085C222.431 361.887 222.603 361.718 222.802 361.587C223.002 361.456 223.225 361.365 223.46 361.321C223.695 361.276 223.936 361.278 224.169 361.326L224.271 360.837L224.17 361.326C224.403 361.375 224.625 361.469 224.823 361.603C225.02 361.738 225.189 361.91 225.321 362.109C225.452 362.309 225.542 362.532 225.587 362.767C225.631 363.002 225.629 363.243 225.581 363.477C225.532 363.71 225.438 363.932 225.304 364.13L216.123 377.632L216.121 377.634C215.988 377.832 215.817 378.002 215.617 378.133C215.418 378.265 215.194 378.355 214.96 378.4C214.725 378.445 214.484 378.443 214.25 378.394C214.016 378.345 213.795 378.25 213.598 378.115L213.596 378.114L200.094 368.932C199.695 368.661 199.42 368.242 199.33 367.768C199.239 367.295 199.341 366.804 199.612 366.406C199.884 366.007 200.302 365.732 200.776 365.642C201.25 365.551 201.74 365.653 202.139 365.924C202.139 365.924 202.139 365.924 202.139 365.924L211.027 371.988Z" fill="#38056C" stroke="#CCC8FF"/>
<path d="M324.76 361.647C327.021 357.4 332.843 352.524 338.767 351.793C344.126 351.134 348.639 353.358 350.389 356.995L350.454 357.134L350.605 357.119C355.787 356.533 359.996 360.255 359.959 365.552C359.92 370.679 353.066 377.642 351.665 379.002L325.582 380.748C320.123 381.709 312.024 379.66 312.061 374.16C312.91 370.97 319.679 362.543 324.76 361.647Z" fill="#38056C"/>
<path d="M324.761 361.647L324.945 362.692L325.454 362.602L325.697 362.145L324.761 361.647ZM350.389 356.995L351.351 356.546L351.348 356.54L351.346 356.535L350.389 356.995ZM350.454 357.134L349.493 357.583L349.811 358.264L350.559 358.19L350.454 357.134ZM350.605 357.119L350.71 358.175L350.717 358.175L350.725 358.174L350.605 357.119ZM351.665 379.002L351.736 380.061L352.124 380.035L352.404 379.764L351.665 379.002ZM325.582 380.748L325.511 379.689L325.454 379.693L325.398 379.703L325.582 380.748ZM312.061 374.159L311.036 373.886L311.001 374.017L311 374.152L312.061 374.159ZM325.697 362.145C326.74 360.186 328.645 358.019 331.023 356.253C333.399 354.488 336.166 353.183 338.897 352.846L338.638 350.74C335.445 351.134 332.338 352.632 329.757 354.549C327.178 356.466 325.041 358.86 323.824 361.148L325.697 362.145ZM338.897 352.846C343.929 352.227 347.929 354.33 349.433 357.455L351.346 356.535C349.349 352.385 344.324 350.04 338.638 350.74L338.897 352.846ZM349.428 357.444L349.493 357.583L351.416 356.685L351.351 356.546L349.428 357.444ZM350.559 358.19L350.71 358.175L350.501 356.063L350.35 356.078L350.559 358.19ZM350.725 358.174C355.278 357.658 358.931 360.888 358.898 365.544L361.02 365.56C361.062 359.623 356.296 355.407 350.486 356.065L350.725 358.174ZM358.898 365.544C358.89 366.607 358.523 367.841 357.887 369.166C357.256 370.48 356.393 371.814 355.471 373.057C353.625 375.544 351.606 377.58 350.926 378.24L352.404 379.764C353.125 379.064 355.234 376.938 357.175 374.322C358.146 373.014 359.092 371.561 359.8 370.085C360.504 368.619 361.009 367.061 361.02 365.56L358.898 365.544ZM351.594 377.943L325.511 379.689L325.653 381.807L351.736 380.061L351.594 377.943ZM325.398 379.703C322.849 380.152 319.661 379.893 317.155 378.891C314.629 377.882 313.108 376.277 313.123 374.166L311 374.152C310.977 377.542 313.488 379.712 316.367 380.862C319.266 382.02 322.857 382.305 325.766 381.793L325.398 379.703ZM313.087 374.432C313.253 373.807 313.757 372.799 314.573 371.573C315.373 370.371 316.421 369.035 317.601 367.766C318.782 366.495 320.077 365.311 321.366 364.397C322.667 363.474 323.894 362.877 324.945 362.692L324.576 360.602C323.087 360.865 321.561 361.657 320.138 362.666C318.702 363.684 317.299 364.974 316.047 366.321C314.793 367.669 313.673 369.094 312.806 370.397C311.955 371.675 311.294 372.917 311.036 373.886L313.087 374.432Z" fill="#38056C"/>
<path d="M322.238 366.379L322.372 366.357L322.412 366.226C323.763 361.54 328.731 357.537 334.655 356.806C340.014 356.147 344.527 358.37 346.277 362.008L346.342 362.147L346.493 362.132C351.675 361.545 355.884 365.268 355.849 370.571C355.81 375.698 351.797 380.429 346.708 381.321L321.466 385.769C316.008 386.73 311.469 382.925 311.506 377.424C311.544 372.297 315.557 367.566 320.647 366.674L322.242 366.391L322.238 366.379Z" fill="#CCC8FF"/>
<path d="M322.238 366.379L322.063 365.332L320.798 365.543L321.242 366.746L322.238 366.379ZM322.372 366.357L322.547 367.403L323.193 367.296L323.386 366.669L322.372 366.357ZM322.412 366.226L323.426 366.539L323.429 366.529L323.432 366.52L322.412 366.226ZM346.277 362.008L347.239 361.559L347.236 361.553L347.233 361.548L346.277 362.008ZM346.342 362.147L345.38 362.596L345.698 363.277L346.446 363.203L346.342 362.147ZM346.493 362.132L346.597 363.188L346.605 363.187L346.612 363.187L346.493 362.132ZM355.849 370.571L356.91 370.579L356.91 370.578L355.849 370.571ZM346.708 381.321L346.525 380.276L346.524 380.276L346.708 381.321ZM311.506 377.424L310.445 377.416L310.444 377.417L311.506 377.424ZM320.647 366.674L320.83 367.719L320.832 367.719L320.647 366.674ZM322.242 366.391L322.427 367.436L323.677 367.214L323.238 366.024L322.242 366.391ZM322.412 367.426L322.547 367.403L322.197 365.31L322.063 365.332L322.412 367.426ZM323.386 366.669L323.426 366.539L321.398 365.913L321.358 366.044L323.386 366.669ZM323.432 366.52C324.645 362.311 329.206 358.548 334.785 357.859L334.525 355.752C328.256 356.526 322.881 360.768 321.393 365.932L323.432 366.52ZM334.785 357.859C339.817 357.24 343.817 359.343 345.321 362.468L347.233 361.548C345.236 357.398 340.212 355.053 334.525 355.752L334.785 357.859ZM345.316 362.457L345.38 362.596L347.304 361.698L347.239 361.559L345.316 362.457ZM346.446 363.203L346.597 363.188L346.389 361.076L346.238 361.091L346.446 363.203ZM346.612 363.187C351.165 362.671 354.818 365.9 354.788 370.564L356.91 370.578C356.949 364.636 352.185 360.42 346.374 361.078L346.612 363.187ZM354.788 370.563C354.753 375.174 351.113 379.471 346.525 380.276L346.891 382.367C352.482 381.386 356.867 376.222 356.91 370.579L354.788 370.563ZM346.524 380.276L321.282 384.724L321.65 386.814L346.892 382.366L346.524 380.276ZM321.282 384.724C316.467 385.571 312.535 382.26 312.567 377.431L310.444 377.417C310.403 383.589 315.548 387.888 321.65 386.814L321.282 384.724ZM312.567 377.432C312.602 372.821 316.242 368.524 320.83 367.719L320.463 365.629C314.873 366.609 310.487 371.773 310.445 377.416L312.567 377.432ZM320.832 367.719L322.427 367.436L322.057 365.346L320.461 365.629L320.832 367.719ZM323.238 366.024L323.233 366.012L321.242 366.746L321.246 366.758L323.238 366.024Z" fill="#38056C"/>
</svg>
