<svg width="142" height="132" viewBox="0 0 142 132" fill="none" xmlns="http://www.w3.org/2000/svg">
<path d="M83.5418 37.165C84.9589 37.3944 86.2347 38.1572 87.1075 39.297L95.4911 50.2454C95.8507 50.715 96.2821 51.1248 96.7694 51.4599L108.706 59.6684C110.178 60.6801 111.081 62.3306 111.14 64.1153L111.445 73.3455C111.474 74.218 111.706 75.0719 112.122 75.8393L116.92 84.6896C118.18 87.0144 117.65 89.9034 115.647 91.6293L110.927 95.6946C110.008 96.4864 109.369 97.5542 109.107 98.7387L107.759 104.821C107.188 107.402 104.894 109.237 102.249 109.227L92.1819 109.189C91.3089 109.186 90.4471 109.386 89.6649 109.773L81.3895 113.873C79.7894 114.666 77.908 114.651 76.3204 113.834L63.4397 107.204C62.9139 106.933 62.3486 106.747 61.7648 106.653L48.1523 104.45C46.7352 104.22 45.4594 103.458 44.5866 102.318L36.203 91.3693C35.8434 90.8998 35.412 90.4899 34.9247 90.1548L22.9877 81.9464C21.5163 80.9346 20.6131 79.2841 20.5541 77.4995L20.2488 68.2692C20.2199 67.3967 19.9883 66.5429 19.5722 65.7754L14.774 56.9251C13.5136 54.6003 14.0438 51.7113 16.0475 49.9854L20.7673 45.9201C21.6866 45.1284 22.325 44.0605 22.5874 42.8761L23.9346 36.7942C24.5065 34.2123 26.8005 32.3779 29.445 32.3878L39.5122 32.4256C40.3852 32.4289 41.247 32.2288 42.0292 31.8413L50.3046 27.7415C51.9046 26.9488 53.7861 26.9633 55.3737 27.7805L68.2544 34.4107C68.7802 34.6814 69.3455 34.8674 69.9293 34.9619L83.5418 37.165Z" fill="#38056C"/>
<mask id="mask0_0_135" style="mask-type:luminance" maskUnits="userSpaceOnUse" x="14" y="27" width="104" height="88">
<path fill-rule="evenodd" clip-rule="evenodd" d="M83.5419 37.1648C84.9591 37.3942 86.2348 38.157 87.1076 39.2968L95.4912 50.2452C95.8508 50.7147 96.2822 51.1246 96.7695 51.4597L108.707 59.6682C110.178 60.6799 111.081 62.3304 111.14 64.1151L111.445 73.3453C111.474 74.2179 111.706 75.0717 112.122 75.8392L116.92 84.6894C118.181 87.0143 117.65 89.9032 115.647 91.6291L110.927 95.6944C110.008 96.4862 109.369 97.554 109.107 98.7385L107.76 104.82C107.188 107.402 104.894 109.237 102.249 109.227L92.182 109.189C91.309 109.186 90.4473 109.386 89.665 109.773L81.3896 113.873C79.7896 114.666 77.9081 114.651 76.3205 113.834L63.4398 107.204C62.914 106.933 62.3487 106.747 61.7649 106.653L48.1524 104.449C46.7353 104.22 45.4596 103.457 44.5868 102.318L36.2031 91.3691C35.8436 90.8996 35.4122 90.4897 34.9248 90.1546L22.9878 81.9462C21.5165 80.9344 20.6132 79.2839 20.5542 77.4993L20.2489 68.269C20.2201 67.3965 19.9884 66.5427 19.5723 65.7752L14.7742 56.9249C13.5138 54.6001 14.0439 51.7111 16.0476 49.9852L20.7675 45.9199C21.6867 45.1282 22.3251 44.0603 22.5875 42.8758L23.9347 36.794C24.5067 34.2121 26.8006 32.3777 29.4452 32.3876L39.5123 32.4254C40.3853 32.4287 41.2471 32.2286 42.0294 31.8411L50.3047 27.7412C51.9048 26.9486 53.7863 26.963 55.3739 27.7803L68.2546 34.4105C68.7804 34.6812 69.3456 34.8672 69.9295 34.9617L83.5419 37.1648Z" fill="white"/>
</mask>
<g mask="url(#mask0_0_135)">
<path d="M86.2835 39.9277L94.6672 50.8761L96.3151 49.6142L87.9315 38.6658L86.2835 39.9277ZM96.1814 52.3148L108.118 60.5233L109.295 58.813L97.3575 50.6046L96.1814 52.3148ZM110.103 64.1494L110.408 73.3796L112.483 73.311L112.177 64.0807L110.103 64.1494ZM111.21 76.3337L116.008 85.184L117.832 84.1947L113.034 75.3445L111.21 76.3337ZM114.969 90.8427L110.25 94.9081L111.604 96.4807L116.324 92.4154L114.969 90.8427ZM108.094 98.514L106.746 104.596L108.773 105.045L110.12 98.9629L108.094 98.514ZM102.253 108.189L92.1859 108.151L92.1781 110.227L102.245 110.264L102.253 108.189ZM89.2042 108.843L80.9288 112.943L81.8503 114.803L90.1256 110.703L89.2042 108.843ZM76.7954 112.911L63.9147 106.281L62.9648 108.127L75.8455 114.757L76.7954 112.911ZM61.9307 105.628L48.3182 103.425L47.9866 105.474L61.5991 107.677L61.9307 105.628ZM45.4107 101.687L37.027 90.7382L35.3791 92.0001L43.7627 102.948L45.4107 101.687ZM35.5128 89.2994L23.5758 81.091L22.3997 82.8013L34.3368 91.0097L35.5128 89.2994ZM21.5914 77.4649L21.2861 68.2347L19.2116 68.3033L19.5169 77.5335L21.5914 77.4649ZM20.4846 65.2805L15.6865 56.4303L13.8618 57.4195L18.6599 66.2698L20.4846 65.2805ZM16.7249 50.7715L21.4447 46.7062L20.0901 45.1336L15.3703 49.1989L16.7249 50.7715ZM23.6007 43.1003L24.9479 37.0185L22.9214 36.5696L21.5742 42.6514L23.6007 43.1003ZM29.4412 33.4254L39.5084 33.4632L39.5162 31.3876L29.449 31.3498L29.4412 33.4254ZM42.49 32.771L50.7654 28.6712L49.844 26.8113L41.5686 30.9111L42.49 32.771ZM54.8988 28.703L67.7795 35.3332L68.7294 33.4877L55.8488 26.8575L54.8988 28.703ZM69.7636 35.9861L83.376 38.1893L83.7077 36.1403L70.0952 33.9372L69.7636 35.9861ZM67.7795 35.3332C68.4024 35.6538 69.072 35.8742 69.7636 35.9861L70.0952 33.9372C69.6191 33.8601 69.1582 33.7084 68.7294 33.4877L67.7795 35.3332ZM50.7654 28.6712C52.0701 28.0248 53.6043 28.0366 54.8988 28.703L55.8488 26.8575C53.9681 25.8894 51.7394 25.8723 49.844 26.8113L50.7654 28.6712ZM39.5084 33.4632C40.5425 33.4671 41.5633 33.2301 42.49 32.771L41.5686 30.9111C40.9307 31.2271 40.228 31.3902 39.5162 31.3876L39.5084 33.4632ZM24.9479 37.0185C25.4143 34.9131 27.2848 33.4173 29.4412 33.4254L29.449 31.3498C26.3163 31.338 23.5989 33.511 22.9214 36.5696L24.9479 37.0185ZM21.4447 46.7062C22.5336 45.7683 23.2899 44.5034 23.6007 43.1003L21.5742 42.6514C21.3603 43.6172 20.8397 44.488 20.0901 45.1336L21.4447 46.7062ZM15.6865 56.4303C14.6587 54.5346 15.091 52.1788 16.7249 50.7715L15.3703 49.1989C12.9967 51.2433 12.3687 54.6656 13.8618 57.4195L15.6865 56.4303ZM21.2861 68.2347C21.2519 67.2011 20.9775 66.1897 20.4846 65.2805L18.6599 66.2698C18.9992 66.8956 19.1881 67.5918 19.2116 68.3033L21.2861 68.2347ZM23.5758 81.091C22.376 80.266 21.6395 78.9202 21.5914 77.4649L19.5169 77.5335C19.5868 79.6476 20.6568 81.6028 22.3997 82.8013L23.5758 81.091ZM37.027 90.7382C36.6011 90.1819 36.0901 89.6964 35.5128 89.2994L34.3368 91.0097C34.7341 91.2829 35.0859 91.6172 35.3791 92.0001L37.027 90.7382ZM48.3182 103.425C47.1626 103.238 46.1224 102.616 45.4107 101.687L43.7627 102.948C44.7966 104.299 46.3078 105.202 47.9866 105.474L48.3182 103.425ZM63.9147 106.281C63.2918 105.96 62.6222 105.74 61.9307 105.628L61.5991 107.677C62.0751 107.754 62.536 107.906 62.9648 108.127L63.9147 106.281ZM80.9288 112.943C79.6241 113.589 78.09 113.578 76.7954 112.911L75.8455 114.757C77.7262 115.725 79.9549 115.742 81.8503 114.803L80.9288 112.943ZM92.1859 108.151C91.1517 108.147 90.1309 108.384 89.2042 108.843L90.1256 110.703C90.7635 110.387 91.4662 110.224 92.1781 110.227L92.1859 108.151ZM106.746 104.596C106.28 106.701 104.409 108.197 102.253 108.189L102.245 110.264C105.378 110.276 108.095 108.103 108.773 105.045L106.746 104.596ZM110.25 94.9081C109.161 95.8459 108.404 97.1109 108.094 98.514L110.12 98.9629C110.334 97.9971 110.855 97.1263 111.604 96.4807L110.25 94.9081ZM116.008 85.184C117.036 87.0797 116.603 89.4354 114.969 90.8427L116.324 92.4154C118.698 90.371 119.326 86.9487 117.832 84.1947L116.008 85.184ZM110.408 73.3796C110.442 74.4132 110.717 75.4246 111.21 76.3337L113.034 75.3445C112.695 74.7187 112.506 74.0224 112.483 73.311L110.408 73.3796ZM108.118 60.5233C109.318 61.3483 110.055 62.6941 110.103 64.1494L112.177 64.0807C112.107 61.9667 111.037 60.0115 109.295 58.813L108.118 60.5233ZM94.6672 50.8761C95.0931 51.4324 95.6041 51.9179 96.1814 52.3148L97.3575 50.6046C96.9601 50.3313 96.6083 49.9971 96.3151 49.6142L94.6672 50.8761ZM87.9315 38.6658C86.8976 37.3156 85.3864 36.412 83.7077 36.1403L83.376 38.1893C84.5316 38.3763 85.5719 38.9983 86.2835 39.9277L87.9315 38.6658Z" fill="#38056C"/>
</g>
<path d="M59.4547 92.7813L48.6675 103.568L53.3487 104.586L64.3395 94.4095L59.4547 92.7813Z" fill="white"/>
<path d="M47.8532 80.773L37.0659 91.5602L38.0836 92.7814L51.1097 80.5695L47.8532 80.773Z" fill="white"/>
<path d="M31.7742 70.7998L22.6152 80.5693L35.2343 89.1177L45.2074 79.5517L31.7742 70.7998Z" fill="white"/>
<path d="M25.064 34.2659L35.3144 24.2784L38.8442 27.9011L28.5938 37.8885L25.064 34.2659Z" fill="#38056C"/>
<path d="M101.222 105.315L112.97 93.8679L116.5 97.4906L104.751 108.937L101.222 105.315Z" fill="#38056C"/>
<path d="M93.1682 27.3812C94.5854 27.6106 95.8611 28.3733 96.7339 29.5131L105.118 40.4616C105.477 40.9311 105.909 41.341 106.396 41.6761L118.333 49.8845C119.804 50.8963 120.707 52.5468 120.766 54.3314L121.072 63.5617C121.101 64.4342 121.332 65.288 121.748 66.0555L126.547 74.9057C127.807 77.2306 127.277 80.1196 125.273 81.8454L120.553 85.9108C119.634 86.7025 118.996 87.7703 118.733 88.9548L117.386 95.0367C116.814 97.6186 114.52 99.453 111.876 99.4431L101.808 99.4053C100.935 99.402 100.074 99.6021 99.2913 99.9896L91.016 104.089C89.4159 104.882 87.5345 104.868 85.9468 104.05L73.0662 97.4202C72.5403 97.1495 71.9751 96.9635 71.3913 96.869L57.7788 94.6658C56.3616 94.4365 55.0859 93.6737 54.2131 92.5339L45.8295 81.5855C45.4699 81.1159 45.0385 80.706 44.5512 80.3709L32.6141 72.1625C31.1428 71.1508 30.2396 69.5003 30.1805 67.7156L29.8752 58.4854C29.8464 57.6128 29.6147 56.759 29.1986 55.9916L24.4005 47.1413C23.1401 44.8164 23.6702 41.9275 25.674 40.2016L30.3938 36.1363C31.313 35.3445 31.9515 34.2767 32.2139 33.0922L33.5611 27.0104C34.133 24.4284 36.427 22.5941 39.0715 22.604L49.1387 22.6418C50.0117 22.645 50.8734 22.445 51.6557 22.0574L59.9311 17.9576C61.5311 17.1649 63.4126 17.1794 65.0002 17.9966L77.8809 24.6269C78.4067 24.8975 78.972 25.0835 79.5558 25.178L93.1682 27.3812Z" fill="white"/>
<mask id="mask1_0_135" style="mask-type:luminance" maskUnits="userSpaceOnUse" x="23" y="17" width="105" height="88">
<path fill-rule="evenodd" clip-rule="evenodd" d="M93.1684 27.381C94.5855 27.6104 95.8613 28.3732 96.734 29.513L105.118 40.4614C105.477 40.9309 105.909 41.3408 106.396 41.6759L118.333 49.8844C119.804 50.8961 120.708 52.5466 120.767 54.3313L121.072 63.5615C121.101 64.434 121.332 65.2879 121.749 66.0553L126.547 74.9056C127.807 77.2304 127.277 80.1194 125.273 81.8453L120.553 85.9106C119.634 86.7024 118.996 87.7702 118.733 88.9547L117.386 95.0365C116.814 97.6185 114.52 99.4528 111.876 99.4429L101.809 99.4051C100.935 99.4018 100.074 99.6019 99.2914 99.9895L91.0161 104.089C89.416 104.882 87.5346 104.867 85.947 104.05L73.0663 97.42C72.5404 97.1494 71.9752 96.9633 71.3914 96.8689L57.7789 94.6657C56.3618 94.4363 55.086 93.6735 54.2132 92.5338L45.8296 81.5853C45.47 81.1158 45.0386 80.7059 44.5513 80.3708L32.6143 72.1624C31.1429 71.1506 30.2397 69.5001 30.1806 67.7154L29.8754 58.4852C29.8465 57.6127 29.6149 56.7589 29.1988 55.9914L24.4007 47.1411C23.1402 44.8163 23.6704 41.9273 25.6741 40.2014L30.3939 36.1361C31.3132 35.3443 31.9516 34.2765 32.214 33.092L33.5612 27.0102C34.1331 24.4283 36.4271 22.5939 39.0716 22.6038L49.1388 22.6416C50.0118 22.6449 50.8736 22.4448 51.6558 22.0573L59.9312 17.9574C61.5313 17.1647 63.4127 17.1792 65.0003 17.9965L77.881 24.6267C78.4069 24.8973 78.9721 25.0834 79.5559 25.1778L93.1684 27.381Z" fill="white"/>
</mask>
<g mask="url(#mask1_0_135)">
<path d="M95.91 30.1439L104.294 41.0923L105.942 39.8304L97.558 28.882L95.91 30.1439ZM105.808 42.531L117.745 50.7395L118.921 49.0292L106.984 40.8208L105.808 42.531ZM119.729 54.3655L120.035 63.5958L122.109 63.5272L121.804 54.2969L119.729 54.3655ZM120.836 66.5499L125.634 75.4002L127.459 74.4109L122.661 65.5607L120.836 66.5499ZM124.596 81.0589L119.876 85.1242L121.231 86.6969L125.95 82.6316L124.596 81.0589ZM117.72 88.7302L116.373 94.812L118.399 95.2609L119.746 89.1791L117.72 88.7302ZM111.879 98.4051L101.812 98.3673L101.805 100.443L111.872 100.481L111.879 98.4051ZM98.8307 99.0595L90.5553 103.159L91.4767 105.019L99.7521 100.919L98.8307 99.0595ZM86.4219 103.127L73.5412 96.4973L72.5913 98.3427L85.4719 104.973L86.4219 103.127ZM71.5571 95.8443L57.9447 93.6412L57.613 95.6901L71.2255 97.8933L71.5571 95.8443ZM55.0372 91.9028L46.6535 80.9543L45.0056 82.2162L53.3892 93.1647L55.0372 91.9028ZM45.1393 79.5156L33.2022 71.3072L32.0262 73.0175L43.9632 81.2259L45.1393 79.5156ZM31.2178 67.6811L30.9125 58.4509L28.8381 58.5195L29.1434 67.7497L31.2178 67.6811ZM30.1111 55.4967L25.3129 46.6465L23.4882 47.6357L28.2864 56.486L30.1111 55.4967ZM26.3513 40.9877L31.0712 36.9224L29.7166 35.3497L24.9967 39.4151L26.3513 40.9877ZM33.2272 33.3165L34.5744 27.2346L32.5479 26.7857L31.2007 32.8676L33.2272 33.3165ZM39.0677 23.6416L49.1348 23.6794L49.1426 21.6038L39.0755 21.566L39.0677 23.6416ZM52.1165 22.9872L60.3919 18.8874L59.4704 17.0275L51.1951 21.1273L52.1165 22.9872ZM64.5253 18.9192L77.406 25.5494L78.3559 23.7039L65.4753 17.0737L64.5253 18.9192ZM79.39 26.2023L93.0025 28.4055L93.3341 26.3565L79.7217 24.1534L79.39 26.2023ZM77.406 25.5494C78.0289 25.87 78.6985 26.0904 79.39 26.2023L79.7217 24.1534C79.2456 24.0763 78.7847 23.9246 78.3559 23.7039L77.406 25.5494ZM60.3919 18.8874C61.6966 18.241 63.2307 18.2528 64.5253 18.9192L65.4753 17.0737C63.5945 16.1056 61.3658 16.0885 59.4704 17.0275L60.3919 18.8874ZM49.1348 23.6794C50.169 23.6832 51.1898 23.4463 52.1165 22.9872L51.1951 21.1273C50.5572 21.4433 49.8545 21.6064 49.1426 21.6038L49.1348 23.6794ZM34.5744 27.2346C35.0407 25.1293 36.9113 23.6335 39.0677 23.6416L39.0755 21.566C35.9428 21.5542 33.2254 23.7272 32.5479 26.7857L34.5744 27.2346ZM31.0712 36.9224C32.1601 35.9845 32.9164 34.7196 33.2272 33.3165L31.2007 32.8676C30.9867 33.8334 30.4661 34.7041 29.7166 35.3497L31.0712 36.9224ZM25.3129 46.6465C24.2852 44.7508 24.7175 42.395 26.3513 40.9877L24.9967 39.4151C22.6232 41.4595 21.9952 44.8817 23.4882 47.6357L25.3129 46.6465ZM30.9125 58.4509C30.8784 57.4173 30.604 56.4059 30.1111 55.4967L28.2864 56.486C28.6256 57.1118 28.8145 57.808 28.8381 58.5195L30.9125 58.4509ZM33.2022 71.3072C32.0025 70.4822 31.266 69.1363 31.2178 67.6811L29.1434 67.7497C29.2133 69.8638 30.2833 71.819 32.0262 73.0175L33.2022 71.3072ZM46.6535 80.9543C46.2276 80.3981 45.7166 79.9126 45.1393 79.5156L43.9632 81.2259C44.3606 81.4991 44.7124 81.8334 45.0056 82.2162L46.6535 80.9543ZM57.9447 93.6412C56.7891 93.4541 55.7488 92.8322 55.0372 91.9028L53.3892 93.1647C54.4231 94.5149 55.9343 95.4184 57.613 95.6901L57.9447 93.6412ZM73.5412 96.4973C72.9183 96.1766 72.2487 95.9563 71.5571 95.8443L71.2255 97.8933C71.7016 97.9703 72.1625 98.122 72.5913 98.3427L73.5412 96.4973ZM90.5553 103.159C89.2506 103.806 87.7165 103.794 86.4219 103.127L85.4719 104.973C87.3526 105.941 89.5813 105.958 91.4767 105.019L90.5553 103.159ZM101.812 98.3673C100.778 98.3634 99.7573 98.6004 98.8307 99.0595L99.7521 100.919C100.39 100.603 101.093 100.44 101.805 100.443L101.812 98.3673ZM116.373 94.812C115.906 96.9174 114.036 98.4132 111.879 98.4051L111.872 100.481C115.004 100.492 117.722 98.3195 118.399 95.2609L116.373 94.812ZM119.876 85.1242C118.787 86.0621 118.031 87.3271 117.72 88.7302L119.746 89.1791C119.96 88.2132 120.481 87.3425 121.231 86.6969L119.876 85.1242ZM125.634 75.4002C126.662 77.2959 126.23 79.6516 124.596 81.0589L125.95 82.6316C128.324 80.5871 128.952 77.1649 127.459 74.4109L125.634 75.4002ZM120.035 63.5958C120.069 64.6294 120.343 65.6408 120.836 66.5499L122.661 65.5607C122.322 64.9348 122.133 64.2386 122.109 63.5272L120.035 63.5958ZM117.745 50.7395C118.945 51.5645 119.681 52.9103 119.729 54.3655L121.804 54.2969C121.734 52.1828 120.664 50.2277 118.921 49.0292L117.745 50.7395ZM104.294 41.0923C104.72 41.6485 105.231 42.1341 105.808 42.531L106.984 40.8208C106.587 40.5475 106.235 40.2133 105.942 39.8304L104.294 41.0923ZM97.558 28.882C96.5241 27.5318 95.0129 26.6282 93.3341 26.3565L93.0025 28.4055C94.1581 28.5925 95.1983 29.2145 95.91 30.1439L97.558 28.882Z" fill="#38056C"/>
</g>
<path d="M53.4902 61.5675L94.4235 51.9866L99.1278 55.7588L58.1946 65.3396L53.4902 61.5675ZM69.6402 51.3668C68.3257 50.8641 67.0478 50.115 65.8064 49.1195C64.565 48.1241 63.5397 47.0264 62.7307 45.8265C61.9543 44.6527 61.4047 43.4639 61.0818 42.2601C60.7916 41.0825 60.7319 39.952 60.9029 38.8686C61.0931 37.7612 61.5341 36.7761 62.2258 35.9135C62.9176 35.0508 63.7736 34.4182 64.794 34.0159C65.8336 33.5896 66.9597 33.3901 68.1722 33.4175C69.4174 33.4711 70.6972 33.7492 72.0117 34.252C73.3588 34.781 74.653 35.5431 75.8944 36.5386C77.1358 37.534 78.1447 38.6186 78.9211 39.7923C79.7302 40.9923 80.2798 42.1811 80.57 43.3587C80.8929 44.5625 80.9593 45.7181 80.7691 46.8255C80.5981 47.9089 80.1667 48.882 79.475 49.7447C78.7832 50.6074 77.9176 51.2518 76.878 51.6781C75.8576 52.0805 74.7248 52.2549 73.4796 52.2013C72.2671 52.1739 70.9872 51.8958 69.6402 51.3668ZM75.8428 43.2297C75.5584 41.978 74.7301 40.802 73.358 39.7018C71.9859 38.6016 70.6417 38.0356 69.3254 38.0037C68.0417 37.9981 67.0636 38.4146 66.3911 39.2534C65.7186 40.0921 65.5245 41.1373 65.809 42.3891C66.1261 43.667 66.9707 44.8561 68.3428 45.9563C69.7149 47.0565 71.0428 47.6095 72.3264 47.6151C73.6427 47.6469 74.6372 47.2435 75.3097 46.4047C75.9822 45.566 76.1599 44.5077 75.8428 43.2297ZM80.5573 83.0349C79.2429 82.5322 77.965 81.7831 76.7236 80.7877C75.4822 79.7922 74.4569 78.6945 73.6479 77.4946C72.8715 76.3208 72.3219 75.1321 71.999 73.9282C71.7088 72.7506 71.6491 71.6201 71.8201 70.5367C72.0103 69.4293 72.4513 68.4443 73.143 67.5816C73.8348 66.7189 74.6908 66.0864 75.7112 65.684C76.7508 65.2577 77.8769 65.0583 79.0894 65.0856C80.3346 65.1392 81.6144 65.4174 82.9289 65.9201C84.2759 66.4491 85.5702 67.2113 86.8116 68.2067C88.053 69.2021 89.0619 70.2867 89.8383 71.4605C90.6474 72.6604 91.197 73.8492 91.4872 75.0268C91.8101 76.2306 91.8765 77.3862 91.6863 78.4936C91.5153 79.577 91.0839 80.5501 90.3922 81.4128C89.7004 82.2755 88.8348 82.92 87.7952 83.3463C86.7748 83.7486 85.642 83.923 84.3968 83.8694C83.1842 83.8421 81.9044 83.5639 80.5573 83.0349ZM86.76 74.8978C86.4756 73.6461 85.6473 72.4701 84.2752 71.3699C82.9031 70.2697 81.5589 69.7037 80.2426 69.6718C78.9589 69.6662 77.9808 70.0828 77.3083 70.9215C76.6358 71.7602 76.4417 72.8055 76.7262 74.0572C77.0433 75.3352 77.8879 76.5242 79.26 77.6244C80.6321 78.7246 81.96 79.2776 83.2436 79.2832C84.5599 79.315 85.5544 78.9116 86.2269 78.0729C86.8994 77.2341 87.0771 76.1758 86.76 74.8978Z" fill="#38056C"/>
</svg>
