<svg width="64" height="117" viewBox="0 0 64 117" fill="none" xmlns="http://www.w3.org/2000/svg">
<path d="M40.7758 1.36796H19.5264C18.6734 1.36796 17.9118 1.90872 17.63 2.71604L1.36541 49.3086C1.02649 50.2835 1.47966 51.3574 2.41646 51.7915L12.0815 56.2813C12.786 56.6088 13.6238 56.4146 14.1113 55.8091C15.189 54.4724 17.3444 55.4092 17.1044 57.1076L12.5537 89.1226C12.4357 89.9642 12.8546 90.7868 13.6048 91.1829L23.1632 96.2248C24.0543 96.6932 25.151 96.4343 25.7375 95.6155L62.7107 43.8515C63.3276 42.9871 63.1677 41.7913 62.3375 41.1211L55.5171 35.6069C55.1591 35.3175 54.7136 35.1614 54.2528 35.1614H33.6508C31.9714 35.1614 31.0346 33.223 32.0742 31.9054L49.5307 9.8106C50.239 8.91188 50.0562 7.60569 49.1308 6.93545L41.9563 1.74496C41.6136 1.49744 41.2023 1.36415 40.7796 1.36415L40.7758 1.36796Z" fill="#38056C"/>
<path d="M40.7758 1.36792V2.00504H41.0395L41.2261 1.81864L40.7758 1.36792ZM1.3654 49.3085L0.763883 49.0986L0.763617 49.0993L1.3654 49.3085ZM2.41645 51.7914L2.68487 51.2136L2.68433 51.2134L2.41645 51.7914ZM17.1044 57.1076L17.7352 57.1973L17.7353 57.1967L17.1044 57.1076ZM12.5537 89.1226L11.9229 89.0329L11.9228 89.0341L12.5537 89.1226ZM23.1632 96.2248L22.8659 96.7883L22.8668 96.7887L23.1632 96.2248ZM25.7375 95.6155L26.2554 95.9865L26.2559 95.9858L25.7375 95.6155ZM49.5307 9.81055L50.0306 10.2055L50.0311 10.2049L49.5307 9.81055ZM41.9563 1.74493L42.3298 1.22873L42.3294 1.22843L41.9563 1.74493ZM40.7796 1.36411V0.726997H40.5159L40.3293 0.913391L40.7796 1.36411ZM40.7758 0.730804H19.5264V2.00504H40.7758V0.730804ZM19.5264 0.730804C18.4021 0.730804 17.3994 1.44324 17.0284 2.50603L18.2315 2.92598C18.4241 2.37413 18.9447 2.00504 19.5264 2.00504V0.730804ZM17.0284 2.50603L0.763883 49.0986L1.96692 49.5185L18.2315 2.92598L17.0284 2.50603ZM0.763617 49.0993C0.317571 50.3823 0.913655 51.7972 2.14857 52.3695L2.68433 51.2134C2.04564 50.9174 1.73538 50.1845 1.96719 49.5178L0.763617 49.0993ZM2.14803 52.3693L11.8131 56.859L12.3501 55.7035L2.68487 51.2136L2.14803 52.3693ZM11.8131 56.859C12.7826 57.3097 13.936 57.0427 14.6075 56.2086L13.6153 55.4091C13.3119 55.786 12.7895 55.9078 12.3501 55.7035L11.8131 56.859ZM14.6075 56.2086C15.2788 55.3759 16.6231 55.9601 16.4736 57.0185L17.7353 57.1967C18.0656 54.8583 15.0994 53.5684 13.6153 55.4091L14.6075 56.2086ZM16.4737 57.0179L11.9229 89.0329L13.1845 89.2123L17.7352 57.1973L16.4737 57.0179ZM11.9228 89.0341C11.7676 90.1402 12.3185 91.2242 13.3073 91.7462L13.9022 90.6194C13.3906 90.3493 13.1037 89.7882 13.1846 89.2111L11.9228 89.0341ZM13.3073 91.7462L22.8659 96.7883L23.4604 95.6613L13.9022 90.6194L13.3073 91.7462ZM22.8668 96.7887C24.039 97.4049 25.4835 97.0642 26.2554 95.9865L25.2195 95.2445C24.8186 95.8043 24.0696 95.9814 23.4596 95.6608L22.8668 96.7887ZM26.2559 95.9858L63.2291 44.2218L62.1922 43.4812L25.219 95.2452L26.2559 95.9858ZM63.2291 44.2218C64.0413 43.0838 63.8311 41.508 62.7377 40.6253L61.9369 41.6165C62.5039 42.0742 62.6139 42.8903 62.1922 43.4812L63.2291 44.2218ZM62.7377 40.6253L55.9177 35.1114L55.1165 36.1023L61.9369 41.6165L62.7377 40.6253ZM55.9177 35.1114C55.4452 34.7295 54.858 34.5242 54.2528 34.5242V35.7984C54.5692 35.7984 54.8731 35.9055 55.1165 36.1023L55.9177 35.1114ZM54.2528 34.5242H33.6508V35.7984H54.2528V34.5242ZM33.6508 34.5242C32.5051 34.5242 31.8636 33.2009 32.5744 32.3L31.5743 31.5104C30.2059 33.2447 31.4377 35.7984 33.6508 35.7984V34.5242ZM32.5744 32.3L50.0306 10.2055L49.0308 9.41559L31.5743 31.5104L32.5744 32.3ZM50.0311 10.2049C50.9637 9.02168 50.7229 7.30186 49.5046 6.41942L48.7571 7.45141C49.3895 7.90943 49.5144 8.80199 49.0303 9.41618L50.0311 10.2049ZM49.5046 6.41942L42.3298 1.22873L41.5829 2.26112L48.7571 7.45141L49.5046 6.41942ZM42.3294 1.22843C41.8783 0.902672 41.3366 0.726997 40.7796 0.726997V2.00122C41.0681 2.00122 41.3489 2.09212 41.5833 2.26141L42.3294 1.22843ZM40.3293 0.913391L40.3255 0.917198L41.2261 1.81864L41.2299 1.81483L40.3293 0.913391Z" fill="#38056C"/>
<path d="M41.5566 1.67625L29.3516 1.36779L39.5498 8.16531H50.1173L41.5566 1.67625Z" fill="#E5E3FF"/>
<path d="M54.8468 35.3595H40.3226L37.8511 42.3131L62.265 41.6962L54.8468 35.3595Z" fill="#E5E3FF"/>
<path d="M33.8642 8.16531L24.5571 1.36779H26.7201L36.488 8.16531H33.8604H33.8642Z" fill="#E5E3FF"/>
<path d="M40.7758 1.36788V2.005H41.4129V1.36788H40.7758ZM1.3654 49.3085L0.763883 49.0985L0.763617 49.0993L1.3654 49.3085ZM2.41645 51.7914L2.68487 51.2136L2.68433 51.2133L2.41645 51.7914ZM17.1044 57.1076L16.4737 57.0173L16.4736 57.0182L17.1044 57.1076ZM12.5499 89.2635L11.9191 89.1741L11.9189 89.1754L12.5499 89.2635ZM25.7222 95.6269L25.2031 95.2575L25.2028 95.2579L25.7222 95.6269ZM55.5171 35.6183L55.9221 35.1264L55.9214 35.1259L55.5171 35.6183ZM49.5269 9.81052L50.0268 10.2055L50.0273 10.2049L49.5269 9.81052ZM41.9525 1.74489L42.326 1.22869L42.3255 1.22839L41.9525 1.74489ZM40.7758 1.36407V0.726959H40.1387V1.36407H40.7758ZM40.7758 0.730766H19.5264V2.005H40.7758V0.730766ZM19.5264 0.730766C18.4021 0.730766 17.3994 1.4432 17.0284 2.506L18.2315 2.92594C18.4241 2.3741 18.9447 2.005 19.5264 2.005V0.730766ZM17.0284 2.506L0.763883 49.0985L1.96692 49.5185L18.2315 2.92594L17.0284 2.506ZM0.763617 49.0993C0.317571 50.3823 0.913655 51.7972 2.14857 52.3695L2.68433 51.2133C2.04564 50.9174 1.73538 50.1845 1.96719 49.5177L0.763617 49.0993ZM2.14803 52.3692L11.8131 56.859L12.3501 55.7035L2.68487 51.2136L2.14803 52.3692ZM11.8131 56.859C12.7826 57.3097 13.936 57.0427 14.6075 56.2085L13.615 55.4095C13.3116 55.7863 12.7895 55.9077 12.3501 55.7035L11.8131 56.859ZM14.6075 56.2085C15.2799 55.3722 16.6255 55.9576 16.4737 57.0173L17.7351 57.1979C18.0708 54.8531 15.098 53.5648 13.615 55.4095L14.6075 56.2085ZM16.4736 57.0182L11.9191 89.1741L13.1807 89.3528L17.7353 57.1969L16.4736 57.0182ZM11.9189 89.1754C11.7637 90.2873 12.3246 91.3808 13.3283 91.8977L13.9118 90.7649C13.3922 90.4973 13.1001 89.9305 13.1809 89.3516L11.9189 89.1754ZM13.3283 91.8977L22.8714 96.814L23.455 95.6812L13.9118 90.7649L13.3283 91.8977ZM22.8714 96.814C24.0391 97.4154 25.4783 97.0705 26.2417 95.9958L25.2028 95.2579C24.8085 95.8131 24.0619 95.9938 23.455 95.6812L22.8714 96.814ZM26.2414 95.9962L63.0851 44.2094L62.0471 43.4704L25.2031 95.2575L26.2414 95.9962ZM63.0851 44.2094C63.8933 43.0749 63.6813 41.5147 62.6089 40.6327L61.7992 41.6166C62.3567 42.0751 62.4651 42.8835 62.0471 43.4704L63.0851 44.2094ZM62.6089 40.6327L55.9221 35.1264L55.1121 36.1101L61.7992 41.6166L62.6089 40.6327ZM55.9214 35.1259C55.4455 34.7351 54.8532 34.5242 54.2414 34.5242V35.7984C54.5588 35.7984 54.8652 35.9074 55.1128 36.1107L55.9214 35.1259ZM54.2414 34.5242H33.647V35.7984H54.2414V34.5242ZM33.647 34.5242C32.5013 34.5242 31.8598 33.2009 32.5706 32.3L31.5705 31.5104C30.2021 33.2447 31.434 35.7984 33.647 35.7984V34.5242ZM32.5706 32.3L50.0268 10.2055L49.027 9.41555L31.5705 31.5104L32.5706 32.3ZM50.0273 10.2049C50.9599 9.02164 50.7191 7.30182 49.5008 6.41938L48.7533 7.45137C49.3857 7.9094 49.5106 8.80196 49.0265 9.41615L50.0273 10.2049ZM49.5008 6.41938L42.326 1.22869L41.5791 2.26108L48.7533 7.45137L49.5008 6.41938ZM42.3255 1.22839C41.8745 0.902634 41.3328 0.726959 40.7758 0.726959V2.00118C41.0643 2.00118 41.3451 2.09208 41.5795 2.26138L42.3255 1.22839ZM40.1387 1.36407V1.36788H41.4129V1.36407H40.1387Z" fill="#38056C"/>
<path d="M48.784 7.23608H29.7243C28.8713 7.23608 28.1097 7.77683 27.8279 8.58415L11.8984 54.2247C11.4414 55.5309 12.4125 56.898 13.7949 56.898H25.8552C27.0776 56.898 28.0144 57.9795 27.8431 59.1905L22.8202 94.648C22.5231 96.7387 25.2383 97.8126 26.4531 96.0837L62.9389 44.1978C63.8757 42.865 62.9236 41.0333 61.2938 41.0333H42.5425C41.1563 41.0333 40.1853 39.6624 40.6461 38.3562L50.6805 9.92081C51.1413 8.61462 50.1702 7.24369 48.784 7.24369V7.23608Z" fill="white"/>
<path d="M48.784 7.23596H49.4211V6.59885H48.784V7.23596ZM48.784 7.24358H48.1469V7.88069H48.784V7.24358ZM48.784 6.59885H29.7243V7.87307H48.784V6.59885ZM29.7243 6.59885C28.6 6.59885 27.5973 7.31128 27.2263 8.37408L28.4293 8.79401C28.622 8.24216 29.1425 7.87307 29.7243 7.87307V6.59885ZM27.2263 8.37408L11.2968 54.0146L12.4997 54.4349L28.4293 8.79401L27.2263 8.37408ZM11.2968 54.0146C10.6949 55.7351 11.9737 57.535 13.7948 57.535V56.2607C12.8512 56.2607 12.1877 55.3268 12.4997 54.4349L11.2968 54.0146ZM13.7948 57.535H25.8552V56.2607H13.7948V57.535ZM25.8552 57.535C26.689 57.535 27.3294 58.2725 27.2122 59.1011L28.4738 59.2797C28.6993 57.6864 27.4662 56.2607 25.8552 56.2607V57.535ZM27.2122 59.1011L22.1893 94.5586L23.4509 94.7375L28.4738 59.2797L27.2122 59.1011ZM22.1893 94.5586C21.7979 97.3135 25.3753 98.7256 26.9744 96.4499L25.9319 95.7171C25.1014 96.8991 23.2482 96.164 23.4509 94.7375L22.1893 94.5586ZM26.9744 96.4499L63.46 44.5642L62.4176 43.8312L25.9319 95.7171L26.9744 96.4499ZM63.46 44.5642C64.6938 42.8088 63.439 40.3961 61.2937 40.3961V41.6703C62.4081 41.6703 63.0574 42.921 62.4176 43.8312L63.46 44.5642ZM61.2937 40.3961H42.5424V41.6703H61.2937V40.3961ZM42.5424 40.3961C41.5951 40.3961 40.9325 39.459 41.2468 38.568L40.0452 38.144C39.438 39.8654 40.7175 41.6703 42.5424 41.6703V40.3961ZM41.2468 38.568L51.2812 10.1327L50.0796 9.70868L40.0452 38.144L41.2468 38.568ZM51.2812 10.1327C51.8885 8.41134 50.609 6.60647 48.784 6.60647V7.88069C49.7313 7.88069 50.394 8.81768 50.0796 9.70868L51.2812 10.1327ZM49.4211 7.24358V7.23596H48.1469V7.24358H49.4211Z" fill="#38056C"/>
<path d="M23.5326 116.539L42.2305 90.4266L41.1945 89.6847L22.4966 115.797L23.5326 116.539Z" fill="#38056C"/>
<path d="M1.98522 34.1667L11.7188 4.96206L10.51 4.55916L0.776367 33.7638L1.98522 34.1667Z" fill="#38056C"/>
</svg>
