<svg width="61" height="59" viewBox="0 0 61 59" fill="none" xmlns="http://www.w3.org/2000/svg">
<path d="M52.7338 9.05711C44.0698 0.393036 30.8267 -0.897427 20.7944 5.17741L13.8565 9.44562C11.9888 10.5446 10.2294 11.8933 8.62535 13.4974C-1.56229 23.685 -1.56229 40.2028 8.62535 50.3904C17.2894 59.0545 30.5297 60.3449 40.5647 54.2701L47.5026 49.9991C49.3703 48.9002 51.1298 47.5514 52.7338 45.9474C62.9215 35.7597 62.9215 19.242 52.7338 9.05433V9.05711Z" fill="#9A92FF"/>
<path d="M52.7334 9.05716L52.341 9.44963L53.2885 10.3971V9.05716H52.7334ZM20.7941 5.17747L20.5066 4.70269L20.5032 4.70473L20.7941 5.17747ZM13.8561 9.44567L14.1376 9.92404L14.1423 9.92128L14.147 9.91842L13.8561 9.44567ZM40.5643 54.2702L40.8518 54.745L40.8535 54.7439L40.8553 54.7428L40.5643 54.2702ZM47.5023 49.9992L47.2208 49.5208L47.216 49.5236L47.2113 49.5265L47.5023 49.9992ZM52.7334 9.05439L53.1259 8.66191L52.1784 7.71442V9.05439H52.7334ZM53.1259 8.6647C44.2768 -0.18438 30.7521 -1.50132 20.5066 4.70269L21.0815 5.65224C30.9005 -0.29343 43.8619 0.97057 52.341 9.44963L53.1259 8.6647ZM20.5032 4.70473L13.5653 8.97294L14.147 9.91842L21.0849 5.65021L20.5032 4.70473ZM13.5747 8.96731C11.667 10.0898 9.8702 11.4673 8.23249 13.105L9.01743 13.8899C10.5878 12.3195 12.3099 10.9995 14.1376 9.92404L13.5747 8.96731ZM8.23249 13.105C-2.1719 23.5094 -2.1719 40.3786 8.23249 50.7829L9.01743 49.998C-0.953455 40.0271 -0.953455 23.8608 9.01743 13.8899L8.23249 13.105ZM8.23249 50.7829C17.0816 59.632 30.6035 60.9489 40.8518 54.745L40.2769 53.7953C30.4552 59.7411 17.4965 58.4771 9.01743 49.998L8.23249 50.7829ZM40.8553 54.7428L47.7932 50.4719L47.2113 49.5265L40.2734 53.7975L40.8553 54.7428ZM47.7837 50.4776C49.6913 49.3551 51.4882 47.9776 53.1259 46.3399L52.341 45.555C50.7706 47.1253 49.0485 48.4454 47.2208 49.5208L47.7837 50.4776ZM53.1259 46.3399C63.5303 35.9355 63.5303 19.0663 53.1259 8.66191L52.341 9.44685C62.3119 19.4177 62.3119 35.5841 52.341 45.555L53.1259 46.3399ZM52.1784 9.05439V9.05716H53.2885V9.05439H52.1784Z" fill="#9A92FF"/>
<path d="M34.2872 53.5903C48.6945 53.5903 60.3738 41.9109 60.3738 27.5037C60.3738 13.0965 48.6945 1.41718 34.2872 1.41718C19.88 1.41718 8.20068 13.0965 8.20068 27.5037C8.20068 41.9109 19.88 53.5903 34.2872 53.5903Z" fill="white"/>
<path d="M59.8184 27.5038C59.8184 41.6045 48.3875 53.0354 34.2869 53.0354V54.1454C49.0006 54.1454 60.9285 42.2176 60.9285 27.5038H59.8184ZM34.2869 53.0354C20.1862 53.0354 8.75533 41.6045 8.75533 27.5038H7.64526C7.64526 42.2176 19.5731 54.1454 34.2869 54.1454V53.0354ZM8.75533 27.5038C8.75533 13.4032 20.1862 1.97232 34.2869 1.97232V0.862251C19.5731 0.862251 7.64526 12.7901 7.64526 27.5038H8.75533ZM34.2869 1.97232C48.3875 1.97232 59.8184 13.4032 59.8184 27.5038H60.9285C60.9285 12.7901 49.0006 0.862251 34.2869 0.862251V1.97232Z" fill="#9A92FF"/>
<path d="M25.5554 37.2174L44.0014 18.7714L43.0202 17.7903L24.5743 36.2362L25.5554 37.2174Z" fill="#38056C"/>
<path d="M44.0005 36.2362L25.5545 17.7903L24.5733 18.7714L43.0193 37.2174L44.0005 36.2362Z" fill="#38056C"/>
<path d="M59.8184 27.5038C59.8184 41.6045 48.3875 53.0354 34.2869 53.0354V54.1454C49.0006 54.1454 60.9285 42.2176 60.9285 27.5038H59.8184ZM34.2869 53.0354C20.1862 53.0354 8.75533 41.6045 8.75533 27.5038H7.64526C7.64526 42.2176 19.5731 54.1454 34.2869 54.1454V53.0354ZM8.75533 27.5038C8.75533 13.4032 20.1862 1.97232 34.2869 1.97232V0.862251C19.5731 0.862251 7.64526 12.7901 7.64526 27.5038H8.75533ZM34.2869 1.97232C48.3875 1.97232 59.8184 13.4032 59.8184 27.5038H60.9285C60.9285 12.7901 49.0006 0.862251 34.2869 0.862251V1.97232Z" fill="white"/>
</svg>
